<svg width="24" height="24" viewBox="0 0 24 24" fill="none" xmlns="http://www.w3.org/2000/svg">
<path d="M8.86094 18.104C8.86094 18.1867 8.76582 18.2529 8.64589 18.2529C8.50941 18.2653 8.41429 18.1991 8.41429 18.104C8.41429 18.0213 8.50941 17.9551 8.62934 17.9551C8.75341 17.9427 8.86094 18.0089 8.86094 18.104ZM7.57477 17.9179C7.54582 18.0006 7.62853 18.0957 7.7526 18.1205C7.86013 18.1619 7.98419 18.1205 8.00901 18.0378C8.03382 17.9551 7.95524 17.86 7.83118 17.8228C7.72365 17.7938 7.60372 17.8352 7.57477 17.9179ZM9.4027 17.8476C9.28277 17.8765 9.20005 17.9551 9.21246 18.0502C9.22487 18.1329 9.33239 18.1867 9.45646 18.1577C9.57639 18.1288 9.6591 18.0502 9.6467 17.9675C9.63429 17.8889 9.52263 17.8352 9.4027 17.8476ZM12.1239 2C6.38786 2 2 6.35477 2 12.0908C2 16.6772 4.88664 20.6019 9.00982 21.9832C9.53917 22.0783 9.72527 21.7516 9.72527 21.4827C9.72527 21.2263 9.71287 19.812 9.71287 18.9435C9.71287 18.9435 6.81796 19.5638 6.21003 17.7111C6.21003 17.7111 5.73857 16.5076 5.06033 16.1975C5.06033 16.1975 4.11328 15.5482 5.1265 15.5606C5.1265 15.5606 6.15626 15.6433 6.72284 16.6276C7.62853 18.2239 9.14629 17.7649 9.73768 17.4919C9.8328 16.8302 10.1016 16.3712 10.3994 16.0982C8.08758 15.8418 5.75511 15.5068 5.75511 11.5284C5.75511 10.3911 6.06942 9.82039 6.73111 9.09253C6.62358 8.82372 6.27206 7.71538 6.83863 6.28447C7.70297 6.01565 9.69219 7.40107 9.69219 7.40107C10.5193 7.16948 11.4085 7.04955 12.2893 7.04955C13.1702 7.04955 14.0594 7.16948 14.8865 7.40107C14.8865 7.40107 16.8757 6.01152 17.74 6.28447C18.3066 7.71951 17.9551 8.82372 17.8476 9.09253C18.5093 9.82453 18.9145 10.3952 18.9145 11.5284C18.9145 15.5192 16.4787 15.8377 14.1669 16.0982C14.5474 16.4249 14.8699 17.0453 14.8699 18.0171C14.8699 19.4108 14.8575 21.1354 14.8575 21.4745C14.8575 21.7433 15.0478 22.07 15.573 21.9749C19.7086 20.6019 22.5125 16.6772 22.5125 12.0908C22.5125 6.35477 17.86 2 12.1239 2ZM6.01979 16.2636C5.96603 16.305 5.97843 16.4001 6.04874 16.4787C6.11491 16.5449 6.21003 16.5738 6.26379 16.52C6.31755 16.4787 6.30514 16.3836 6.23484 16.305C6.16867 16.2388 6.07355 16.2099 6.01979 16.2636ZM5.57315 15.9287C5.5442 15.9824 5.58555 16.0486 5.66826 16.0899C5.73443 16.1313 5.81715 16.1189 5.84609 16.061C5.87504 16.0072 5.83369 15.9411 5.75098 15.8997C5.66826 15.8749 5.6021 15.8873 5.57315 15.9287ZM6.91308 17.4009C6.84691 17.4547 6.87172 17.5788 6.96684 17.6573C7.06196 17.7524 7.18189 17.7649 7.23565 17.6987C7.28941 17.6449 7.2646 17.5209 7.18189 17.4423C7.09091 17.3472 6.96684 17.3348 6.91308 17.4009ZM6.44162 16.793C6.37545 16.8343 6.37545 16.9419 6.44162 17.037C6.50779 17.1321 6.61945 17.1735 6.67321 17.1321C6.73938 17.0783 6.73938 16.9708 6.67321 16.8757C6.61531 16.7806 6.50779 16.7392 6.44162 16.793Z" fill="black"/>
</svg>
