<svg width="380" height="379" viewBox="0 0 380 379" fill="none" xmlns="http://www.w3.org/2000/svg">
<g clip-path="url(#clip0_893_3337)">
<path d="M347.688 189.733C327.178 225.964 297.206 246.76 253.933 245.72C248.992 245.588 244.063 245.374 239.132 244.987C225.703 243.924 213.492 247.282 202.077 254.107C191.122 260.641 181.04 268.323 171.226 276.339C163.605 282.588 155.622 288.286 146.648 292.49C130.103 300.21 112.772 302.399 94.9234 297.981C72.3701 292.426 58.5394 277.859 53.1627 255.527C49.2814 239.391 51.5291 223.369 54.331 207.39C54.9199 203.973 55.6474 200.566 56.4789 197.182C60.1097 182.617 61.6616 167.834 61.0075 152.798C60.5596 142.72 61.312 132.658 64.7108 123.123C71.8717 103.14 83.9959 86.7494 101.852 74.962C110.803 69.0509 121.164 66.88 131.792 66.7374C142.328 66.6069 152.718 65.3701 163.096 63.9833C190.827 60.3043 217.688 64.5308 243.912 73.6167C261.286 79.64 279.042 84.0117 296.901 88.233C309.813 91.2835 322.203 95.8017 332.761 104.218C351.128 118.862 357.939 138.164 355.955 160.897C355.076 170.983 352.208 180.549 347.676 189.698L347.688 189.733Z" fill="#FFCD49"/>
<path d="M342.407 175.495C345.071 178.616 347.723 181.761 350.375 184.906C351.33 182.674 352.169 180.386 352.927 178.086C351.752 176.675 350.588 175.24 349.39 173.816C342.433 165.449 342.387 165.484 348.211 156.165C350.711 152.137 353.444 148.281 356.188 144.459C355.75 141.082 355.059 137.81 354.149 134.632C352.799 136.439 351.45 138.246 350.077 140.042C345.535 145.997 341.827 152.535 337.772 158.787C335.562 158.015 334.662 156.279 333.499 154.902C328.439 148.934 323.735 142.652 318.296 137.044C314.74 133.339 314.974 130.408 317.163 126.255C321.413 118.145 325.71 110.058 330.054 101.994C328.001 100.553 325.915 99.2384 323.761 98.063C322.541 100.308 321.263 102.553 320.043 104.797C316.441 111.415 312.942 118.056 309.351 124.766C308.54 124.367 307.859 124.233 307.487 123.82C299.008 113.985 291.023 103.79 283.325 93.3618C281.671 91.1108 282.133 89.3551 283.411 87.2255C283.787 86.5774 284.164 85.9293 284.564 85.2926C278.067 83.7042 271.616 82.0232 265.199 80.2152C266.877 82.7082 268.568 85.2357 270.257 87.7056C271.458 89.4748 272.427 91.0724 271.148 93.2596C265.386 103.097 259.739 112.991 254.023 122.851C253.875 123.151 253.333 123.258 253.011 123.445C251.727 123.072 251.039 122.014 250.283 121.039C241.74 110.281 233.484 99.2916 225.677 87.9765C222.961 84.0247 223.007 83.9898 225.982 80.1088C228.488 76.8302 231.005 73.5285 233.534 70.2613C230.943 69.5036 228.354 68.8036 225.764 68.1613C224.379 69.9224 222.995 71.6836 221.633 73.4561C220.775 74.5568 220.196 75.9673 218.478 76.2425C216.487 75.3199 215.838 73.2476 214.742 71.5586C213.354 69.4099 211.989 67.2149 210.648 65.0313C207.54 64.5073 204.409 64.0872 201.268 63.748C204.747 69.7713 208.364 75.6324 212.176 81.3309C213.412 83.2037 213.086 84.5666 211.793 86.258C202.754 98.0748 193.774 109.949 184.886 121.869C182.975 124.406 181.681 124.056 179.658 121.853C172.985 114.603 166.427 107.236 160.11 99.6723C158.667 97.9276 157.931 96.5594 159.717 94.3922C168.177 84.1011 176.208 73.5127 184.065 62.7523C180.88 62.7363 177.661 62.8473 174.465 63.0273C172.647 65.5522 170.806 68.0657 168.929 70.5333C163.895 77.1367 159.059 83.9235 152.721 90.6037C147.632 83.817 142.893 77.4319 138.119 71.0585C136.849 69.3704 137.695 68.0622 138.701 66.6608C138.712 66.6377 138.735 66.5914 138.746 66.5683C136.589 66.6846 134.409 66.7896 132.239 66.8137C130.185 66.8372 128.132 66.976 126.079 67.1725C126.923 69.1975 126.449 70.8611 124.755 72.9009C114.68 85.0697 103.42 96.0229 90.881 105.657C87.8613 107.993 87.7228 107.982 85.1612 104.595C83.1471 101.965 81.2135 99.2892 79.2913 96.59C77.7012 98.7099 76.2038 100.875 74.7993 103.144C76.0458 104.878 77.3153 106.624 78.5963 108.347C81.8454 112.734 81.8572 112.768 77.8046 115.975C73.2468 119.565 68.6308 123.099 64.0381 126.643C63.079 129.936 62.432 133.296 61.993 136.701C62.5674 136.294 63.1185 135.875 63.6697 135.457C69.7331 130.912 75.7733 126.356 81.8366 121.811C86.4415 118.358 86.4533 118.393 90.0813 122.478C94.3254 127.24 98.5696 132.001 102.814 136.763C106.244 140.607 106.337 140.71 102.769 143.926C93.9469 151.854 85.078 159.703 76.1628 167.528C71.8027 171.36 71.7678 171.314 67.4231 167.049C65.4364 165.065 63.4611 163.058 61.5317 161.016C61.508 164.396 61.3572 167.741 61.1255 171.076C61.9041 171.89 62.6714 172.728 63.4501 173.542C64.7864 174.918 66.3407 176.086 64.0798 177.99C62.714 179.129 61.3486 180.324 59.9828 181.463C59.4531 185.11 58.8081 188.759 58.0012 192.385C61.5364 189.469 65.0716 186.554 68.5138 183.535C70.6251 181.701 72.114 181.715 74.2507 183.686C86.5721 195.183 99.4778 206.019 113.196 215.846C115.446 217.471 116.333 219 114.982 220.634C108.902 229.654 103.314 237.91 97.7834 246.223C96.3323 248.411 95.0606 248.073 93.3882 246.502C79.7429 233.779 66.3732 220.847 54.9991 206.024C54.9099 206.497 54.7976 206.959 54.7429 207.421C54.2424 210.249 53.7765 213.066 53.3682 215.883C63.9332 228.785 75.9093 240.399 88.1719 251.723C91.7136 254.989 91.7257 255.081 88.9719 259.215C83.03 268.13 77.0766 277.069 71.1347 285.984C72.6901 287.325 74.3488 288.572 76.0993 289.75C82.0306 280.973 87.9505 272.219 93.905 263.454C96.5336 259.575 96.6839 259.62 100.306 262.782C111.624 272.693 122.828 282.72 134.238 292.503C135.596 293.66 136.942 294.84 138.3 295.997C140.718 295.176 143.113 294.227 145.495 293.187C131.6 281.088 118.106 268.584 104.28 256.404C102.318 254.662 100.784 253.16 102.854 250.3C108.686 242.192 114.39 233.993 119.886 225.634C121.839 222.658 123.552 223.271 125.894 224.884C135.517 231.575 145.301 238.058 155.45 243.973C164.348 249.158 173.177 254.423 182.03 259.7C185.946 262.03 186.862 262.625 186.036 265.178C189.505 262.632 193.031 260.201 196.628 257.862C196.946 255.404 199.008 253.027 200.008 250.646C202.302 245.05 204.538 239.397 207.655 234.408C209.491 234.536 210.34 235.5 211.337 236.22C215.571 239.425 219.805 242.63 224.039 245.835C227.174 245.251 230.38 244.933 233.657 244.879C230.015 242.052 226.372 239.224 222.718 236.362C219.643 233.958 216.66 231.426 213.54 229.057C211.661 227.614 211.086 226.153 212.19 223.851C218.04 211.499 223.739 199.045 229.588 186.693C231.091 183.524 231.691 183.474 234.558 186.006C245.332 195.563 256.014 205.247 266.845 214.745C268.911 216.567 269.314 218.144 268.291 220.572C265.667 226.781 263.216 233.047 260.684 239.301C259.832 241.44 258.97 243.602 258.141 245.752C260.542 245.726 262.907 245.655 265.226 245.503C267.918 238.982 270.609 232.462 273.301 225.941C273.756 224.843 274.105 223.607 275.405 223.011C277.395 223.703 278.767 225.24 280.322 226.581C285.197 230.762 290.072 234.943 294.982 239.055C297.019 238.248 299.021 237.394 300.977 236.46C294.048 230.549 287.348 224.348 280.406 218.403C278.143 216.455 277.808 214.681 279.014 211.998C282.789 203.626 286.334 195.14 289.994 186.71C290.483 185.6 290.844 184.399 292.028 183.631C294.178 184.172 295.183 186.104 296.566 187.56C302.912 194.305 309.029 201.282 315.559 207.83C318.952 211.224 320.254 214.48 319.074 219.274C318.535 221.48 318.192 223.696 317.919 225.947C322.304 222.53 326.445 218.735 330.318 214.491C328.029 212.244 327.622 209.916 328.455 206.878C331.103 197.232 333.809 187.586 337.312 178.189C337.925 176.536 338.201 174.631 339.879 173.618C341.092 173.784 341.675 174.703 342.338 175.461L342.407 175.495ZM190.996 126.112C199.107 115.362 207.23 104.588 215.422 93.9067C218.019 90.5007 218.273 90.5108 220.615 93.8188C229.038 105.753 237.829 117.409 246.987 128.785C248.303 130.438 249.363 131.909 248.097 134.246C241.678 146.059 235.387 157.963 229.129 169.741C226.97 169.627 226.071 168.063 224.91 166.974C213.494 156.268 202.285 145.377 191.43 134.114C187.816 130.352 187.804 130.317 190.996 126.112ZM180.255 140.511C183.171 136.515 183.252 136.526 186.528 139.748C198.458 151.397 210.331 163.103 222.295 174.683C224.224 176.551 225.468 177.997 224.08 180.935C218.025 193.646 212.19 206.493 206.273 219.272C206.011 219.804 205.587 220.257 205.062 221.033C203.375 220.835 202.435 219.998 201.495 219.219C186.548 206.919 171.865 194.318 157.698 181.137C153.552 177.285 153.575 177.239 156.868 172.71C164.656 161.973 172.455 151.213 180.29 140.499L180.255 140.511ZM109.227 132.735C104.539 127.296 99.7031 121.984 94.9013 116.66C93.2737 114.882 92.722 113.489 95.0763 111.746C108.444 101.887 120.116 90.2744 130.706 77.5258C131.061 77.097 131.717 76.8741 132.534 76.3849C137.156 82.4247 141.673 88.442 146.352 94.3661C148.11 96.5819 147.011 97.9377 145.579 99.6184C138.056 108.474 130.219 117.031 122.068 125.291C119.65 127.75 117.138 130.163 114.754 132.668C112.875 134.675 111.285 135.099 109.238 132.712L109.227 132.735ZM141.532 181.542C135.566 190.331 129.338 199.651 122.983 208.881C120.879 211.926 120.395 211.975 116.556 209.137C105.77 201.242 95.4425 192.767 85.4696 183.863C84.2506 182.775 83.0429 181.663 81.8121 180.54C76.9705 176.174 76.9959 176.531 81.7124 172.502C87.9207 167.195 94.071 161.83 100.198 156.455C103.124 153.9 106.004 151.323 108.755 148.597C110.842 146.52 112.298 146.777 114.32 148.864C123.221 157.958 132.248 166.971 141.321 175.892C143.087 177.623 143.72 179.142 141.52 181.507L141.532 181.542ZM145.19 169.376C136.847 160.843 128.377 152.392 119.862 144.034C117.596 141.798 117.62 140.172 119.902 137.99C130.682 127.662 140.846 116.716 150.523 105.356C152.389 103.143 153.499 103.401 155.289 105.433C161.907 113.029 168.696 120.51 175.371 128.048C176.697 129.563 178.657 131.074 176.121 133.246C167.579 145.106 158.968 157.047 150.427 169.022C148.689 171.443 147.363 171.624 145.155 169.388L145.19 169.376ZM185.269 253.938C177.482 249.3 169.73 244.594 162.092 239.713C151.51 232.924 141.054 225.995 130.575 219.055C126.495 216.357 126.528 216.23 129.066 212.536C134.873 204.129 140.645 195.733 146.51 187.384C149.071 183.759 149.474 183.699 152.598 186.587C167.555 200.444 182.867 213.872 198.912 226.454C201.464 228.458 201.533 230.188 200.362 232.743C198.723 236.248 197.259 239.866 195.736 243.427C195.805 243.461 195.875 243.496 195.944 243.53C194.589 246.283 193.245 249.013 191.89 251.765C189.659 256.415 189.602 256.531 185.269 253.938ZM276.418 99.5609C276.555 99.2833 277.062 99.1881 277.384 99.0017C278.319 99.0309 278.82 99.7084 279.298 100.375C286.925 110.595 294.851 120.56 303.155 130.223C304.586 131.876 305.461 133.37 304.403 135.694C299.683 146.102 295.113 156.555 290.439 166.985C290.28 167.309 289.82 167.485 289.498 167.729C287.753 167.301 286.9 165.818 285.876 164.567C277.639 154.592 269.413 144.594 261.141 134.631C259.5 132.645 258.174 130.958 259.851 128.134C265.489 118.666 270.896 109.085 276.418 99.5609ZM269.375 208.26C258.913 198.656 248.565 188.935 238.023 179.435C235.387 177.075 234.993 175.128 236.67 172.073C242.131 162.03 247.314 151.85 252.636 141.739C253.069 140.86 253.443 139.866 254.653 139.571C256.641 140.032 257.404 141.873 258.532 143.262C266.747 153.283 274.767 163.467 283.543 172.988C285.74 175.363 286.446 177.377 285.013 180.581C280.715 190.248 276.788 200.097 272.881 209.554C270.866 210.373 270.211 209.016 269.386 208.237L269.375 208.26ZM321.123 204.533C312.693 195.067 304.797 186.209 296.879 177.34C295.67 175.997 295.325 174.535 296.099 172.846C300.909 162.08 305.685 151.326 310.302 141.012C311.879 140.437 312.425 141.022 312.983 141.642C319.322 148.929 325.637 156.204 331.998 163.445C333.44 165.075 334.396 166.58 333.292 168.881C328.341 179.233 325.517 190.287 322.694 201.341C322.503 202.08 322 202.752 321.134 204.51L321.123 204.533Z" fill="#FC3060"/>
</g>
<defs>
<clipPath id="clip0_893_3337">
<rect width="284" height="282" fill="white" transform="translate(124.539) rotate(26.2077)"/>
</clipPath>
</defs>
</svg>
