<svg width="89" height="68" viewBox="0 0 89 68" fill="none" xmlns="http://www.w3.org/2000/svg">
<g clip-path="url(#clip0_893_3326)">
<path d="M56.9834 40.2909C54.5766 40.3399 52.413 39.6545 50.6627 37.99C48.961 36.3989 48.0615 34.4162 48.961 32.1152C50.0549 29.3492 51.7567 26.9014 54.1148 25.09C57.2265 22.6667 61.9184 23.2787 64.5682 26.216C67.2909 29.2268 67.3152 34.0735 64.5196 37.0598C62.5018 39.2384 59.9249 40.2175 56.9834 40.3154V40.2909Z" fill="#171717"/>
<path d="M63.0609 16.5959C59.2199 16.4245 56.6673 13.7075 56.7645 9.81546C56.8131 8.12648 57.2264 6.51093 57.9557 4.99329C59.3657 2.05592 62.9636 -0.587704 65.5649 0.0976815C68.7981 0.954413 71.6424 2.76579 73.101 6.07032C73.5872 7.17183 73.49 8.3223 73.1497 9.44829C72.0314 13.0466 66.829 16.7427 63.0609 16.5959Z" fill="#FC3060"/>
<path d="M28.9293 48.4419C24.4805 48.5153 21.15 45.529 20.9798 41.3433C20.8096 37.0351 24.4805 32.4333 28.2 32.3109C32.9405 32.1395 37.3406 36.2274 37.3406 40.8047C37.3406 45.0394 33.6698 48.3929 28.9293 48.4664V48.4419Z" fill="#171717"/>
<path d="M46.8216 14.3196C46.8216 18.7746 43.4425 22.2995 39.1882 22.3484C35.2499 22.3974 31.1171 18.4809 31.0199 14.6134C30.9227 10.3052 34.7151 6.21741 38.8478 6.16846C43.248 6.1195 46.8459 9.76673 46.8216 14.2952V14.3196Z" fill="#FC3060"/>
<path d="M74.0005 24.674C74.0492 19.2399 77.5498 15.5927 82.4362 15.9109C83.4815 15.9843 84.454 16.2291 85.3534 16.7676C87.906 18.3097 89.6807 23.4991 88.7326 26.7057C87.7359 30.0592 83.9678 32.6539 80.4914 32.3601C76.6017 32.0419 73.9762 28.9332 74.0005 24.6985V24.674Z" fill="#FC3060"/>
<path d="M49.0581 47.561C53.5556 47.7813 56.9104 50.7187 56.8618 54.4149C56.8131 58.2579 51.8295 62.6885 47.9156 62.4192C44.5364 62.1744 41.6435 58.8454 41.7164 55.2716C41.8137 50.9145 45.1685 47.3897 49.0581 47.5855V47.561Z" fill="#FF617E"/>
<path d="M7.26877 50.376C3.16033 50.327 -0.267418 47.2428 0.024306 43.5711C0.413271 38.651 3.0874 36.9865 8.36274 36.3256C11.6203 35.9094 14.6834 39.8015 14.6348 43.669C14.5862 47.5365 11.4015 50.4249 7.26877 50.376Z" fill="#FF617E"/>
<path d="M83.7976 49.0297C83.8948 52.6279 80.3941 56.2017 76.699 56.3241C73.0524 56.4465 69.5274 53.093 69.3329 49.3234C69.1628 45.8965 72.0071 42.5185 75.216 42.3716C79.4947 42.1758 83.7003 45.4559 83.7976 49.0297Z" fill="#171717"/>
<path d="M19.2295 67.9999C18.8648 67.9265 17.8438 67.7796 16.8957 67.4369C14.3431 66.4823 12.3497 64.9402 12.1795 61.9783C12.0093 59.1144 14.0271 57.6457 16.215 56.4218C16.7741 56.1036 17.4062 55.9812 18.014 55.7364C20.8339 54.5615 23.4838 54.3901 25.696 56.9848C27.5679 59.1633 27.8596 61.5867 26.8386 64.1569C25.8662 66.6536 23.0948 68.0978 19.2295 68.0244V67.9999Z" fill="#FDB137"/>
<path d="M19.5212 20.3413C19.351 24.1109 16.1907 27.1217 12.4712 27.0483C8.72741 26.9749 5.8588 24.1599 6.05328 20.8064C6.27207 17.1347 10.6236 12.9734 14.0027 13.1693C17.236 13.3651 19.6914 16.5717 19.5212 20.3168V20.3413Z" fill="#FF617E"/>
</g>
<defs>
<clipPath id="clip0_893_3326">
<rect width="89" height="68" fill="white"/>
</clipPath>
</defs>
</svg>
