<svg width="218" height="152" viewBox="0 0 218 152" fill="none" xmlns="http://www.w3.org/2000/svg">
<path d="M114.096 0.119857C132.907 -0.908139 149.901 5.11639 165.618 15.3485C175.147 21.5643 182.367 29.6927 187.057 39.7336C194.842 56.3967 200.073 73.8248 202.087 92.0657C202.676 97.4687 200.981 100.433 196.856 101.581C192.804 102.704 189.562 101.389 188.58 97.4687C185.903 86.8062 181.507 76.598 179.69 65.6964C176.841 48.7704 168.565 34.6892 154.96 23.6203C148.845 18.6477 141.551 15.3724 133.889 13.9619C120.579 11.5234 106.999 10.4476 93.5408 13.2447C81.09 15.8267 69.9162 21.397 59.4054 28.1387C53.6098 31.8682 49.8279 37.6059 46.2915 43.2957C42.1413 49.9657 38.6295 56.9465 36.0755 64.3577C33.3741 72.2708 30.6482 80.184 27.9468 88.0972C26.6698 91.8745 25.491 95.6757 25.6138 99.7399C25.6875 102.226 24.9262 104.426 22.0038 104.736C19.2042 105.047 17.8536 103.063 16.8221 100.887C16.2327 99.6442 16.0117 98.3293 16.2082 97.0145C18.885 79.5624 22.0529 62.2539 29.494 45.9494C41.7483 19.1019 63.9732 5.66625 93.1234 1.43474C99.9259 0.454553 106.778 -0.0713984 114.096 0.119857Z" fill="#FFCD49"/>
<path d="M108.84 21.9941C144.056 21.1574 177.725 53.0731 176.571 88.4553C176.375 94.5993 174.263 97.5399 169.204 98.4484C165.323 99.1417 163.089 97.4204 163.187 93.6192C163.236 91.7305 163.727 89.8658 163.924 88.001C164.832 79.8249 163.113 72.4616 158.447 65.3134C145.604 45.6619 126.178 37.8683 103.413 36.3143C90.3238 35.4298 79.0763 39.8287 69.3023 48.7937C56.213 60.795 50.1963 75.7368 47.2985 92.3521C46.9301 94.4081 46.5372 96.4402 46.1443 98.4962C45.604 101.269 44.0814 102.943 40.9625 102.823C37.9419 102.704 35.5844 100.982 34.9459 98.281C34.4056 96.0338 34.6021 93.7387 35.0441 91.4914C37.3034 80.0879 40.6924 69.019 46.2179 58.6912C58.4477 35.9079 82.318 21.9941 108.865 22.018L108.84 21.9941Z" fill="#FC3060"/>
<path d="M105.279 43.439C124.017 43.5585 143.467 51.8781 150.319 73.7529C152.431 80.4946 153.388 87.4276 154.69 94.2889C155.476 98.4248 152.774 101.222 148.01 101.843C143.958 102.393 141.601 100.6 141.355 95.9146C141.011 89.2207 139.439 82.8375 137.426 76.5022C134.823 68.3978 129.616 62.8035 121.586 59.2892C112.328 55.2251 103.02 55.0577 93.5408 58.0222C88.8994 59.4566 85.3876 62.3971 82.6863 66.2939C76.3258 75.4503 71.0213 85.1087 67.3622 95.5799C65.5449 100.792 62.5488 102.537 57.1707 101.915C54.0273 101.557 52.7257 100.218 52.5047 97.1338C52.4801 96.7513 52.4556 96.3688 52.5047 96.0102C55.206 79.9209 60.9771 65.3377 74.2384 54.3883C83.8159 46.4751 95.2599 43.8693 105.255 43.4629L105.279 43.439Z" fill="#FFCD49"/>
<path d="M109.258 63.9272C116.429 63.8554 122.175 66.5808 126.35 72.2468C130.746 78.1518 132.097 85.0369 132.711 92.0417C133.03 95.6994 129.199 98.2096 123.87 98.4009C120.088 98.5204 118.197 96.9665 117.829 93.0218C117.534 90.0096 117.73 86.9734 117.411 83.9611C116.871 78.8451 114.832 77.0999 109.454 76.7891C100.785 76.2631 94.8669 79.9209 91.6744 87.8341C90.6921 90.2965 89.8571 92.8306 88.9485 95.3169C87.7697 98.6639 85.1666 100.505 81.7776 101.413C78.5359 102.274 76.4731 100.959 75.9574 97.6837C75.8346 96.9426 75.8837 96.1776 75.9083 95.4125C76.424 78.8451 92.0428 64.0945 109.258 63.9272Z" fill="#FC3060"/>
<path d="M104.297 87.5947C108.104 87.6664 111.051 89.2921 113.236 92.2327C114.489 93.9062 114.783 95.747 113.236 97.4205C111.861 98.9027 109.946 99.0461 108.423 97.9942C105.672 96.1056 103.217 95.8426 100.417 97.8508C99.0418 98.831 97.421 98.4724 96.144 97.277C94.6951 95.9143 94.646 94.2887 95.2599 92.5674C96.4387 89.3399 99.9259 87.4513 104.273 87.6186L104.297 87.5947Z" fill="#FFCD49"/>
</svg>
