<svg width="636" height="480" viewBox="0 0 636 480" fill="none" xmlns="http://www.w3.org/2000/svg">
<path d="M466.965 256.28H188.128V271.689H466.965V256.28Z" fill="white"/>
<path d="M466.952 272.34H188.128C187.956 272.34 187.791 272.271 187.669 272.149C187.547 272.027 187.479 271.862 187.479 271.689V256.28C187.479 256.108 187.547 255.942 187.669 255.82C187.791 255.698 187.956 255.63 188.128 255.63H466.952C467.124 255.63 467.289 255.698 467.411 255.82C467.533 255.942 467.601 256.108 467.601 256.28V271.689C467.601 271.862 467.533 272.027 467.411 272.149C467.289 272.271 467.124 272.34 466.952 272.34ZM188.83 271.038H466.302V256.918H188.778L188.83 271.038Z" fill="#F1E7D9"/>
<path d="M458.998 271.689H196.095V367.966H458.998V271.689Z" fill="white"/>
<path d="M458.985 368.617H196.095C195.923 368.617 195.758 368.548 195.636 368.426C195.514 368.304 195.445 368.139 195.445 367.966V271.663C195.445 271.49 195.514 271.325 195.636 271.203C195.758 271.081 195.923 271.012 196.095 271.012H458.985C459.157 271.012 459.323 271.081 459.445 271.203C459.566 271.325 459.635 271.49 459.635 271.663V367.966C459.635 368.139 459.566 368.304 459.445 368.426C459.323 368.548 459.157 368.617 458.985 368.617ZM196.745 367.315H458.335V272.313H196.745V367.315Z" fill="#F1E7D9"/>
<path d="M288.551 358.427H210.573C210.402 358.424 210.238 358.354 210.117 358.233C209.996 358.111 209.927 357.948 209.923 357.776V281.892C209.923 281.719 209.992 281.554 210.114 281.432C210.236 281.31 210.401 281.241 210.573 281.241H288.551C288.724 281.241 288.889 281.31 289.011 281.432C289.133 281.554 289.201 281.719 289.201 281.892V357.776C289.201 357.949 289.133 358.114 289.011 358.236C288.889 358.358 288.724 358.427 288.551 358.427ZM211.262 357.126H287.94V282.542H211.262V357.126Z" fill="#F1E7D9"/>
<path d="M366.529 358.427H288.551C288.38 358.424 288.217 358.354 288.095 358.233C287.974 358.111 287.905 357.948 287.901 357.776V281.892C287.901 281.719 287.97 281.554 288.092 281.432C288.214 281.31 288.379 281.241 288.551 281.241H366.529C366.702 281.241 366.867 281.31 366.989 281.432C367.111 281.554 367.179 281.719 367.179 281.892V357.776C367.176 357.948 367.106 358.111 366.985 358.233C366.864 358.354 366.701 358.424 366.529 358.427ZM289.227 357.126H365.905V282.542H289.227V357.126Z" fill="#F1E7D9"/>
<path d="M444.507 358.427H366.529C366.357 358.427 366.192 358.358 366.07 358.236C365.948 358.114 365.879 357.949 365.879 357.776V281.892C365.879 281.719 365.948 281.554 366.07 281.432C366.192 281.31 366.357 281.241 366.529 281.241H444.507C444.68 281.241 444.845 281.31 444.967 281.432C445.089 281.554 445.157 281.719 445.157 281.892V357.776C445.154 357.948 445.084 358.111 444.963 358.233C444.842 358.354 444.679 358.424 444.507 358.427ZM367.218 357.126H443.896V282.542H367.218V357.126Z" fill="#F1E7D9"/>
<path d="M297.869 112.906C297.534 112.476 297.109 112.126 296.624 111.878C296.139 111.631 295.606 111.493 295.062 111.474C294.583 111.476 294.122 111.651 293.763 111.969C293.37 112.426 293.13 112.995 293.074 113.595C292.778 115.209 292.823 116.867 293.204 118.462C293.606 120.063 294.519 121.489 295.803 122.523C297.22 123.616 299.156 123.824 299.884 121.885C300.41 120.348 300.501 118.695 300.145 117.11C299.789 115.525 299.002 114.069 297.869 112.906Z" fill="white"/>
<path d="M297.895 124.006C296.968 123.972 296.078 123.634 295.361 123.043C293.968 121.915 292.982 120.361 292.554 118.619C292.144 116.939 292.095 115.191 292.411 113.491C292.484 112.752 292.789 112.055 293.282 111.5C293.765 111.06 294.396 110.818 295.049 110.823C295.686 110.847 296.31 111.005 296.882 111.288C297.453 111.57 297.958 111.971 298.363 112.463C299.561 113.724 300.388 115.291 300.755 116.992C301.122 118.693 301.014 120.463 300.443 122.106C300.309 122.528 300.075 122.911 299.76 123.222C299.445 123.533 299.059 123.762 298.636 123.889C298.396 123.962 298.146 124.001 297.895 124.006ZM295.114 112.125C294.789 112.126 294.473 112.235 294.217 112.437C293.929 112.812 293.762 113.266 293.736 113.738C293.445 115.26 293.485 116.827 293.853 118.332C294.209 119.795 295.03 121.101 296.193 122.054C296.479 122.312 296.818 122.503 297.187 122.613C297.555 122.723 297.944 122.75 298.324 122.692C298.55 122.612 298.754 122.479 298.918 122.305C299.083 122.131 299.205 121.92 299.273 121.69C299.752 120.264 299.832 118.734 299.505 117.266C299.177 115.797 298.454 114.447 297.414 113.361C297.143 113.001 296.797 112.704 296.4 112.49C296.003 112.277 295.564 112.152 295.114 112.125Z" fill="#171717"/>
<path d="M374.457 369.723C374.717 370.504 382.749 383.336 382.749 383.336C382.749 383.336 391.326 385.73 397.604 380.017L390.65 363.542L374.457 369.723Z" fill="white"/>
<path d="M387.089 384.455C385.569 384.471 384.052 384.287 382.58 383.908C382.423 383.869 382.288 383.771 382.203 383.635C380.305 380.603 374.106 370.621 373.833 369.866C373.782 369.707 373.795 369.535 373.867 369.385C373.94 369.235 374.067 369.118 374.223 369.059L390.416 362.878C390.575 362.821 390.75 362.827 390.904 362.895C391.059 362.963 391.182 363.087 391.248 363.242L398.201 379.718C398.257 379.84 398.272 379.977 398.244 380.108C398.216 380.239 398.146 380.358 398.045 380.447C395.026 383.114 391.114 384.544 387.089 384.455ZM383.19 382.724C384.49 383.023 391.521 384.312 396.85 379.796L390.351 364.322L375.367 370.14C376.51 372.066 380.5 378.508 383.164 382.776L383.19 382.724Z" fill="#171717"/>
<path d="M304.147 382.958L283.625 398.419C283.859 404.405 296.622 402.544 308.409 399.46C320.197 396.376 322.472 393.864 322.472 393.864L321.991 383.596L304.147 382.958Z" fill="#FFCD49"/>
<path d="M291.15 403C288.135 403 285.969 402.505 284.652 401.516C284.163 401.166 283.764 400.706 283.486 400.172C283.208 399.638 283.06 399.047 283.054 398.445C283.045 398.342 283.064 398.239 283.107 398.146C283.15 398.052 283.217 397.971 283.301 397.911L303.822 382.438C303.878 382.389 303.945 382.352 304.016 382.329C304.088 382.307 304.163 382.3 304.238 382.308L322.082 382.945C322.245 382.952 322.4 383.02 322.516 383.135C322.631 383.251 322.699 383.406 322.705 383.57L323.186 393.825C323.19 393.997 323.13 394.164 323.017 394.293C322.913 394.411 320.418 397.013 308.643 400.098C302.948 401.758 297.076 402.732 291.15 403ZM284.275 398.77C284.325 399.117 284.443 399.45 284.624 399.75C284.805 400.049 285.044 400.309 285.328 400.514C288.135 402.583 296.258 402.011 308.228 398.874C317.832 396.363 321.029 394.215 321.783 393.669L321.354 384.312L304.329 383.7L284.275 398.77Z" fill="#171717"/>
<path d="M321.042 366.001L322.03 383.596C322.03 383.596 311.724 388.476 304.186 382.958L300.469 362.331L321.042 366.001Z" fill="white"/>
<path d="M312.776 386.251C309.546 386.325 306.378 385.353 303.744 383.479C303.675 383.431 303.616 383.369 303.571 383.297C303.527 383.226 303.497 383.146 303.484 383.063L299.832 362.422C299.813 362.319 299.82 362.213 299.852 362.113C299.883 362.013 299.938 361.922 300.012 361.848C300.086 361.774 300.177 361.719 300.277 361.687C300.377 361.656 300.483 361.649 300.586 361.668L321.042 365.364C321.186 365.387 321.317 365.46 321.414 365.568C321.511 365.677 321.568 365.816 321.575 365.962L322.562 383.557C322.57 383.686 322.54 383.813 322.475 383.925C322.41 384.036 322.314 384.125 322.199 384.182C319.226 385.49 316.023 386.194 312.776 386.251ZM304.718 382.581C311.009 386.993 319.391 383.96 321.289 383.18L320.353 366.548L301.274 363.112L304.718 382.581Z" fill="#171717"/>
<path d="M288.317 239.896L345.995 227.285L395.121 369.307C392.101 371.835 388.479 373.538 384.608 374.249C380.736 374.961 376.747 374.657 373.027 373.367L321.977 277.363L324.408 374.486C314.011 379.692 300.482 374.265 300.482 374.265C290.721 345.504 282.391 239.87 282.391 239.87" fill="#171717"/>
<path d="M313.738 377.388C309.104 377.337 304.513 376.483 300.17 374.864C300.083 374.829 300.004 374.776 299.94 374.709C299.875 374.642 299.825 374.561 299.793 374.473C290.124 345.96 281.767 240.976 281.676 239.922C281.662 239.749 281.717 239.578 281.829 239.446C281.942 239.315 282.101 239.233 282.274 239.219C282.446 239.205 282.617 239.261 282.748 239.373C282.88 239.485 282.962 239.645 282.976 239.818C283.067 240.872 291.358 344.997 300.936 373.77C302.86 374.473 314.479 378.377 323.693 374.083L321.276 277.376C321.274 277.231 321.32 277.09 321.407 276.975C321.494 276.859 321.617 276.776 321.757 276.738C321.899 276.701 322.049 276.712 322.184 276.772C322.318 276.831 322.429 276.934 322.497 277.064L373.43 372.846C376.965 374.016 380.736 374.285 384.4 373.628C388.065 372.971 391.509 371.41 394.419 369.085L345.566 228.04L288.46 240.533C288.375 240.552 288.286 240.554 288.2 240.539C288.114 240.523 288.032 240.491 287.959 240.444C287.885 240.397 287.821 240.336 287.771 240.264C287.721 240.192 287.686 240.111 287.667 240.026C287.648 239.941 287.647 239.852 287.662 239.766C287.677 239.68 287.709 239.598 287.756 239.524C287.804 239.45 287.865 239.386 287.936 239.336C288.008 239.286 288.089 239.251 288.174 239.232L345.852 226.609C346.006 226.577 346.167 226.601 346.305 226.678C346.444 226.754 346.55 226.877 346.606 227.025L395.771 369.098C395.814 369.221 395.818 369.355 395.784 369.48C395.749 369.606 395.676 369.718 395.576 369.801C392.444 372.404 388.695 374.155 384.691 374.884C380.686 375.614 376.562 375.297 372.715 373.966C372.579 373.908 372.465 373.807 372.39 373.679L322.627 280.083L324.941 374.473C324.945 374.596 324.914 374.717 324.852 374.823C324.79 374.929 324.699 375.015 324.59 375.072C321.195 376.658 317.484 377.451 313.738 377.388Z" fill="#171717"/>
<path d="M382.749 383.336C382.749 383.336 385.023 392.745 385.933 393.747C386.842 394.749 417.839 400.957 419.411 397.313C420.984 393.669 397.603 379.965 397.603 379.965C397.603 379.965 389.286 384.455 382.749 383.336Z" fill="#FFCD49"/>
<path d="M414.797 399.135C405.908 399.135 386.556 395.504 385.452 394.215C384.347 392.927 382.501 385.106 382.124 383.492C382.098 383.387 382.098 383.277 382.125 383.172C382.152 383.068 382.206 382.972 382.28 382.893C382.351 382.815 382.441 382.756 382.541 382.722C382.641 382.688 382.748 382.679 382.852 382.698C389.091 383.726 397.226 379.497 397.304 379.445C397.4 379.393 397.507 379.366 397.616 379.366C397.725 379.366 397.832 379.393 397.928 379.445C403.529 382.724 421.685 393.76 420.022 397.599C419.723 398.302 418.904 398.731 417.423 398.965C416.553 399.084 415.675 399.14 414.797 399.135ZM383.606 384.104C384.672 388.385 385.958 392.823 386.426 393.369C387.856 394.267 412.614 399.187 418.098 397.508C418.379 397.457 418.634 397.315 418.826 397.104C419.463 395.608 411.535 388.958 397.59 380.759C396.044 381.527 389.415 384.624 383.606 384.104Z" fill="#171717"/>
<path d="M329.971 118.879C331.17 115.425 331.413 111.71 330.672 108.129C329.373 102.755 322.069 97.0155 316.883 97.3929C311.698 97.7703 298.026 104.108 297.389 106.047C296.752 107.986 295.595 123.082 298.519 124.996C301.444 126.909 328.047 125.191 329.971 118.879Z" fill="white"/>
<path d="M304.654 126.362C301.444 126.362 299 126.089 298.155 125.542C294.659 123.252 296.206 107.531 296.752 105.852C297.519 103.496 311.581 97.1196 316.818 96.7422C322.342 96.3387 329.815 102.221 331.283 107.973C332.066 111.674 331.818 115.518 330.568 119.087C330.048 120.753 328.138 122.184 324.863 123.382C319.339 125.386 310.645 126.362 304.654 126.362ZM317.377 98.0175H316.922C311.724 98.3819 298.597 104.707 298 106.229C297.463 109.292 297.22 112.399 297.272 115.508C297.272 122.809 298.506 124.189 298.883 124.436C300.768 125.659 316.129 125.139 324.434 122.132C327.267 121.104 328.97 119.894 329.347 118.658C330.498 115.31 330.732 111.715 330.022 108.247C328.84 103.353 322.199 98.0175 317.377 98.0175Z" fill="#171717"/>
<path d="M300.716 95.9483C300.716 95.9483 297.648 98.9675 292.489 95.9483C287.329 92.929 288.382 86.9426 289.89 84.8083C291.397 82.674 295.881 78.5356 300.027 79.6027C302.004 79.9669 303.895 80.6997 305.602 81.7631C305.602 81.7631 309.007 79.6678 316.649 79.5247C324.291 79.3815 326.734 83.3377 326.734 83.3377C326.734 83.3377 332.817 80.8911 336.612 84.3919C338.234 85.7928 339.26 87.7619 339.48 89.8958C339.7 92.0297 339.097 94.167 337.794 95.8702C335.416 98.6682 325.76 97.9524 325.76 97.9524L300.716 95.9483Z" fill="white"/>
<path d="M328.528 98.6161C327.098 98.6161 325.993 98.5381 325.682 98.525L300.988 96.612C300.118 97.3017 296.973 99.2929 292.216 96.4558C291.229 95.8867 290.372 95.1166 289.7 94.1953C289.029 93.274 288.558 92.222 288.317 91.1071C287.817 88.8053 288.212 86.399 289.422 84.3789C291.007 82.1014 295.725 77.7678 300.248 78.887C302.158 79.2946 303.997 79.9832 305.706 80.9302C306.798 80.3836 310.307 78.913 316.701 78.7959C323.095 78.6788 326.123 81.3987 327.033 82.4788C328.593 81.9583 333.661 80.6439 337.118 83.7802C338.862 85.2935 339.966 87.4137 340.207 89.7115C340.449 92.0094 339.809 94.3132 338.418 96.1565C336.52 98.2518 331.699 98.6161 328.528 98.6161ZM300.716 95.2976L325.721 97.2237C328.32 97.4189 335.442 97.4579 337.209 95.3757C338.391 93.7957 338.932 91.8259 338.722 89.8628C338.513 87.8997 337.568 86.089 336.079 84.7953C332.622 81.6069 326.981 83.8323 326.89 83.8583C326.749 83.9177 326.591 83.9241 326.445 83.8763C326.3 83.8285 326.176 83.7297 326.097 83.598C326.006 83.4549 323.693 79.9541 316.571 80.0973C309.189 80.2404 305.888 82.2186 305.849 82.2446C305.74 82.3201 305.611 82.3606 305.479 82.3606C305.346 82.3606 305.217 82.3201 305.108 82.2446C303.465 81.2572 301.661 80.5657 299.78 80.2014C295.881 79.2384 291.696 83.2206 290.344 85.1727C289.334 86.8898 289.005 88.9241 289.422 90.8728C289.628 91.8211 290.033 92.7145 290.611 93.4932C291.19 94.272 291.927 94.9182 292.775 95.3887C297.492 98.1476 300.248 95.5449 300.248 95.5449C300.304 95.4731 300.375 95.414 300.455 95.3714C300.536 95.3288 300.625 95.3036 300.716 95.2976Z" fill="#171717"/>
<path d="M305.836 133.767L303.471 146.364C303.471 146.364 307.526 154.277 315.817 152.104C324.109 149.93 325.396 143.527 325.396 143.514L325.954 130.019L326.292 121.716C326.454 120.858 326.489 119.981 326.396 119.113C326.11 118.254 325.097 117.643 324.577 116.94C323.798 115.9 323.119 114.789 322.549 113.621C321.342 111.309 320.467 108.838 319.95 106.281C316.794 106.517 313.661 105.591 311.139 103.679C310.229 105.266 313.036 106.789 312.854 108.598C309.826 108.116 305.927 107.127 303.757 104.915C302.691 104.798 298.558 112.216 297.999 115.157C297.182 118.983 297.076 122.927 297.687 126.791C298.948 133.285 305.836 133.767 305.836 133.767Z" fill="white"/>
<path d="M313.01 153.132C306.291 153.132 302.925 146.742 302.899 146.625C302.854 146.489 302.854 146.343 302.899 146.208L305.134 134.274C303.237 133.949 298.155 132.531 297.181 126.948C296.555 123.001 296.661 118.974 297.492 115.066C298.144 112.791 299.074 110.605 300.261 108.559C302.743 104.121 303.601 104.225 303.952 104.251C304.106 104.272 304.248 104.346 304.355 104.459C305.81 105.982 308.435 107.062 312.152 107.791C311.945 107.38 311.701 106.988 311.425 106.62C310.775 105.696 309.969 104.564 310.658 103.353C310.704 103.271 310.767 103.199 310.843 103.143C310.92 103.087 311.007 103.047 311.1 103.028C311.191 103.014 311.283 103.018 311.373 103.04C311.462 103.063 311.546 103.103 311.619 103.158C314.026 104.951 316.998 105.815 319.989 105.592C320.15 105.576 320.311 105.62 320.44 105.716C320.57 105.812 320.659 105.954 320.691 106.112C321.181 108.61 322.026 111.025 323.199 113.283C323.757 114.41 324.414 115.486 325.162 116.497C325.361 116.734 325.579 116.956 325.811 117.161C326.367 117.619 326.811 118.198 327.111 118.853C327.26 119.548 327.26 120.266 327.111 120.961C327.111 121.221 327.046 121.469 327.046 121.651L326.149 143.449C326.149 143.54 324.85 150.347 316.09 152.637C315.09 152.937 314.054 153.104 313.01 153.132ZM304.147 146.299C304.822 147.471 308.591 153.366 315.661 151.505C323.459 149.462 324.759 143.488 324.759 143.436L325.642 121.729C325.653 121.459 325.679 121.189 325.72 120.922C325.823 120.426 325.845 119.916 325.785 119.412C325.559 118.957 325.235 118.557 324.837 118.241C324.561 117.992 324.305 117.722 324.07 117.434C323.266 116.359 322.562 115.214 321.965 114.012C320.824 111.811 319.977 109.47 319.443 107.049C316.743 107.143 314.076 106.437 311.775 105.019C311.959 105.36 312.167 105.686 312.399 105.995C313.1 106.759 313.493 107.756 313.504 108.793C313.497 108.88 313.471 108.965 313.428 109.041C313.386 109.117 313.327 109.184 313.257 109.236C313.188 109.291 313.109 109.331 313.024 109.354C312.939 109.376 312.85 109.38 312.763 109.366C308.565 108.689 305.524 107.505 303.666 105.826C301.439 108.691 299.748 111.936 298.675 115.404C297.874 119.153 297.773 123.018 298.376 126.804C299.403 132.674 305.797 133.155 305.862 133.155C305.953 133.163 306.041 133.189 306.121 133.231C306.202 133.274 306.273 133.332 306.33 133.402C306.387 133.475 306.426 133.56 306.447 133.65C306.467 133.74 306.467 133.833 306.447 133.923L304.147 146.299Z" fill="#171717"/>
<path d="M304.602 140.391C306.043 140.64 307.523 140.532 308.913 140.079C310.304 139.625 311.563 138.839 312.581 137.788C316.181 134.183 315.83 131.281 315.83 131.281C312.947 133.377 309.368 134.281 305.836 133.806L304.602 140.391Z" fill="#171717"/>
<path d="M306.122 141.185C305.558 141.198 304.995 141.141 304.446 141.016C304.285 140.978 304.145 140.88 304.056 140.742C303.966 140.603 303.933 140.436 303.965 140.274L305.199 133.65C305.237 133.484 305.335 133.339 305.475 133.242C305.614 133.146 305.785 133.105 305.953 133.129C309.305 133.568 312.697 132.711 315.44 130.735C315.529 130.661 315.637 130.613 315.751 130.595C315.865 130.578 315.982 130.592 316.089 130.636C316.196 130.681 316.289 130.753 316.358 130.846C316.427 130.939 316.469 131.049 316.48 131.164C316.48 131.294 316.818 134.483 313.036 138.283C312.135 139.204 311.06 139.936 309.872 140.434C308.685 140.933 307.41 141.188 306.122 141.185ZM305.355 139.883C306.596 139.997 307.847 139.832 309.017 139.399C310.186 138.967 311.244 138.279 312.113 137.385C313.524 136.082 314.541 134.409 315.051 132.557C312.443 134.14 309.39 134.83 306.356 134.522L305.355 139.883Z" fill="#171717"/>
<path d="M312.192 113.075C312.192 113.075 307.721 119.582 308.735 120.675C309.748 121.768 312.633 121.13 312.633 121.13" fill="white"/>
<path d="M310.853 121.989C310.382 122.031 309.908 121.973 309.46 121.821C309.013 121.668 308.602 121.424 308.254 121.104C307.123 119.803 309.553 115.899 311.659 112.697C311.758 112.559 311.907 112.465 312.075 112.436C312.243 112.407 312.415 112.444 312.555 112.541C312.626 112.588 312.687 112.649 312.734 112.72C312.781 112.791 312.813 112.871 312.829 112.954C312.845 113.038 312.844 113.124 312.826 113.207C312.808 113.291 312.773 113.369 312.724 113.439C310.632 116.458 309.007 119.647 309.241 120.284C309.8 120.896 311.685 120.688 312.516 120.493C312.684 120.454 312.859 120.482 313.005 120.572C313.152 120.663 313.256 120.807 313.296 120.974C313.317 121.056 313.322 121.142 313.31 121.226C313.298 121.31 313.27 121.39 313.226 121.463C313.182 121.536 313.125 121.599 313.056 121.649C312.988 121.699 312.911 121.735 312.828 121.755C312.18 121.903 311.518 121.981 310.853 121.989Z" fill="#171717"/>
<path d="M317.555 114.223C318.149 114.182 318.585 113.469 318.527 112.63C318.469 111.791 317.941 111.144 317.346 111.185C316.752 111.226 316.317 111.939 316.375 112.778C316.432 113.617 316.961 114.264 317.555 114.223Z" fill="#171717"/>
<path d="M308.286 112.838C308.477 112.019 308.163 111.245 307.583 111.109C307.003 110.973 306.377 111.526 306.185 112.345C305.994 113.163 306.309 113.937 306.889 114.074C307.469 114.21 308.094 113.656 308.286 112.838Z" fill="#171717"/>
<path d="M309.956 130.826C309.365 130.849 308.776 130.745 308.229 130.521C307.682 130.296 307.189 129.956 306.785 129.524C304.849 127.208 305.615 123.369 305.654 123.2C305.685 123.054 305.765 122.923 305.881 122.831C305.997 122.738 306.142 122.689 306.291 122.692C316.246 122.965 316.298 123.03 316.545 123.33C316.603 123.4 316.646 123.481 316.67 123.568C316.695 123.656 316.701 123.747 316.688 123.837C316.464 125.364 315.885 126.817 314.999 128.08C314.446 128.87 313.722 129.525 312.88 129.994C312.038 130.463 311.1 130.734 310.138 130.787L309.956 130.826ZM306.837 124.019C306.551 125.635 306.885 127.299 307.773 128.678C308.074 128.979 308.437 129.21 308.837 129.356C309.236 129.502 309.662 129.559 310.086 129.524C310.858 129.481 311.61 129.263 312.285 128.887C312.96 128.51 313.542 127.985 313.985 127.351C314.62 126.444 315.062 125.417 315.285 124.332C313.738 124.241 309.722 124.098 306.837 124.019Z" fill="#171717"/>
<path d="M314.544 127.741C312.334 130.748 308.669 130.683 307.344 129.121C307.627 128.495 308.05 127.942 308.579 127.505C309.108 127.067 309.731 126.757 310.398 126.596C311.871 126.482 313.338 126.887 314.544 127.741Z" fill="#171717"/>
<path d="M309.956 130.826C309.365 130.846 308.777 130.741 308.231 130.516C307.684 130.292 307.191 129.954 306.785 129.524C306.703 129.421 306.653 129.295 306.641 129.163C306.63 129.031 306.657 128.899 306.72 128.783C307.039 128.063 307.525 127.43 308.138 126.937C308.75 126.443 309.472 126.104 310.242 125.946C311.88 125.826 313.509 126.286 314.843 127.247C314.986 127.349 315.084 127.503 315.115 127.676C315.132 127.762 315.131 127.851 315.111 127.936C315.091 128.022 315.052 128.102 314.998 128.171C314.445 128.96 313.72 129.614 312.878 130.083C312.036 130.551 311.1 130.823 310.138 130.878L309.956 130.826ZM308.11 129.004C308.697 129.382 309.389 129.564 310.086 129.524C311.392 129.456 312.62 128.876 313.504 127.911C312.567 127.373 311.486 127.141 310.411 127.247C309.926 127.362 309.47 127.577 309.074 127.88C308.677 128.183 308.349 128.566 308.11 129.004Z" fill="#171717"/>
<path d="M323.641 118.671C323.498 115.938 326.24 112.164 329.243 113.829C329.761 114.162 330.207 114.597 330.553 115.107C330.899 115.617 331.139 116.192 331.257 116.797C332.7 122.445 328.32 124.449 325.357 125.906" fill="white"/>
<path d="M325.383 126.453C325.26 126.459 325.138 126.428 325.032 126.366C324.926 126.304 324.84 126.212 324.785 126.102C324.744 126.029 324.719 125.95 324.71 125.868C324.702 125.785 324.71 125.702 324.734 125.623C324.758 125.544 324.798 125.471 324.852 125.407C324.905 125.344 324.971 125.293 325.045 125.256C328.138 123.798 331.881 122.028 330.581 116.953C330.492 116.426 330.296 115.924 330.006 115.476C329.715 115.028 329.336 114.645 328.892 114.35C328.507 114.122 328.064 114.01 327.618 114.026C327.171 114.042 326.738 114.186 326.37 114.441C325.71 114.912 325.173 115.535 324.804 116.257C324.435 116.98 324.246 117.781 324.252 118.593C324.257 118.677 324.245 118.762 324.217 118.843C324.189 118.923 324.146 118.997 324.089 119.06C324.032 119.123 323.963 119.174 323.886 119.21C323.809 119.246 323.726 119.266 323.641 119.269C323.556 119.278 323.469 119.269 323.387 119.243C323.306 119.216 323.23 119.173 323.166 119.115C323.103 119.057 323.052 118.987 323.017 118.908C322.982 118.829 322.965 118.744 322.965 118.658C322.944 117.615 323.18 116.583 323.654 115.654C324.128 114.725 324.825 113.928 325.681 113.335C326.242 112.958 326.898 112.745 327.573 112.722C328.249 112.699 328.917 112.866 329.502 113.205C330.103 113.575 330.621 114.065 331.024 114.645C331.426 115.225 331.705 115.883 331.842 116.575C333.401 122.705 328.567 124.982 325.681 126.336C325.594 126.401 325.491 126.442 325.383 126.453Z" fill="#171717"/>
<path d="M298.844 93.1894C298.844 93.1894 297.285 103.457 297.389 106.047C301.323 103.689 305.801 102.393 310.385 102.286C317.52 102.286 327.722 106.542 330.685 108.129L328.58 92.1483C328.58 92.1483 323.654 89.4283 312.984 90.4955C302.314 91.5626 298.844 93.1894 298.844 93.1894Z" fill="white"/>
<path d="M330.672 108.78C330.563 108.779 330.456 108.752 330.36 108.702C327.631 107.232 317.364 102.976 310.372 102.937H310.281C305.857 103.061 301.538 104.32 297.739 106.594C297.643 106.656 297.532 106.691 297.418 106.697C297.303 106.702 297.19 106.677 297.088 106.624C296.987 106.571 296.901 106.492 296.839 106.396C296.778 106.299 296.743 106.188 296.739 106.073C296.635 103.471 298.142 93.5148 298.207 93.0593C298.223 92.9536 298.265 92.8535 298.328 92.7674C298.392 92.6813 298.475 92.6118 298.571 92.5648C298.714 92.4997 302.236 90.873 312.867 89.8058C323.498 88.7387 328.671 91.4586 328.839 91.6408C328.928 91.6924 329.004 91.764 329.06 91.8498C329.116 91.9356 329.152 92.0334 329.164 92.1353L331.283 108.103C331.297 108.224 331.277 108.346 331.227 108.456C331.176 108.566 331.097 108.66 330.997 108.728C330.895 108.775 330.783 108.793 330.672 108.78ZM310.281 101.636H310.385C316.987 101.636 325.98 105.149 329.879 106.997L327.982 92.5778C326.799 92.0573 321.964 90.2483 313.049 91.1463C304.367 92.0182 300.507 93.2545 299.455 93.658C299.208 95.2717 298.259 101.792 298.077 104.902C301.824 102.848 306.01 101.727 310.281 101.636Z" fill="#171717"/>
<path d="M298.714 87.6063C298.714 87.6063 300.079 94.6989 305.498 94.8421C310.918 94.9852 317.195 91.1852 317.195 91.1852C317.195 91.1852 328.515 96.5339 333.376 90.3262" fill="white"/>
<path d="M305.797 95.545H305.446C299.572 95.3889 298.103 88.101 298.038 87.7367C298.022 87.6512 298.023 87.5634 298.041 87.4782C298.058 87.3931 298.093 87.3122 298.141 87.2403C298.19 87.1684 298.253 87.1069 298.326 87.0592C298.398 87.0115 298.479 86.9786 298.565 86.9623C298.65 86.9461 298.738 86.9468 298.823 86.9645C298.908 86.9822 298.989 87.0165 299.06 87.0655C299.132 87.1144 299.194 87.1771 299.241 87.2498C299.289 87.3225 299.322 87.4039 299.338 87.4894C299.338 87.4894 300.638 94.0745 305.498 94.1916C310.697 94.3478 316.818 90.6648 316.883 90.6388C316.977 90.5875 317.082 90.5607 317.189 90.5607C317.295 90.5607 317.4 90.5875 317.494 90.6388C317.598 90.6388 328.398 95.6882 332.882 89.962C332.931 89.887 332.996 89.8231 333.072 89.7745C333.148 89.7259 333.233 89.6935 333.322 89.6795C333.411 89.6655 333.501 89.6701 333.588 89.693C333.675 89.716 333.757 89.7568 333.827 89.8129C333.898 89.8689 333.956 89.939 333.998 90.0187C334.04 90.0985 334.065 90.186 334.071 90.2759C334.077 90.3658 334.065 90.456 334.035 90.5409C334.005 90.6257 333.957 90.7034 333.895 90.7689C329.191 96.7814 319.184 92.8121 317.247 91.9662C315.947 92.6689 310.645 95.545 305.797 95.545Z" fill="#171717"/>
<path d="M328.437 137.333L316.74 139.077L312.165 143.957L310.216 138.946L302.002 136.344L301.157 143.905L285.276 153.223C285.276 153.223 276.906 224.045 280.077 244.815C280.077 244.815 336.377 246.871 353.831 236.772C353.831 236.772 342.759 184.443 344.37 174.67C345.397 167.736 345.953 160.74 346.034 153.73L329.372 144.048L328.437 137.333Z" fill="#FC3060"/>
<path d="M246.963 147.601C246.963 147.601 253.461 138.491 253.981 136.552C254.501 134.613 254.293 126.896 253.669 126.622C252.938 126.639 252.223 126.834 251.584 127.19C250.945 127.546 250.403 128.052 250.004 128.666C249.579 130.211 249.331 131.801 249.263 133.403C247.883 133.327 246.515 133.701 245.364 134.47C245.364 134.47 243.714 129.889 243.623 129.433C243.532 128.978 246.586 125.334 246.586 125.334C247.189 125.79 247.884 126.109 248.622 126.268C249.361 126.428 250.125 126.424 250.862 126.258C253.019 125.555 253.279 124.957 252.304 123.577C251.33 122.198 243.662 120.675 243.662 120.675L238.554 125.75C238.554 125.75 237.788 118.371 238.554 116.784C239.321 115.196 240.816 111.084 240.023 109.782C239.23 108.481 237.528 109.027 236.631 110.355C235.734 111.682 233.473 116.159 233.382 117.5C233.291 118.84 233.382 125.542 233.382 125.542C233.382 125.542 230.782 119.777 231.016 118.632C231.25 117.487 234.084 112.047 232.927 110.823C231.77 109.6 226.741 116.133 226.286 118.632C225.831 121.13 229.002 128.275 229.002 128.275C229.002 128.275 224.648 124.54 224.648 123.824C224.648 123.109 224.947 117.122 224.245 116.315C223.544 115.508 221.75 115.652 221.464 118.606C221.178 121.56 221.243 125.946 222.127 127.716C223.011 129.485 230.276 141.888 230.627 143.228C230.977 144.569 229.951 151.622 229.951 151.622L245.286 152.312L246.963 147.601Z" fill="white"/>
<path d="M245.273 152.949L229.938 152.26C229.847 152.255 229.759 152.232 229.678 152.191C229.598 152.151 229.526 152.094 229.469 152.024C229.411 151.954 229.369 151.873 229.344 151.786C229.32 151.699 229.314 151.608 229.327 151.518C229.788 148.827 230.014 146.101 230.003 143.371C229.808 142.603 226.571 136.864 224.427 133.142C223.01 130.644 221.893 128.665 221.555 127.937C220.554 125.906 220.567 121.156 220.827 118.462C221.048 116.12 222.127 115.443 222.725 115.248C223.077 115.13 223.456 115.119 223.814 115.217C224.173 115.314 224.494 115.515 224.739 115.795C225.207 116.328 225.493 117.786 225.324 123.2C225.324 123.46 225.324 123.642 225.324 123.733C225.941 124.482 226.619 125.178 227.351 125.815C226.442 123.434 225.363 120.115 225.662 118.423C226.091 116.094 230.093 110.615 232.16 109.977C232.383 109.896 232.626 109.882 232.857 109.937C233.088 109.993 233.298 110.115 233.46 110.29C234.512 111.435 233.538 114.116 232.264 117.239C232.004 117.877 231.757 118.475 231.692 118.723C231.881 119.952 232.245 121.149 232.771 122.276C232.771 120.336 232.771 118.111 232.771 117.382C232.875 115.86 235.24 111.253 236.124 109.925C236.402 109.474 236.782 109.094 237.234 108.816C237.685 108.538 238.195 108.37 238.723 108.325C239.085 108.328 239.439 108.426 239.751 108.609C240.063 108.791 240.323 109.052 240.504 109.366C241.621 111.175 239.529 116.107 239.074 117.005C238.619 117.903 238.749 121.469 238.97 124.228L243.103 120.128C243.178 120.057 243.269 120.005 243.369 119.976C243.468 119.946 243.573 119.941 243.675 119.959C245.546 120.31 251.693 121.599 252.772 123.134C253.019 123.413 253.199 123.744 253.298 124.103C253.397 124.461 253.413 124.838 253.344 125.204C253.253 125.475 253.086 125.715 252.863 125.893C253.179 125.818 253.509 125.841 253.812 125.959C255.189 126.544 254.787 135.563 254.488 136.643C253.942 138.621 248.301 146.586 247.431 147.822L245.819 152.442C245.789 152.572 245.721 152.689 245.624 152.78C245.527 152.87 245.405 152.929 245.273 152.949ZM230.665 150.984L244.818 151.622L246.3 147.366C246.315 147.31 246.342 147.257 246.378 147.21C248.977 143.592 252.876 137.723 253.305 136.357C253.695 133.33 253.665 130.265 253.214 127.247C252.151 127.479 251.206 128.084 250.55 128.952C250.143 130.42 249.912 131.932 249.861 133.455C249.85 133.63 249.771 133.793 249.64 133.91C249.579 133.969 249.505 134.014 249.424 134.041C249.343 134.068 249.257 134.077 249.172 134.066C247.962 134.019 246.767 134.351 245.754 135.016C245.67 135.075 245.574 135.114 245.473 135.132C245.372 135.15 245.268 135.146 245.169 135.12C245.072 135.091 244.982 135.039 244.908 134.969C244.833 134.899 244.776 134.813 244.74 134.717C244.35 133.637 243.064 130.045 242.973 129.589C242.882 129.134 242.83 128.835 246.079 124.943C246.187 124.819 246.337 124.74 246.501 124.721C246.664 124.702 246.829 124.744 246.963 124.839C247.485 125.23 248.084 125.505 248.72 125.646C249.357 125.788 250.016 125.792 250.654 125.659C251.953 125.243 252.148 124.982 252.174 124.891C252.2 124.8 252.174 124.644 251.758 123.967C251.343 123.291 247.34 122.093 243.87 121.365L238.996 126.193C238.91 126.28 238.8 126.341 238.681 126.369C238.561 126.396 238.436 126.389 238.32 126.349C238.205 126.306 238.104 126.233 238.029 126.136C237.953 126.04 237.905 125.924 237.891 125.802C237.761 124.501 237.151 118.137 238.008 116.471C238.97 114.584 240.023 110.979 239.49 110.121C239.423 109.991 239.322 109.882 239.199 109.804C239.076 109.726 238.934 109.683 238.788 109.678C238.462 109.72 238.149 109.833 237.873 110.011C237.596 110.189 237.363 110.427 237.189 110.706C235.851 112.832 234.798 115.125 234.057 117.525C233.953 118.827 234.057 125.451 234.057 125.516C234.056 125.667 234.004 125.813 233.909 125.931C233.815 126.049 233.684 126.132 233.538 126.167C233.393 126.198 233.242 126.179 233.11 126.113C232.977 126.046 232.871 125.937 232.81 125.802C231.991 124.006 230.093 119.699 230.392 118.475C230.564 117.903 230.772 117.342 231.016 116.797C231.523 115.573 233.044 111.851 232.459 111.214C231.523 111.214 227.351 116.419 226.935 118.71C226.584 120.61 228.742 126.037 229.613 127.976C229.676 128.112 229.69 128.266 229.652 128.411C229.615 128.557 229.528 128.685 229.407 128.773C229.287 128.862 229.139 128.906 228.989 128.899C228.839 128.891 228.697 128.831 228.586 128.73C224.011 124.826 224.011 124.058 224.011 123.785C224.011 123.512 224.011 123.486 224.011 123.213C224.167 118.15 223.907 116.953 223.738 116.706C223.662 116.62 223.562 116.559 223.45 116.531C223.339 116.504 223.222 116.51 223.114 116.549C222.595 116.719 222.218 117.499 222.114 118.645C221.815 121.716 221.932 125.841 222.712 127.429C223.023 128.067 224.193 130.123 225.545 132.505C228.742 138.14 231.016 142.187 231.25 143.059C231.536 144.256 230.951 148.98 230.665 150.984ZM244.285 129.381C244.441 129.915 245.065 131.685 245.689 133.442C246.598 132.995 247.589 132.742 248.6 132.7C248.674 131.226 248.927 129.766 249.354 128.353C249.649 127.77 250.099 127.279 250.654 126.935C249.301 127.149 247.916 126.867 246.755 126.141C245.857 127.162 245.032 128.244 244.285 129.381Z" fill="#171717"/>
<path d="M235.825 132.869C237.037 133.956 237.991 135.301 238.616 136.805C239.242 138.309 239.522 139.935 239.438 141.562C240.671 138.665 242.727 136.194 245.351 134.457" fill="white"/>
<path d="M239.438 142.213H239.282C239.131 142.176 238.998 142.086 238.907 141.96C238.816 141.833 238.774 141.678 238.788 141.523C238.853 140.003 238.584 138.486 238 137.081C237.416 135.676 236.532 134.416 235.409 133.39C235.333 133.339 235.268 133.273 235.219 133.195C235.17 133.118 235.138 133.031 235.125 132.94C235.112 132.849 235.119 132.757 235.144 132.668C235.169 132.58 235.212 132.499 235.271 132.428C235.33 132.358 235.403 132.301 235.486 132.262C235.568 132.222 235.658 132.2 235.75 132.197C235.841 132.195 235.932 132.211 236.017 132.246C236.101 132.281 236.178 132.334 236.241 132.4C238.192 134.151 239.512 136.498 239.997 139.077C241.271 136.993 242.989 135.216 245.026 133.871C245.174 133.787 245.349 133.764 245.514 133.807C245.679 133.851 245.82 133.958 245.907 134.105C245.994 134.251 246.02 134.426 245.979 134.592C245.938 134.758 245.834 134.901 245.689 134.99C243.187 136.659 241.223 139.019 240.036 141.784C239.992 141.908 239.912 142.017 239.805 142.093C239.698 142.17 239.569 142.212 239.438 142.213Z" fill="#171717"/>
<path d="M227.806 129.069C227.806 129.069 233.187 125.972 236.488 125.815Z" fill="white"/>
<path d="M227.806 129.72C227.664 129.718 227.527 129.67 227.415 129.583C227.303 129.496 227.222 129.375 227.185 129.238C227.149 129.101 227.158 128.955 227.211 128.824C227.264 128.692 227.359 128.582 227.481 128.509C227.715 128.379 233.031 125.334 236.449 125.165C236.534 125.16 236.62 125.173 236.7 125.202C236.78 125.231 236.854 125.275 236.918 125.332C236.981 125.39 237.033 125.459 237.069 125.536C237.106 125.614 237.127 125.697 237.131 125.783C237.135 125.868 237.123 125.954 237.094 126.034C237.065 126.115 237.021 126.189 236.964 126.253C236.906 126.316 236.837 126.368 236.76 126.404C236.683 126.441 236.599 126.462 236.514 126.466C233.408 126.622 228.183 129.616 228.131 129.655C228.03 129.702 227.918 129.724 227.806 129.72Z" fill="#171717"/>
<path d="M385.257 139.871C385.709 138.095 385.845 136.254 385.66 134.431C385.27 131.971 385.803 126.765 385.14 124.891C384.477 123.017 377.472 117.604 377.966 116.562C378.443 115.936 379.111 115.483 379.869 115.272C380.626 115.06 381.432 115.102 382.164 115.391C383.671 116.081 389.455 122.015 389.455 122.015L404.218 113.608L415.746 112.854C415.746 112.854 405.7 126.128 404.608 128.34C403.517 130.553 401.71 135.628 399.774 136.89C398.783 137.557 397.725 138.115 396.616 138.556L394.744 142.616L385.257 139.871Z" fill="white"/>
<path d="M394.744 143.267H394.562L385.075 140.508C384.912 140.46 384.774 140.35 384.689 140.202C384.604 140.055 384.58 139.88 384.62 139.714C385.056 138.016 385.188 136.253 385.01 134.509C384.856 133.065 384.804 131.613 384.854 130.162C384.95 128.463 384.841 126.759 384.529 125.087C383.505 123.641 382.304 122.329 380.955 121.182C377.966 118.28 376.952 117.187 377.381 116.302C377.93 115.516 378.729 114.941 379.649 114.671C380.568 114.401 381.551 114.453 382.437 114.819C383.84 115.456 388.207 119.829 389.572 121.208L403.868 113.049C403.952 113.003 404.045 112.977 404.141 112.971L415.681 112.216C415.805 112.208 415.929 112.236 416.037 112.297C416.146 112.357 416.235 112.448 416.294 112.557C416.352 112.667 416.379 112.791 416.369 112.915C416.36 113.039 416.315 113.158 416.24 113.257C412.783 117.838 406.012 126.935 405.167 128.639C404.92 129.147 404.634 129.798 404.322 130.513C403.179 133.116 401.723 136.37 400.099 137.45C399.138 138.079 398.125 138.624 397.07 139.077L395.303 142.903C395.254 143.01 395.175 143.101 395.076 143.166C394.977 143.231 394.862 143.266 394.744 143.267ZM386.024 139.363L394.393 141.784L396.031 138.231C396.066 138.151 396.118 138.079 396.183 138.021C396.248 137.962 396.324 137.919 396.408 137.892C397.466 137.467 398.477 136.931 399.423 136.292C400.722 135.433 402.204 132.114 403.153 129.928C403.478 129.186 403.777 128.522 404.024 128.002C404.959 126.128 411.912 116.823 414.421 113.543L404.439 114.194L389.819 122.523C389.695 122.593 389.552 122.621 389.411 122.602C389.27 122.584 389.14 122.519 389.039 122.419C386.829 120.154 382.956 116.393 381.93 115.912C381.37 115.708 380.764 115.67 380.183 115.801C379.603 115.933 379.072 116.229 378.655 116.654C379.599 117.966 380.674 119.178 381.865 120.271C383.983 122.328 385.4 123.746 385.764 124.709C386.148 126.522 386.283 128.378 386.167 130.227C386.12 131.608 386.167 132.991 386.31 134.366C386.497 136.053 386.4 137.76 386.024 139.415V139.363Z" fill="#171717"/>
<path d="M395.485 121.169C398.785 121.568 401.981 122.584 404.907 124.163Z" fill="white"/>
<path d="M404.907 124.813C404.783 124.813 404.661 124.777 404.556 124.709C401.727 123.194 398.643 122.215 395.459 121.82C395.286 121.801 395.129 121.714 395.02 121.579C394.912 121.443 394.861 121.27 394.88 121.098C394.899 120.925 394.986 120.767 395.121 120.659C395.257 120.55 395.429 120.5 395.602 120.519C398.999 120.923 402.289 121.97 405.297 123.603C405.37 123.648 405.433 123.707 405.482 123.777C405.532 123.846 405.568 123.925 405.587 124.009C405.606 124.092 405.609 124.178 405.595 124.263C405.581 124.347 405.55 124.428 405.505 124.501C405.441 124.601 405.353 124.682 405.248 124.737C405.143 124.792 405.025 124.818 404.907 124.813Z" fill="#171717"/>
<path d="M398.201 122.302C398.067 122.301 397.936 122.258 397.827 122.18C397.718 122.102 397.636 121.992 397.591 121.865C397.547 121.738 397.543 121.6 397.58 121.471C397.618 121.342 397.694 121.227 397.798 121.143L407.52 113.205C407.584 113.14 407.661 113.09 407.745 113.057C407.83 113.025 407.921 113.01 408.012 113.014C408.102 113.019 408.191 113.042 408.272 113.083C408.354 113.124 408.425 113.182 408.483 113.252C408.54 113.323 408.582 113.404 408.606 113.492C408.631 113.58 408.636 113.672 408.622 113.762C408.609 113.852 408.576 113.938 408.528 114.014C408.479 114.091 408.414 114.157 408.338 114.207L398.617 122.158C398.497 122.25 398.352 122.3 398.201 122.302Z" fill="#171717"/>
<path d="M402.256 123.512C402.08 123.512 401.912 123.441 401.788 123.317C401.668 123.193 401.601 123.027 401.601 122.855C401.601 122.682 401.668 122.517 401.788 122.393L411.249 112.997C411.372 112.874 411.538 112.805 411.711 112.805C411.884 112.805 412.05 112.874 412.172 112.997C412.294 113.119 412.363 113.285 412.363 113.459C412.363 113.632 412.294 113.798 412.172 113.921L402.711 123.317C402.591 123.439 402.427 123.51 402.256 123.512Z" fill="#171717"/>
<path d="M389.455 122.015C389.455 122.015 394.51 127.846 393.457 132.427Z" fill="white"/>
<path d="M393.458 133.129H393.315C393.148 133.089 393.004 132.984 392.914 132.838C392.823 132.692 392.795 132.516 392.834 132.348C393.796 128.093 389.013 122.51 388.935 122.458C388.815 122.334 388.748 122.168 388.748 121.996C388.748 121.823 388.815 121.658 388.935 121.534C388.994 121.473 389.065 121.425 389.143 121.392C389.221 121.359 389.305 121.342 389.39 121.342C389.475 121.342 389.558 121.359 389.637 121.392C389.715 121.425 389.785 121.473 389.845 121.534C390.066 121.781 395.043 127.676 393.991 132.57C393.975 132.708 393.915 132.838 393.819 132.94C393.722 133.041 393.595 133.107 393.458 133.129Z" fill="#171717"/>
<path d="M359.667 107.336C359.667 107.336 366.464 109.834 366.776 115.404L429.691 115.73C430.055 110.16 436.878 107.726 436.878 107.726L359.667 107.336Z" fill="white"/>
<path d="M429.678 116.367L366.776 116.042C366.61 116.042 366.451 115.979 366.33 115.865C366.209 115.752 366.136 115.596 366.126 115.43C365.84 110.368 359.498 107.947 359.433 107.934C359.291 107.879 359.173 107.776 359.1 107.643C359.026 107.51 359.002 107.355 359.03 107.205C359.055 107.055 359.133 106.918 359.25 106.82C359.367 106.722 359.515 106.67 359.667 106.672L436.878 107.062C437.031 107.06 437.179 107.113 437.295 107.211C437.412 107.309 437.49 107.445 437.515 107.596C437.543 107.747 437.516 107.903 437.44 108.036C437.364 108.17 437.243 108.272 437.099 108.325C437.034 108.325 430.679 110.693 430.328 115.756C430.318 115.921 430.245 116.077 430.124 116.191C430.004 116.304 429.844 116.368 429.678 116.367ZM367.361 114.74L429.106 115.053C429.404 113.64 430.006 112.31 430.87 111.155C431.734 109.999 432.84 109.047 434.11 108.364L362.37 107.999C363.645 108.691 364.752 109.655 365.614 110.822C366.476 111.989 367.073 113.331 367.361 114.753V114.74Z" fill="#171717"/>
<path d="M285.237 153.21L248.263 174.709L248.392 149.136L227.598 149.8C227.598 149.8 217.747 189.454 223.699 199.396C229.652 209.339 272.501 195.622 288.681 181.879L285.237 153.21Z" fill="#FC3060"/>
<path d="M346.034 153.717L369.427 164.128L383.853 135.628L400.606 139.649C400.606 139.649 390.754 189.245 378.772 188.595C366.789 187.944 323.316 174.488 323.316 174.488L346.034 153.717Z" fill="#FC3060"/>
<path d="M288.317 240.546C288.147 240.547 287.984 240.48 287.862 240.361C287.741 240.241 287.671 240.079 287.667 239.909C287.472 219.438 291.41 163.621 291.449 163.048C291.456 162.945 291.488 162.844 291.542 162.756C291.597 162.667 291.672 162.594 291.761 162.541L311.411 151.075V143.944C311.421 143.773 311.495 143.613 311.618 143.495C311.741 143.377 311.904 143.309 312.074 143.306C312.159 143.306 312.243 143.323 312.321 143.356C312.399 143.389 312.47 143.437 312.529 143.498C312.589 143.558 312.635 143.63 312.666 143.709C312.698 143.788 312.713 143.872 312.711 143.957V151.466C312.709 151.578 312.679 151.687 312.622 151.783C312.565 151.879 312.483 151.958 312.386 152.012L292.723 163.491C292.385 168.241 288.824 220.323 288.967 239.896C288.967 240.066 288.9 240.23 288.781 240.351C288.662 240.473 288.5 240.543 288.33 240.546H288.317Z" fill="#171717"/>
<path d="M301.496 169.087C302.809 169.087 303.874 168.021 303.874 166.705C303.874 165.39 302.809 164.324 301.496 164.324C300.182 164.324 299.117 165.39 299.117 166.705C299.117 168.021 300.182 169.087 301.496 169.087Z" fill="#171717"/>
<path d="M320.418 169.178C321.731 169.178 322.796 168.112 322.796 166.796C322.796 165.481 321.731 164.415 320.418 164.415C319.104 164.415 318.04 165.481 318.04 166.796C318.04 168.112 319.104 169.178 320.418 169.178Z" fill="#171717"/>
<path d="M393.536 146.742C394.849 146.742 395.914 145.675 395.914 144.36C395.914 143.045 394.849 141.979 393.536 141.979C392.222 141.979 391.157 143.045 391.157 144.36C391.157 145.675 392.222 146.742 393.536 146.742Z" fill="#171717"/>
<path d="M299.351 200.021C300.665 200.021 301.729 198.955 301.729 197.639C301.729 196.324 300.665 195.258 299.351 195.258C298.037 195.258 296.973 196.324 296.973 197.639C296.973 198.955 298.037 200.021 299.351 200.021Z" fill="#171717"/>
<path d="M242.856 156.88C244.169 156.88 245.234 155.813 245.234 154.498C245.234 153.183 244.169 152.116 242.856 152.116C241.542 152.116 240.478 153.183 240.478 154.498C240.478 155.813 241.542 156.88 242.856 156.88Z" fill="#171717"/>
<path d="M315.155 200.099C316.468 200.099 317.533 199.033 317.533 197.718C317.533 196.402 316.468 195.336 315.155 195.336C313.841 195.336 312.776 196.402 312.776 197.718C312.776 199.033 313.841 200.099 315.155 200.099Z" fill="#171717"/>
<path d="M296.83 229.42C298.143 229.42 299.208 228.353 299.208 227.038C299.208 225.723 298.143 224.656 296.83 224.656C295.516 224.656 294.451 225.723 294.451 227.038C294.451 228.353 295.516 229.42 296.83 229.42Z" fill="#171717"/>
<path d="M315.363 229.511C316.676 229.511 317.741 228.444 317.741 227.129C317.741 225.814 316.676 224.748 315.363 224.748C314.049 224.748 312.984 225.814 312.984 227.129C312.984 228.444 314.049 229.511 315.363 229.511Z" fill="#171717"/>
<path d="M279.454 226.153C279.286 226.153 279.124 226.088 279.003 225.972C278.882 225.855 278.811 225.697 278.804 225.528C278.154 206.762 283.691 164.519 283.743 164.155C283.765 163.984 283.855 163.829 283.991 163.724C284.127 163.619 284.3 163.573 284.47 163.595C284.556 163.605 284.638 163.631 284.712 163.673C284.787 163.716 284.852 163.772 284.905 163.84C284.957 163.908 284.995 163.986 285.016 164.069C285.038 164.152 285.042 164.239 285.029 164.324C285.029 164.74 279.48 206.827 280.065 225.489C280.068 225.575 280.055 225.66 280.025 225.741C279.996 225.821 279.951 225.894 279.893 225.957C279.835 226.02 279.765 226.071 279.688 226.107C279.61 226.143 279.526 226.163 279.441 226.166L279.454 226.153Z" fill="#171717"/>
<path d="M378.733 189.245C370.935 189.245 332.414 177.91 330.776 177.429C330.604 177.379 330.458 177.262 330.372 177.105C330.285 176.947 330.265 176.762 330.315 176.589C330.365 176.417 330.481 176.271 330.638 176.184C330.796 176.098 330.981 176.077 331.153 176.127C331.543 176.244 371.104 187.84 378.733 187.84C378.905 187.84 379.07 187.908 379.192 188.03C379.314 188.152 379.383 188.318 379.383 188.491C379.383 188.663 379.314 188.829 379.192 188.951C379.07 189.073 378.905 189.141 378.733 189.141V189.245Z" fill="#171717"/>
<path d="M227.079 160.615C226.906 160.615 226.741 160.546 226.619 160.424C226.497 160.302 226.429 160.137 226.429 159.964C226.429 159.791 226.497 159.626 226.619 159.504C226.741 159.382 226.906 159.313 227.079 159.313L246.118 158.559C246.29 158.555 246.456 158.618 246.582 158.734C246.708 158.851 246.784 159.012 246.794 159.183C246.794 159.354 246.73 159.519 246.615 159.644C246.499 159.77 246.34 159.847 246.17 159.86L227.105 160.615H227.079Z" fill="#171717"/>
<path d="M364.592 174.683C364.498 174.701 364.401 174.701 364.306 174.683C364.229 174.645 364.161 174.593 364.104 174.529C364.048 174.464 364.005 174.389 363.979 174.308C363.952 174.226 363.942 174.14 363.949 174.055C363.956 173.97 363.981 173.887 364.021 173.811L380.526 140.69C380.563 140.613 380.616 140.545 380.68 140.488C380.744 140.431 380.818 140.388 380.899 140.36C380.98 140.332 381.066 140.321 381.151 140.326C381.236 140.331 381.32 140.353 381.397 140.391C381.473 140.429 381.542 140.481 381.599 140.545C381.655 140.609 381.699 140.684 381.726 140.765C381.754 140.846 381.766 140.932 381.76 141.017C381.755 141.102 381.733 141.186 381.696 141.263L365.229 174.318C365.173 174.437 365.082 174.536 364.968 174.602C364.854 174.667 364.723 174.695 364.592 174.683Z" fill="#171717"/>
<path d="M395.875 151.752H395.706L380.916 147.77C380.744 147.725 380.596 147.613 380.506 147.46C380.416 147.306 380.39 147.123 380.435 146.95C380.48 146.777 380.591 146.63 380.745 146.539C380.899 146.449 381.082 146.424 381.254 146.469L396.044 150.451C396.216 150.473 396.373 150.563 396.479 150.701C396.585 150.839 396.632 151.014 396.609 151.186C396.587 151.359 396.497 151.515 396.359 151.621C396.221 151.728 396.047 151.775 395.875 151.752Z" fill="#171717"/>
<path d="M399.033 84.5742C400.942 84.5742 402.49 83.0243 402.49 81.1125C402.49 79.2006 400.942 77.6508 399.033 77.6508C397.123 77.6508 395.576 79.2006 395.576 81.1125C395.576 83.0243 397.123 84.5742 399.033 84.5742Z" fill="white"/>
<path d="M399.02 85.2248C397.931 85.2155 396.889 84.7758 396.122 84.0015C395.554 83.4258 395.169 82.6952 395.014 81.9012C394.859 81.1072 394.941 80.285 395.251 79.5377C395.56 78.7903 396.082 78.1509 396.753 77.6995C397.423 77.2481 398.212 77.0048 399.02 77C400.107 77.0069 401.147 77.445 401.912 78.2183C402.677 78.9916 403.104 80.037 403.101 81.1254C403.104 81.6655 402.998 82.2007 402.79 82.6993C402.583 83.1978 402.277 83.6495 401.892 84.0275C401.129 84.7884 400.097 85.2184 399.02 85.2248ZM399.02 78.3014C398.279 78.3048 397.569 78.6003 397.043 79.1239C396.518 79.6475 396.22 80.3572 396.213 81.0994C396.208 81.6549 396.368 82.1993 396.673 82.6633C396.978 83.1273 397.414 83.4899 397.926 83.7049C398.437 83.9198 399.001 83.9774 399.545 83.8703C400.09 83.7632 400.59 83.4963 400.982 83.1036C401.507 82.5766 401.802 81.863 401.802 81.1189C401.802 80.3749 401.507 79.6612 400.982 79.1343C400.725 78.8715 400.417 78.6626 400.078 78.5196C399.739 78.3767 399.375 78.3025 399.007 78.3014H399.02Z" fill="#171717"/>
<path d="M432.719 107.843C429.821 92.9422 415.915 81.6071 399.202 81.529C382.488 81.4509 368.465 92.6299 365.411 107.557L432.719 107.843Z" fill="white"/>
<path d="M432.719 108.559L365.411 108.221C365.314 108.219 365.219 108.195 365.132 108.153C365.045 108.11 364.969 108.048 364.908 107.973C364.847 107.897 364.804 107.809 364.781 107.714C364.758 107.62 364.756 107.522 364.775 107.427C367.933 92.0572 382.32 80.9432 399.007 80.9432H399.202C415.98 81.0213 430.393 92.3174 433.356 107.778C433.374 107.873 433.372 107.971 433.349 108.065C433.327 108.159 433.285 108.248 433.226 108.325C433.163 108.397 433.085 108.455 432.998 108.495C432.91 108.536 432.816 108.557 432.719 108.559ZM366.217 106.919L431.927 107.257C428.704 92.7859 415.031 82.3227 399.189 82.2446H399.02C383.216 82.1796 369.57 92.4866 366.217 106.854V106.919Z" fill="#171717"/>
<path d="M436.903 105.901L359.68 105.51L359.664 108.633L436.888 109.025L436.903 105.901Z" fill="white"/>
<path d="M436.878 109.678L359.654 109.288C359.482 109.284 359.319 109.215 359.198 109.093C359.077 108.972 359.007 108.809 359.004 108.637V105.514C359.007 105.342 359.077 105.179 359.198 105.057C359.319 104.936 359.482 104.866 359.654 104.863L436.878 105.253C436.963 105.252 437.048 105.269 437.126 105.303C437.204 105.336 437.275 105.386 437.333 105.449C437.451 105.571 437.516 105.734 437.515 105.904V109.027C437.515 109.198 437.448 109.361 437.329 109.483C437.21 109.605 437.048 109.675 436.878 109.678ZM360.304 107.986L436.228 108.377V106.555L360.304 106.164V107.986Z" fill="#171717"/>
<path d="M376.467 233.827L398.05 237.536L398.565 234.535L376.982 230.825L376.467 233.827Z" fill="white"/>
<path d="M398.058 238.178H397.941L376.367 234.469C376.194 234.437 376.04 234.339 375.938 234.196C375.889 234.127 375.855 234.048 375.837 233.966C375.819 233.883 375.818 233.797 375.834 233.714L376.341 230.721C376.373 230.551 376.469 230.401 376.61 230.301C376.751 230.202 376.925 230.161 377.095 230.187L398.682 233.896C398.766 233.91 398.847 233.942 398.919 233.989C398.99 234.036 399.051 234.097 399.098 234.17C399.149 234.238 399.186 234.316 399.206 234.398C399.226 234.481 399.229 234.567 399.215 234.651L398.695 237.644C398.668 237.794 398.589 237.929 398.473 238.026C398.356 238.124 398.21 238.177 398.058 238.178ZM377.264 233.285L397.564 236.772L397.863 235.055L377.55 231.567L377.264 233.285Z" fill="#F1E7D9"/>
<path d="M365.891 233.218L382.299 236.038C383.728 236.284 385.086 235.323 385.331 233.892L385.362 233.713C385.607 232.282 384.647 230.922 383.218 230.677L366.81 227.857C365.381 227.611 364.024 228.572 363.778 230.003L363.748 230.182C363.502 231.613 364.462 232.972 365.891 233.218Z" fill="white"/>
<path d="M382.749 236.72H382.19L365.788 233.896C364.933 233.747 364.172 233.265 363.67 232.555C363.169 231.846 362.968 230.967 363.111 230.109V229.927C363.264 229.072 363.746 228.312 364.453 227.81C365.161 227.309 366.037 227.106 366.893 227.246L383.307 230.07C384.162 230.22 384.924 230.702 385.425 231.411C385.927 232.121 386.128 233 385.985 233.857V234.039C385.842 234.794 385.441 235.475 384.85 235.965C384.259 236.454 383.515 236.722 382.749 236.72ZM366.373 228.456C365.906 228.459 365.455 228.626 365.098 228.928C364.742 229.23 364.503 229.648 364.424 230.109V230.278C364.378 230.535 364.383 230.798 364.438 231.053C364.494 231.307 364.6 231.548 364.749 231.762C365.059 232.192 365.526 232.481 366.048 232.569L382.45 235.393C382.966 235.48 383.496 235.359 383.925 235.057C384.353 234.755 384.645 234.296 384.737 233.779V233.597C384.784 233.34 384.779 233.077 384.723 232.822C384.667 232.568 384.56 232.327 384.41 232.114C384.26 231.9 384.07 231.719 383.849 231.581C383.628 231.442 383.382 231.349 383.125 231.307L366.711 228.496C366.6 228.469 366.487 228.456 366.373 228.456Z" fill="#F1E7D9"/>
<path d="M389.143 256.28H449.043C450.672 256.28 451.993 254.958 451.993 253.326V250.645C451.993 249.014 450.672 247.691 449.043 247.691H389.143C387.514 247.691 386.193 249.014 386.193 250.645V253.326C386.193 254.958 387.514 256.28 389.143 256.28Z" fill="white"/>
<path d="M449.043 256.918H389.142C388.188 256.918 387.272 256.538 386.597 255.862C385.922 255.186 385.542 254.269 385.542 253.313V250.632C385.542 249.676 385.922 248.759 386.597 248.083C387.272 247.407 388.188 247.028 389.142 247.028H449.043C449.997 247.028 450.913 247.407 451.588 248.083C452.263 248.759 452.643 249.676 452.643 250.632V253.313C452.643 254.269 452.263 255.186 451.588 255.862C450.913 256.538 449.997 256.918 449.043 256.918ZM389.142 248.329C388.84 248.329 388.541 248.389 388.262 248.504C387.983 248.62 387.729 248.79 387.516 249.004C387.302 249.218 387.133 249.471 387.017 249.751C386.902 250.03 386.842 250.33 386.842 250.632V253.313C386.842 253.616 386.902 253.915 387.017 254.195C387.133 254.474 387.302 254.728 387.516 254.942C387.729 255.156 387.983 255.326 388.262 255.441C388.541 255.557 388.84 255.617 389.142 255.617H449.043C449.345 255.617 449.644 255.557 449.923 255.441C450.202 255.326 450.456 255.156 450.669 254.942C450.883 254.728 451.052 254.474 451.168 254.195C451.283 253.915 451.343 253.616 451.343 253.313V250.632C451.343 250.022 451.101 249.436 450.669 249.004C450.238 248.572 449.653 248.329 449.043 248.329H389.142Z" fill="#F1E7D9"/>
<path d="M439.712 247.639L435.228 241.249H432.538L435.228 247.639H439.712Z" fill="white"/>
<path d="M439.712 248.29H435.228C435.1 248.289 434.974 248.25 434.868 248.179C434.762 248.107 434.679 248.005 434.63 247.886L431.94 241.509C431.889 241.413 431.862 241.306 431.862 241.197C431.862 241.088 431.889 240.981 431.94 240.885C432 240.795 432.081 240.723 432.177 240.673C432.272 240.623 432.378 240.597 432.486 240.598H435.176C435.28 240.599 435.382 240.624 435.475 240.671C435.567 240.719 435.648 240.787 435.709 240.872L440.192 247.262C440.253 247.364 440.285 247.481 440.285 247.6C440.285 247.719 440.253 247.836 440.192 247.938C440.146 248.031 440.078 248.111 439.995 248.172C439.911 248.233 439.814 248.274 439.712 248.29ZM435.657 246.988H438.451L434.89 241.9H433.512L435.657 246.988Z" fill="#F1E7D9"/>
<path d="M397.785 247.691L401.476 242.434H403.699L401.476 247.691H397.785Z" fill="white"/>
<path d="M401.476 248.342H397.785C397.667 248.341 397.551 248.308 397.45 248.246C397.35 248.184 397.268 248.096 397.213 247.991C397.153 247.888 397.121 247.771 397.121 247.652C397.121 247.533 397.153 247.416 397.213 247.314L400.904 242.108C400.965 242.024 401.045 241.955 401.138 241.908C401.231 241.86 401.333 241.836 401.437 241.835H403.646C403.754 241.834 403.86 241.859 403.955 241.909C404.051 241.959 404.132 242.032 404.192 242.121C404.251 242.211 404.287 242.313 404.298 242.419C404.309 242.526 404.295 242.633 404.257 242.733L402.035 247.939C401.989 248.051 401.912 248.149 401.813 248.221C401.714 248.292 401.598 248.334 401.476 248.342ZM399.033 247.041H401.047L402.711 243.136H401.814L399.033 247.041Z" fill="#F1E7D9"/>
<path d="M417.397 247.691H420.087V242.434H417.397V247.691Z" fill="white"/>
<path d="M420.087 248.342H417.41C417.237 248.342 417.072 248.273 416.95 248.151C416.828 248.029 416.76 247.864 416.76 247.691V242.486C416.76 242.313 416.828 242.148 416.95 242.026C417.072 241.904 417.237 241.835 417.41 241.835H420.087C420.259 241.835 420.424 241.904 420.546 242.026C420.668 242.148 420.737 242.313 420.737 242.486V247.691C420.737 247.864 420.668 248.029 420.546 248.151C420.424 248.273 420.259 248.342 420.087 248.342ZM418.059 247.041H419.437V243.136H418.059V247.041Z" fill="#F1E7D9"/>
<path d="M439.776 242.434H397.824C397.27 242.434 396.72 242.324 396.208 242.112C395.695 241.899 395.23 241.588 394.838 241.195C394.445 240.802 394.134 240.336 393.922 239.823C393.71 239.309 393.6 238.759 393.6 238.204V231.007H443.948V238.204C443.948 238.759 443.839 239.309 443.627 239.823C443.414 240.336 443.103 240.802 442.711 241.195C442.319 241.588 441.853 241.899 441.341 242.112C440.828 242.324 440.279 242.434 439.724 242.434H439.776Z" fill="white"/>
<path d="M439.724 243.084H397.72C396.428 243.084 395.188 242.57 394.274 241.655C393.36 240.74 392.847 239.498 392.847 238.204V230.994C392.847 230.822 392.915 230.656 393.037 230.534C393.159 230.412 393.324 230.344 393.496 230.344H443.896C444.069 230.344 444.234 230.412 444.356 230.534C444.478 230.656 444.546 230.822 444.546 230.994V238.204C444.546 239.489 444.04 240.723 443.137 241.637C442.234 242.55 441.008 243.07 439.724 243.084ZM394.237 231.645V238.152C394.237 239.101 394.614 240.011 395.284 240.682C395.954 241.354 396.863 241.731 397.811 241.731H439.763C440.711 241.731 441.62 241.354 442.291 240.682C442.961 240.011 443.337 239.101 443.337 238.152V231.645H394.237Z" fill="#F1E7D9"/>
<path d="M210.742 227.272H261.635V250.177C261.635 251.796 260.993 253.348 259.85 254.493C258.707 255.637 257.157 256.28 255.54 256.28H216.837C215.22 256.28 213.67 255.637 212.527 254.493C211.384 253.348 210.742 251.796 210.742 250.177V227.272Z" fill="white"/>
<path d="M255.54 256.918H216.837C215.05 256.915 213.336 256.202 212.072 254.936C210.807 253.67 210.096 251.954 210.092 250.164V227.259C210.092 227.087 210.161 226.921 210.283 226.799C210.404 226.677 210.57 226.609 210.742 226.609H261.636C261.808 226.609 261.973 226.677 262.095 226.799C262.217 226.921 262.286 227.087 262.286 227.259V250.164C262.286 251.955 261.575 253.673 260.31 254.94C259.045 256.207 257.329 256.918 255.54 256.918ZM211.353 227.91V250.164C211.356 251.609 211.931 252.994 212.952 254.016C213.972 255.038 215.355 255.613 216.798 255.617H255.54C256.985 255.617 258.37 255.042 259.391 254.02C260.412 252.997 260.986 251.61 260.986 250.164V227.91H211.353Z" fill="#F1E7D9"/>
<path d="M236.189 217.186C220.593 217.186 210.742 221.702 210.742 227.272H261.635C261.635 221.702 251.771 217.186 236.189 217.186Z" fill="white"/>
<path d="M261.636 227.923H210.742C210.57 227.923 210.404 227.855 210.283 227.733C210.161 227.61 210.092 227.445 210.092 227.272C210.092 220.948 220.827 216.536 236.189 216.536C251.551 216.536 262.286 220.948 262.286 227.272C262.286 227.445 262.217 227.61 262.095 227.733C261.973 227.855 261.808 227.923 261.636 227.923ZM211.444 226.622H260.934C260.193 222.158 251.72 217.837 236.241 217.837C220.762 217.837 212.198 222.158 211.444 226.622Z" fill="#F1E7D9"/>
<path d="M206.531 229.459H210.742V231.723H206.531C206.231 231.723 205.944 231.604 205.732 231.391C205.52 231.179 205.4 230.891 205.4 230.591C205.4 230.291 205.52 230.003 205.732 229.79C205.944 229.578 206.231 229.459 206.531 229.459Z" fill="white"/>
<path d="M210.742 232.374H206.531C206.059 232.374 205.606 232.186 205.272 231.851C204.938 231.517 204.75 231.064 204.75 230.591C204.75 230.118 204.938 229.664 205.272 229.33C205.606 228.996 206.059 228.808 206.531 228.808H210.742C210.914 228.808 211.079 228.876 211.201 228.998C211.323 229.12 211.392 229.286 211.392 229.459V231.723C211.392 231.896 211.323 232.061 211.201 232.183C211.079 232.305 210.914 232.374 210.742 232.374ZM206.531 230.109C206.467 230.108 206.403 230.119 206.343 230.142C206.283 230.166 206.229 230.201 206.183 230.246C206.136 230.291 206.1 230.344 206.075 230.403C206.05 230.463 206.037 230.526 206.037 230.591C206.041 230.72 206.094 230.842 206.186 230.932C206.279 231.022 206.402 231.072 206.531 231.072H210.092V230.109H206.531Z" fill="#F1E7D9"/>
<path d="M261.636 229.459H265.847C266.146 229.459 266.434 229.578 266.646 229.79C266.858 230.003 266.977 230.291 266.977 230.591C266.977 230.891 266.858 231.179 266.646 231.391C266.434 231.604 266.146 231.723 265.847 231.723H261.636V229.459Z" fill="white"/>
<path d="M265.859 232.374H261.636C261.463 232.374 261.298 232.305 261.176 232.183C261.054 232.061 260.986 231.896 260.986 231.723V229.459C260.986 229.286 261.054 229.12 261.176 228.998C261.298 228.876 261.463 228.808 261.636 228.808H265.859C266.332 228.808 266.785 228.996 267.118 229.33C267.452 229.664 267.64 230.118 267.64 230.591C267.64 231.064 267.452 231.517 267.118 231.851C266.785 232.186 266.332 232.374 265.859 232.374ZM262.285 231.072H265.859C265.987 231.072 266.109 231.022 266.2 230.931C266.29 230.841 266.34 230.718 266.34 230.591C266.342 230.527 266.331 230.464 266.307 230.404C266.284 230.345 266.249 230.291 266.203 230.246C266.158 230.201 266.105 230.166 266.046 230.142C265.986 230.119 265.923 230.107 265.859 230.109H262.285V231.072Z" fill="#F1E7D9"/>
<path d="M243.246 220.362H229.145C228.973 220.362 228.807 220.293 228.685 220.171C228.564 220.049 228.495 219.884 228.495 219.711V217.512C228.499 215.998 229.101 214.546 230.17 213.476C231.239 212.405 232.688 211.802 234.201 211.799H238.19C239.703 211.802 241.152 212.405 242.221 213.476C243.29 214.546 243.892 215.998 243.896 217.512V219.711C243.896 219.884 243.827 220.049 243.705 220.171C243.584 220.293 243.418 220.362 243.246 220.362ZM229.795 219.06H242.596V217.512C242.596 216.342 242.132 215.22 241.306 214.392C240.479 213.565 239.359 213.1 238.19 213.1H234.201C233.032 213.1 231.911 213.565 231.085 214.392C230.259 215.22 229.795 216.342 229.795 217.512V219.06Z" fill="#F1E7D9"/>
</svg>
