<svg width="270" height="311" viewBox="0 0 270 311" fill="none" xmlns="http://www.w3.org/2000/svg">
<g clip-path="url(#clip0_893_3292)">
<path d="M7.02217e-07 250.926C0.806452 232.975 5.20737 216.339 13.7558 200.833C14.47 199.541 15.3456 198.341 15.9217 197.003C25.3917 174.483 42.9032 160.039 64.3088 149.541C78.6175 142.526 93.8249 138.327 109.447 135.419C130.415 131.52 151.452 130.228 172.558 133.897C201.221 138.857 224.539 152.586 241.728 176.145C251.59 189.689 259.954 204.041 265.945 219.708C267.12 222.776 268.065 225.938 269.194 229.029C271.106 234.244 269.355 238.305 265.323 241.697C261.06 245.296 256.106 247.696 251.014 249.865C239.286 254.895 226.982 257.987 214.516 260.433C177.535 267.724 140.599 275.431 103.456 281.868C81.1751 285.721 58.8018 289.159 36.3594 292.021C18.6406 294.282 8.43318 287.59 3.06452 270.562C1.91244 266.893 1.08295 263.132 0.62212 259.325C0.276498 256.418 0.161291 253.511 -0.0230408 250.903L7.02217e-07 250.926Z" fill="#FFCD49"/>
<path d="M143.802 0.0230038C161.475 0.0230038 176.636 4.56852 190.668 14.3287C209.309 27.3192 221.705 44.7167 230.622 65.0216C232.673 69.7055 234.217 74.6202 235.968 79.4196C236.659 81.3116 237.074 83.2729 236.982 85.3264C236.82 88.6029 235.438 90.7257 232.12 91.787C224.562 94.2098 216.889 96.4018 208.986 96.8171C192.765 97.6708 176.912 101.109 160.853 103.093C140.76 105.585 120.645 107.777 100.576 110.384C82.3041 112.738 63.9631 114.053 45.5991 115.299C39.6774 115.691 33.8249 115.415 27.9954 114.422C23.1336 113.592 21.8894 112.461 22.1198 107.593C22.5115 99.909 24.1935 92.387 26.1751 84.9572C29.7926 71.4822 36.4516 59.6916 45.3687 48.8931C66.4746 23.3736 93.5023 8.0065 125.945 1.75353C132.097 0.553699 138.318 -0.161586 143.802 0.0230038Z" fill="#FFCD49"/>
<path d="M138.594 164.931C164.378 165.831 191.982 174.898 213.986 197.534C225.138 209.024 233.018 222.615 238.502 237.497C243.111 250.003 240.899 255.518 229.355 262.648C213.571 272.385 196.267 278.407 178.502 283.414C154.217 290.267 129.309 294.074 104.562 298.666C86.4977 302.011 68.4793 305.703 50.4378 309.164C45.3917 310.133 40.2765 310.872 35.1152 310.872C32.5115 310.872 30 310.341 27.5115 309.741C25.4839 309.257 24.447 307.988 23.9401 306.026C23.4101 303.88 23.1567 301.711 23.1797 299.519C23.5484 275.107 26.4286 250.996 33.894 227.691C43.1106 198.987 64.0553 181.705 91.659 171.622C104.217 167.03 119.516 165.046 138.594 164.977V164.931ZM29.9309 292.713C29.9309 294.789 30.023 297.535 29.9078 300.258C29.7926 303.142 31.2442 304.111 33.9171 304.18C39.2857 304.319 44.5622 303.488 49.7926 302.496C67.6728 299.058 85.5069 295.389 103.41 292.113C128.18 287.567 153.111 283.737 177.396 276.838C194.263 272.062 210.714 266.316 225.714 257.087C234.539 251.665 235.76 248.988 232.166 239.574C220.507 208.978 200.046 187.081 168.065 176.975C143.364 169.176 118.525 169.568 94.2627 177.875C66.4055 187.404 46.5668 205.448 38.6866 234.729C33.6406 253.534 31.0599 272.685 29.9309 292.736V292.713Z" fill="#FC3060"/>
<path d="M148.018 37.8178C178.571 37.1025 199.608 52.0542 214.194 77.5276C216.912 82.2808 219.194 87.3108 220.599 92.6408C221.959 97.7401 220.829 100.532 216.152 103.116C210.968 105.977 205.253 107.477 199.539 108.931C179.723 113.984 159.516 116.937 139.332 119.868C113.664 123.606 87.765 125.475 62.1659 129.72C57.6267 130.482 53.1336 131.474 48.5714 132.028C40.8756 132.928 37.3963 128.244 39.8848 120.814C47.8802 97.071 61.8203 77.1123 79.7465 59.7839C87.9493 51.8466 97.9263 46.7242 108.825 43.5631C121.59 39.8713 134.724 38.1177 147.995 37.7947L148.018 37.8178ZM46.4977 125.013C48.6405 125.821 50.3917 125.082 52.1659 124.759C65.3687 122.337 78.6405 120.352 92.0046 118.922C121.452 115.761 150.806 112.115 179.908 106.554C190.184 104.593 200.484 102.539 210.277 98.64C214.747 96.8403 215 96.1942 213.318 91.6487C207.465 75.7278 197.627 62.8296 183.318 53.4387C176.106 48.7085 168.203 46.1243 159.631 45.1552C142.327 43.217 125.507 45.7551 108.986 50.5544C100.438 53.0464 92.5115 57.1074 85.9908 63.1988C69.1475 78.912 55.8064 97.0941 47.8111 118.829C47.1198 120.722 46.4516 122.614 46.5438 125.013H46.4977Z" fill="#FC3060"/>
</g>
<defs>
<clipPath id="clip0_893_3292">
<rect width="270" height="310.849" fill="white"/>
</clipPath>
</defs>
</svg>
