<svg width="636" height="480" viewBox="0 0 636 480" fill="none" xmlns="http://www.w3.org/2000/svg">
<path d="M521.848 351.408H110.685C110.504 351.408 110.329 351.335 110.201 351.207C110.072 351.078 110 350.903 110 350.721C110 350.539 110.072 350.365 110.201 350.236C110.329 350.107 110.504 350.035 110.685 350.035H521.889C522.07 350.039 522.242 350.112 522.37 350.24C522.497 350.368 522.571 350.541 522.574 350.721C522.574 350.815 522.555 350.908 522.518 350.994C522.481 351.08 522.427 351.158 522.359 351.222C522.291 351.286 522.211 351.336 522.123 351.368C522.035 351.4 521.941 351.413 521.848 351.408Z" fill="#171717"/>
<path d="M488.444 377.87H239.145L276.414 86.6863H525.727L488.444 377.87Z" fill="white"/>
<path d="M488.458 378.625H239.145C239.047 378.626 238.949 378.606 238.86 378.565C238.77 378.525 238.689 378.466 238.625 378.392C238.562 378.319 238.515 378.233 238.486 378.141C238.458 378.049 238.449 377.952 238.46 377.857L275.715 86.604C275.735 86.4389 275.814 86.2867 275.938 86.1756C276.061 86.0646 276.221 86.0022 276.387 86H525.727C525.826 85.9991 525.923 86.0194 526.013 86.0598C526.103 86.1001 526.184 86.1594 526.249 86.2337C526.314 86.308 526.362 86.3955 526.39 86.4902C526.419 86.5849 526.426 86.6845 526.412 86.7824L489.13 377.953C489.126 378.13 489.054 378.299 488.929 378.424C488.804 378.55 488.635 378.622 488.458 378.625ZM239.927 377.253H487.841L524.946 87.3726H277.086L239.927 377.253Z" fill="#171717"/>
<path d="M489.541 122.153H331.502C330.717 122.173 329.937 122.02 329.218 121.704C328.499 121.387 327.859 120.916 327.343 120.324C326.827 119.731 326.448 119.031 326.234 118.275C326.019 117.519 325.974 116.725 326.101 115.949L326.512 112.723C326.764 111.033 327.602 109.485 328.881 108.353C330.16 107.22 331.796 106.576 333.503 106.533H491.528C492.312 106.513 493.09 106.666 493.808 106.981C494.526 107.297 495.165 107.767 495.681 108.358C496.197 108.949 496.576 109.647 496.791 110.401C497.007 111.156 497.054 111.949 496.929 112.723L496.504 115.949C496.257 117.637 495.423 119.185 494.15 120.319C492.876 121.454 491.245 122.103 489.541 122.153Z" fill="#F1E7D9"/>
<path d="M309.338 109.086H295.247C295.065 109.086 294.891 109.014 294.763 108.885C294.634 108.756 294.562 108.582 294.562 108.4C294.565 108.219 294.639 108.046 294.766 107.919C294.894 107.791 295.066 107.717 295.247 107.714H309.338C309.518 107.717 309.691 107.791 309.818 107.919C309.946 108.046 310.02 108.219 310.023 108.4C310.023 108.582 309.951 108.756 309.822 108.885C309.694 109.014 309.519 109.086 309.338 109.086Z" fill="#171717"/>
<path d="M308.611 115.276H294.452C294.27 115.276 294.096 115.204 293.968 115.075C293.839 114.947 293.767 114.772 293.767 114.59C293.767 114.408 293.839 114.234 293.968 114.105C294.096 113.976 294.27 113.904 294.452 113.904H308.611C308.793 113.904 308.967 113.976 309.096 114.105C309.224 114.234 309.297 114.408 309.297 114.59C309.297 114.772 309.224 114.947 309.096 115.075C308.967 115.204 308.793 115.276 308.611 115.276Z" fill="#171717"/>
<path d="M307.748 121.453H293.671C293.489 121.453 293.315 121.38 293.186 121.252C293.058 121.123 292.986 120.948 292.986 120.766C292.986 120.584 293.058 120.41 293.186 120.281C293.315 120.152 293.489 120.08 293.671 120.08H307.748C307.93 120.08 308.104 120.152 308.232 120.281C308.361 120.41 308.433 120.584 308.433 120.766C308.433 120.948 308.361 121.123 308.232 121.252C308.104 121.38 307.93 121.453 307.748 121.453Z" fill="#171717"/>
<path d="M309.338 109.086H295.247C295.065 109.086 294.891 109.014 294.763 108.885C294.634 108.756 294.562 108.582 294.562 108.4C294.565 108.219 294.639 108.046 294.766 107.919C294.894 107.791 295.066 107.717 295.247 107.714H309.338C309.518 107.717 309.691 107.791 309.818 107.919C309.946 108.046 310.02 108.219 310.023 108.4C310.023 108.582 309.951 108.756 309.822 108.885C309.694 109.014 309.519 109.086 309.338 109.086Z" stroke="#171717" stroke-width="1.015" stroke-linecap="round" stroke-linejoin="round"/>
<path d="M308.611 115.276H294.452C294.27 115.276 294.096 115.204 293.968 115.075C293.839 114.947 293.767 114.772 293.767 114.59C293.767 114.408 293.839 114.234 293.968 114.105C294.096 113.976 294.27 113.904 294.452 113.904H308.611C308.793 113.904 308.967 113.976 309.096 114.105C309.224 114.234 309.297 114.408 309.297 114.59C309.297 114.772 309.224 114.947 309.096 115.075C308.967 115.204 308.793 115.276 308.611 115.276Z" stroke="#171717" stroke-width="1.015" stroke-linecap="round" stroke-linejoin="round"/>
<path d="M307.748 121.453H293.671C293.489 121.453 293.315 121.38 293.186 121.252C293.058 121.123 292.986 120.948 292.986 120.766C292.986 120.584 293.058 120.41 293.186 120.281C293.315 120.152 293.489 120.08 293.671 120.08H307.748C307.93 120.08 308.104 120.152 308.232 120.281C308.361 120.41 308.433 120.584 308.433 120.766C308.433 120.948 308.361 121.123 308.232 121.252C308.104 121.38 307.93 121.453 307.748 121.453Z" stroke="#171717" stroke-width="1.015" stroke-linecap="round" stroke-linejoin="round"/>
<path d="M479.439 198.37H296.974C294.945 198.423 292.929 198.029 291.069 197.214C289.209 196.399 287.552 195.184 286.215 193.654C284.877 192.125 283.893 190.32 283.331 188.366C282.77 186.413 282.645 184.359 282.966 182.352L285.968 158.868C286.6 154.468 288.765 150.433 292.081 147.476C295.397 144.52 299.65 142.833 304.088 142.713H486.567C488.596 142.67 490.61 143.075 492.466 143.9C494.322 144.724 495.974 145.947 497.304 147.483C498.635 149.018 499.611 150.828 500.165 152.784C500.718 154.74 500.835 156.793 500.506 158.799L497.559 182.352C496.9 186.729 494.723 190.733 491.409 193.662C488.096 196.591 483.858 198.258 479.439 198.37Z" fill="white"/>
<path d="M479.439 199.056H296.974C294.859 199.099 292.759 198.683 290.819 197.837C288.879 196.991 287.145 195.736 285.735 194.156C284.333 192.53 283.298 190.62 282.702 188.557C282.106 186.493 281.962 184.325 282.281 182.201L285.31 158.717C285.982 154.169 288.232 150.003 291.666 146.95C295.1 143.898 299.498 142.155 304.088 142.027H486.567C488.675 141.992 490.766 142.412 492.698 143.257C494.63 144.103 496.358 145.354 497.765 146.927C499.167 148.556 500.201 150.468 500.797 152.534C501.393 154.599 501.537 156.769 501.219 158.896L498.245 182.352C497.573 186.907 495.319 191.078 491.879 194.133C488.44 197.188 484.035 198.931 479.439 199.056ZM304.088 143.4C299.831 143.525 295.754 145.146 292.572 147.979C289.389 150.812 287.303 154.677 286.681 158.896L283.638 182.352C283.35 184.283 283.48 186.252 284.02 188.128C284.559 190.003 285.494 191.741 286.763 193.223C288.046 194.654 289.622 195.792 291.385 196.557C293.147 197.322 295.054 197.697 296.974 197.656H479.439C483.699 197.541 487.783 195.925 490.972 193.094C494.16 190.262 496.25 186.395 496.874 182.174L499.89 158.69C500.177 156.757 500.047 154.785 499.508 152.907C498.969 151.03 498.033 149.29 496.764 147.805C495.483 146.376 493.908 145.24 492.148 144.475C490.389 143.71 488.485 143.334 486.567 143.372L304.088 143.4Z" fill="#F1E7D9"/>
<path d="M333.044 183.749C341.331 175.964 342.507 163.738 335.671 156.44C328.834 149.143 316.574 149.537 308.287 157.322C300 165.106 298.824 177.333 305.66 184.63C312.497 191.928 324.757 191.533 333.044 183.749Z" fill="#FC3060"/>
<path d="M333.859 164.399C333.71 164.596 333.55 164.784 333.38 164.962L317 179.484C316.438 179.978 316.054 179.991 315.629 179.484L308.611 171.029C308.228 170.571 308.296 170.114 308.817 169.656L311.106 167.817C311.586 167.433 311.983 167.433 312.34 167.817L316.534 172.744C316.973 173.252 317.343 173.266 317.905 172.744L330.542 161.599C331.091 161.119 331.474 161.119 331.913 161.599C332.352 162.08 333.037 162.876 333.585 163.521C333.709 163.686 333.791 163.892 333.9 164.07L333.859 164.399Z" fill="white"/>
<path d="M475.423 162.107H358.107C357.561 162.107 357.038 161.89 356.653 161.504C356.267 161.118 356.051 160.595 356.051 160.049C356.051 159.503 356.267 158.979 356.653 158.593C357.038 158.207 357.561 157.99 358.107 157.99H475.423C475.968 157.99 476.491 158.207 476.877 158.593C477.262 158.979 477.479 159.503 477.479 160.049C477.479 160.595 477.262 161.118 476.877 161.504C476.491 161.89 475.968 162.107 475.423 162.107Z" fill="#171717"/>
<path d="M448.969 181.913H355.571C355.025 181.913 354.502 181.696 354.117 181.31C353.731 180.924 353.515 180.4 353.515 179.854C353.515 179.308 353.731 178.784 354.117 178.398C354.502 178.012 355.025 177.795 355.571 177.795H448.969C449.514 177.795 450.037 178.012 450.423 178.398C450.808 178.784 451.025 179.308 451.025 179.854C451.025 180.4 450.808 180.924 450.423 181.31C450.037 181.696 449.514 181.913 448.969 181.913Z" fill="#171717"/>
<path d="M471.187 262.756H288.723C286.687 262.809 284.665 262.411 282.801 261.591C280.937 260.772 279.277 259.55 277.938 258.013C276.6 256.477 275.618 254.663 275.06 252.702C274.503 250.741 274.385 248.681 274.714 246.669L277.73 223.185C278.368 218.79 280.536 214.761 283.851 211.811C287.167 208.86 291.416 207.177 295.85 207.058H478.315C480.351 207.01 482.372 207.413 484.235 208.237C486.098 209.062 487.755 210.289 489.09 211.83C490.424 213.37 491.402 215.187 491.954 217.15C492.506 219.113 492.618 221.174 492.282 223.185L489.28 246.669C488.637 251.054 486.47 255.071 483.16 258.013C479.851 260.955 475.611 262.635 471.187 262.756Z" fill="white"/>
<path d="M471.201 263.442H288.723C286.611 263.484 284.514 263.069 282.577 262.226C280.64 261.383 278.907 260.131 277.497 258.555C276.096 256.926 275.063 255.014 274.466 252.948C273.87 250.883 273.726 248.713 274.043 246.587L277.086 223.103C277.764 218.553 280.02 214.389 283.459 211.339C286.898 208.29 291.3 206.55 295.891 206.426H478.315C480.429 206.384 482.527 206.798 484.467 207.642C486.407 208.485 488.142 209.737 489.555 211.313C490.953 212.943 491.985 214.856 492.581 216.921C493.177 218.986 493.323 221.155 493.009 223.281L489.993 246.765C489.318 251.314 487.064 255.478 483.628 258.528C480.191 261.578 475.791 263.317 471.201 263.442ZM295.85 207.799C291.599 207.929 287.528 209.551 284.349 212.381C281.17 215.21 279.084 219.068 278.456 223.281L275.455 246.765C275.167 248.698 275.297 250.67 275.836 252.547C276.375 254.425 277.311 256.165 278.58 257.65C279.862 259.077 281.437 260.211 283.197 260.974C284.957 261.736 286.86 262.11 288.778 262.069H471.201C475.461 261.951 479.543 260.335 482.731 257.503C485.919 254.672 488.01 250.808 488.636 246.587L491.638 223.103C491.932 221.17 491.805 219.197 491.266 217.318C490.726 215.439 489.787 213.7 488.513 212.219C487.231 210.79 485.656 209.656 483.896 208.893C482.136 208.131 480.232 207.757 478.315 207.799H295.85Z" fill="#F1E7D9"/>
<path d="M309.982 254.946C307.463 254.995 304.963 254.498 302.654 253.489C300.344 252.48 298.281 250.982 296.604 249.099C294.939 247.158 293.709 244.882 293 242.423C292.29 239.965 292.117 237.383 292.492 234.852C293.291 229.414 295.981 224.433 300.089 220.787C304.196 217.141 309.457 215.064 314.944 214.923C317.464 214.872 319.965 215.367 322.276 216.374C324.587 217.381 326.654 218.875 328.335 220.756C330.003 222.698 331.233 224.977 331.942 227.438C332.652 229.898 332.824 232.483 332.447 235.017C331.648 240.457 328.956 245.439 324.846 249.085C320.735 252.732 315.471 254.807 309.982 254.946ZM314.93 216.295C309.78 216.439 304.845 218.394 300.99 221.817C297.135 225.24 294.607 229.913 293.849 235.017C293.493 237.364 293.648 239.76 294.304 242.041C294.959 244.322 296.099 246.435 297.646 248.234C299.194 249.968 301.097 251.346 303.226 252.275C305.356 253.203 307.66 253.66 309.982 253.614C315.135 253.474 320.073 251.52 323.931 248.097C327.788 244.673 330.318 239.998 331.077 234.893C331.43 232.551 331.275 230.161 330.622 227.885C329.969 225.608 328.834 223.5 327.294 221.703C325.741 219.959 323.829 218.573 321.69 217.639C319.551 216.706 317.235 216.247 314.903 216.295H314.93Z" fill="#F1E7D9"/>
<path d="M325.621 228.785C325.472 228.982 325.312 229.17 325.142 229.348L308.762 243.869C308.186 244.363 307.803 244.377 307.391 243.869L300.305 235.428C299.921 234.975 300.003 234.536 300.524 234.056L302.813 232.216C303.293 231.832 303.69 231.832 304.033 232.216L308.241 237.144C308.68 237.665 309.05 237.665 309.612 237.144L322.345 225.903C322.894 225.422 323.264 225.422 323.716 225.903C324.168 226.383 324.826 227.179 325.375 227.838C325.5 228.006 325.61 228.185 325.704 228.373L325.621 228.785Z" fill="white"/>
<path d="M467.185 226.493H349.869C349.323 226.493 348.801 226.276 348.415 225.89C348.029 225.504 347.813 224.98 347.813 224.434C347.813 223.888 348.029 223.365 348.415 222.978C348.801 222.592 349.323 222.375 349.869 222.375H467.185C467.73 222.375 468.253 222.592 468.639 222.978C469.025 223.365 469.241 223.888 469.241 224.434C469.241 224.98 469.025 225.504 468.639 225.89C468.253 226.276 467.73 226.493 467.185 226.493Z" fill="#171717"/>
<path d="M440.717 246.299H347.333C346.788 246.299 346.265 246.082 345.879 245.696C345.493 245.31 345.277 244.786 345.277 244.24C345.277 243.694 345.493 243.17 345.879 242.784C346.265 242.398 346.788 242.181 347.333 242.181H440.717C441.263 242.181 441.785 242.398 442.171 242.784C442.557 243.17 442.773 243.694 442.773 244.24C442.773 244.786 442.557 245.31 442.171 245.696C441.785 246.082 441.263 246.299 440.717 246.299Z" fill="#171717"/>
<path d="M462.95 327.141H280.485C278.45 327.194 276.428 326.797 274.563 325.977C272.699 325.157 271.039 323.936 269.701 322.399C268.363 320.862 267.38 319.049 266.822 317.088C266.265 315.127 266.147 313.067 266.477 311.055L269.478 287.585C270.138 283.206 272.317 279.2 275.634 276.271C278.95 273.341 283.191 271.676 287.612 271.567H470.077C472.103 271.52 474.115 271.919 475.971 272.737C477.826 273.554 479.479 274.77 480.812 276.299C482.146 277.827 483.128 279.63 483.689 281.58C484.25 283.53 484.376 285.58 484.058 287.585L481.043 311.055C480.399 315.44 478.232 319.456 474.923 322.399C471.613 325.341 467.374 327.02 462.95 327.141Z" fill="white"/>
<path d="M462.95 327.841H280.485C278.373 327.885 276.276 327.472 274.338 326.628C272.4 325.785 270.668 324.532 269.259 322.955C267.856 321.327 266.82 319.415 266.221 317.35C265.623 315.284 265.476 313.114 265.791 310.987L268.862 287.489C269.537 282.938 271.793 278.772 275.232 275.722C278.672 272.672 283.075 270.933 287.667 270.812H470.077C472.191 270.764 474.29 271.175 476.23 272.016C478.17 272.857 479.905 274.109 481.317 275.685C482.717 277.314 483.751 279.227 484.347 281.292C484.943 283.357 485.088 285.527 484.771 287.653L481.769 311.138C481.099 315.695 478.844 319.87 475.401 322.926C471.958 325.982 467.549 327.722 462.95 327.841ZM287.612 272.185C283.363 272.318 279.296 273.941 276.119 276.771C272.943 279.6 270.859 283.457 270.232 287.667L267.23 311.151C266.936 313.084 267.063 315.057 267.603 316.936C268.142 318.815 269.081 320.554 270.356 322.035C271.638 323.464 273.212 324.598 274.972 325.361C276.732 326.123 278.636 326.497 280.553 326.455H462.95C467.211 326.337 471.295 324.721 474.485 321.891C477.676 319.06 479.769 315.195 480.398 310.973L483.4 287.489C483.694 285.556 483.567 283.583 483.028 281.704C482.489 279.825 481.549 278.085 480.275 276.604C478.993 275.176 477.418 274.042 475.658 273.279C473.898 272.516 471.994 272.143 470.077 272.185H287.612Z" fill="#F1E7D9"/>
<path d="M301.758 319.331C299.239 319.381 296.739 318.884 294.43 317.875C292.121 316.865 290.057 315.368 288.38 313.484C286.715 311.544 285.486 309.267 284.776 306.809C284.067 304.351 283.893 301.768 284.268 299.237C285.067 293.8 287.757 288.819 291.865 285.173C295.972 281.527 301.233 279.45 306.72 279.308C309.241 279.258 311.743 279.755 314.055 280.764C316.366 281.774 318.432 283.271 320.111 285.155C321.777 287.096 323.006 289.372 323.716 291.831C324.425 294.289 324.598 296.871 324.223 299.402C323.424 304.842 320.732 309.825 316.622 313.471C312.512 317.117 307.247 319.193 301.758 319.331ZM306.706 280.681C301.554 280.821 296.615 282.775 292.757 286.198C288.9 289.622 286.37 294.297 285.611 299.402C285.262 301.743 285.42 304.131 286.075 306.405C286.73 308.678 287.867 310.784 289.408 312.578C290.956 314.312 292.86 315.691 294.989 316.619C297.118 317.548 299.422 318.005 301.744 317.959C306.897 317.818 311.836 315.865 315.693 312.441C319.551 309.017 322.081 304.343 322.839 299.237C323.191 296.898 323.035 294.51 322.382 292.236C321.729 289.963 320.595 287.856 319.056 286.061C317.501 284.322 315.588 282.94 313.449 282.011C311.31 281.082 308.996 280.628 306.665 280.681H306.706Z" fill="#F1E7D9"/>
<path d="M317.37 293.185C317.229 293.383 317.068 293.567 316.89 293.734C311.407 298.574 305.948 303.415 300.511 308.255C299.949 308.763 299.565 308.763 299.14 308.255L292.053 299.814C291.67 299.361 291.752 298.922 292.273 298.51L294.562 296.657C295.042 296.273 295.425 296.273 295.782 296.657C297.18 298.304 298.582 299.947 299.99 301.585C300.415 302.106 300.798 302.106 301.36 301.585L314.08 290.33C314.629 289.849 315.012 289.849 315.451 290.33C315.89 290.81 316.561 291.606 317.109 292.265C317.235 292.43 317.341 292.61 317.425 292.8L317.37 293.185Z" fill="white"/>
<path d="M458.947 290.879H341.617C341.072 290.879 340.549 290.662 340.163 290.276C339.778 289.89 339.561 289.366 339.561 288.82C339.561 288.274 339.778 287.75 340.163 287.364C340.549 286.978 341.072 286.761 341.617 286.761H458.947C459.493 286.761 460.016 286.978 460.401 287.364C460.787 287.75 461.003 288.274 461.003 288.82C461.003 289.366 460.787 289.89 460.401 290.276C460.016 290.662 459.493 290.879 458.947 290.879Z" fill="#171717"/>
<path d="M432.479 310.685H339.081C338.536 310.685 338.013 310.468 337.628 310.081C337.242 309.695 337.025 309.172 337.025 308.626C337.025 308.08 337.242 307.556 337.628 307.17C338.013 306.784 338.536 306.567 339.081 306.567H432.479C433.025 306.567 433.548 306.784 433.933 307.17C434.319 307.556 434.535 308.08 434.535 308.626C434.535 309.172 434.319 309.695 433.933 310.081C433.548 310.468 433.025 310.685 432.479 310.685Z" fill="#171717"/>
<path d="M452.163 363.308C452.021 363.307 451.882 363.264 451.765 363.184L441.074 355.731C440.979 355.666 440.903 355.577 440.853 355.474C440.803 355.37 440.78 355.256 440.786 355.141C440.792 355.028 440.825 354.918 440.883 354.82C440.94 354.722 441.019 354.639 441.115 354.578L453.725 347.125C453.803 347.069 453.891 347.029 453.985 347.009C454.079 346.989 454.176 346.989 454.27 347.009C454.363 347.029 454.452 347.068 454.53 347.124C454.607 347.181 454.673 347.252 454.721 347.335C454.769 347.418 454.799 347.511 454.81 347.606C454.82 347.702 454.81 347.798 454.781 347.89C454.752 347.981 454.704 348.065 454.64 348.137C454.576 348.209 454.498 348.266 454.411 348.306L442.732 355.168L452.546 362.031C452.665 362.114 452.755 362.233 452.802 362.371C452.849 362.508 452.852 362.657 452.809 362.796C452.767 362.935 452.681 363.056 452.565 363.143C452.449 363.231 452.308 363.278 452.163 363.28V363.308Z" fill="#F1E7D9"/>
<path d="M461.36 363.308C461.209 363.309 461.062 363.261 460.941 363.17C460.821 363.079 460.734 362.951 460.693 362.806C460.652 362.661 460.661 362.506 460.717 362.366C460.773 362.226 460.874 362.108 461.003 362.031L472.682 355.168L462.868 348.306C462.718 348.2 462.617 348.04 462.587 347.859C462.556 347.679 462.598 347.494 462.703 347.345C462.808 347.196 462.969 347.095 463.149 347.064C463.329 347.033 463.513 347.075 463.662 347.18L474.34 354.633C474.433 354.701 474.509 354.789 474.562 354.892C474.614 354.994 474.642 355.108 474.642 355.223C474.635 355.338 474.6 355.449 474.541 355.548C474.481 355.646 474.398 355.728 474.299 355.786L461.702 363.239C461.597 363.293 461.478 363.317 461.36 363.308Z" fill="#F1E7D9"/>
<path d="M194.571 241.097C194.571 241.097 206.139 261.493 217.351 263.332C231.182 265.61 251.454 253.395 251.454 253.395L240.077 242.209L216.776 242.126L204.028 216.048L194.571 241.097Z" fill="#FC3060"/>
<path d="M213.5 374.096L214.35 382.88L226.59 381.933L225.439 371.378L213.5 374.096Z" fill="white"/>
<path d="M214.35 383.566C214.181 383.567 214.018 383.504 213.893 383.389C213.769 383.275 213.692 383.117 213.678 382.949L212.815 374.164C212.8 373.997 212.846 373.83 212.944 373.694C213.042 373.558 213.186 373.462 213.349 373.423L225.288 370.678C225.382 370.658 225.479 370.657 225.573 370.676C225.668 370.695 225.757 370.733 225.836 370.788C225.915 370.846 225.982 370.92 226.032 371.005C226.081 371.09 226.113 371.184 226.124 371.282L227.275 381.823C227.289 381.916 227.282 382.01 227.256 382.1C227.23 382.19 227.185 382.273 227.124 382.345C227.003 382.487 226.831 382.575 226.645 382.592L214.405 383.539L214.35 383.566ZM214.24 374.631L214.967 382.153L225.836 381.302L224.849 372.215L214.24 374.631Z" fill="#171717"/>
<path d="M127.75 354.633L119.896 360.892L124.337 369.319L132.178 365.847L127.75 354.633Z" fill="white"/>
<path d="M124.337 370.006C124.214 370.008 124.092 369.975 123.986 369.912C123.879 369.849 123.792 369.758 123.734 369.649L119.293 361.208C119.215 361.068 119.189 360.905 119.222 360.749C119.255 360.592 119.344 360.453 119.471 360.357L127.312 354.098C127.396 354.033 127.494 353.987 127.598 353.963C127.702 353.94 127.81 353.939 127.915 353.961C128.019 353.989 128.115 354.04 128.196 354.112C128.277 354.183 128.34 354.273 128.381 354.372L132.822 365.6C132.886 365.766 132.883 365.95 132.814 366.114C132.745 366.278 132.615 366.408 132.452 366.478L124.625 369.951C124.534 369.989 124.436 370.008 124.337 370.006ZM120.828 361.07L124.721 368.441L131.369 365.49L127.517 355.745L120.828 361.07Z" fill="#171717"/>
<path d="M151.367 274.669L152.189 330.82L124.776 354.592L130.423 368.578C130.423 368.578 170.282 349.363 176.492 340.716C182.701 332.069 183.633 311.124 183.633 311.124L204.07 331.712L211.91 376.292L227.508 375.441C227.508 375.441 225.521 342.733 225.521 330.586C225.521 318.439 194.626 276.659 194.626 276.659L151.367 274.669Z" fill="#171717"/>
<path d="M211.951 376.937C211.79 376.939 211.634 376.884 211.511 376.78C211.388 376.677 211.306 376.533 211.279 376.374L203.466 331.959L184.277 312.661C183.934 317.698 182.44 333.606 177.108 341.073C170.858 349.802 132.41 368.372 130.779 369.155C130.693 369.192 130.599 369.211 130.505 369.211C130.411 369.211 130.318 369.192 130.231 369.155C130.144 369.122 130.064 369.07 129.998 369.004C129.932 368.938 129.88 368.858 129.847 368.77L124.214 354.77C124.161 354.64 124.15 354.496 124.182 354.358C124.213 354.22 124.287 354.096 124.392 354.002L151.49 330.586L150.682 274.738C150.68 274.646 150.698 274.554 150.733 274.469C150.769 274.384 150.821 274.308 150.887 274.244C150.952 274.175 151.031 274.122 151.119 274.089C151.206 274.055 151.301 274.043 151.394 274.052L194.694 276.001C194.796 276.003 194.897 276.029 194.987 276.076C195.077 276.124 195.155 276.192 195.215 276.275C196.49 277.991 226.247 318.371 226.247 330.614C226.247 342.596 228.207 375.098 228.235 375.427C228.242 375.608 228.179 375.785 228.059 375.921C227.939 376.057 227.771 376.141 227.59 376.155L211.992 377.006L211.951 376.937ZM183.674 310.451C183.852 310.453 184.023 310.522 184.154 310.643L204.59 331.231C204.688 331.329 204.755 331.453 204.782 331.588L212.527 375.578L226.823 374.796C226.535 370.006 224.876 341.635 224.876 330.586C224.876 319.29 196.928 280.887 194.31 277.332L152.066 275.424L152.875 330.861C152.874 330.959 152.853 331.056 152.813 331.146C152.773 331.236 152.714 331.316 152.642 331.382L125.653 354.784L130.82 367.645C136.029 365.106 170.365 348.155 175.971 340.318C182.002 331.904 182.975 311.302 182.989 311.096C182.99 310.963 183.033 310.833 183.112 310.724C183.19 310.616 183.301 310.535 183.427 310.492C183.506 310.464 183.59 310.45 183.674 310.451Z" fill="#171717"/>
<path d="M148.557 280.228L149.613 252.681C149.613 252.681 149.147 218.697 161.606 212.63C174.065 206.564 199.026 209.172 203.864 216.048C208.703 222.925 197.23 280.228 197.23 280.228H148.557Z" fill="#FC3060"/>
<path d="M200.986 186.936C200.836 184.037 199.598 181.301 197.518 179.278C193.118 175.311 183.276 173.788 179.603 179.648C178.418 179.747 177.297 180.229 176.409 181.021C175.289 182.123 174.476 183.5 174.052 185.015C172.023 190.834 173.695 197.011 175.943 202.638C176.626 204.552 177.711 206.298 179.123 207.758C182.564 211.038 187.347 209.24 191.199 207.593C193.788 206.564 196.092 204.926 197.915 202.817C200.054 200.195 201.136 195.295 201.164 191.96C201.204 190.283 201.144 188.606 200.986 186.936Z" fill="white"/>
<path d="M183.88 210.201C182.919 210.227 181.963 210.062 181.067 209.716C180.17 209.37 179.351 208.849 178.657 208.183C177.155 206.666 176.008 204.833 175.299 202.817C173.271 197.711 171.187 191.027 173.408 184.713C173.875 183.094 174.753 181.623 175.957 180.444C176.88 179.674 178.011 179.196 179.206 179.072C179.961 178.003 180.937 177.109 182.067 176.451C183.198 175.793 184.456 175.385 185.757 175.256C187.929 174.991 190.133 175.171 192.233 175.787C194.332 176.403 196.285 177.441 197.97 178.839C200.193 180.959 201.517 183.853 201.671 186.923C201.825 188.597 201.885 190.279 201.849 191.96C201.849 195.529 200.643 200.552 198.45 203.256C196.561 205.46 194.16 207.166 191.46 208.225C189.086 209.374 186.511 210.045 183.88 210.201ZM187.635 176.437C187.071 176.431 186.508 176.468 185.949 176.546C184.79 176.66 183.671 177.03 182.673 177.631C181.675 178.232 180.823 179.047 180.179 180.019C180.121 180.11 180.042 180.186 179.949 180.241C179.856 180.296 179.752 180.328 179.644 180.335C178.632 180.409 177.67 180.809 176.903 181.474C175.882 182.502 175.137 183.772 174.737 185.166C172.695 191.04 174.737 197.423 176.615 202.309C177.253 204.141 178.287 205.81 179.644 207.195C182.66 210.078 186.895 208.568 190.966 206.893C193.461 205.917 195.681 204.349 197.436 202.323C199.396 199.893 200.492 195.131 200.52 191.878C200.556 190.251 200.496 188.624 200.342 187.005C200.22 184.271 199.057 181.688 197.093 179.786C194.424 177.604 191.08 176.42 187.635 176.437Z" fill="#171717"/>
<path d="M191.829 208.911L190.98 217.228C190.98 217.228 189.033 221.662 183.893 219.452C182.421 218.811 181.155 217.773 180.235 216.455C179.316 215.137 178.779 213.59 178.685 211.985L180.316 197.079C180.316 197.079 184.647 195.707 184.962 186.813C184.962 186.813 190.116 186.813 198.244 187.197C198.244 187.197 199.368 200.923 198.011 204.958C196.654 208.993 191.829 208.911 191.829 208.911Z" fill="white"/>
<path d="M186.621 220.783C185.59 220.762 184.574 220.534 183.633 220.111C182.036 219.423 180.663 218.302 179.669 216.873C178.676 215.444 178.102 213.765 178.013 212.026L179.644 197.038C179.66 196.908 179.712 196.785 179.795 196.683C179.877 196.581 179.987 196.505 180.11 196.462C180.11 196.462 184.003 194.98 184.291 186.854C184.298 186.677 184.373 186.509 184.501 186.387C184.629 186.264 184.799 186.195 184.976 186.195C184.976 186.195 190.24 186.195 198.286 186.58C198.452 186.582 198.612 186.647 198.733 186.761C198.855 186.876 198.93 187.031 198.943 187.197C198.943 187.774 200.054 201.115 198.669 205.246C198.184 206.508 197.337 207.598 196.234 208.38C195.132 209.161 193.824 209.599 192.474 209.638L191.679 217.366C191.693 217.438 191.693 217.513 191.679 217.585C191.211 218.532 190.491 219.332 189.599 219.896C188.706 220.46 187.676 220.767 186.621 220.783ZM180.974 197.574L179.356 212.054C179.462 213.515 179.966 214.919 180.815 216.113C181.663 217.306 182.823 218.243 184.168 218.821C188.28 220.605 190.02 217.626 190.322 217.05L191.158 208.815C191.178 208.646 191.258 208.49 191.385 208.377C191.511 208.263 191.674 208.199 191.843 208.197C192.022 208.197 196.188 208.197 197.326 204.711C198.464 201.225 197.778 190.505 197.586 187.829C191.514 187.568 187.169 187.499 185.593 187.472C185.25 194.705 182.112 196.929 180.96 197.546L180.974 197.574Z" fill="#171717"/>
<path d="M183.496 197.354C183.44 196.588 183.137 195.86 182.632 195.282C182.14 194.762 181.56 194.335 180.919 194.019C180.591 193.8 180.215 193.664 179.822 193.621C179.547 193.618 179.273 193.665 179.014 193.758C178.39 193.95 177.853 194.353 177.492 194.897C177.259 195.37 177.146 195.894 177.163 196.421C177.134 196.992 177.18 197.564 177.3 198.123C177.432 198.675 177.672 199.195 178.005 199.654C178.339 200.113 178.76 200.501 179.245 200.795C179.729 201.09 180.267 201.286 180.827 201.371C181.387 201.457 181.959 201.43 182.509 201.293" fill="white"/>
<path d="M181.481 202.117C180.567 202.118 179.67 201.866 178.89 201.389C177.754 200.692 176.941 199.571 176.629 198.273C176.494 197.656 176.444 197.024 176.478 196.393C176.464 195.754 176.61 195.122 176.903 194.554C177.352 193.888 178.022 193.402 178.794 193.181C179.134 193.047 179.498 192.986 179.863 193.003C180.352 193.052 180.822 193.217 181.234 193.483C181.945 193.824 182.59 194.289 183.139 194.856C183.75 195.545 184.112 196.42 184.167 197.34C184.179 197.52 184.119 197.697 184.001 197.833C183.883 197.969 183.716 198.054 183.537 198.068C183.357 198.076 183.18 198.015 183.043 197.898C182.905 197.781 182.817 197.616 182.797 197.436C182.753 196.819 182.513 196.232 182.111 195.762C181.662 195.308 181.144 194.928 180.576 194.636C180.336 194.479 180.065 194.376 179.781 194.334C179.593 194.338 179.408 194.376 179.233 194.444C178.764 194.575 178.357 194.866 178.082 195.268C177.908 195.641 177.824 196.05 177.835 196.462C177.801 196.972 177.838 197.485 177.944 197.985C178.179 198.925 178.768 199.737 179.589 200.25C180.414 200.742 181.398 200.89 182.331 200.662C182.512 200.616 182.705 200.645 182.865 200.741C183.026 200.838 183.142 200.994 183.187 201.176C183.233 201.358 183.204 201.551 183.108 201.712C183.011 201.873 182.855 201.989 182.673 202.034C182.28 202.107 181.88 202.135 181.481 202.117Z" fill="#171717"/>
<path d="M191.432 212.905C189.657 212.417 188.07 211.403 186.881 209.995C186.389 209.47 186.042 208.825 185.876 208.125C185.71 207.424 185.731 206.692 185.936 206.001C186.646 206.888 187.542 207.608 188.56 208.11C189.579 208.613 190.695 208.886 191.83 208.911L191.432 212.905Z" fill="#171717"/>
<path d="M191.432 213.591H191.295C189.378 213.074 187.663 211.988 186.374 210.476C185.791 209.859 185.383 209.097 185.192 208.269C185.002 207.442 185.036 206.578 185.291 205.768C185.332 205.654 185.403 205.553 185.498 205.478C185.592 205.403 185.706 205.356 185.826 205.342C185.947 205.321 186.071 205.334 186.185 205.381C186.299 205.427 186.398 205.504 186.47 205.603C187.124 206.396 187.939 207.042 188.86 207.496C189.782 207.95 190.789 208.203 191.816 208.238C192.011 208.244 192.196 208.322 192.337 208.458C192.401 208.53 192.45 208.615 192.481 208.707C192.511 208.799 192.523 208.897 192.515 208.993L192.104 212.987C192.096 213.081 192.069 213.172 192.024 213.255C191.979 213.338 191.918 213.41 191.843 213.468C191.72 213.546 191.578 213.589 191.432 213.591ZM186.456 207.525C186.546 208.279 186.872 208.986 187.388 209.542C188.329 210.614 189.507 211.451 190.829 211.985L191.076 209.57C189.358 209.398 187.739 208.682 186.456 207.525Z" fill="#171717"/>
<path d="M193.611 201.636C192.952 201.616 192.302 201.476 191.692 201.225C191.523 201.156 191.389 201.022 191.318 200.853C191.247 200.685 191.246 200.495 191.316 200.326C191.385 200.156 191.518 200.022 191.686 199.951C191.855 199.88 192.044 199.879 192.213 199.948C192.775 200.204 193.398 200.295 194.009 200.209C193.727 198.647 193.195 197.14 192.433 195.748C192.353 195.584 192.341 195.396 192.4 195.223C192.459 195.051 192.584 194.909 192.748 194.829C192.912 194.749 193.1 194.737 193.272 194.796C193.445 194.855 193.586 194.981 193.666 195.144C196.161 200.223 195.27 200.964 195.037 201.211C194.631 201.526 194.123 201.678 193.611 201.636Z" fill="#171717"/>
<path d="M191.542 204.423C190.689 204.444 189.851 204.199 189.143 203.723C188.754 203.425 188.431 203.049 188.195 202.618C187.959 202.188 187.815 201.714 187.772 201.225C187.759 201.135 187.764 201.044 187.786 200.956C187.809 200.869 187.849 200.787 187.904 200.715C187.959 200.643 188.028 200.583 188.106 200.539C188.185 200.494 188.272 200.466 188.362 200.456C188.54 200.432 188.72 200.48 188.863 200.587C189.007 200.695 189.102 200.855 189.129 201.032C189.148 201.34 189.232 201.64 189.376 201.913C189.521 202.185 189.721 202.423 189.965 202.611C190.591 202.987 191.328 203.133 192.049 203.023C192.227 202.994 192.408 203.035 192.556 203.138C192.704 203.24 192.807 203.395 192.844 203.572C192.876 203.75 192.836 203.934 192.734 204.083C192.631 204.232 192.473 204.334 192.296 204.368C192.047 204.413 191.794 204.431 191.542 204.423Z" fill="#171717"/>
<path d="M190.568 193.868C190.472 193.867 190.377 193.845 190.29 193.805C190.203 193.765 190.125 193.707 190.061 193.635C189.946 193.491 189.803 193.371 189.64 193.284C189.478 193.197 189.299 193.143 189.116 193.127C188.61 193.163 188.13 193.36 187.745 193.689C187.679 193.756 187.601 193.809 187.515 193.844C187.428 193.88 187.335 193.897 187.242 193.895C187.149 193.893 187.057 193.872 186.972 193.833C186.886 193.795 186.81 193.739 186.748 193.669C186.685 193.6 186.637 193.519 186.607 193.43C186.577 193.342 186.565 193.248 186.572 193.155C186.58 193.061 186.606 192.971 186.65 192.888C186.694 192.805 186.754 192.732 186.827 192.674C187.49 192.08 188.349 191.752 189.239 191.754C189.606 191.78 189.963 191.88 190.29 192.048C190.618 192.215 190.908 192.447 191.144 192.729C191.262 192.868 191.321 193.048 191.308 193.23C191.295 193.412 191.212 193.582 191.076 193.703C191.006 193.763 190.926 193.809 190.839 193.837C190.752 193.865 190.66 193.876 190.568 193.868Z" fill="#171717"/>
<path d="M194.694 194.705C194.595 194.724 194.492 194.724 194.393 194.705C194.312 194.665 194.239 194.61 194.179 194.543C194.12 194.475 194.074 194.396 194.044 194.311C194.015 194.225 194.003 194.135 194.009 194.045C194.014 193.955 194.038 193.866 194.078 193.785C194.225 193.484 194.438 193.221 194.702 193.014C194.965 192.807 195.272 192.663 195.599 192.591C196.021 192.567 196.443 192.649 196.825 192.829C197.208 193.008 197.54 193.28 197.792 193.621C197.856 193.684 197.907 193.76 197.942 193.844C197.977 193.928 197.995 194.017 197.995 194.108C197.995 194.199 197.977 194.288 197.942 194.372C197.907 194.455 197.856 194.531 197.792 194.595C197.664 194.721 197.492 194.791 197.312 194.791C197.133 194.791 196.961 194.721 196.833 194.595C196.435 194.17 196.092 193.95 195.846 193.991C195.599 194.032 195.38 194.362 195.352 194.43C195.276 194.53 195.175 194.608 195.06 194.656C194.945 194.704 194.818 194.721 194.694 194.705Z" fill="#171717"/>
<path d="M186.278 220.426L181.7 222.691L184.373 226.342L176.437 260.271L183.962 268.849L190.568 257.21L186.758 226.383L189.787 223.089L186.278 220.426Z" fill="white"/>
<path d="M119.896 360.892L110.685 367.151C110.685 367.151 126.311 393.723 130.656 386.86C131.835 384.966 124.337 369.306 124.337 369.306L119.896 360.892Z" fill="#FFCD49"/>
<path d="M128.765 388.7C122.747 388.617 111.412 369.663 110.137 367.508C110.048 367.357 110.019 367.178 110.057 367.007C110.096 366.836 110.198 366.686 110.343 366.588L119.458 360.329C119.537 360.274 119.626 360.236 119.72 360.217C119.815 360.198 119.912 360.199 120.006 360.22C120.1 360.246 120.187 360.291 120.262 360.353C120.338 360.414 120.4 360.49 120.445 360.576L124.94 369.018C127.243 373.849 132.465 385.241 131.218 387.245C130.975 387.684 130.619 388.05 130.188 388.305C129.757 388.561 129.266 388.697 128.765 388.7ZM111.604 367.357C115.222 373.396 124.433 387.272 128.737 387.327C129.018 387.322 129.292 387.243 129.532 387.099C129.773 386.954 129.971 386.749 130.108 386.504C130.601 385.323 127.202 376.814 123.748 369.621L119.636 361.894L111.604 367.357Z" fill="#FFCD49"/>
<path d="M214.24 382.88C214.24 382.88 213.952 393.133 214.884 393.297C215.816 393.462 244.889 389.537 242.682 387.313C240.475 385.09 226.59 381.933 226.59 381.933L214.24 382.88Z" fill="#FFCD49"/>
<path d="M214.775 393.984C214.213 393.874 213.267 393.709 213.568 382.866C213.575 382.698 213.642 382.538 213.759 382.417C213.875 382.295 214.032 382.221 214.199 382.207L226.535 381.247H226.741C228.18 381.576 240.886 384.513 243.189 386.805C243.349 386.961 243.454 387.164 243.488 387.384C243.523 387.604 243.485 387.83 243.381 388.027C241.818 390.978 215.405 393.984 214.775 393.984ZM214.912 383.525C214.76 386.562 214.87 389.607 215.241 392.625C218.462 392.543 239.255 389.29 241.942 387.574C239.885 386.05 231.798 383.827 226.549 382.619L214.912 383.525Z" fill="#FFCD49"/>
<path d="M198.066 276.934H197.97C197.878 276.924 197.79 276.895 197.71 276.85C197.629 276.805 197.559 276.744 197.502 276.671C197.446 276.598 197.405 276.514 197.382 276.425C197.359 276.336 197.354 276.243 197.367 276.152C198.436 267.779 203.645 235.607 203.699 235.291C203.703 235.192 203.728 235.095 203.772 235.007C203.816 234.918 203.878 234.84 203.955 234.777C204.031 234.714 204.12 234.668 204.216 234.643C204.311 234.617 204.411 234.612 204.508 234.627C204.606 234.643 204.699 234.679 204.782 234.733C204.864 234.788 204.935 234.859 204.988 234.942C205.041 235.026 205.076 235.12 205.09 235.218C205.104 235.316 205.097 235.415 205.07 235.511C205.07 235.84 199.82 267.985 198.751 276.33C198.728 276.496 198.647 276.649 198.521 276.759C198.395 276.87 198.234 276.932 198.066 276.934Z" fill="#171717"/>
<path d="M254.566 266.407C276.882 266.407 294.973 248.291 294.973 225.944C294.973 203.597 276.882 185.482 254.566 185.482C232.249 185.482 214.158 203.597 214.158 225.944C214.158 248.291 232.249 266.407 254.566 266.407Z" fill="#171717"/>
<path d="M254.538 267.106C246.507 267.106 238.653 264.751 231.943 260.332C225.234 255.913 219.963 249.624 216.783 242.24C213.602 234.856 212.649 226.701 214.044 218.782C215.438 210.863 219.117 203.525 224.628 197.676C230.138 191.826 237.238 187.72 245.052 185.865C252.866 184.01 261.052 184.486 268.598 187.236C276.145 189.985 282.723 194.887 287.519 201.336C292.316 207.786 295.121 215.501 295.59 223.528C296.219 234.422 292.505 245.12 285.262 253.273C278.02 261.426 267.842 266.367 256.964 267.01C256.16 267.074 255.351 267.106 254.538 267.106ZM254.62 186.127C253.839 186.127 253.044 186.127 252.249 186.127C244.398 186.58 236.858 189.356 230.582 194.102C224.307 198.848 219.578 205.351 216.995 212.789C214.412 220.227 214.09 228.265 216.07 235.886C218.05 243.507 222.243 250.369 228.119 255.603C233.994 260.837 241.288 264.208 249.078 265.29C256.867 266.372 264.802 265.116 271.879 261.681C278.955 258.246 284.855 252.786 288.832 245.992C292.809 239.198 294.683 231.376 294.219 223.515C293.622 213.396 289.193 203.887 281.834 196.926C274.476 189.966 264.743 186.079 254.62 186.058V186.127Z" fill="#171717"/>
<path d="M248.613 266.925C270.93 266.925 289.021 248.809 289.021 226.462C289.021 204.116 270.93 186 248.613 186C226.297 186 208.206 204.116 208.206 226.462C208.206 248.809 226.297 266.925 248.613 266.925Z" fill="#FFCD49"/>
<path d="M248.302 267.45C237.525 267.127 227.308 262.572 219.857 254.769C212.406 246.966 208.32 236.541 208.481 225.746C208.642 214.951 213.038 204.653 220.718 197.077C228.398 189.5 238.747 185.253 249.528 185.253C260.31 185.253 270.658 189.5 278.339 197.077C286.019 204.653 290.414 214.951 290.576 225.746C290.737 236.541 286.65 246.966 279.2 254.769C271.749 262.572 261.532 267.127 250.755 267.45C249.905 267.45 249.083 267.45 248.302 267.45ZM248.384 186.47C247.602 186.47 246.821 186.47 246.04 186.47C235.604 186.778 225.708 191.186 218.49 198.74C211.272 206.294 207.313 216.389 207.466 226.843C207.62 237.297 211.876 247.27 219.313 254.608C226.749 261.946 236.771 266.06 247.212 266.06C257.653 266.06 267.674 261.946 275.111 254.608C282.548 247.27 286.803 237.297 286.957 226.843C287.111 216.389 283.151 206.294 275.934 198.74C268.716 191.186 258.82 186.778 248.384 186.47Z" fill="#171717"/>
<path d="M273.796 212.685C273.534 213.112 273.236 213.517 272.905 213.893L241.544 245.256C241.386 245.508 241.167 245.716 240.907 245.86C240.647 246.005 240.354 246.08 240.057 246.08C239.76 246.08 239.467 246.005 239.207 245.86C238.947 245.716 238.727 245.508 238.57 245.256C232.676 239.171 226.796 233.09 220.929 227.015C220.706 226.848 220.527 226.63 220.407 226.379C220.287 226.127 220.23 225.85 220.24 225.572C220.251 225.294 220.329 225.022 220.469 224.781C220.608 224.54 220.803 224.336 221.039 224.187L225.466 220.193C225.625 219.993 225.827 219.831 226.058 219.72C226.288 219.609 226.54 219.551 226.796 219.551C227.051 219.551 227.303 219.609 227.534 219.72C227.764 219.831 227.966 219.993 228.125 220.193C231.588 223.753 235.065 227.303 238.556 230.844C239.639 231.942 240.448 231.956 241.53 230.844L265.915 206.55C266.073 206.309 266.289 206.112 266.543 205.975C266.796 205.839 267.08 205.767 267.368 205.767C267.656 205.767 267.939 205.839 268.193 205.975C268.446 206.112 268.662 206.309 268.821 206.55C270.191 207.923 271.562 209.295 272.933 210.668C273.242 211.037 273.526 211.427 273.782 211.834L273.796 212.685Z" fill="white"/>
<path d="M209.306 249.208C209.306 249.208 217.53 248.165 218.791 247.314C220.052 246.463 223.52 240.891 225.315 240.452C227.111 240.012 226.782 244.144 225.315 245.832C223.849 247.52 232.265 241.371 233.635 242.744C234.548 243.94 235.042 245.404 235.042 246.909C235.042 248.415 234.548 249.879 233.635 251.075C231.319 253.916 217.42 259.42 210.155 259.777" fill="white"/>
<path d="M210.155 260.395C209.98 260.399 209.809 260.333 209.681 260.212C209.553 260.092 209.477 259.926 209.47 259.75C209.465 259.66 209.477 259.569 209.506 259.484C209.536 259.398 209.582 259.32 209.641 259.252C209.701 259.184 209.774 259.129 209.855 259.09C209.936 259.05 210.024 259.027 210.114 259.022C216.968 258.679 230.908 253.271 233.101 250.567C233.9 249.5 234.333 248.202 234.333 246.868C234.333 245.534 233.9 244.236 233.101 243.169C232.36 242.854 228.577 245.036 227.33 245.764C225.411 246.862 225.014 247.136 224.589 246.56C224.164 245.983 224.383 245.832 224.767 245.393C225.222 244.808 225.538 244.127 225.69 243.402C225.842 242.676 225.827 241.925 225.644 241.207C225.644 241.124 225.562 241.097 225.439 241.207C224.589 241.399 222.697 243.718 221.546 245.242C220.862 246.256 220.051 247.179 219.133 247.987C217.763 248.865 210.772 249.813 209.374 249.991C209.194 250.014 209.012 249.965 208.869 249.855C208.725 249.744 208.631 249.581 208.607 249.401C208.593 249.311 208.598 249.22 208.62 249.132C208.643 249.045 208.683 248.963 208.738 248.891C208.793 248.819 208.862 248.759 208.941 248.715C209.019 248.67 209.106 248.642 209.196 248.632C212.54 248.207 217.598 247.356 218.38 246.848C219.148 246.101 219.85 245.288 220.477 244.418C222.423 241.948 223.903 240.177 225.123 239.889C225.446 239.801 225.788 239.823 226.096 239.952C226.404 240.082 226.66 240.311 226.823 240.603C227.34 241.879 227.34 243.307 226.823 244.583C230.277 242.593 233.005 241.179 234.115 242.291C235.134 243.614 235.687 245.238 235.687 246.91C235.687 248.581 235.134 250.205 234.115 251.528C231.675 254.534 217.667 260.12 210.142 260.491L210.155 260.395Z" fill="#171717"/>
<path d="M164.457 212.424C164.457 212.424 167.952 247.616 178.164 247.781C190.596 248.001 211.841 247.534 211.841 247.534L215.953 260.806C215.953 260.806 183.057 268.712 169.213 262.714C155.369 256.716 154.369 232.985 154.369 232.985L164.457 212.424Z" fill="#FC3060"/>
<path d="M188.238 248.879C182.619 248.879 177.876 248.687 176.547 248.11C172.914 246.504 166.239 223.405 164.937 218.834C164.912 218.745 164.905 218.652 164.916 218.56C164.928 218.468 164.957 218.379 165.003 218.299C165.049 218.218 165.111 218.148 165.184 218.091C165.257 218.035 165.341 217.993 165.43 217.969C165.519 217.942 165.611 217.933 165.703 217.943C165.795 217.953 165.884 217.981 165.964 218.026C166.045 218.07 166.116 218.131 166.172 218.204C166.229 218.277 166.27 218.361 166.294 218.45C169.241 228.867 174.778 245.777 177.122 246.806C179.466 247.836 199.218 247.41 211.8 246.806C211.894 246.799 211.988 246.811 212.076 246.841C212.165 246.871 212.246 246.919 212.316 246.982C212.385 247.045 212.441 247.122 212.48 247.207C212.518 247.293 212.539 247.385 212.541 247.479C212.546 247.572 212.533 247.665 212.502 247.753C212.471 247.841 212.423 247.922 212.36 247.991C212.298 248.06 212.222 248.116 212.138 248.155C212.053 248.195 211.962 248.217 211.869 248.22C209.827 248.33 197.778 248.879 188.238 248.879Z" fill="#171717"/>
<path d="M183.962 265.404C178.858 265.586 173.759 264.899 168.884 263.373C155.849 258.418 153.725 239.916 153.725 239.12C153.706 238.937 153.76 238.753 153.875 238.609C153.991 238.465 154.158 238.372 154.342 238.352C154.527 238.332 154.712 238.386 154.858 238.501C155.004 238.617 155.099 238.785 155.123 238.969C155.123 239.161 157.234 257.403 169.515 262.042C182.029 266.763 210.334 261.287 210.635 261.232C210.8 261.232 210.96 261.289 211.087 261.394C211.215 261.498 211.302 261.644 211.334 261.806C211.367 261.967 211.342 262.135 211.264 262.281C211.187 262.427 211.062 262.541 210.909 262.604C202.021 264.292 193.007 265.229 183.962 265.404Z" fill="#171717"/>
</svg>
