<svg width="636" height="480" viewBox="0 0 636 480" fill="none" xmlns="http://www.w3.org/2000/svg">
<path d="M458.476 102.454C458.476 102.454 454.772 95.6391 448.936 86.2295C448.936 86.2295 430.127 100.288 430.286 99.5081C430.445 98.7279 458.476 102.454 458.476 102.454Z" fill="#171717"/>
<path d="M458.477 103.25H458.365C448.476 101.928 432.305 99.9699 430.572 100.209C430.095 100.4 429.968 100.304 429.809 100.209C429.669 100.119 429.559 99.9889 429.493 99.8355C429.428 99.682 429.411 99.5125 429.443 99.349C429.443 99.1261 429.539 98.9032 430.063 98.7758C431.16 98.3459 441.893 90.4647 448.412 85.5927C448.499 85.5265 448.6 85.4795 448.707 85.4548C448.814 85.4301 448.924 85.4283 449.032 85.4494C449.139 85.467 449.242 85.5074 449.332 85.5678C449.423 85.6282 449.499 85.7073 449.557 85.7997C455.408 95.1298 459.097 102.008 459.192 102.072C459.27 102.196 459.311 102.339 459.311 102.486C459.311 102.632 459.27 102.775 459.192 102.899C459.114 103.016 459.007 103.109 458.881 103.171C458.756 103.232 458.616 103.26 458.477 103.25ZM433.037 98.728C436.503 98.9191 443.356 99.6674 456.966 101.467C455.646 99.0942 452.673 93.8879 448.603 87.3919C440.112 93.7605 435.565 97.0563 433.084 98.728H433.037Z" fill="#171717"/>
<path d="M209.451 386.415L200.07 370.748L213.044 358.998L209.451 386.415Z" fill="#171717"/>
<path d="M209.451 387.211C209.314 387.21 209.18 387.175 209.06 387.108C208.94 387.041 208.84 386.945 208.767 386.829L199.386 371.162C199.292 371.002 199.256 370.815 199.285 370.632C199.314 370.449 199.406 370.281 199.545 370.159L212.52 358.409C212.641 358.299 212.793 358.23 212.955 358.21C213.117 358.19 213.282 358.22 213.426 358.297C213.568 358.376 213.683 358.495 213.757 358.64C213.831 358.785 213.859 358.948 213.839 359.109L210.246 386.479C210.226 386.645 210.153 386.801 210.039 386.924C209.925 387.047 209.774 387.131 209.61 387.163L209.451 387.211ZM201.088 370.907L208.958 384.043L211.979 361.036L201.088 370.907Z" fill="#171717"/>
<path d="M215.54 389.663L366.59 411.205C369.687 411.609 372.827 410.897 375.449 409.197C378.07 407.496 380.002 404.918 380.9 401.922L459.049 109.125C460.639 103.059 456.775 97.7249 450.367 97.1995L296.36 84.7648C293.314 84.617 290.306 85.4968 287.818 87.2634C285.331 89.03 283.507 91.5812 282.638 94.5088L207.638 377.626C207.249 378.941 207.151 380.326 207.351 381.682C207.551 383.039 208.045 384.336 208.797 385.482C209.55 386.628 210.543 387.596 211.708 388.318C212.872 389.04 214.18 389.499 215.54 389.663Z" fill="#171717"/>
<path d="M368.26 412.176C367.648 412.173 367.037 412.131 366.431 412.048L215.381 390.491C213.92 390.311 212.515 389.818 211.262 389.046C210.008 388.274 208.935 387.241 208.115 386.017C207.3 384.759 206.764 383.34 206.541 381.858C206.319 380.375 206.417 378.861 206.827 377.419L281.827 94.3495C282.745 91.2398 284.676 88.5275 287.313 86.6459C289.95 84.7642 293.141 83.8216 296.376 83.9687L450.383 96.4034C451.958 96.4862 453.495 96.9175 454.883 97.6663C456.272 98.4151 457.477 99.4629 458.413 100.734C459.261 101.977 459.823 103.393 460.06 104.879C460.296 106.366 460.201 107.886 459.78 109.332L381.6 402.177C380.738 405.054 378.977 407.579 376.576 409.379C374.174 411.179 371.259 412.159 368.26 412.176ZM215.62 388.914L366.67 410.472C369.562 410.832 372.489 410.155 374.931 408.561C377.373 406.967 379.172 404.559 380.01 401.763L458.238 108.981C458.603 107.761 458.691 106.474 458.496 105.215C458.3 103.957 457.827 102.757 457.109 101.705C456.311 100.622 455.282 99.731 454.097 99.0974C452.911 98.4637 451.599 98.1036 450.256 98.0433L296.249 85.5608C293.386 85.4102 290.556 86.2325 288.218 87.8942C285.881 89.5559 284.172 91.9597 283.37 94.7157L208.417 377.833C208.062 379.057 207.973 380.342 208.157 381.603C208.341 382.864 208.793 384.07 209.482 385.141C210.183 386.174 211.095 387.045 212.159 387.696C213.223 388.347 214.414 388.762 215.652 388.914H215.62Z" fill="#171717"/>
<path d="M205.698 373.55L356.748 395.092C359.846 395.503 362.989 394.794 365.612 393.092C368.235 391.391 370.166 388.809 371.058 385.81L449.175 93.0121C450.765 86.946 446.901 81.6123 440.494 81.0868L286.486 68.6521C283.44 68.5043 280.432 69.3841 277.945 71.1507C275.457 72.9173 273.633 75.4685 272.765 78.3961L197.812 361.466C197.415 362.783 197.31 364.171 197.505 365.532C197.701 366.894 198.191 368.197 198.943 369.348C199.695 370.5 200.689 371.473 201.856 372.199C203.023 372.925 204.334 373.386 205.698 373.55Z" fill="white"/>
<path d="M358.418 396.031C357.812 396.029 357.206 395.986 356.605 395.904L205.555 374.346C204.097 374.166 202.694 373.673 201.443 372.901C200.192 372.129 199.121 371.096 198.305 369.872C197.486 368.616 196.948 367.198 196.725 365.714C196.503 364.23 196.603 362.716 197.017 361.275L272.002 78.2051C272.917 75.0969 274.849 72.3869 277.488 70.5101C280.126 68.6333 283.318 67.6986 286.55 67.8561L440.557 80.2908C442.119 80.3807 443.642 80.8156 445.017 81.5643C446.391 82.3131 447.583 83.3571 448.507 84.6215C449.363 85.8611 449.929 87.2769 450.166 88.7648C450.403 90.2527 450.303 91.7748 449.875 93.2191L371.726 386.017C370.865 388.889 369.109 391.411 366.714 393.212C364.32 395.014 361.413 396.002 358.418 396.031ZM285.548 69.4164C282.823 69.4657 280.184 70.3826 278.015 72.0344C275.845 73.6861 274.257 75.9869 273.48 78.6031L198.575 361.673C198.227 362.898 198.143 364.183 198.329 365.443C198.516 366.704 198.968 367.909 199.657 368.981C200.354 370.013 201.263 370.884 202.325 371.535C203.386 372.186 204.575 372.602 205.81 372.754L356.86 394.312C359.764 394.686 362.707 394.015 365.164 392.421C367.621 390.826 369.434 388.41 370.279 385.603L448.38 92.8211C448.741 91.6001 448.827 90.3143 448.631 89.0561C448.436 87.798 447.965 86.5988 447.251 85.5449C446.451 84.4641 445.422 83.5748 444.236 82.9415C443.051 82.3082 441.74 81.9466 440.398 81.883L286.391 69.4482L285.548 69.4164Z" fill="#171717"/>
<path d="M268.122 371.847L297.6 376.002C299.47 376.229 301.359 375.784 302.932 374.746C304.504 373.708 305.657 372.144 306.186 370.334L309.128 359.332C309.373 358.497 309.431 357.618 309.298 356.757C309.165 355.897 308.844 355.076 308.358 354.354C307.872 353.632 307.233 353.026 306.487 352.579C305.741 352.132 304.905 351.856 304.04 351.77L274.529 347.757C272.672 347.55 270.802 348.005 269.246 349.042C267.691 350.078 266.549 351.63 266.023 353.425L263.129 364.332C262.884 365.157 262.823 366.026 262.951 366.878C263.078 367.73 263.392 368.543 263.868 369.26C264.344 369.977 264.972 370.58 265.707 371.027C266.442 371.474 267.267 371.754 268.122 371.847Z" fill="white"/>
<path d="M298.586 376.926C298.219 376.931 297.852 376.904 297.489 376.846L268.01 372.706C267.043 372.597 266.112 372.277 265.281 371.769C264.45 371.261 263.74 370.578 263.201 369.766C262.662 368.955 262.306 368.035 262.159 367.071C262.012 366.108 262.077 365.124 262.35 364.188L265.244 353.282C265.819 351.303 267.075 349.591 268.788 348.449C270.502 347.307 272.563 346.808 274.609 347.041L304.135 351.037C305.117 351.153 306.062 351.479 306.907 351.993C307.752 352.506 308.477 353.196 309.032 354.014C309.563 354.832 309.913 355.753 310.058 356.717C310.203 357.681 310.141 358.665 309.875 359.603L306.965 370.557C306.436 372.378 305.336 373.981 303.827 375.128C302.318 376.275 300.48 376.905 298.586 376.926ZM273.559 348.553C272.033 348.57 270.553 349.077 269.336 350C268.119 350.923 267.231 352.213 266.802 353.68L263.94 364.539C263.728 365.256 263.677 366.011 263.788 366.75C263.9 367.49 264.173 368.196 264.587 368.818C265.001 369.441 265.546 369.965 266.184 370.353C266.822 370.742 267.538 370.985 268.281 371.066L297.743 375.206C299.424 375.414 301.123 375.018 302.539 374.088C303.954 373.157 304.993 371.754 305.471 370.127L308.396 359.125C308.607 358.405 308.659 357.648 308.549 356.906C308.439 356.164 308.17 355.454 307.76 354.826C307.33 354.197 306.769 353.668 306.116 353.276C305.463 352.883 304.733 352.635 303.976 352.55L274.466 348.553C274.166 348.506 273.863 348.484 273.559 348.49V348.553Z" fill="#171717"/>
<path d="M387.61 92.6459L342.565 88.8725C342.461 88.8642 342.359 88.8353 342.266 88.7876C342.173 88.7398 342.09 88.6742 342.022 88.5943C341.954 88.5145 341.902 88.422 341.87 88.3223C341.838 88.2225 341.826 88.1173 341.834 88.0128C341.842 87.9082 341.871 87.8064 341.919 87.713C341.967 87.6196 342.032 87.5365 342.112 87.4685C342.192 87.4005 342.284 87.3489 342.384 87.3166C342.483 87.2843 342.588 87.272 342.693 87.2804L387.737 91.0379C387.948 91.0379 388.15 91.1217 388.3 91.271C388.449 91.4203 388.532 91.6228 388.532 91.8339C388.532 92.0451 388.449 92.2476 388.3 92.3969C388.15 92.5461 387.948 92.63 387.737 92.63L387.61 92.6459Z" fill="#171717"/>
<path d="M336.317 88.3471H336.237L330.275 87.8535C330.064 87.8366 329.869 87.7365 329.731 87.5753C329.594 87.4141 329.527 87.2049 329.544 86.9937C329.56 86.7826 329.66 86.5868 329.821 86.4495C329.982 86.3121 330.191 86.2444 330.402 86.2613L336.381 86.7708C336.591 86.7708 336.794 86.8547 336.943 87.004C337.092 87.1533 337.176 87.3558 337.176 87.5669C337.176 87.778 337.092 87.9805 336.943 88.1298C336.794 88.2791 336.591 88.363 336.381 88.363L336.317 88.3471Z" fill="#171717"/>
<path d="M433.005 112.309L372.441 346.499L215.19 327.776L276.119 98.6006L433.005 112.309Z" fill="white"/>
<path d="M372.442 347.295H372.362L215.095 328.556C214.983 328.546 214.875 328.51 214.779 328.452C214.683 328.394 214.601 328.315 214.539 328.221C214.475 328.127 214.431 328.02 214.412 327.907C214.393 327.795 214.398 327.679 214.428 327.569L275.356 98.3936C275.404 98.2114 275.516 98.0522 275.67 97.9444C275.824 97.8365 276.012 97.7869 276.199 97.8045L433.068 111.513C433.184 111.526 433.296 111.562 433.397 111.62C433.498 111.677 433.586 111.755 433.657 111.847C433.721 111.945 433.765 112.054 433.784 112.17C433.803 112.285 433.798 112.403 433.768 112.516L373.221 346.675C373.181 346.851 373.082 347.009 372.94 347.122C372.799 347.235 372.623 347.296 372.442 347.295ZM216.24 327.091L371.901 345.64L432.003 113.026L276.66 99.4603L216.24 327.091Z" fill="#F1E7D9"/>
<path d="M388.692 139.264L311.465 132.052C310.516 131.993 309.592 131.722 308.761 131.258C307.93 130.795 307.214 130.15 306.665 129.373C306.115 128.595 305.747 127.704 305.587 126.765C305.428 125.826 305.48 124.864 305.741 123.948C306.352 121.903 307.638 120.127 309.388 118.909C311.139 117.692 313.25 117.105 315.377 117.245L392.603 124.234C393.583 124.269 394.543 124.526 395.409 124.988C396.276 125.449 397.025 126.102 397.602 126.897C398.178 127.692 398.566 128.609 398.736 129.576C398.905 130.544 398.853 131.538 398.581 132.482C397.956 134.574 396.633 136.388 394.833 137.623C393.033 138.857 390.866 139.436 388.692 139.264Z" fill="#F1E7D9"/>
<path d="M419.617 142.958L403.113 141.366C402.999 141.356 402.888 141.32 402.789 141.263C402.69 141.205 402.605 141.126 402.54 141.032C402.473 140.938 402.427 140.832 402.405 140.719C402.383 140.606 402.386 140.49 402.413 140.379L406.054 126.384C406.102 126.202 406.213 126.042 406.368 125.934C406.522 125.827 406.71 125.777 406.897 125.795L423.385 127.291C423.501 127.301 423.614 127.336 423.716 127.394C423.817 127.452 423.905 127.531 423.973 127.626C424.038 127.72 424.081 127.827 424.1 127.94C424.119 128.052 424.114 128.168 424.085 128.278L420.46 142.321C420.421 142.512 420.314 142.683 420.159 142.8C420.004 142.917 419.811 142.974 419.617 142.958ZM404.13 139.917L419.029 141.302L422.209 128.836L407.31 127.482L404.13 139.917Z" fill="#F1E7D9"/>
<path d="M415.372 136.908C415.233 136.907 415.097 136.87 414.977 136.8C414.857 136.73 414.758 136.63 414.688 136.51L412.144 132.275C408.964 134.026 405.53 135.921 404.989 136.367C404.891 136.49 404.759 136.582 404.61 136.633C404.46 136.684 404.3 136.691 404.147 136.653C403.945 136.597 403.773 136.464 403.669 136.282C403.565 136.1 403.536 135.885 403.59 135.682C403.685 135.284 403.781 134.966 412.065 130.507C412.245 130.414 412.454 130.394 412.649 130.45C412.845 130.506 413.011 130.635 413.114 130.81L416.056 135.698C416.162 135.88 416.193 136.097 416.143 136.302C416.093 136.507 415.964 136.685 415.785 136.797C415.658 136.865 415.516 136.903 415.372 136.908Z" fill="#F1E7D9"/>
<path d="M421.446 135.937C421.331 135.94 421.217 135.917 421.113 135.87C421.008 135.823 420.915 135.754 420.841 135.666L418.329 132.816L414.847 135.157C414.672 135.275 414.457 135.319 414.25 135.278C414.043 135.238 413.86 135.117 413.742 134.942C413.624 134.766 413.58 134.551 413.621 134.344C413.661 134.136 413.782 133.953 413.957 133.835L418.011 131.097C418.174 130.99 418.37 130.947 418.563 130.973C418.755 130.999 418.932 131.094 419.061 131.24L422.034 134.615C422.181 134.767 422.263 134.969 422.263 135.18C422.263 135.391 422.181 135.594 422.034 135.746C421.868 135.88 421.659 135.948 421.446 135.937Z" fill="#F1E7D9"/>
<path d="M292.385 170.996C291.626 173.568 290.009 175.803 287.805 177.326C285.6 178.85 282.941 179.572 280.269 179.371C279.064 179.3 277.891 178.955 276.839 178.362C275.787 177.77 274.883 176.945 274.196 175.951C273.51 174.956 273.058 173.819 272.876 172.623C272.695 171.428 272.787 170.208 273.146 169.054C273.904 166.49 275.513 164.262 277.708 162.739C279.903 161.216 282.551 160.489 285.214 160.679C286.424 160.743 287.602 161.082 288.66 161.672C289.719 162.262 290.628 163.086 291.32 164.081C292.012 165.076 292.467 166.217 292.652 167.415C292.837 168.613 292.745 169.838 292.385 170.996Z" fill="#FC3060"/>
<path d="M271.143 251.304C270.4 253.88 268.784 256.115 266.572 257.626C264.361 259.138 261.693 259.83 259.027 259.584C257.815 259.473 256.643 259.094 255.596 258.473C254.549 257.852 253.654 257.005 252.974 255.994C252.295 254.983 251.849 253.833 251.67 252.628C251.49 251.423 251.581 250.193 251.936 249.028C252.675 246.456 254.286 244.223 256.491 242.712C258.696 241.201 261.358 240.507 264.02 240.748C265.235 240.851 266.413 241.226 267.465 241.844C268.518 242.462 269.419 243.309 270.102 244.321C270.785 245.333 271.233 246.486 271.413 247.694C271.593 248.903 271.501 250.136 271.143 251.304Z" fill="#F1E7D9"/>
<path d="M261.778 286.778C261.042 289.357 259.423 291.595 257.205 293.1C254.987 294.605 252.311 295.28 249.646 295.009C248.429 294.888 247.255 294.498 246.206 293.868C245.158 293.237 244.263 292.382 243.584 291.363C242.906 290.344 242.462 289.187 242.284 287.976C242.106 286.765 242.198 285.529 242.555 284.358C243.29 281.787 244.901 279.556 247.109 278.052C249.317 276.548 251.981 275.866 254.639 276.126C255.858 276.243 257.037 276.63 258.09 277.259C259.142 277.887 260.042 278.742 260.725 279.761C261.408 280.779 261.856 281.937 262.038 283.151C262.221 284.364 262.132 285.603 261.778 286.778Z" fill="#F1E7D9"/>
<path d="M367.449 174.244L301.957 167.684C301.853 167.674 301.751 167.644 301.658 167.594C301.566 167.545 301.484 167.477 301.417 167.396C301.35 167.314 301.301 167.221 301.271 167.12C301.241 167.019 301.231 166.913 301.242 166.809C301.266 166.6 301.371 166.409 301.535 166.278C301.699 166.147 301.908 166.086 302.116 166.108L367.608 172.652C367.819 172.662 368.017 172.756 368.159 172.913C368.3 173.07 368.374 173.277 368.364 173.488C368.353 173.699 368.259 173.897 368.103 174.039C367.946 174.181 367.74 174.255 367.529 174.244H367.449Z" fill="#F1E7D9"/>
<path d="M323.645 180.008H323.549L299.286 177.54C299.181 177.53 299.08 177.499 298.987 177.45C298.894 177.4 298.812 177.333 298.746 177.251C298.679 177.17 298.629 177.076 298.599 176.975C298.569 176.875 298.559 176.769 298.57 176.664C298.594 176.454 298.699 176.262 298.862 176.128C299.026 175.994 299.235 175.93 299.445 175.948L323.724 178.431C323.935 178.431 324.137 178.515 324.286 178.665C324.435 178.814 324.519 179.016 324.519 179.227C324.519 179.439 324.435 179.641 324.286 179.79C324.137 179.94 323.935 180.024 323.724 180.024L323.645 180.008Z" fill="#F1E7D9"/>
<path d="M391.14 200.021L273.703 187.698C273.598 187.688 273.497 187.657 273.404 187.608C273.311 187.558 273.229 187.491 273.163 187.409C273.096 187.328 273.046 187.234 273.016 187.133C272.986 187.032 272.976 186.927 272.987 186.822C273.011 186.613 273.117 186.423 273.28 186.291C273.444 186.16 273.653 186.099 273.862 186.121L391.299 198.445C391.508 198.469 391.698 198.574 391.829 198.738C391.96 198.902 392.021 199.112 391.999 199.32C391.989 199.423 391.959 199.523 391.91 199.614C391.861 199.705 391.795 199.785 391.715 199.85C391.636 199.915 391.544 199.964 391.445 199.993C391.346 200.023 391.243 200.032 391.14 200.021Z" fill="#F1E7D9"/>
<path d="M378.007 210.704H377.927L270.57 199.177C270.362 199.153 270.171 199.048 270.04 198.884C269.909 198.72 269.848 198.51 269.871 198.301C269.895 198.092 270 197.899 270.163 197.766C270.326 197.632 270.535 197.567 270.745 197.585L378.086 209.128C378.297 209.128 378.499 209.212 378.648 209.361C378.797 209.511 378.881 209.713 378.881 209.924C378.881 210.135 378.797 210.338 378.648 210.487C378.499 210.636 378.297 210.72 378.086 210.72L378.007 210.704Z" fill="#F1E7D9"/>
<path d="M361.661 318.191C361.172 318.19 360.684 318.158 360.198 318.095L239.152 302.301C237.853 302.161 236.6 301.739 235.48 301.065C234.36 300.392 233.399 299.482 232.665 298.4C231.934 297.288 231.454 296.03 231.256 294.713C231.058 293.396 231.148 292.052 231.52 290.774L266.373 159.58C267.175 156.878 268.871 154.53 271.183 152.921C273.494 151.312 276.284 150.539 279.093 150.728L400.298 162.526C401.679 162.623 403.021 163.023 404.23 163.697C405.438 164.371 406.485 165.303 407.294 166.426C408.039 167.514 408.536 168.753 408.75 170.054C408.964 171.355 408.891 172.688 408.534 173.957L373.554 309.291C372.787 311.855 371.217 314.105 369.076 315.707C366.934 317.31 364.335 318.181 361.661 318.191ZM360.405 316.519C362.935 316.813 365.487 316.2 367.608 314.789C369.73 313.379 371.285 311.262 371.996 308.813L406.976 173.559C407.275 172.512 407.34 171.411 407.167 170.335C406.994 169.259 406.587 168.235 405.975 167.334C405.289 166.413 404.412 165.652 403.405 165.102C402.398 164.552 401.284 164.227 400.139 164.15L278.918 152.368C276.481 152.201 274.061 152.871 272.055 154.266C270.05 155.661 268.578 157.698 267.883 160.042L233.014 291.236C232.702 292.302 232.624 293.424 232.786 294.523C232.948 295.622 233.346 296.674 233.952 297.604C234.563 298.491 235.359 299.234 236.284 299.784C237.208 300.333 238.241 300.676 239.311 300.789L360.405 316.519Z" fill="#F1E7D9"/>
<path d="M394.813 224.636H394.717L254.146 209.176C253.937 209.152 253.747 209.046 253.616 208.882C253.485 208.718 253.424 208.509 253.446 208.3C253.47 208.09 253.575 207.898 253.738 207.764C253.901 207.631 254.11 207.566 254.32 207.584L394.892 223.06C394.997 223.069 395.099 223.1 395.191 223.15C395.284 223.199 395.366 223.266 395.432 223.348C395.499 223.429 395.549 223.523 395.579 223.624C395.609 223.725 395.619 223.831 395.608 223.935C395.581 224.128 395.486 224.305 395.34 224.433C395.194 224.562 395.007 224.634 394.813 224.636Z" fill="#F1E7D9"/>
<path d="M389.152 246.528H389.057L248.501 230.447C248.29 230.424 248.097 230.318 247.964 230.152C247.832 229.986 247.77 229.775 247.793 229.563C247.817 229.352 247.923 229.159 248.088 229.026C248.254 228.893 248.465 228.832 248.676 228.855L389.232 244.983C389.443 244.994 389.641 245.088 389.782 245.245C389.924 245.402 389.998 245.608 389.987 245.819C389.977 246.03 389.883 246.229 389.726 246.371C389.57 246.512 389.363 246.586 389.152 246.576V246.528Z" fill="#F1E7D9"/>
<path d="M266.404 228.712H266.325L264.115 228.6C263.897 228.587 263.685 228.529 263.491 228.431C263.297 228.332 263.125 228.195 262.986 228.027C262.857 227.853 262.766 227.654 262.717 227.444C262.667 227.233 262.662 227.014 262.7 226.801L263.924 220.671C264.019 220.269 264.249 219.911 264.576 219.659C264.904 219.407 265.308 219.275 265.721 219.286L267.931 219.382C268.148 219.395 268.36 219.452 268.555 219.551C268.749 219.649 268.921 219.787 269.06 219.955C269.188 220.129 269.28 220.327 269.329 220.538C269.378 220.749 269.384 220.968 269.346 221.181L268.122 227.311C268.038 227.705 267.822 228.06 267.51 228.314C267.197 228.569 266.807 228.709 266.404 228.712ZM265.641 220.878C265.641 220.878 265.482 220.878 265.482 220.99L264.274 227.119H266.404C266.44 227.124 266.476 227.115 266.506 227.095C266.535 227.074 266.556 227.043 266.563 227.008L267.788 220.862L265.641 220.878Z" fill="#F1E7D9"/>
<path d="M278.616 229.317L269.203 228.855C269.088 228.847 268.976 228.814 268.874 228.759C268.773 228.704 268.684 228.628 268.615 228.536C268.545 228.448 268.496 228.344 268.472 228.234C268.447 228.124 268.447 228.01 268.472 227.9L269.728 221.531C269.763 221.38 269.84 221.242 269.95 221.133C270.809 220.225 271.731 219.095 272.621 217.949C275.07 214.939 276.533 213.252 277.9 213.65C278.093 213.702 278.27 213.798 278.419 213.931C278.568 214.063 278.685 214.229 278.759 214.414C279.204 215.481 278.33 217.598 277.566 219.111C278.921 219.126 280.263 219.363 281.541 219.811C282.098 220.098 283.37 220.767 279.379 228.855C279.314 229.001 279.206 229.123 279.07 229.206C278.933 229.288 278.775 229.327 278.616 229.317ZM270.157 227.263L278.107 227.661C279.201 225.596 280.019 223.396 280.54 221.117C279.116 220.789 277.66 220.623 276.199 220.623C276.06 220.626 275.922 220.59 275.802 220.52C275.681 220.45 275.582 220.348 275.515 220.225C275.445 220.107 275.408 219.973 275.408 219.835C275.408 219.698 275.445 219.563 275.515 219.445C276.31 218.135 276.89 216.705 277.232 215.21C275.94 216.306 274.782 217.551 273.782 218.92C272.939 219.971 272.049 221.053 271.19 221.977L270.157 227.263Z" fill="#F1E7D9"/>
<path d="M357.591 305.278L274.037 294.595C273.325 294.524 272.638 294.297 272.024 293.928C271.411 293.56 270.886 293.061 270.488 292.466C270.09 291.871 269.828 291.195 269.721 290.487C269.615 289.779 269.666 289.056 269.871 288.37C270.303 286.869 271.248 285.568 272.542 284.694C273.836 283.821 275.395 283.431 276.946 283.593L360.501 294.133C361.236 294.196 361.949 294.421 362.587 294.793C363.225 295.165 363.773 295.673 364.191 296.282C364.609 296.891 364.887 297.586 365.005 298.315C365.123 299.045 365.078 299.792 364.873 300.502C364.408 302.025 363.425 303.336 362.095 304.209C360.764 305.081 359.171 305.46 357.591 305.278Z" fill="#F1E7D9"/>
<path d="M340.451 272.321L286.82 265.809C285.474 265.7 284.168 265.291 283 264.611C281.831 263.932 280.829 262.999 280.067 261.882C279.305 260.765 278.802 259.491 278.595 258.154C278.388 256.817 278.482 255.45 278.87 254.154L279.856 250.429C280.681 247.591 282.467 245.128 284.907 243.464C287.346 241.799 290.288 241.036 293.228 241.306L346.875 247.531C348.244 247.636 349.574 248.045 350.766 248.728C351.958 249.412 352.984 250.352 353.768 251.482C354.552 252.612 355.075 253.902 355.299 255.259C355.523 256.617 355.442 258.007 355.063 259.329L354.077 263.118C353.235 266.003 351.412 268.502 348.923 270.183C346.435 271.864 343.438 272.62 340.451 272.321Z" fill="#FFCD49"/>
<path d="M359.769 297.127L360.183 295.535L353.823 294.723L353.425 296.315L352.169 296.155L350.579 302.126L359.499 303.256L361.089 297.27L359.769 297.127ZM355.524 300.773C355.282 300.76 355.046 300.691 354.834 300.573C354.622 300.454 354.44 300.289 354.302 300.089C354.164 299.889 354.073 299.661 354.037 299.42C354.001 299.18 354.02 298.935 354.093 298.703C354.242 298.2 354.563 297.766 354.998 297.475C355.434 297.184 355.957 297.056 356.478 297.111C356.722 297.123 356.96 297.192 357.174 297.311C357.387 297.43 357.57 297.598 357.709 297.799C357.847 298.001 357.937 298.232 357.972 298.474C358.007 298.717 357.985 298.964 357.909 299.196C357.762 299.699 357.442 300.134 357.005 300.423C356.568 300.711 356.044 300.835 355.524 300.773Z" fill="#F1E7D9"/>
<path d="M292.703 272.942H292.56L278.25 271.19C278.04 271.162 277.85 271.054 277.719 270.887C277.588 270.721 277.528 270.509 277.551 270.299C277.582 270.09 277.692 269.902 277.857 269.772C278.023 269.642 278.231 269.58 278.441 269.598L292.751 271.35C292.962 271.362 293.159 271.458 293.299 271.617C293.439 271.775 293.511 271.982 293.498 272.193C293.486 272.405 293.39 272.602 293.232 272.742C293.074 272.883 292.866 272.954 292.656 272.942H292.703Z" fill="#F1E7D9"/>
<path d="M312.658 275.394H312.562L298.157 273.626C298.054 273.615 297.955 273.583 297.865 273.532C297.775 273.481 297.696 273.413 297.632 273.332C297.568 273.25 297.522 273.157 297.494 273.057C297.467 272.958 297.46 272.853 297.473 272.751C297.483 272.647 297.514 272.546 297.563 272.453C297.613 272.361 297.681 272.28 297.762 272.215C297.844 272.15 297.938 272.101 298.038 272.073C298.139 272.045 298.244 272.037 298.348 272.05L312.753 273.818C312.858 273.829 312.959 273.862 313.051 273.913C313.143 273.965 313.224 274.034 313.289 274.117C313.354 274.2 313.402 274.295 313.43 274.397C313.459 274.498 313.466 274.604 313.453 274.709C313.423 274.899 313.326 275.072 313.181 275.197C313.035 275.323 312.85 275.392 312.658 275.394Z" fill="#F1E7D9"/>
<path d="M345.3 257.275H345.205L292.338 251.034C292.128 251.006 291.937 250.897 291.807 250.73C291.676 250.564 291.615 250.353 291.638 250.142C291.666 249.932 291.774 249.741 291.941 249.61C292.107 249.48 292.318 249.419 292.528 249.442L345.396 255.683C345.607 255.695 345.804 255.791 345.944 255.95C346.084 256.108 346.156 256.316 346.143 256.527C346.13 256.738 346.035 256.935 345.877 257.076C345.719 257.216 345.511 257.288 345.3 257.275Z" fill="white"/>
<path d="M335.919 263.421H335.824L290.509 257.991C290.3 257.967 290.11 257.862 289.979 257.698C289.848 257.534 289.787 257.325 289.809 257.116C289.833 256.907 289.939 256.716 290.102 256.585C290.266 256.454 290.475 256.393 290.684 256.415L336.015 261.829C336.223 261.856 336.412 261.966 336.54 262.133C336.669 262.3 336.725 262.511 336.698 262.72C336.675 262.912 336.584 263.088 336.44 263.217C336.297 263.346 336.112 263.418 335.919 263.421Z" fill="white"/>
<path d="M323.533 236.561C323.088 236.561 322.738 236.099 321.132 233.504C320.576 233.504 320.035 233.504 319.542 233.504C318.225 233.421 316.941 233.056 315.775 232.436C314.61 231.815 313.59 230.953 312.785 229.906C312.335 229.284 312.029 228.571 311.889 227.816C311.748 227.062 311.777 226.285 311.974 225.543C312.96 221.818 317.745 219.334 322.865 219.907C324.189 219.985 325.481 220.345 326.654 220.963C327.828 221.58 328.856 222.442 329.67 223.489C330.119 224.111 330.425 224.825 330.565 225.58C330.705 226.334 330.677 227.11 330.481 227.852C330.077 229.046 329.39 230.124 328.479 230.995C327.568 231.865 326.46 232.502 325.25 232.851C324.741 234.762 324.487 235.765 324.455 235.924C324.425 236.087 324.349 236.237 324.236 236.359C324.124 236.48 323.979 236.567 323.819 236.609L323.533 236.561ZM321.561 231.896C321.697 231.895 321.83 231.928 321.95 231.992C322.069 232.056 322.171 232.149 322.245 232.262C322.674 232.979 323.008 233.52 323.279 233.854L323.803 231.88C323.838 231.753 323.904 231.636 323.996 231.542C324.088 231.447 324.202 231.377 324.328 231.339C325.362 231.094 326.321 230.599 327.12 229.897C327.918 229.194 328.532 228.306 328.907 227.311C329.042 226.79 329.06 226.247 328.961 225.718C328.862 225.19 328.648 224.69 328.335 224.254C327.643 223.404 326.783 222.706 325.809 222.205C324.834 221.704 323.768 221.409 322.674 221.34C318.35 220.862 314.247 222.932 313.484 225.814C313.35 226.334 313.331 226.878 313.43 227.406C313.529 227.935 313.743 228.435 314.057 228.871C314.743 229.718 315.598 230.414 316.567 230.913C317.536 231.411 318.598 231.703 319.685 231.769C320.299 231.825 320.916 231.825 321.53 231.769L321.561 231.896Z" fill="#F1E7D9"/>
<path d="M319.304 226.626C319.221 226.906 319.045 227.148 318.804 227.314C318.564 227.479 318.275 227.556 317.984 227.533C317.852 227.525 317.724 227.486 317.61 227.421C317.495 227.356 317.396 227.266 317.321 227.157C317.246 227.048 317.197 226.924 317.177 226.793C317.157 226.663 317.166 226.529 317.205 226.403C317.282 226.123 317.455 225.879 317.693 225.713C317.931 225.547 318.22 225.47 318.509 225.495C318.641 225.505 318.769 225.543 318.884 225.608C318.999 225.673 319.098 225.763 319.174 225.872C319.251 225.98 319.302 226.104 319.324 226.234C319.346 226.365 319.339 226.498 319.304 226.626Z" fill="#F1E7D9"/>
<path d="M322.531 226.992C322.454 227.275 322.279 227.522 322.037 227.688C321.796 227.854 321.503 227.929 321.212 227.9C321.079 227.889 320.951 227.848 320.836 227.781C320.722 227.714 320.624 227.623 320.549 227.513C320.474 227.403 320.425 227.278 320.405 227.146C320.385 227.015 320.394 226.881 320.433 226.753C320.516 226.475 320.693 226.234 320.933 226.071C321.174 225.909 321.463 225.835 321.752 225.862C321.884 225.87 322.012 225.909 322.127 225.974C322.241 226.039 322.34 226.129 322.415 226.238C322.49 226.347 322.539 226.471 322.559 226.602C322.58 226.732 322.57 226.866 322.531 226.992Z" fill="#F1E7D9"/>
<path d="M325.775 227.358C325.695 227.64 325.519 227.884 325.278 228.05C325.038 228.216 324.746 228.292 324.455 228.266C324.324 228.252 324.198 228.21 324.085 228.142C323.971 228.075 323.874 227.983 323.8 227.874C323.726 227.765 323.676 227.641 323.655 227.51C323.634 227.38 323.641 227.247 323.676 227.12C323.76 226.841 323.937 226.6 324.177 226.438C324.418 226.275 324.707 226.201 324.996 226.228C325.128 226.237 325.256 226.275 325.371 226.34C325.485 226.405 325.584 226.496 325.659 226.604C325.734 226.713 325.783 226.837 325.803 226.968C325.823 227.099 325.814 227.232 325.775 227.358Z" fill="#F1E7D9"/>
<path d="M366.4 237.58C366.208 237.579 366.022 237.512 365.875 237.389C365.736 237.266 365.644 237.099 365.615 236.916C365.586 236.733 365.621 236.545 365.716 236.386C367.63 233.372 370.315 230.926 373.491 229.301L372.918 227.979C372.856 227.862 372.823 227.73 372.823 227.597C372.823 227.464 372.856 227.333 372.918 227.215C372.993 227.102 373.094 227.011 373.214 226.95C373.334 226.888 373.468 226.859 373.602 226.865L380.884 227.104C381.016 227.109 381.144 227.147 381.257 227.214C381.371 227.281 381.467 227.374 381.536 227.486C381.599 227.6 381.632 227.729 381.632 227.86C381.632 227.991 381.599 228.119 381.536 228.234L378.547 234.603C378.491 234.729 378.403 234.838 378.291 234.92C378.18 235.001 378.048 235.051 377.911 235.064C377.776 235.079 377.639 235.059 377.514 235.007C377.389 234.954 377.279 234.869 377.196 234.762L375.892 233.074C372.643 234.028 369.568 235.495 366.781 237.421C366.67 237.507 366.538 237.561 366.4 237.58ZM374.874 228.505L375.256 229.364C375.342 229.557 375.348 229.775 375.274 229.972C375.199 230.169 375.05 230.328 374.858 230.415C373.103 231.245 371.492 232.352 370.088 233.695C372.051 232.771 374.082 231.999 376.162 231.386C376.314 231.343 376.474 231.345 376.625 231.394C376.775 231.442 376.907 231.533 377.005 231.657L377.847 232.756L379.771 228.664L374.874 228.505Z" fill="#F1E7D9"/>
<path d="M375.097 240.223L364.237 238.981C364.123 238.973 364.011 238.939 363.912 238.881C363.813 238.823 363.728 238.743 363.665 238.647C363.601 238.552 363.557 238.445 363.538 238.332C363.519 238.22 363.524 238.104 363.554 237.994L366.098 228.234C366.146 228.052 366.257 227.893 366.411 227.785C366.565 227.677 366.753 227.627 366.94 227.645L371.806 228.186C372.016 228.21 372.209 228.316 372.342 228.481C372.475 228.647 372.536 228.859 372.513 229.07C372.49 229.281 372.384 229.474 372.218 229.607C372.053 229.74 371.842 229.802 371.631 229.778L367.449 229.301L365.318 237.516L374.588 238.567L375.542 234.905C375.566 234.803 375.611 234.706 375.673 234.621C375.735 234.536 375.814 234.465 375.905 234.411C375.995 234.357 376.096 234.323 376.2 234.309C376.305 234.296 376.411 234.303 376.512 234.332C376.714 234.388 376.885 234.521 376.99 234.703C377.094 234.885 377.122 235.101 377.069 235.303L375.956 239.634C375.907 239.819 375.794 239.98 375.636 240.089C375.478 240.197 375.287 240.245 375.097 240.223Z" fill="#F1E7D9"/>
<path d="M420.746 152.272H420.666L267.867 137.704C267.763 137.696 267.662 137.667 267.569 137.619C267.477 137.572 267.395 137.506 267.328 137.426C267.261 137.345 267.211 137.253 267.181 137.153C267.151 137.053 267.141 136.948 267.152 136.844C267.16 136.74 267.188 136.639 267.236 136.546C267.284 136.453 267.35 136.371 267.43 136.304C267.51 136.237 267.603 136.187 267.702 136.157C267.802 136.127 267.907 136.117 268.01 136.128L420.809 150.68C420.914 150.69 421.016 150.721 421.108 150.77C421.201 150.82 421.283 150.887 421.35 150.968C421.416 151.05 421.466 151.144 421.496 151.245C421.526 151.345 421.536 151.451 421.525 151.556C421.509 151.751 421.42 151.934 421.275 152.067C421.131 152.199 420.942 152.273 420.746 152.272Z" fill="#F1E7D9"/>
<path d="M297.33 132.084H297.171L291.765 131.702C291.59 131.702 291.574 131.702 291.622 131.479C292.274 129.154 292.91 126.83 293.562 124.505C293.562 124.282 293.562 124.282 293.832 124.298L295.867 124.473C296.01 124.473 296.074 124.473 296.138 124.298C296.424 123.582 296.71 122.865 297.012 122.149L297.235 121.623C297.235 121.48 297.235 121.432 297.123 121.416L294.675 121.225C294.516 121.225 294.484 121.225 294.532 121.002C294.723 120.349 294.897 119.697 295.088 119.044C295.173 118.773 295.346 118.538 295.579 118.376C295.812 118.215 296.093 118.136 296.376 118.152L298.046 118.296C298.189 118.296 298.252 118.296 298.284 118.105L298.952 115.7C298.952 115.573 298.952 115.509 298.841 115.493C297.95 115.493 297.076 115.318 296.169 115.302C295.553 115.304 294.944 115.448 294.393 115.724C293.841 116 293.361 116.401 292.989 116.895C292.597 117.358 292.309 117.901 292.147 118.487C291.94 119.219 291.733 119.967 291.543 120.7C291.543 120.859 291.431 120.891 291.272 120.875L289.189 120.7C289.046 120.7 288.999 120.7 288.951 120.875C288.712 121.782 288.458 122.69 288.204 123.597C288.204 123.757 288.204 123.789 288.331 123.804L290.445 123.964C290.589 123.964 290.62 123.964 290.573 124.171L288.617 131.208C288.617 131.351 288.617 131.399 288.394 131.383L278.6 130.667H278.441L283.767 111.195L302.736 112.882L297.33 132.084Z" fill="#F1E7D9"/>
<path d="M236.592 99.7947L139.427 117.484C137.084 117.909 134.848 118.793 132.846 120.085C130.844 121.376 129.116 123.05 127.761 125.011C126.405 126.972 125.449 129.181 124.946 131.511C124.443 133.842 124.404 136.25 124.831 138.596L137.217 206.867C138.084 211.605 140.792 215.805 144.748 218.545C148.704 221.286 153.584 222.342 158.316 221.483L241.537 206.326L257.58 220.13L256.738 203.492C261.178 202.357 265.023 199.579 267.499 195.717C269.974 191.855 270.896 187.198 270.078 182.682L257.676 114.427C257.252 112.079 256.371 109.838 255.082 107.831C253.793 105.825 252.121 104.093 250.163 102.734C248.205 101.375 245.999 100.416 243.67 99.9115C241.341 99.4072 238.936 99.3675 236.592 99.7947Z" fill="white"/>
<path d="M155.057 222.566C150.626 222.557 146.338 220.995 142.937 218.15C139.536 215.306 137.237 211.359 136.438 206.995L124.02 138.739C123.573 136.288 123.614 133.773 124.139 131.338C124.665 128.903 125.666 126.595 127.084 124.548C128.502 122.501 130.309 120.754 132.403 119.408C134.497 118.062 136.835 117.143 139.284 116.703L236.449 99.0146C241.38 98.1176 246.464 99.2142 250.589 102.064C254.714 104.914 257.542 109.285 258.455 114.22L270.857 182.475C271.696 187.085 270.805 191.842 268.354 195.833C265.904 199.824 262.066 202.767 257.58 204.097L258.391 220.019C258.396 220.172 258.356 220.324 258.277 220.455C258.198 220.586 258.083 220.692 257.945 220.76C257.807 220.827 257.653 220.853 257.501 220.834C257.348 220.816 257.205 220.754 257.087 220.655L241.346 207.106L158.507 222.2C157.37 222.426 156.216 222.548 155.057 222.566ZM236.735 100.575L139.57 118.264C137.329 118.67 135.19 119.515 133.276 120.75C131.361 121.985 129.708 123.586 128.412 125.461C127.115 127.336 126.2 129.448 125.72 131.677C125.239 133.907 125.202 136.209 125.61 138.452L138.012 206.724C138.84 211.252 141.427 215.267 145.207 217.887C148.986 220.508 153.649 221.52 158.173 220.703L241.394 205.546C241.511 205.523 241.632 205.527 241.748 205.557C241.863 205.587 241.971 205.643 242.062 205.721L256.658 218.315L255.99 203.54C255.984 203.356 256.041 203.175 256.15 203.028C256.26 202.88 256.417 202.774 256.594 202.728C260.83 201.622 264.492 198.956 266.851 195.264C269.209 191.571 270.089 187.124 269.314 182.81L256.928 114.554C256.1 110.026 253.513 106.012 249.733 103.391C245.954 100.77 241.291 99.7577 236.767 100.575H236.735Z" fill="#171717"/>
<path d="M156.504 163.274L180.227 158.943L186.475 193.366L165.949 197.107L156.504 163.274Z" fill="#FC3060"/>
<path d="M165.948 197.903C165.774 197.902 165.605 197.844 165.467 197.738C165.329 197.631 165.23 197.483 165.185 197.314L155.82 163.481C155.777 163.38 155.755 163.272 155.755 163.163C155.755 163.053 155.777 162.945 155.82 162.844C155.88 162.751 155.959 162.671 156.052 162.61C156.146 162.55 156.251 162.51 156.36 162.494L180.083 158.163C180.187 158.145 180.293 158.147 180.395 158.17C180.498 158.193 180.594 158.236 180.68 158.297C180.766 158.358 180.839 158.435 180.895 158.524C180.95 158.613 180.988 158.712 181.005 158.816L187.254 193.223C187.291 193.429 187.245 193.642 187.126 193.815C187.007 193.988 186.824 194.107 186.618 194.146L166.091 197.888L165.948 197.903ZM157.505 163.895L166.521 196.184L185.601 192.729L179.67 159.883L157.505 163.895Z" fill="#F1E7D9"/>
<path d="M179.034 191.328C180.562 191.328 181.801 190.087 181.801 188.557C181.801 187.027 180.562 185.787 179.034 185.787C177.506 185.787 176.268 187.027 176.268 188.557C176.268 190.087 177.506 191.328 179.034 191.328Z" fill="#F1E7D9"/>
<path d="M180.624 161.093C180.624 161.093 182.039 160.599 185.505 155.441C188.972 150.282 193.153 137.561 193.233 135.459C193.312 133.357 191.023 125.19 191.945 123.279C192.867 121.368 197.685 119.092 200.467 121.687C203.45 124.787 205.633 128.569 206.827 132.705C207.336 135.523 207.495 147.209 207.495 147.209L231.345 142.879C234.827 142.258 236.115 144.582 236.322 147.321C236.528 150.059 234.016 153.801 234.016 153.801C234.016 153.801 237.196 154.358 236.958 158.466C236.922 159.628 236.616 160.765 236.064 161.788C235.512 162.811 234.729 163.69 233.778 164.357C234.498 164.761 235.059 165.4 235.365 166.168C235.672 166.936 235.707 167.786 235.463 168.576C235.326 169.52 235.003 170.428 234.515 171.248C234.027 172.068 233.382 172.783 232.617 173.352C233.496 173.66 234.219 174.302 234.63 175.139C235.04 175.976 235.106 176.942 234.811 177.826C234.08 181.456 232.458 183.956 229.548 184.593C226.639 185.23 197.748 190.404 194.886 190.962C192.024 191.519 191.706 190.038 190.116 189.799C188.651 189.733 187.184 189.878 185.76 190.229L180.624 161.093Z" fill="white"/>
<path d="M193.837 191.758C192.902 191.762 191.988 191.484 191.213 190.962C190.883 190.731 190.51 190.569 190.116 190.484C188.757 190.426 187.397 190.565 186.078 190.898C185.973 190.926 185.864 190.932 185.758 190.915C185.651 190.899 185.549 190.86 185.458 190.802C185.366 190.744 185.287 190.667 185.227 190.577C185.167 190.486 185.126 190.384 185.108 190.277L179.829 161.236C179.797 161.053 179.829 160.865 179.918 160.703C180.008 160.541 180.15 160.414 180.322 160.344C180.433 160.344 181.769 159.564 184.837 154.995C188.32 149.82 192.374 137.226 192.438 135.427C192.335 134.035 192.134 132.651 191.833 131.288C191.07 127.228 190.593 124.25 191.229 122.929C191.768 122.113 192.471 121.419 193.292 120.89C194.113 120.361 195.035 120.009 195.999 119.856C196.874 119.657 197.783 119.67 198.652 119.895C199.52 120.119 200.322 120.548 200.992 121.146C204.114 124.356 206.397 128.288 207.638 132.593C208.067 134.997 208.242 143.436 208.29 146.302L231.154 142.13C231.814 141.966 232.502 141.944 233.171 142.068C233.841 142.192 234.476 142.457 235.034 142.847C235.662 143.402 236.168 144.082 236.519 144.844C236.869 145.607 237.057 146.434 237.069 147.273C237.024 149.461 236.363 151.591 235.161 153.419C236.042 153.923 236.754 154.678 237.206 155.588C237.659 156.498 237.833 157.521 237.705 158.529C237.634 160.736 236.704 162.828 235.113 164.357C235.659 164.933 236.052 165.637 236.258 166.405C236.463 167.172 236.474 167.978 236.29 168.751C236.004 170.409 235.222 171.942 234.048 173.145C234.763 173.688 235.297 174.435 235.581 175.287C235.865 176.14 235.884 177.058 235.638 177.922C234.779 182.157 232.808 184.641 229.771 185.309C227.449 185.819 208.624 189.194 199.561 190.818L195.077 191.63C194.668 191.707 194.253 191.749 193.837 191.758ZM189.464 188.86C189.761 188.835 190.059 188.835 190.355 188.86C190.926 188.968 191.468 189.196 191.945 189.529C192.345 189.808 192.802 189.996 193.283 190.078C193.764 190.161 194.257 190.136 194.727 190.006L199.227 189.21C208.258 187.618 227.068 184.211 229.437 183.701C231.806 183.192 233.364 181.17 234.096 177.556C234.354 176.874 234.332 176.117 234.034 175.451C233.736 174.786 233.186 174.265 232.506 174.005C232.361 173.959 232.233 173.874 232.134 173.758C232.036 173.643 231.972 173.502 231.949 173.352C231.934 173.201 231.961 173.049 232.025 172.912C232.089 172.775 232.19 172.657 232.315 172.572C233.662 171.571 234.559 170.077 234.811 168.417C235.256 165.917 233.746 165.137 233.571 165.057C233.441 164.993 233.33 164.897 233.249 164.777C233.168 164.656 233.12 164.517 233.11 164.373C233.102 164.23 233.133 164.087 233.2 163.961C233.268 163.834 233.368 163.729 233.491 163.656C234.317 163.045 234.992 162.252 235.463 161.338C235.935 160.424 236.19 159.414 236.21 158.386C236.353 155.202 234.175 154.597 233.921 154.549C233.792 154.517 233.672 154.456 233.57 154.37C233.468 154.285 233.387 154.177 233.332 154.055C233.274 153.939 233.243 153.811 233.243 153.681C233.243 153.551 233.274 153.423 233.332 153.307C234 152.336 235.702 149.359 235.495 147.368C235.504 146.747 235.385 146.13 235.144 145.558C234.903 144.985 234.546 144.468 234.096 144.041C233.708 143.793 233.273 143.629 232.818 143.56C232.364 143.492 231.899 143.52 231.456 143.643L207.606 147.973C207.491 147.989 207.375 147.981 207.263 147.951C207.151 147.921 207.046 147.869 206.954 147.798C206.865 147.725 206.793 147.633 206.743 147.528C206.694 147.423 206.668 147.309 206.668 147.193C206.668 147.082 206.509 135.539 206.016 132.864C204.839 128.894 202.723 125.268 199.847 122.292C199.362 121.867 198.784 121.565 198.158 121.41C197.533 121.254 196.88 121.251 196.254 121.4C195.526 121.509 194.827 121.76 194.197 122.14C193.566 122.519 193.017 123.02 192.581 123.613C192.12 124.553 192.835 128.39 193.312 130.985C193.65 132.461 193.863 133.963 193.948 135.475C193.853 137.72 189.592 150.632 185.998 155.87C184.741 157.962 183.17 159.847 181.339 161.459L186.364 189.162C187.386 188.968 188.424 188.867 189.464 188.86Z" fill="#F1E7D9"/>
<path d="M226.734 301.012L247.166 288.672L225.78 292.923L225.081 287.001C224.905 285.479 224.432 284.007 223.687 282.669C222.943 281.331 221.943 280.153 220.744 279.202C219.545 278.251 218.171 277.547 216.699 277.128C215.228 276.71 213.689 276.585 212.17 276.763L141.51 284.994C139.991 285.17 138.521 285.644 137.185 286.389C135.848 287.135 134.672 288.136 133.722 289.337C132.773 290.537 132.069 291.914 131.651 293.387C131.233 294.86 131.109 296.402 131.286 297.923L136.056 339.669C136.241 341.197 136.726 342.673 137.482 344.012C138.238 345.352 139.25 346.529 140.462 347.476C141.673 348.423 143.059 349.121 144.541 349.529C146.022 349.938 147.57 350.05 149.094 349.859L219.722 341.627C222.792 341.268 225.594 339.703 227.511 337.275C229.428 334.848 230.304 331.757 229.946 328.683L226.734 301.012Z" fill="white"/>
<path d="M147.743 350.782C144.693 350.777 141.75 349.653 139.471 347.623C137.192 345.593 135.734 342.797 135.373 339.765L130.603 298.018C130.231 294.739 131.169 291.446 133.212 288.857C135.255 286.268 138.238 284.593 141.51 284.198L212.154 275.967C215.432 275.59 218.725 276.53 221.312 278.58C223.899 280.63 225.568 283.624 225.955 286.905L226.543 291.984L247.07 287.892C247.255 287.851 247.449 287.878 247.616 287.967C247.783 288.056 247.913 288.203 247.982 288.379C248.051 288.556 248.055 288.752 247.993 288.931C247.931 289.11 247.806 289.261 247.643 289.357L227.641 301.425L230.821 328.651C231.201 331.934 230.264 335.234 228.216 337.826C226.168 340.417 223.175 342.088 219.897 342.471L149.269 350.703C148.763 350.764 148.253 350.791 147.743 350.782ZM213.537 277.543C213.119 277.519 212.699 277.519 212.281 277.543L141.637 285.775C140.221 285.939 138.85 286.381 137.604 287.075C136.358 287.77 135.26 288.703 134.374 289.822C133.489 290.941 132.832 292.224 132.441 293.598C132.05 294.971 131.933 296.409 132.097 297.827L136.867 339.589C137.202 342.453 138.658 345.066 140.914 346.857C143.17 348.648 146.043 349.47 148.904 349.142L219.547 340.911C222.407 340.576 225.017 339.118 226.805 336.859C228.594 334.6 229.414 331.723 229.087 328.858L225.907 301.123C225.893 300.97 225.92 300.816 225.988 300.679C226.055 300.541 226.16 300.425 226.289 300.343L242.841 290.36L225.907 293.719C225.801 293.742 225.691 293.742 225.584 293.72C225.478 293.698 225.376 293.655 225.287 293.592C225.115 293.453 225.001 293.254 224.969 293.035L224.286 287.112C223.979 284.469 222.716 282.029 220.736 280.255C218.755 278.48 216.195 277.493 213.537 277.479V277.543Z" fill="#171717"/>
<path d="M150.875 313.526L166.219 311.822L168.667 334.065L155.391 335.529L150.875 313.526Z" fill="#FFCD49"/>
<path d="M155.391 336.326C155.207 336.326 155.03 336.262 154.888 336.146C154.746 336.03 154.648 335.869 154.612 335.689L150.096 313.685C150.073 313.576 150.073 313.463 150.097 313.354C150.121 313.244 150.167 313.141 150.233 313.051C150.299 312.961 150.383 312.886 150.48 312.831C150.577 312.775 150.685 312.741 150.796 312.73L166.123 311.042C166.332 311.02 166.541 311.081 166.705 311.212C166.868 311.343 166.974 311.534 166.998 311.743L169.462 334.033C169.473 334.138 169.463 334.243 169.433 334.344C169.403 334.445 169.353 334.539 169.287 334.62C169.22 334.702 169.138 334.769 169.046 334.819C168.953 334.868 168.851 334.899 168.747 334.909L155.486 336.373L155.391 336.326ZM151.829 314.211L156.027 334.654L167.793 333.364L165.503 312.666L151.829 314.211Z" fill="#F1E7D9"/>
<path d="M164.136 332.441C165.119 332.441 165.917 331.642 165.917 330.657C165.917 329.673 165.119 328.874 164.136 328.874C163.152 328.874 162.355 329.673 162.355 330.657C162.355 331.642 163.152 332.441 164.136 332.441Z" fill="#F1E7D9"/>
<path d="M166.362 313.239C166.362 313.239 167.3 312.984 169.733 309.848C172.27 306.02 174.236 301.842 175.568 297.445C175.711 296.108 174.614 290.79 175.282 289.612C175.95 288.433 179.13 287.207 180.799 289.007C182.573 291.119 183.807 293.633 184.392 296.331C184.583 298.146 184.17 305.613 184.17 305.613L199.545 303.909C201.787 303.67 202.471 305.215 202.518 306.966C202.309 308.445 201.699 309.838 200.754 310.994C201.374 311.222 201.884 311.679 202.18 312.27C202.475 312.862 202.534 313.545 202.344 314.179C202.277 314.916 202.039 315.628 201.65 316.258C201.261 316.888 200.731 317.419 200.102 317.809C200.545 318.098 200.876 318.531 201.038 319.036C201.2 319.54 201.184 320.085 200.992 320.579C200.715 321.764 199.984 322.793 198.957 323.445C199.507 323.68 199.942 324.123 200.168 324.677C200.394 325.232 200.393 325.853 200.165 326.406C199.529 328.683 198.384 330.196 196.508 330.482C194.632 330.769 175.838 332.759 174.105 332.95C172.372 333.141 172.134 332.234 171.148 332.011C170.216 331.903 169.274 331.93 168.349 332.09L166.362 313.239Z" fill="white"/>
<path d="M173.708 333.667C172.956 333.678 172.223 333.437 171.625 332.982C171.462 332.836 171.265 332.732 171.052 332.68C170.225 332.553 169.383 332.553 168.556 332.68C168.344 332.712 168.127 332.661 167.952 332.536C167.865 332.47 167.794 332.386 167.742 332.29C167.69 332.194 167.658 332.088 167.65 331.979L165.583 313.239C165.559 313.062 165.599 312.881 165.695 312.73C165.791 312.579 165.937 312.466 166.107 312.411C167.303 311.551 168.323 310.471 169.113 309.227C171.556 305.513 173.462 301.471 174.773 297.222C174.767 296.348 174.698 295.475 174.566 294.611C174.248 291.857 174.089 289.978 174.566 289.07C174.972 288.534 175.486 288.089 176.075 287.765C176.664 287.441 177.315 287.246 177.985 287.192C178.593 287.099 179.215 287.153 179.799 287.349C180.383 287.546 180.911 287.88 181.34 288.322C183.235 290.555 184.547 293.225 185.156 296.092C185.315 297.572 185.156 302.46 184.981 304.578L199.418 302.986C199.886 302.905 200.366 302.924 200.827 303.042C201.287 303.16 201.717 303.374 202.089 303.67C202.498 304.089 202.815 304.589 203.02 305.137C203.225 305.685 203.314 306.27 203.282 306.855C203.175 308.216 202.697 309.521 201.898 310.628C202.408 311.034 202.798 311.572 203.025 312.184C203.252 312.796 203.308 313.458 203.186 314.099C203.039 315.484 202.395 316.768 201.374 317.713C201.656 318.131 201.843 318.606 201.92 319.104C201.997 319.602 201.962 320.112 201.819 320.595C201.568 321.595 201.051 322.508 200.324 323.238C200.708 323.661 200.972 324.18 201.086 324.741C201.201 325.301 201.163 325.882 200.976 326.422C200.213 329.193 198.766 330.769 196.667 331.071C195.077 331.31 182.866 332.664 176.983 333.269L174.232 333.555C174.061 333.606 173.885 333.644 173.708 333.667ZM170.289 331.024C170.663 331.012 171.036 331.044 171.402 331.119C171.816 331.216 172.202 331.406 172.531 331.676C172.751 331.854 173.008 331.981 173.283 332.047C173.558 332.113 173.844 332.117 174.121 332.059L176.872 331.756C182.294 331.167 194.998 329.814 196.492 329.591C197.987 329.368 198.925 328.222 199.513 326.072C199.927 324.56 198.909 324.13 198.798 324.082C198.657 324.026 198.534 323.932 198.441 323.812C198.349 323.691 198.291 323.548 198.273 323.397C198.265 323.244 198.299 323.091 198.372 322.956C198.445 322.822 198.554 322.71 198.687 322.633C199.093 322.364 199.443 322.018 199.716 321.613C199.989 321.209 200.179 320.755 200.277 320.277C200.642 318.86 199.8 318.414 199.8 318.398C199.669 318.334 199.558 318.234 199.481 318.11C199.404 317.986 199.363 317.843 199.363 317.697C199.363 317.551 199.404 317.408 199.481 317.285C199.558 317.161 199.669 317.061 199.8 316.997C200.31 316.666 200.738 316.223 201.052 315.701C201.366 315.18 201.558 314.594 201.612 313.988C201.819 312.204 200.754 311.79 200.531 311.727C200.404 311.692 200.288 311.626 200.193 311.534C200.098 311.442 200.029 311.328 199.99 311.201C199.95 311.078 199.941 310.947 199.963 310.819C199.985 310.692 200.038 310.571 200.118 310.469C200.963 309.466 201.513 308.248 201.708 306.95C201.754 306.237 201.52 305.535 201.056 304.992C200.85 304.842 200.615 304.736 200.365 304.681C200.116 304.626 199.859 304.624 199.609 304.673L184.233 306.377C184.118 306.384 184.002 306.368 183.893 306.329C183.784 306.291 183.683 306.232 183.597 306.154C183.516 306.073 183.453 305.976 183.412 305.869C183.371 305.762 183.353 305.648 183.359 305.533C183.502 302.97 183.741 297.764 183.582 296.378C183.011 293.855 181.851 291.503 180.195 289.516C179.931 289.259 179.611 289.068 179.261 288.958C178.91 288.847 178.538 288.82 178.176 288.879C177.325 288.946 176.533 289.34 175.965 289.978C175.799 291.501 175.852 293.04 176.124 294.547C176.285 295.526 176.354 296.517 176.331 297.509C174.994 302.033 172.978 306.328 170.353 310.246C169.449 311.495 168.379 312.615 167.173 313.574L169.097 331.087C169.478 331.056 169.892 331.024 170.289 331.024Z" fill="#F1E7D9"/>
<path d="M509.865 347.455L498.497 270.872C498.312 269.613 497.881 268.402 497.229 267.31C496.577 266.218 495.715 265.265 494.695 264.507C493.674 263.748 492.515 263.198 491.282 262.889C490.049 262.58 488.767 262.517 487.51 262.704L391.522 277.034L367.847 259.52L377.784 279.199C375.658 279.945 373.859 281.412 372.698 283.345C371.537 285.278 371.086 287.556 371.424 289.787L382.793 366.385C382.979 367.643 383.412 368.852 384.065 369.942C384.718 371.033 385.579 371.984 386.6 372.741C387.62 373.498 388.779 374.046 390.011 374.354C391.243 374.663 392.524 374.725 393.78 374.537L501.804 358.457C504.326 358.06 506.59 356.681 508.1 354.62C509.61 352.559 510.245 349.983 509.865 347.455Z" fill="white"/>
<path d="M392.269 375.445C389.761 375.435 387.34 374.528 385.441 372.887C383.543 371.246 382.294 368.98 381.918 366.497L370.55 289.914C370.209 287.64 370.625 285.316 371.734 283.301C372.844 281.287 374.584 279.695 376.687 278.769L367.147 259.87C367.069 259.708 367.047 259.525 367.085 259.349C367.122 259.174 367.217 259.015 367.354 258.899C367.494 258.788 367.668 258.728 367.847 258.728C368.025 258.728 368.199 258.788 368.339 258.899L391.744 276.174L487.399 261.845C490.146 261.447 492.939 262.153 495.17 263.808C497.4 265.463 498.887 267.933 499.308 270.681L510.676 347.264C511.077 350.016 510.374 352.815 508.721 355.049C507.067 357.284 504.598 358.772 501.852 359.189L393.827 375.333C393.31 375.402 392.79 375.439 392.269 375.445ZM370.009 262.147L378.452 278.849C378.499 278.951 378.523 279.062 378.523 279.175C378.523 279.288 378.499 279.399 378.452 279.502C378.409 279.608 378.345 279.704 378.263 279.783C378.18 279.863 378.082 279.924 377.975 279.963C376.01 280.634 374.342 281.973 373.262 283.747C372.181 285.522 371.756 287.619 372.06 289.675L383.428 366.258C383.6 367.414 383.997 368.526 384.597 369.528C385.197 370.531 385.988 371.405 386.926 372.102C387.863 372.798 388.929 373.303 390.061 373.587C391.193 373.871 392.37 373.929 393.525 373.757L501.534 357.676C503.864 357.326 505.96 356.066 507.364 354.171C508.768 352.276 509.364 349.901 509.023 347.566L497.67 270.983C497.32 268.65 496.061 266.551 494.169 265.145C492.277 263.739 489.905 263.142 487.573 263.484L391.601 277.814C391.497 277.828 391.392 277.822 391.291 277.794C391.19 277.767 391.095 277.719 391.013 277.655L370.009 262.147Z" fill="#171717"/>
<path d="M481.818 311.79L456.107 313.128L458.063 350.4L480.291 349.238L481.818 311.79Z" fill="#FC3060"/>
<path d="M458.063 351.196C457.86 351.197 457.665 351.119 457.517 350.98C457.369 350.841 457.28 350.651 457.268 350.448L455.312 313.239C455.308 313.135 455.324 313.03 455.36 312.932C455.396 312.834 455.451 312.744 455.522 312.667C455.593 312.59 455.679 312.528 455.773 312.484C455.868 312.44 455.971 312.415 456.075 312.411L481.77 311.058C481.881 311.05 481.992 311.066 482.096 311.104C482.2 311.142 482.295 311.203 482.374 311.281C482.53 311.444 482.615 311.661 482.613 311.886L481.023 349.333C481.019 349.532 480.939 349.722 480.8 349.864C480.661 350.006 480.474 350.09 480.275 350.098L458.015 351.26L458.063 351.196ZM456.95 313.892L458.81 349.572L479.48 348.474L480.927 312.634L456.95 313.892Z" fill="#F1E7D9"/>
<path d="M464.614 346.547C466.247 346.547 467.572 345.221 467.572 343.586C467.572 341.95 466.247 340.624 464.614 340.624C462.981 340.624 461.657 341.95 461.657 343.586C461.657 345.221 462.981 346.547 464.614 346.547Z" fill="#F1E7D9"/>
<path d="M456.235 315.452C456.235 315.452 454.645 315.293 449.779 310.787C444.914 306.282 437.457 294.102 436.853 291.936C436.249 289.771 436.63 280.791 435.263 278.976C433.895 277.161 428.283 276.047 426.025 279.454C423.671 283.409 422.317 287.879 422.082 292.478C422.241 295.519 424.944 307.699 424.944 307.699L399.186 309.036C395.417 309.243 394.702 311.966 395.099 314.863C395.497 317.761 399.074 321.025 399.074 321.025C399.074 321.025 395.99 322.394 397.182 326.598C397.49 327.792 398.072 328.899 398.88 329.83C399.689 330.761 400.702 331.491 401.841 331.963C401.193 332.557 400.769 333.355 400.639 334.224C400.508 335.094 400.68 335.982 401.125 336.74C401.896 338.622 403.375 340.126 405.244 340.927C404.404 341.458 403.808 342.3 403.584 343.269C403.361 344.238 403.529 345.256 404.051 346.101C405.641 349.684 407.994 351.881 411.174 351.833C414.354 351.785 445.677 350.034 448.714 349.875C451.751 349.716 451.767 348.139 453.309 347.503C454.815 347.08 456.372 346.871 457.936 346.882L456.235 315.452Z" fill="white"/>
<path d="M411.015 352.645C407.755 352.645 405.148 350.56 403.256 346.452C402.793 345.613 402.592 344.655 402.68 343.701C402.768 342.747 403.14 341.841 403.749 341.102C402.226 340.139 401.033 338.734 400.33 337.074C399.945 336.317 399.758 335.475 399.785 334.625C399.813 333.776 400.055 332.948 400.489 332.218C399.477 331.634 398.59 330.856 397.88 329.926C397.17 328.997 396.652 327.936 396.355 326.805C395.97 325.793 395.897 324.689 396.147 323.635C396.396 322.582 396.956 321.628 397.754 320.898C396.055 319.293 394.842 317.24 394.256 314.975C394.064 314.11 394.053 313.214 394.226 312.345C394.398 311.476 394.75 310.653 395.258 309.928C395.737 309.39 396.325 308.961 396.984 308.67C397.642 308.379 398.355 308.232 399.074 308.24L423.91 306.95C423.258 304.037 421.35 295.121 421.223 292.509C421.445 287.739 422.849 283.099 425.309 279.008C425.846 278.237 426.559 277.606 427.389 277.165C428.218 276.725 429.14 276.489 430.079 276.476C431.114 276.392 432.155 276.526 433.135 276.868C434.116 277.211 435.014 277.756 435.771 278.467C436.741 279.677 436.98 282.877 437.186 287.271C437.204 288.765 437.331 290.255 437.568 291.729C438.093 293.576 445.391 305.677 450.288 310.198C454.708 314.29 456.266 314.64 456.33 314.656C456.513 314.679 456.681 314.768 456.804 314.905C456.926 315.043 456.995 315.22 456.998 315.405L458.588 346.866C458.595 346.974 458.578 347.083 458.54 347.184C458.502 347.286 458.442 347.378 458.365 347.455C458.214 347.607 458.008 347.693 457.793 347.694C456.336 347.67 454.884 347.863 453.484 348.267C453.091 348.448 452.739 348.709 452.45 349.031C451.96 349.547 451.367 349.956 450.71 350.23C450.053 350.504 449.346 350.638 448.634 350.623L443.594 350.894C433.863 351.435 413.575 352.486 411.047 352.582L411.015 352.645ZM430.54 278.069H430.206C429.507 278.067 428.818 278.232 428.196 278.55C427.574 278.869 427.036 279.331 426.629 279.9C424.376 283.712 423.068 288.008 422.813 292.43C422.956 295.375 425.627 307.396 425.659 307.524C425.683 307.636 425.682 307.753 425.658 307.865C425.633 307.978 425.585 308.084 425.516 308.176C425.446 308.268 425.357 308.344 425.256 308.399C425.154 308.454 425.043 308.487 424.927 308.495L399.169 309.832C398.67 309.817 398.173 309.907 397.71 310.096C397.247 310.286 396.829 310.57 396.482 310.931C396.124 311.506 395.887 312.15 395.789 312.821C395.69 313.492 395.732 314.177 395.91 314.832C396.196 316.981 398.692 319.608 399.631 320.5C399.727 320.59 399.801 320.702 399.845 320.827C399.889 320.952 399.903 321.085 399.885 321.216C399.862 321.349 399.806 321.473 399.723 321.579C399.639 321.684 399.531 321.768 399.408 321.821C399.169 321.933 396.991 323.047 397.961 326.438C398.238 327.501 398.756 328.485 399.476 329.314C400.196 330.143 401.098 330.793 402.111 331.215C402.251 331.258 402.376 331.341 402.469 331.454C402.562 331.567 402.62 331.706 402.636 331.852C402.66 331.995 402.644 332.141 402.591 332.276C402.538 332.411 402.449 332.528 402.334 332.616C401.832 333.108 401.514 333.756 401.43 334.453C401.346 335.151 401.502 335.856 401.872 336.453C402.543 338.134 403.853 339.48 405.514 340.195C405.659 340.245 405.787 340.336 405.881 340.457C405.976 340.578 406.034 340.724 406.047 340.878C406.06 341.031 406.029 341.185 405.957 341.321C405.885 341.457 405.775 341.569 405.641 341.643C405.311 341.859 405.027 342.138 404.806 342.464C404.584 342.79 404.429 343.156 404.349 343.543C404.269 343.929 404.266 344.327 404.341 344.714C404.415 345.101 404.565 345.47 404.782 345.799C406.372 349.381 408.535 351.149 411.142 351.069C413.75 350.989 433.895 349.923 443.626 349.381L448.65 349.111C449.179 349.127 449.705 349.027 450.191 348.818C450.677 348.609 451.112 348.296 451.465 347.901C451.914 347.43 452.455 347.056 453.055 346.802C454.376 346.377 455.753 346.152 457.141 346.133L455.551 316.042C453.236 314.833 451.131 313.258 449.318 311.377C444.389 306.823 436.805 294.468 436.169 292.159C435.891 290.582 435.742 288.984 435.724 287.383C435.596 284.596 435.39 280.393 434.658 279.422C433.512 278.454 432.036 277.969 430.54 278.069Z" fill="#F1E7D9"/>
<path d="M503.251 150.298L422.797 132.02C421.446 131.712 420.048 131.673 418.682 131.906C417.316 132.139 416.009 132.64 414.837 133.379C413.664 134.119 412.649 135.082 411.848 136.215C411.048 137.348 410.478 138.627 410.172 139.981L400.458 182.858L379.676 190.818L398.327 192.283L397.611 195.467C397.301 196.82 397.261 198.221 397.493 199.59C397.725 200.958 398.225 202.268 398.964 203.442C399.702 204.617 400.665 205.634 401.798 206.435C402.93 207.236 404.209 207.805 405.561 208.109L486.015 226.387C488.744 227.006 491.605 226.515 493.972 225.022C496.339 223.529 498.018 221.157 498.64 218.426L511.201 162.94C511.819 160.208 511.328 157.342 509.838 154.972C508.347 152.602 505.978 150.921 503.251 150.298Z" fill="white"/>
<path d="M488.369 227.454C487.518 227.453 486.67 227.357 485.841 227.167L405.45 208.889C402.516 208.221 399.966 206.413 398.362 203.864C396.758 201.314 396.231 198.231 396.896 195.292L397.405 193L379.676 191.614C379.572 191.629 379.466 191.623 379.364 191.596C379.261 191.57 379.166 191.524 379.082 191.46C378.997 191.397 378.927 191.317 378.873 191.226C378.82 191.135 378.785 191.034 378.77 190.93C378.755 190.825 378.761 190.719 378.788 190.617C378.814 190.514 378.861 190.419 378.924 190.334C378.988 190.25 379.067 190.179 379.158 190.126C379.249 190.072 379.349 190.037 379.454 190.022L399.837 182.237L409.457 139.758C410.139 136.852 411.936 134.331 414.459 132.74C416.982 131.149 420.028 130.616 422.94 131.256L503.394 149.518C506.326 150.19 508.873 151.998 510.476 154.547C512.08 157.095 512.609 160.176 511.948 163.115L499.387 218.601C498.813 221.124 497.397 223.375 495.374 224.984C493.351 226.593 490.841 227.464 488.257 227.454H488.369ZM383.19 190.293L398.327 191.487C398.44 191.498 398.55 191.533 398.648 191.589C398.747 191.645 398.833 191.722 398.901 191.813C398.968 191.905 399.016 192.01 399.04 192.121C399.064 192.232 399.065 192.347 399.042 192.458L398.311 195.643C397.746 198.167 398.203 200.814 399.583 203.001C400.963 205.189 403.153 206.739 405.673 207.313L486.19 225.671C487.439 225.956 488.732 225.991 489.994 225.776C491.256 225.56 492.464 225.098 493.548 224.415C494.632 223.732 495.571 222.841 496.311 221.795C497.051 220.748 497.577 219.566 497.861 218.315L510.39 162.765C510.956 160.238 510.499 157.59 509.119 155.399C507.739 153.209 505.549 151.655 503.028 151.078L422.622 132.8C421.372 132.515 420.079 132.48 418.816 132.697C417.552 132.913 416.344 133.377 415.26 134.062C414.176 134.747 413.237 135.639 412.498 136.687C411.759 137.736 411.233 138.92 410.952 140.172L401.237 183.049C401.206 183.175 401.145 183.291 401.059 183.389C400.973 183.486 400.865 183.56 400.744 183.606L383.19 190.293Z" fill="#171717"/>
<path d="M487.303 180.867L466.761 178.033L462.643 207.823L480.419 210.275L487.303 180.867Z" fill="#FFCD49"/>
<path d="M480.418 211.071H480.307L462.531 208.619C462.427 208.603 462.328 208.567 462.239 208.513C462.149 208.459 462.071 208.388 462.009 208.304C461.947 208.219 461.902 208.124 461.877 208.022C461.852 207.92 461.847 207.815 461.863 207.711L465.965 177.906C465.997 177.699 466.107 177.512 466.273 177.384C466.439 177.257 466.648 177.198 466.856 177.221L487.399 180.071C487.51 180.085 487.616 180.121 487.712 180.179C487.808 180.237 487.891 180.314 487.955 180.406C488.016 180.498 488.058 180.603 488.077 180.712C488.096 180.822 488.092 180.934 488.066 181.042L481.198 210.45C481.158 210.627 481.059 210.784 480.917 210.897C480.775 211.01 480.599 211.071 480.418 211.071ZM463.549 207.138L479.814 209.399L486.317 181.536L467.46 178.925L463.549 207.138Z" fill="#F1E7D9"/>
<path d="M468.859 205.801C470.176 205.801 471.244 204.731 471.244 203.412C471.244 202.093 470.176 201.024 468.859 201.024C467.542 201.024 466.474 202.093 466.474 203.412C466.474 204.731 467.542 205.801 468.859 205.801Z" fill="#F1E7D9"/>
<path d="M466.49 179.88C466.49 179.88 465.266 179.514 462.086 175.199C458.82 169.967 456.345 164.28 454.74 158.322C454.581 156.523 456.33 149.422 455.392 147.814C454.454 146.206 450.32 144.439 448.014 146.795C445.551 149.564 443.799 152.892 442.91 156.491C442.576 158.927 442.91 168.974 442.91 168.974L422.32 166.14C419.299 165.71 418.329 167.732 418.202 170.12C418.074 172.509 420.412 175.597 420.412 175.597C419.574 175.863 418.867 176.435 418.431 177.199C417.995 177.963 417.862 178.863 418.059 179.721C418.12 180.716 418.415 181.682 418.917 182.542C419.42 183.402 420.117 184.132 420.952 184.673C420.342 185.042 419.879 185.613 419.641 186.286C419.403 186.96 419.406 187.695 419.649 188.366C419.977 189.97 420.919 191.381 422.272 192.299C421.528 192.594 420.93 193.17 420.606 193.903C420.282 194.635 420.258 195.466 420.539 196.216C421.302 199.305 422.797 201.39 425.309 201.836C427.821 202.282 452.895 205.641 455.328 205.976C457.761 206.31 457.999 205.084 459.319 204.813C460.573 204.706 461.836 204.776 463.071 205.02L466.49 179.88Z" fill="white"/>
<path d="M456.06 206.835C455.763 206.857 455.466 206.857 455.169 206.835L451.433 206.326C443.483 205.259 427.153 203.046 425.118 202.68C422.447 202.202 420.619 200.117 419.728 196.471C419.485 195.737 419.46 194.949 419.658 194.202C419.855 193.456 420.267 192.783 420.841 192.267C419.828 191.268 419.127 189.996 418.822 188.605C418.639 187.949 418.615 187.258 418.753 186.59C418.892 185.922 419.188 185.298 419.617 184.768C418.225 183.492 417.372 181.733 417.232 179.848C417.085 178.988 417.189 178.103 417.534 177.3C417.878 176.498 418.447 175.812 419.172 175.327C418.103 173.802 417.476 172.011 417.359 170.152C417.329 169.416 417.455 168.682 417.729 167.999C418.003 167.316 418.419 166.698 418.949 166.188C419.425 165.822 419.973 165.563 420.558 165.429C421.142 165.294 421.748 165.287 422.336 165.408L442.02 168.066C442.02 165.487 441.813 158.513 442.099 156.38C443.005 152.612 444.83 149.127 447.41 146.238C447.973 145.688 448.66 145.281 449.412 145.051C450.165 144.821 450.961 144.775 451.735 144.916C452.591 145.009 453.419 145.281 454.164 145.714C454.909 146.148 455.555 146.733 456.06 147.432C456.68 148.578 456.378 151.062 455.869 154.708C455.663 155.882 455.541 157.068 455.503 158.259C457.095 164.064 459.515 169.609 462.69 174.722C465.52 178.559 466.681 179.1 466.729 179.116C466.902 179.174 467.049 179.293 467.143 179.451C467.236 179.609 467.27 179.795 467.237 179.976L463.771 205.116C463.758 205.223 463.722 205.326 463.668 205.419C463.613 205.512 463.54 205.593 463.453 205.657C463.364 205.721 463.263 205.765 463.157 205.787C463.05 205.809 462.94 205.808 462.833 205.785C461.699 205.547 460.537 205.477 459.383 205.578C459.065 205.658 458.767 205.805 458.508 206.008C457.802 206.539 456.943 206.83 456.06 206.835ZM421.525 166.872C420.954 166.833 420.389 167.003 419.935 167.35C419.239 168.12 418.869 169.13 418.901 170.168C419.113 171.977 419.824 173.691 420.952 175.12C421.032 175.228 421.083 175.355 421.103 175.488C421.122 175.621 421.109 175.757 421.064 175.884C421.018 176.008 420.941 176.118 420.841 176.205C420.741 176.291 420.621 176.351 420.491 176.377C420.301 176.377 418.52 176.951 418.758 179.657C418.818 180.52 419.072 181.358 419.501 182.108C419.931 182.858 420.525 183.501 421.239 183.988C421.365 184.056 421.47 184.157 421.544 184.281C421.617 184.404 421.656 184.545 421.656 184.689C421.656 184.832 421.617 184.973 421.544 185.096C421.47 185.22 421.365 185.321 421.239 185.389C421.111 185.389 419.919 186.153 420.38 188.191C420.659 189.579 421.462 190.805 422.622 191.614C422.754 191.689 422.861 191.802 422.929 191.938C422.997 192.074 423.023 192.228 423.004 192.379C422.988 192.528 422.931 192.671 422.838 192.789C422.745 192.907 422.62 192.997 422.479 193.047C422.203 193.162 421.953 193.331 421.743 193.543C421.533 193.755 421.367 194.007 421.254 194.284C421.142 194.56 421.086 194.857 421.088 195.156C421.091 195.455 421.153 195.75 421.27 196.025C422.018 199.05 423.369 200.69 425.404 201.056C427.44 201.422 443.769 203.619 451.639 204.686L455.392 205.196C455.787 205.288 456.198 205.291 456.595 205.202C456.991 205.114 457.363 204.938 457.681 204.686C458.117 204.376 458.608 204.154 459.128 204.033C460.183 203.878 461.254 203.878 462.308 204.033L465.584 180.151C463.964 178.834 462.553 177.277 461.402 175.534C458.058 170.178 455.524 164.357 453.881 158.259C453.894 156.944 454.021 155.634 454.263 154.342C454.549 152.272 455.042 148.817 454.629 147.973C453.832 147.011 452.69 146.399 451.449 146.27C450.923 146.169 450.381 146.194 449.867 146.344C449.353 146.493 448.881 146.762 448.491 147.13C446.151 149.779 444.478 152.951 443.61 156.38C443.276 158.72 443.61 168.64 443.61 168.735C443.611 168.852 443.588 168.968 443.541 169.075C443.494 169.182 443.426 169.278 443.34 169.356C443.252 169.429 443.151 169.484 443.041 169.517C442.932 169.55 442.817 169.56 442.704 169.547L422.113 166.697L421.525 166.872Z" fill="#F1E7D9"/>
</svg>
