<svg width="636" height="480" viewBox="0 0 636 480" fill="none" xmlns="http://www.w3.org/2000/svg">
<path d="M178.632 293.359L461.128 293.359C468.451 293.359 474.388 287.414 474.388 280.081V114.528C474.388 107.195 468.451 101.25 461.128 101.25L178.632 101.25C171.309 101.25 165.372 107.195 165.372 114.528V280.081C165.372 287.414 171.309 293.359 178.632 293.359Z" fill="white"/>
<path d="M461.128 294.156H178.648C174.922 294.151 171.349 292.667 168.714 290.029C166.079 287.39 164.597 283.812 164.593 280.081V114.497C164.597 110.765 166.079 107.188 168.714 104.549C171.349 101.91 174.922 100.426 178.648 100.422H461.128C464.854 100.426 468.427 101.91 471.062 104.549C473.697 107.188 475.179 110.765 475.183 114.497V280.081C475.179 283.812 473.697 287.39 471.062 290.029C468.427 292.667 464.854 294.151 461.128 294.156ZM178.648 102.046C175.343 102.05 172.175 103.367 169.838 105.707C167.501 108.047 166.187 111.219 166.183 114.528V280.113C166.187 283.422 167.501 286.595 169.838 288.935C172.175 291.275 175.343 292.591 178.648 292.595H461.128C464.432 292.591 467.601 291.275 469.937 288.935C472.274 286.595 473.589 283.422 473.593 280.113V114.528C473.589 111.219 472.274 108.047 469.937 105.707C467.601 103.367 464.432 102.05 461.128 102.046H178.648Z" fill="#171717"/>
<path d="M193.365 278.039L445.873 278.039C452.222 278.039 457.368 272.885 457.368 266.528V127.532C457.368 121.175 452.222 116.021 445.873 116.021L193.365 116.021C187.016 116.021 181.869 121.175 181.869 127.532V266.528C181.869 272.885 187.016 278.039 193.365 278.039Z" fill="white"/>
<path d="M418.168 186.609H406.122C406.058 186.609 405.996 186.587 405.95 186.547C405.905 186.507 405.879 186.452 405.879 186.396V180.548C405.879 180.492 405.905 180.437 405.95 180.397C405.996 180.357 406.058 180.335 406.122 180.335H418.168C418.232 180.335 418.294 180.357 418.34 180.397C418.385 180.437 418.411 180.492 418.411 180.548V186.396C418.411 186.452 418.385 186.507 418.34 186.547C418.294 186.587 418.232 186.609 418.168 186.609ZM406.365 186.182H417.925V180.762H406.365V186.182Z" fill="#F1E7D9"/>
<path d="M228.621 186.609H216.575C216.511 186.609 216.449 186.587 216.403 186.547C216.358 186.507 216.332 186.452 216.332 186.396V180.548C216.332 180.492 216.358 180.437 216.403 180.397C216.449 180.357 216.511 180.335 216.575 180.335H228.621C228.685 180.335 228.747 180.357 228.793 180.397C228.838 180.437 228.864 180.492 228.864 180.548V186.396C228.864 186.452 228.838 186.507 228.793 186.547C228.747 186.587 228.685 186.609 228.621 186.609ZM216.818 186.182H228.378V180.762H216.818V186.182Z" fill="#F1E7D9"/>
<path d="M297.547 265.041H285.501C285.437 265.041 285.375 265.018 285.329 264.978C285.284 264.938 285.258 264.884 285.258 264.827V258.98C285.258 258.923 285.284 258.869 285.329 258.829C285.375 258.789 285.437 258.766 285.501 258.766H297.547C297.612 258.766 297.674 258.789 297.719 258.829C297.765 258.869 297.79 258.923 297.79 258.98V264.827C297.79 264.884 297.765 264.938 297.719 264.978C297.674 265.018 297.612 265.041 297.547 265.041ZM285.744 264.614H297.304V259.193H285.744V264.614Z" fill="#F1E7D9"/>
<path d="M339.843 265.041H327.797C327.732 265.041 327.67 265.018 327.625 264.978C327.579 264.938 327.554 264.884 327.554 264.827V258.98C327.554 258.923 327.579 258.869 327.625 258.829C327.67 258.789 327.732 258.766 327.797 258.766H339.843C339.907 258.766 339.969 258.789 340.015 258.829C340.06 258.869 340.086 258.923 340.086 258.98V264.827C340.086 264.884 340.06 264.938 340.015 264.978C339.969 265.018 339.907 265.041 339.843 265.041ZM328.04 264.614H339.6V259.193H328.04V264.614Z" fill="#F1E7D9"/>
<path d="M383.948 165.189L383.948 153.127C383.948 153.063 383.97 153.001 384.01 152.955C384.05 152.909 384.104 152.884 384.161 152.884L390.001 152.884C390.057 152.884 390.111 152.909 390.151 152.955C390.191 153.001 390.214 153.063 390.214 153.127L390.214 165.189C390.214 165.254 390.191 165.316 390.151 165.361C390.111 165.407 390.057 165.433 390.001 165.433L384.161 165.433C384.104 165.433 384.05 165.407 384.01 165.361C383.97 165.316 383.948 165.254 383.948 165.189ZM384.374 153.37L384.374 164.946L389.788 164.946L389.788 153.37L384.374 153.37Z" fill="#F1E7D9"/>
<path d="M194.401 165.189L194.401 153.127C194.401 153.063 194.423 153.001 194.463 152.955C194.503 152.909 194.558 152.884 194.614 152.884L200.454 152.884C200.51 152.884 200.565 152.909 200.605 152.955C200.645 153.001 200.667 153.063 200.667 153.127L200.667 165.189C200.667 165.254 200.645 165.316 200.605 165.361C200.565 165.407 200.51 165.433 200.454 165.433L194.614 165.433C194.558 165.433 194.503 165.407 194.463 165.361C194.423 165.316 194.401 165.254 194.401 165.189ZM194.827 153.37L194.827 164.946L200.241 164.946L200.241 153.37L194.827 153.37Z" fill="#F1E7D9"/>
<path d="M263.327 243.621L263.327 231.558C263.327 231.494 263.35 231.432 263.39 231.386C263.43 231.341 263.484 231.315 263.54 231.315L269.38 231.315C269.437 231.315 269.491 231.341 269.531 231.386C269.571 231.432 269.593 231.494 269.593 231.558L269.593 243.621C269.593 243.685 269.571 243.747 269.531 243.793C269.491 243.838 269.437 243.864 269.38 243.864L263.54 243.864C263.484 243.864 263.43 243.838 263.39 243.793C263.35 243.747 263.327 243.685 263.327 243.621ZM263.754 231.802L263.754 243.377L269.167 243.377L269.167 231.802L263.754 231.802Z" fill="#F1E7D9"/>
<path d="M355.751 243.621L355.751 231.558C355.751 231.494 355.773 231.432 355.813 231.386C355.853 231.341 355.907 231.315 355.964 231.315L361.804 231.315C361.86 231.315 361.914 231.341 361.954 231.386C361.994 231.432 362.017 231.494 362.017 231.558L362.017 243.621C362.017 243.685 361.994 243.747 361.954 243.793C361.914 243.838 361.86 243.864 361.804 243.864L355.964 243.864C355.907 243.864 355.853 243.838 355.813 243.793C355.773 243.747 355.751 243.685 355.751 243.621ZM356.177 231.802L356.177 243.377L361.591 243.377L361.591 231.802L356.177 231.802Z" fill="#F1E7D9"/>
<path d="M418.168 137.982H406.122C406.058 137.982 405.996 137.959 405.95 137.919C405.905 137.879 405.879 137.825 405.879 137.768V131.921C405.879 131.864 405.905 131.81 405.95 131.77C405.996 131.73 406.058 131.707 406.122 131.707H418.168C418.232 131.707 418.294 131.73 418.34 131.77C418.385 131.81 418.411 131.864 418.411 131.921V137.768C418.411 137.825 418.385 137.879 418.34 137.919C418.294 137.959 418.232 137.982 418.168 137.982ZM406.365 137.555H417.925V132.134H406.365V137.555Z" fill="#F1E7D9"/>
<path d="M228.621 137.982H216.575C216.511 137.982 216.449 137.959 216.403 137.919C216.358 137.879 216.332 137.825 216.332 137.768V131.921C216.332 131.864 216.358 131.81 216.403 131.77C216.449 131.73 216.511 131.707 216.575 131.707H228.621C228.685 131.707 228.747 131.73 228.793 131.77C228.838 131.81 228.864 131.864 228.864 131.921V137.768C228.864 137.825 228.838 137.879 228.793 137.919C228.747 137.959 228.685 137.982 228.621 137.982ZM216.818 137.555H228.378V132.134H216.818V137.555Z" fill="#F1E7D9"/>
<path d="M297.547 216.413H285.501C285.437 216.413 285.375 216.391 285.329 216.351C285.284 216.311 285.258 216.256 285.258 216.2V210.352C285.258 210.295 285.284 210.241 285.329 210.201C285.375 210.161 285.437 210.139 285.501 210.139H297.547C297.612 210.139 297.674 210.161 297.719 210.201C297.765 210.241 297.79 210.295 297.79 210.352V216.2C297.79 216.256 297.765 216.311 297.719 216.351C297.674 216.391 297.612 216.413 297.547 216.413ZM285.744 215.986H297.304V210.565H285.744V215.986Z" fill="#F1E7D9"/>
<path d="M339.843 216.413H327.797C327.732 216.413 327.67 216.391 327.625 216.351C327.579 216.311 327.554 216.256 327.554 216.2V210.352C327.554 210.295 327.579 210.241 327.625 210.201C327.67 210.161 327.732 210.139 327.797 210.139H339.843C339.907 210.139 339.969 210.161 340.015 210.201C340.06 210.241 340.086 210.295 340.086 210.352V216.2C340.086 216.256 340.06 216.311 340.015 216.351C339.969 216.391 339.907 216.413 339.843 216.413ZM328.04 215.986H339.6V210.565H328.04V215.986Z" fill="#F1E7D9"/>
<path d="M432.509 165.189L432.509 153.127C432.509 153.063 432.532 153.001 432.572 152.955C432.612 152.909 432.666 152.884 432.723 152.884L438.562 152.884C438.619 152.884 438.673 152.909 438.713 152.955C438.753 153.001 438.775 153.063 438.775 153.127L438.775 165.189C438.775 165.254 438.753 165.316 438.713 165.361C438.673 165.407 438.619 165.433 438.562 165.433L432.723 165.433C432.666 165.433 432.612 165.407 432.572 165.361C432.532 165.316 432.509 165.254 432.509 165.189ZM432.936 153.37L432.936 164.946L438.349 164.946L438.349 153.37L432.936 153.37Z" fill="#F1E7D9"/>
<path d="M242.963 165.189L242.963 153.127C242.963 153.063 242.985 153.001 243.025 152.955C243.065 152.909 243.119 152.884 243.176 152.884L249.016 152.884C249.072 152.884 249.126 152.909 249.166 152.955C249.206 153.001 249.229 153.063 249.229 153.127L249.229 165.189C249.229 165.254 249.206 165.316 249.166 165.361C249.126 165.407 249.072 165.433 249.016 165.433L243.176 165.433C243.119 165.433 243.065 165.407 243.025 165.361C242.985 165.316 242.963 165.254 242.963 165.189ZM243.389 153.37L243.389 164.946L248.803 164.946L248.803 153.37L243.389 153.37Z" fill="#F1E7D9"/>
<path d="M411.362 177.197C407.799 177.197 404.316 176.139 401.353 174.157C398.391 172.175 396.082 169.358 394.718 166.062C393.355 162.765 392.998 159.138 393.693 155.639C394.388 152.14 396.104 148.925 398.623 146.403C401.143 143.88 404.353 142.162 407.847 141.466C411.342 140.77 414.964 141.127 418.256 142.492C421.547 143.858 424.361 146.17 426.34 149.136C428.32 152.103 429.376 155.59 429.376 159.158C429.372 163.941 427.472 168.526 424.095 171.908C420.717 175.29 416.138 177.192 411.362 177.197ZM411.362 143.002C408.171 143.002 405.051 143.95 402.398 145.725C399.745 147.5 397.677 150.023 396.456 152.976C395.234 155.928 394.915 159.176 395.537 162.31C396.16 165.444 397.697 168.323 399.953 170.582C402.209 172.842 405.084 174.381 408.214 175.004C411.344 175.627 414.588 175.307 417.536 174.085C420.484 172.862 423.004 170.791 424.777 168.134C426.55 165.477 427.496 162.354 427.496 159.158C427.496 157.037 427.079 154.936 426.268 152.976C425.457 151.015 424.269 149.234 422.77 147.734C421.272 146.234 419.494 145.044 417.536 144.232C415.579 143.42 413.48 143.002 411.362 143.002Z" fill="#F1E7D9"/>
<path d="M221.815 177.197C218.252 177.197 214.769 176.139 211.806 174.157C208.844 172.175 206.535 169.358 205.171 166.062C203.808 162.765 203.451 159.138 204.146 155.639C204.841 152.14 206.557 148.925 209.076 146.403C211.596 143.88 214.806 142.162 218.3 141.466C221.795 140.77 225.417 141.127 228.709 142.492C232.001 143.858 234.814 146.17 236.794 149.136C238.773 152.103 239.83 155.59 239.83 159.158C239.825 163.941 237.925 168.526 234.548 171.908C231.17 175.29 226.591 177.192 221.815 177.197ZM221.815 143.002C218.624 143.002 215.504 143.95 212.851 145.725C210.198 147.5 208.13 150.023 206.909 152.976C205.687 155.928 205.368 159.176 205.991 162.31C206.613 165.444 208.15 168.323 210.406 170.582C212.663 172.842 215.537 174.381 218.667 175.004C221.797 175.627 225.041 175.307 227.989 174.085C230.937 172.862 233.457 170.791 235.23 168.134C237.003 165.477 237.949 162.354 237.949 159.158C237.949 157.037 237.532 154.936 236.721 152.976C235.91 151.015 234.722 149.234 233.224 147.734C231.725 146.234 229.947 145.044 227.989 144.232C226.032 143.42 223.934 143.002 221.815 143.002Z" fill="#F1E7D9"/>
<path d="M290.741 255.629C287.178 255.629 283.695 254.571 280.733 252.589C277.77 250.606 275.461 247.789 274.098 244.493C272.734 241.197 272.377 237.57 273.072 234.07C273.768 230.571 275.483 227.357 278.003 224.834C280.522 222.311 283.732 220.593 287.227 219.897C290.721 219.201 294.343 219.558 297.635 220.923C300.927 222.289 303.74 224.601 305.72 227.567C307.699 230.534 308.756 234.022 308.756 237.59C308.751 242.372 306.851 246.958 303.474 250.34C300.097 253.722 295.517 255.624 290.741 255.629ZM290.741 221.433C287.55 221.433 284.431 222.381 281.777 224.156C279.124 225.931 277.056 228.455 275.835 231.407C274.614 234.359 274.294 237.607 274.917 240.741C275.539 243.875 277.076 246.754 279.332 249.014C281.589 251.273 284.464 252.812 287.593 253.435C290.723 254.059 293.967 253.739 296.915 252.516C299.864 251.293 302.383 249.222 304.156 246.565C305.929 243.909 306.875 240.785 306.875 237.59C306.875 235.468 306.458 233.367 305.647 231.407C304.836 229.447 303.648 227.666 302.15 226.165C300.652 224.665 298.873 223.475 296.915 222.663C294.958 221.851 292.86 221.433 290.741 221.433Z" fill="#F1E7D9"/>
<path d="M333.037 255.629C329.474 255.629 325.991 254.571 323.028 252.589C320.066 250.606 317.757 247.789 316.393 244.493C315.03 241.197 314.673 237.57 315.368 234.07C316.063 230.571 317.779 227.357 320.298 224.834C322.818 222.311 326.027 220.593 329.522 219.897C333.017 219.201 336.639 219.558 339.93 220.923C343.222 222.289 346.036 224.601 348.015 227.567C349.995 230.534 351.051 234.022 351.051 237.59C351.046 242.372 349.147 246.958 345.769 250.34C342.392 253.722 337.813 255.624 333.037 255.629ZM333.037 221.433C329.845 221.433 326.726 222.381 324.073 224.156C321.419 225.931 319.351 228.455 318.13 231.407C316.909 234.359 316.59 237.607 317.212 240.741C317.835 243.875 319.371 246.754 321.628 249.014C323.884 251.273 326.759 252.812 329.889 253.435C333.019 254.059 336.263 253.739 339.211 252.516C342.159 251.293 344.679 249.222 346.452 246.565C348.225 243.909 349.171 240.785 349.171 237.59C349.171 235.468 348.753 233.367 347.943 231.407C347.132 229.447 345.943 227.666 344.445 226.165C342.947 224.665 341.168 223.475 339.211 222.663C337.253 221.851 335.155 221.433 333.037 221.433Z" fill="#F1E7D9"/>
<path d="M446.134 279.11H193.642C190.381 279.11 187.253 277.814 184.945 275.506C182.638 273.198 181.339 270.068 181.335 266.802V127.807C181.339 124.541 182.638 121.411 184.945 119.103C187.253 116.796 190.381 115.5 193.642 115.5H446.134C449.395 115.5 452.523 116.796 454.83 119.103C457.138 121.411 458.436 124.541 458.44 127.807V266.802C458.436 270.068 457.138 273.198 454.83 275.506C452.523 277.814 449.395 279.11 446.134 279.11ZM193.642 117.092C190.816 117.113 188.113 118.25 186.121 120.257C184.129 122.264 183.009 124.977 183.005 127.807V266.802C183.009 269.646 184.14 272.371 186.149 274.38C188.158 276.389 190.882 277.518 193.721 277.518H446.213C449.053 277.518 451.776 276.389 453.785 274.38C455.795 272.371 456.926 269.646 456.93 266.802V127.807C456.926 124.964 455.795 122.238 453.785 120.229C451.776 118.22 449.053 117.092 446.213 117.092H193.642Z" fill="#F1E7D9"/>
<path d="M449.613 240.739H375.344C375.133 240.739 374.931 240.655 374.782 240.505C374.633 240.356 374.549 240.154 374.549 239.943C374.549 239.731 374.633 239.529 374.782 239.38C374.931 239.23 375.133 239.146 375.344 239.146H449.581C449.792 239.146 449.994 239.23 450.143 239.38C450.292 239.529 450.376 239.731 450.376 239.943C450.376 240.154 450.292 240.356 450.143 240.505C449.994 240.655 449.792 240.739 449.581 240.739H449.613Z" fill="#F1E7D9"/>
<path d="M435.764 257.456H375.344C375.133 257.456 374.931 257.372 374.782 257.223C374.633 257.074 374.549 256.871 374.549 256.66C374.553 256.45 374.638 256.25 374.786 256.102C374.934 255.953 375.134 255.868 375.344 255.864H435.764C435.975 255.864 436.177 255.948 436.326 256.097C436.475 256.247 436.559 256.449 436.559 256.66C436.559 256.871 436.475 257.074 436.326 257.223C436.177 257.372 435.975 257.456 435.764 257.456Z" fill="#F1E7D9"/>
<path d="M435.764 225.848H375.344C375.133 225.848 374.931 225.764 374.782 225.615C374.633 225.466 374.549 225.263 374.549 225.052C374.553 224.842 374.638 224.642 374.786 224.494C374.934 224.345 375.134 224.26 375.344 224.256H435.764C435.975 224.256 436.177 224.34 436.326 224.489C436.475 224.639 436.559 224.841 436.559 225.052C436.559 225.263 436.475 225.466 436.326 225.615C436.177 225.764 435.975 225.848 435.764 225.848Z" fill="#F1E7D9"/>
<path d="M465.468 321.254V286.784C459.475 281.498 454.276 275.374 450.029 268.601C442.938 257.329 418.102 215.949 429.582 212.191C441.062 208.434 472.782 247.33 472.782 247.33L474.372 190.219C474.372 190.219 499.256 209.692 506.76 230.995C514.265 252.298 511.149 332.526 511.149 332.526L465.468 321.254Z" fill="white"/>
<path d="M511.165 333.322H510.974L465.278 322.034C465.105 321.994 464.951 321.897 464.842 321.758C464.732 321.619 464.672 321.447 464.673 321.27V287.15C458.761 281.844 453.609 275.747 449.362 269.031C443.002 258.889 422.491 225.008 426.275 214.484C426.505 213.767 426.903 213.117 427.438 212.587C427.972 212.058 428.626 211.665 429.344 211.443C434.4 209.851 443.383 215.28 456.04 227.794C463.083 234.752 469.38 242.044 472.051 245.213L473.641 190.204C473.647 190.056 473.693 189.912 473.774 189.789C473.855 189.666 473.969 189.567 474.102 189.503C474.235 189.439 474.383 189.414 474.529 189.431C474.676 189.448 474.814 189.506 474.929 189.599C475.183 189.79 500.083 209.453 507.572 230.74C515.061 252.027 512.135 329.278 512.008 332.558C512.002 332.676 511.97 332.791 511.915 332.896C511.86 333 511.783 333.092 511.69 333.163C511.541 333.281 511.354 333.338 511.165 333.322ZM466.263 320.585L510.402 331.476C510.72 322.257 512.962 250.881 506.029 231.17C499.669 213.035 480.239 196.015 475.151 191.764L473.561 247.251C473.552 247.411 473.496 247.565 473.399 247.693C473.303 247.821 473.17 247.918 473.019 247.971C472.867 248.024 472.703 248.03 472.548 247.99C472.393 247.95 472.253 247.864 472.146 247.744C463.417 237.045 438.756 209.914 429.821 212.86C429.336 213.014 428.895 213.283 428.536 213.643C428.176 214.003 427.908 214.444 427.754 214.93C424.939 222.763 438.343 248.461 450.681 268.076C454.914 274.788 460.081 280.862 466.025 286.115C466.113 286.193 466.184 286.288 466.234 286.395C466.283 286.502 466.309 286.618 466.311 286.736L466.263 320.585Z" fill="#171717"/>
<path d="M518.145 306.017H454.497V333.307L524.457 346.394L518.145 306.017Z" fill="#171717"/>
<path d="M524.457 347.19H524.298L454.338 334.119C454.157 334.079 453.996 333.978 453.88 333.833C453.764 333.688 453.701 333.508 453.702 333.323V306.017C453.702 305.806 453.786 305.603 453.935 305.454C454.084 305.305 454.286 305.221 454.497 305.221H518.097C518.287 305.222 518.47 305.289 518.616 305.411C518.761 305.533 518.859 305.703 518.892 305.89L525.252 346.267C525.273 346.394 525.263 346.525 525.221 346.647C525.18 346.769 525.108 346.879 525.014 346.967C524.941 347.04 524.854 347.097 524.758 347.136C524.663 347.174 524.56 347.193 524.457 347.19ZM455.308 332.654L523.487 345.391L517.461 306.813H455.308V332.654Z" fill="#171717"/>
<path d="M527.606 326.206L448.837 322.416V384.892L533.902 376.056L527.606 326.206Z" fill="#FFCD49"/>
<path d="M237.689 230.03L237.111 229.531C235.858 228.451 235.086 226.917 234.963 225.266C234.84 223.615 235.377 221.983 236.456 220.729L268.738 183.2L278.761 191.845L246.479 229.374C245.4 230.629 243.868 231.402 242.22 231.525C240.571 231.648 238.941 231.11 237.689 230.03Z" fill="white"/>
<path d="M241.835 232.332C240.154 232.329 238.53 231.725 237.256 230.628L236.667 230.119C235.967 229.515 235.392 228.779 234.977 227.953C234.561 227.126 234.312 226.226 234.244 225.303C234.176 224.381 234.29 223.453 234.581 222.575C234.871 221.696 235.332 220.884 235.936 220.184L268.165 182.625C268.304 182.468 268.497 182.371 268.706 182.354C268.812 182.345 268.918 182.357 269.019 182.39C269.12 182.423 269.214 182.476 269.294 182.545L279.327 191.191C279.474 191.342 279.556 191.545 279.556 191.756C279.556 191.967 279.474 192.17 279.327 192.321L247.034 229.848C246.44 230.55 245.712 231.125 244.893 231.541C244.074 231.957 243.18 232.204 242.264 232.268L241.835 232.332ZM237.701 228.909L238.289 229.418C239.388 230.355 240.809 230.824 242.248 230.724C242.959 230.672 243.653 230.479 244.288 230.156C244.924 229.834 245.49 229.388 245.953 228.845L277.753 191.923L268.865 184.297L237.065 221.219C236.124 222.316 235.657 223.741 235.764 225.182C235.871 226.624 236.545 227.964 237.637 228.909H237.701Z" fill="#171717"/>
<path d="M262.947 183.694L279.15 197.669L310.726 160.96L294.523 146.985L262.947 183.694Z" fill="white"/>
<path d="M279.168 198.451C278.976 198.453 278.789 198.385 278.643 198.26L262.505 184.217C262.424 184.151 262.358 184.069 262.309 183.977C262.261 183.885 262.231 183.784 262.222 183.68C262.213 183.576 262.225 183.471 262.257 183.372C262.29 183.273 262.341 183.181 262.409 183.103L293.987 146.387C294.129 146.227 294.329 146.13 294.543 146.117C294.647 146.108 294.751 146.12 294.849 146.153C294.948 146.186 295.038 146.239 295.116 146.308L311.27 160.335C311.428 160.476 311.525 160.673 311.539 160.884C311.554 161.095 311.486 161.304 311.35 161.465L279.772 198.18C279.634 198.337 279.44 198.434 279.232 198.451H279.168ZM264.095 183.596L279.089 196.524L309.632 161.035L294.639 148.091L264.095 183.596Z" fill="#171717"/>
<path d="M190.805 277.998L195.578 282.086C198.748 284.801 203.516 284.428 206.227 281.254L251.102 228.714C253.813 225.54 253.441 220.766 250.271 218.051L245.498 213.963C242.328 211.248 237.56 211.62 234.849 214.795L189.974 267.335C187.263 270.509 187.635 275.283 190.805 277.998Z" fill="white"/>
<path d="M201.56 284.619C199.57 284.615 197.646 283.897 196.138 282.596L191.368 278.489C189.693 277.042 188.66 274.988 188.496 272.779C188.332 270.57 189.051 268.386 190.494 266.707L235.554 214.325C236.999 212.647 239.05 211.613 241.256 211.449C243.463 211.285 245.644 212.004 247.32 213.449L252.09 217.557C253.762 219.006 254.792 221.059 254.956 223.267C255.12 225.475 254.404 227.658 252.965 229.339L207.904 281.721C207.189 282.553 206.317 283.235 205.337 283.727C204.357 284.219 203.29 284.511 202.196 284.587L201.56 284.619ZM192.402 277.279L197.172 281.386C197.844 281.97 198.624 282.414 199.469 282.693C200.313 282.973 201.204 283.083 202.091 283.016C202.977 282.95 203.842 282.708 204.635 282.305C205.428 281.903 206.134 281.347 206.712 280.67L251.772 228.304C252.355 227.631 252.798 226.849 253.078 226.004C253.357 225.159 253.466 224.266 253.4 223.378C253.333 222.49 253.092 221.624 252.69 220.83C252.288 220.036 251.733 219.329 251.057 218.751L246.287 214.643C245.615 214.061 244.835 213.618 243.991 213.338C243.148 213.058 242.258 212.947 241.372 213.012C240.486 213.077 239.621 213.317 238.827 213.717C238.034 214.117 237.327 214.67 236.747 215.344L191.686 267.726C191.105 268.399 190.662 269.18 190.382 270.024C190.103 270.869 189.993 271.76 190.058 272.647C190.123 273.535 190.362 274.401 190.761 275.195C191.161 275.99 191.713 276.698 192.386 277.279H192.402Z" fill="#171717"/>
<path d="M310.714 201.428C342.063 201.428 367.477 175.98 367.477 144.588C367.477 113.196 342.063 87.7483 310.714 87.7483C279.364 87.7483 253.951 113.196 253.951 144.588C253.951 175.98 279.364 201.428 310.714 201.428Z" fill="white"/>
<path d="M310.666 202.208C297.543 202.189 284.822 197.677 274.612 189.422C264.402 181.167 257.318 169.665 254.535 156.823C251.751 143.982 253.435 130.574 259.309 118.823C265.182 107.072 274.89 97.6853 286.824 92.2196C298.757 86.754 312.198 85.5381 324.917 88.7737C337.635 92.0093 348.867 99.5019 356.748 110.008C364.629 120.515 368.686 133.404 368.245 146.537C367.805 159.67 362.894 172.257 354.327 182.211C348.93 188.511 342.23 193.562 334.692 197.015C327.153 200.468 318.955 202.24 310.666 202.208ZM310.793 88.5285C309.394 88.5285 307.979 88.5284 306.564 88.6877C291.991 89.7917 278.433 96.5769 268.804 107.585C259.175 118.593 254.243 132.944 255.069 147.555C255.895 162.165 262.412 175.868 273.221 185.717C284.029 195.567 298.265 200.776 312.869 200.227C327.472 199.677 341.278 193.411 351.317 182.777C361.356 172.143 366.828 157.989 366.556 143.358C366.284 128.726 360.29 114.786 349.863 104.533C339.435 94.2805 325.407 88.5337 310.793 88.5285Z" fill="#171717"/>
<path d="M310.714 190.761C336.179 190.761 356.824 170.089 356.824 144.588C356.824 119.088 336.179 98.4158 310.714 98.4158C285.248 98.4158 264.604 119.088 264.604 144.588C264.604 170.089 285.248 190.761 310.714 190.761Z" fill="white"/>
<path d="M310.682 191.541C301.709 191.525 292.93 188.932 285.385 184.07C277.84 179.208 271.845 172.281 268.113 164.11C264.381 155.94 263.067 146.869 264.327 137.974C265.588 129.078 269.37 120.731 275.225 113.923C280.357 107.956 286.905 103.376 294.268 100.606C301.63 97.8352 309.57 96.9632 317.357 98.0696C325.144 99.1761 332.528 102.226 338.83 106.937C345.132 111.649 350.15 117.872 353.421 125.034C356.693 132.196 358.114 140.067 357.553 147.923C356.992 155.778 354.467 163.366 350.211 169.989C345.955 176.612 340.104 182.057 333.196 185.823C326.289 189.589 318.547 191.555 310.682 191.541ZM310.777 99.1958C309.648 99.1958 308.503 99.1959 307.343 99.3232C301.406 99.7454 295.611 101.345 290.297 104.029C284.982 106.713 280.254 110.428 276.385 114.958C269.643 122.799 265.781 132.712 265.438 143.052C265.096 153.393 268.294 163.541 274.502 171.812C280.711 180.082 289.556 185.979 299.571 188.524C309.586 191.068 320.169 190.108 329.565 185.802C338.96 181.496 346.603 174.103 351.225 164.85C355.848 155.596 357.172 145.038 354.979 134.927C352.786 124.817 347.206 115.761 339.167 109.261C331.127 102.762 321.11 99.2107 310.777 99.1958Z" fill="#F1E7D9"/>
<path d="M195.327 317.353C197.962 311.521 200.897 305.829 204.12 300.301C206.346 296.496 208.763 291.528 211.927 288.392C215.091 285.255 219.877 283.138 223.486 279.89C237.303 267.359 251.343 253.269 255.477 235.055C256.145 232.125 255.62 227.874 252.615 227.715C251.491 227.771 250.413 228.178 249.53 228.877C242.105 233.749 236.588 241.869 229.353 246.391C231.261 245.117 231.818 229.673 233.01 226.648C235.364 220.709 239.084 215.216 241.867 209.325C242.98 206.969 244.109 204.278 243.139 201.858C242.598 200.767 241.76 199.852 240.722 199.218C239.684 198.584 238.487 198.257 237.272 198.276C234.842 198.339 232.449 198.88 230.228 199.868C221.748 203.052 213.342 206.497 205.01 210.201C202.258 211.255 199.667 212.691 197.315 214.468C194.864 216.76 192.782 219.418 191.146 222.349C184.786 232.428 166.644 266.93 163.941 274.747C162.971 277.533 152.445 309.982 150.966 309.775L195.327 317.353Z" fill="white"/>
<path d="M195.327 318.149H195.184L150.855 310.586C150.648 310.548 150.464 310.429 150.342 310.257C150.22 310.085 150.171 309.872 150.203 309.663C150.225 309.528 150.282 309.401 150.368 309.294C150.455 309.188 150.568 309.107 150.696 309.058C151.507 308.071 154.226 301.607 162.367 277.04C162.78 275.782 163.082 274.906 163.193 274.54C165.865 266.802 183.863 232.555 190.478 221.999C192.158 218.988 194.305 216.264 196.838 213.927C199.242 212.083 201.891 210.582 204.708 209.469C212.992 205.807 221.499 202.32 229.957 199.12C232.274 198.085 234.769 197.512 237.303 197.432C238.671 197.429 240.012 197.809 241.176 198.529C242.339 199.249 243.278 200.281 243.886 201.508C244.967 204.199 243.79 207.096 242.598 209.628C241.405 212.159 240.086 214.516 238.782 216.872C236.905 220.102 235.232 223.447 233.773 226.887C233.144 229.502 232.729 232.165 232.533 234.848C232.249 237.98 231.793 241.095 231.166 244.178C233.952 241.993 236.577 239.609 239.02 237.045C242.084 233.79 245.467 230.851 249.117 228.272C250.128 227.456 251.38 226.997 252.679 226.966C253.204 226.991 253.717 227.134 254.179 227.385C254.642 227.636 255.042 227.988 255.35 228.415C255.949 229.441 256.34 230.576 256.498 231.754C256.656 232.932 256.579 234.129 256.272 235.277C252.043 253.906 237.415 268.394 224.027 280.527C222.254 282.059 220.355 283.438 218.35 284.65C216.255 285.898 214.294 287.36 212.499 289.013C210.018 291.81 207.912 294.92 206.235 298.263C205.758 299.123 205.297 299.967 204.835 300.747C201.616 306.253 198.687 311.923 196.059 317.735C195.989 317.867 195.883 317.976 195.753 318.049C195.624 318.123 195.476 318.157 195.327 318.149ZM152.397 309.217L194.85 316.462C197.434 310.802 200.3 305.275 203.436 299.903C203.897 299.123 204.358 298.311 204.835 297.451C206.58 293.99 208.777 290.777 211.37 287.898C213.244 286.17 215.29 284.639 217.476 283.329C219.402 282.156 221.232 280.831 222.946 279.364C236.143 267.407 250.58 253.11 254.746 234.943C255.251 233.076 255.017 231.086 254.094 229.386C253.924 229.145 253.701 228.945 253.442 228.805C253.182 228.664 252.894 228.585 252.599 228.574C251.646 228.65 250.737 229.011 249.991 229.609C246.44 232.137 243.148 235.011 240.165 238.191C237.055 241.534 233.577 244.514 229.798 247.075C229.621 247.183 229.408 247.216 229.206 247.168C229.004 247.121 228.829 246.996 228.717 246.821C228.606 246.644 228.567 246.431 228.609 246.227C228.65 246.022 228.769 245.841 228.94 245.722C229.783 245.021 230.53 238.541 230.975 234.688C231.173 231.873 231.62 229.081 232.311 226.345C233.789 222.844 235.488 219.441 237.399 216.156C238.702 213.815 240.022 211.379 241.183 208.991C242.344 206.603 243.266 204.214 242.423 202.161C241.94 201.214 241.201 200.422 240.29 199.876C239.379 199.33 238.333 199.051 237.271 199.072C234.948 199.164 232.664 199.705 230.546 200.664C222.103 203.848 213.628 207.319 205.36 210.981C202.686 212.038 200.167 213.452 197.871 215.184C195.489 217.433 193.463 220.031 191.861 222.89C185.263 233.399 167.375 267.471 164.736 275.113L163.925 277.517C156.77 298.964 153.844 306.558 152.397 309.217Z" fill="#171717"/>
<path d="M205.265 311.367L144.575 292.277L134.319 319.296L196.234 335.504L205.265 311.367Z" fill="#171717"/>
<path d="M196.234 336.3H196.027L134.112 320.06C134.006 320.029 133.907 319.976 133.822 319.905C133.737 319.834 133.668 319.746 133.619 319.646C133.573 319.546 133.548 319.438 133.548 319.328C133.548 319.217 133.573 319.109 133.619 319.009L143.875 291.942C143.947 291.752 144.09 291.597 144.274 291.511C144.458 291.424 144.669 291.414 144.861 291.481L205.551 310.587C205.654 310.619 205.749 310.672 205.831 310.742C205.913 310.812 205.979 310.898 206.027 310.995C206.075 311.092 206.102 311.197 206.108 311.305C206.113 311.412 206.097 311.52 206.06 311.621L197.029 335.743C196.972 335.908 196.864 336.05 196.721 336.15C196.579 336.25 196.408 336.303 196.234 336.3ZM135.384 318.786L195.804 334.596L204.295 311.924L145.036 293.264L135.384 318.786Z" fill="#171717"/>
<path d="M203.15 332.288L128.245 309.854L102.408 365.691L187.52 392.153L203.15 332.288Z" fill="#FFCD49"/>
<path d="M291.872 142.359H276.815C276.707 142.36 276.6 142.337 276.501 142.293C276.403 142.249 276.314 142.185 276.242 142.104C276.164 142.025 276.104 141.93 276.066 141.826C276.027 141.722 276.012 141.61 276.02 141.499C276.527 133.731 279.604 126.353 284.765 120.531C285.785 119.403 286.874 118.34 288.024 117.346C293.862 112.168 301.26 109.091 309.044 108.606C309.267 108.597 309.484 108.677 309.648 108.828C309.726 108.902 309.787 108.991 309.828 109.09C309.869 109.188 309.889 109.295 309.887 109.402V124.352C309.885 124.547 309.813 124.734 309.685 124.88C309.556 125.026 309.38 125.121 309.187 125.148C304.994 125.655 301.093 127.556 298.106 130.547C295.12 133.537 293.222 137.444 292.715 141.643C292.707 141.745 292.679 141.845 292.632 141.937C292.585 142.029 292.521 142.11 292.442 142.177C292.364 142.243 292.273 142.294 292.176 142.325C292.078 142.356 291.975 142.368 291.872 142.359ZM277.642 140.767H291.125C291.663 137.272 293.105 133.979 295.307 131.214C296.279 129.977 297.395 128.86 298.63 127.887C301.39 125.68 304.679 124.236 308.17 123.699V110.102C301.042 110.728 294.303 113.63 288.947 118.381C287.821 119.375 286.759 120.439 285.767 121.566C281.083 126.935 278.236 133.663 277.642 140.767Z" fill="#F1E7D9"/>
<path d="M345.821 141.563C345.325 133.936 342.304 126.691 337.235 120.977L326.646 131.676C328.909 134.529 330.33 137.959 330.748 141.579C330.917 143.076 330.917 144.588 330.748 146.085C330.226 150.468 328.247 154.549 325.13 157.671C322.012 160.792 317.937 162.774 313.56 163.296C312.81 163.379 312.056 163.422 311.302 163.423C310.548 163.421 309.794 163.379 309.044 163.296C304.654 162.775 300.569 160.783 297.452 157.644C294.335 154.506 292.369 150.404 291.872 146.005H276.815C277.272 153.66 280.266 160.944 285.321 166.703C286.305 167.839 287.368 168.903 288.501 169.888C294.207 174.939 301.428 177.947 309.028 178.438C309.776 178.438 310.523 178.438 311.286 178.438C312.049 178.438 312.797 178.438 313.544 178.438C321.138 177.943 328.353 174.936 334.055 169.888C335.189 168.903 336.251 167.839 337.235 166.703C342.327 160.959 345.35 153.672 345.821 146.005C345.821 145.257 345.821 144.509 345.821 143.744C345.821 142.98 345.885 142.296 345.821 141.563Z" fill="#FC3060"/>
<path d="M323.45 129.272C323.27 129.27 323.097 129.208 322.957 129.097C320.213 126.904 316.905 125.535 313.417 125.148C313.224 125.121 313.048 125.026 312.919 124.88C312.791 124.734 312.719 124.547 312.717 124.352V109.242C312.717 109.134 312.739 109.027 312.783 108.929C312.827 108.83 312.891 108.741 312.971 108.669C313.131 108.52 313.342 108.44 313.56 108.446C321.349 108.929 328.754 112.005 334.595 117.187C334.757 117.336 334.853 117.542 334.866 117.76C334.868 117.87 334.847 117.978 334.806 118.079C334.765 118.181 334.705 118.273 334.627 118.35L323.958 129.033C323.826 129.176 323.644 129.261 323.45 129.272ZM314.355 123.715C317.626 124.213 320.726 125.503 323.386 127.473L332.926 117.92C327.673 113.487 321.182 110.785 314.339 110.182L314.355 123.715Z" fill="#F1E7D9"/>
<path d="M194.039 315.984C193.851 315.282 193.478 314.644 192.958 314.137L192.115 313.468C191.475 313.09 190.744 312.892 190.001 312.895H189.365C188.813 312.885 188.267 313.011 187.775 313.261C187.257 313.432 186.791 313.734 186.423 314.137C185.687 314.954 185.254 316 185.199 317.099L185.358 318.213C185.546 318.916 185.913 319.558 186.423 320.076L187.282 320.729C187.922 321.108 188.653 321.306 189.397 321.302H190.033C190.586 321.331 191.137 321.205 191.623 320.936C192.143 320.777 192.61 320.48 192.974 320.076C193.377 319.707 193.678 319.241 193.849 318.722C194.101 318.23 194.226 317.683 194.214 317.13L194.039 315.984Z" fill="white"/>
<path d="M466.486 309.376C461.08 309.376 461.064 317.783 466.486 317.783C471.908 317.783 471.892 309.376 466.486 309.376Z" fill="white"/>
<path d="M395.715 309.376H304.02L293.208 271.786V309.424H264.444C261.353 309.424 258.389 310.654 256.203 312.842C254.018 315.031 252.79 318 252.79 321.095V352.763C252.79 355.858 254.018 358.826 256.203 361.015C258.389 363.204 261.353 364.433 264.444 364.433H395.715C398.806 364.433 401.77 363.204 403.956 361.015C406.142 358.826 407.37 355.858 407.37 352.763V321.047C407.365 317.953 406.136 314.987 403.951 312.799C401.767 310.612 398.805 309.381 395.715 309.376Z" fill="white"/>
<path d="M395.715 365.182H264.445C261.144 365.177 257.98 363.863 255.646 361.526C253.312 359.189 251.999 356.02 251.995 352.715V321.047C251.999 317.742 253.312 314.573 255.646 312.236C257.98 309.899 261.144 308.585 264.445 308.58H292.413V271.786C292.414 271.593 292.484 271.408 292.609 271.262C292.734 271.116 292.907 271.02 293.096 270.99C293.286 270.966 293.478 271.011 293.638 271.116C293.798 271.221 293.916 271.379 293.971 271.563L304.608 308.628H395.715C399.014 308.637 402.176 309.953 404.509 312.289C406.842 314.625 408.156 317.791 408.165 321.095V352.763C408.148 356.06 406.829 359.216 404.497 361.542C402.164 363.869 399.007 365.177 395.715 365.182ZM264.445 310.173C261.566 310.177 258.806 311.324 256.77 313.362C254.735 315.401 253.589 318.164 253.585 321.047V352.715C253.589 355.598 254.735 358.361 256.77 360.4C258.806 362.438 261.566 363.585 264.445 363.589H395.715C398.593 363.581 401.35 362.433 403.385 360.395C405.419 358.358 406.566 355.596 406.575 352.715V321.047C406.566 318.165 405.419 315.404 403.385 313.367C401.35 311.329 398.593 310.181 395.715 310.173H304.02C303.846 310.178 303.676 310.124 303.538 310.02C303.399 309.916 303.3 309.768 303.256 309.599L294.003 277.39V309.376C294.003 309.588 293.919 309.79 293.77 309.939C293.621 310.089 293.419 310.173 293.208 310.173H264.445Z" fill="#171717"/>
<path d="M382.582 324.598H301.492C301.281 324.598 301.078 324.514 300.929 324.364C300.78 324.215 300.697 324.013 300.697 323.801C300.697 323.59 300.78 323.388 300.929 323.239C301.078 323.089 301.281 323.005 301.492 323.005H382.582C382.792 323.005 382.995 323.089 383.144 323.239C383.293 323.388 383.377 323.59 383.377 323.801C383.377 324.013 383.293 324.215 383.144 324.364C382.995 324.514 382.792 324.598 382.582 324.598Z" fill="#F1E7D9"/>
<path d="M382.582 337.685H301.492C301.281 337.685 301.078 337.601 300.929 337.452C300.78 337.303 300.697 337.1 300.697 336.889C300.697 336.678 300.78 336.475 300.929 336.326C301.078 336.177 301.281 336.093 301.492 336.093H382.582C382.792 336.093 382.995 336.177 383.144 336.326C383.293 336.475 383.377 336.678 383.377 336.889C383.372 337.099 383.287 337.299 383.139 337.447C382.991 337.596 382.791 337.681 382.582 337.685Z" fill="#F1E7D9"/>
<path d="M364.805 350.757H301.428C301.217 350.757 301.015 350.673 300.866 350.524C300.717 350.374 300.633 350.172 300.633 349.961C300.633 349.749 300.717 349.547 300.866 349.398C301.015 349.248 301.217 349.165 301.428 349.165H364.805C365.016 349.165 365.219 349.248 365.368 349.398C365.517 349.547 365.6 349.749 365.6 349.961C365.6 350.172 365.517 350.374 365.368 350.524C365.219 350.673 365.016 350.757 364.805 350.757Z" fill="#F1E7D9"/>
<path d="M530.34 113.557H496.235C493.894 113.557 491.65 114.488 489.995 116.145C488.34 117.802 487.41 120.05 487.41 122.394V147.757L461.144 156.179H487.41V156.609C487.408 157.771 487.635 158.922 488.078 159.996C488.52 161.069 489.17 162.045 489.989 162.868C490.809 163.69 491.783 164.342 492.854 164.787C493.926 165.232 495.075 165.461 496.235 165.461H530.404C532.736 165.445 534.967 164.504 536.608 162.845C538.25 161.186 539.169 158.944 539.165 156.609V122.394C539.165 120.05 538.235 117.802 536.58 116.145C534.925 114.488 532.681 113.557 530.34 113.557Z" fill="white"/>
<path d="M530.34 166.242H496.235C493.761 166.219 491.39 165.244 489.614 163.519C487.838 161.794 486.793 159.451 486.695 156.975H461.255C461.065 156.981 460.88 156.915 460.736 156.792C460.592 156.668 460.499 156.495 460.476 156.307C460.444 156.12 460.482 155.928 460.581 155.767C460.681 155.606 460.835 155.486 461.016 155.431L486.727 147.168V122.394C486.747 119.866 487.759 117.449 489.544 115.662C491.328 113.875 493.743 112.861 496.267 112.841H530.436C532.973 112.841 535.408 113.845 537.21 115.634C539.011 117.423 540.034 119.853 540.055 122.394V156.609C540.055 157.882 539.803 159.143 539.314 160.318C538.825 161.492 538.107 162.559 537.204 163.454C536.301 164.35 535.229 165.058 534.051 165.536C532.873 166.014 531.612 166.254 530.34 166.242ZM466.168 155.383H487.347C487.556 155.387 487.756 155.472 487.904 155.621C488.053 155.769 488.138 155.969 488.142 156.179V156.609C488.142 158.72 488.979 160.745 490.47 162.238C491.961 163.731 493.983 164.57 496.092 164.57H530.261C531.311 164.58 532.354 164.382 533.327 163.987C534.301 163.592 535.187 163.007 535.934 162.267C536.68 161.526 537.273 160.645 537.678 159.674C538.082 158.703 538.29 157.661 538.29 156.609V122.394C538.265 120.276 537.409 118.254 535.906 116.764C534.403 115.274 532.375 114.437 530.261 114.433H496.235C494.134 114.458 492.126 115.304 490.641 116.792C489.155 118.28 488.31 120.29 488.285 122.394V147.757C488.288 147.925 488.234 148.09 488.134 148.226C488.033 148.361 487.891 148.459 487.728 148.505L466.168 155.383Z" fill="#171717"/>
<path d="M528.035 129.383H500.13C499.92 129.383 499.717 129.299 499.568 129.15C499.419 129.001 499.335 128.798 499.335 128.587C499.335 128.376 499.419 128.173 499.568 128.024C499.717 127.875 499.92 127.791 500.13 127.791H528.035C528.246 127.791 528.448 127.875 528.597 128.024C528.746 128.173 528.83 128.376 528.83 128.587C528.83 128.798 528.746 129.001 528.597 129.15C528.448 129.299 528.246 129.383 528.035 129.383Z" fill="#F1E7D9"/>
<path d="M528.035 140.481H500.13C499.92 140.481 499.717 140.397 499.568 140.247C499.419 140.098 499.335 139.896 499.335 139.685C499.335 139.473 499.419 139.271 499.568 139.122C499.717 138.972 499.92 138.888 500.13 138.888H528.035C528.246 138.888 528.448 138.972 528.597 139.122C528.746 139.271 528.83 139.473 528.83 139.685C528.83 139.896 528.746 140.098 528.597 140.247C528.448 140.397 528.246 140.481 528.035 140.481Z" fill="#F1E7D9"/>
<path d="M520.928 151.578H500.13C499.92 151.578 499.717 151.494 499.568 151.345C499.419 151.195 499.335 150.993 499.335 150.782C499.335 150.571 499.419 150.368 499.568 150.219C499.717 150.07 499.92 149.986 500.13 149.986H520.928C521.137 149.99 521.337 150.075 521.485 150.223C521.633 150.372 521.719 150.572 521.723 150.782C521.723 150.993 521.639 151.195 521.49 151.345C521.341 151.494 521.138 151.578 520.928 151.578Z" fill="#F1E7D9"/>
<path d="M174.864 203.753H152.795V148.537C152.795 146.687 152.061 144.914 150.755 143.606C149.449 142.298 147.678 141.563 145.831 141.563H103.759C101.912 141.563 100.141 142.298 98.8349 143.606C97.5288 144.914 96.7951 146.687 96.7951 148.537V232.921C96.7888 233.841 96.9643 234.753 97.3115 235.605C97.6586 236.456 98.1706 237.231 98.8179 237.883C99.4652 238.536 100.235 239.054 101.083 239.407C101.931 239.761 102.841 239.943 103.759 239.943H145.815C146.731 239.945 147.638 239.766 148.485 239.416C149.332 239.067 150.101 238.553 150.749 237.906C151.398 237.258 151.912 236.488 152.263 235.641C152.614 234.794 152.795 233.886 152.795 232.969V213.863L174.864 203.753Z" fill="white"/>
<path d="M145.815 240.739H103.759C101.703 240.734 99.7315 239.914 98.2773 238.458C96.823 237.002 96.0042 235.028 96 232.969V148.585C96.0042 146.525 96.823 144.551 98.2773 143.095C99.7315 141.639 101.703 140.819 103.759 140.815H145.815C147.871 140.819 149.842 141.639 151.297 143.095C152.751 144.551 153.57 146.525 153.574 148.585V203.004H174.864C175.046 203.001 175.223 203.061 175.366 203.174C175.508 203.287 175.606 203.447 175.643 203.625C175.681 203.803 175.658 203.988 175.577 204.15C175.496 204.312 175.362 204.441 175.198 204.517L153.574 214.388V233.017C153.557 235.068 152.733 237.029 151.28 238.475C149.827 239.921 147.863 240.734 145.815 240.739ZM103.759 142.359C102.123 142.359 100.554 143.01 99.3969 144.169C98.24 145.327 97.59 146.898 97.59 148.537V232.921C97.59 234.559 98.24 236.131 99.3969 237.289C100.554 238.448 102.123 239.099 103.759 239.099H145.815C147.451 239.099 149.02 238.448 150.177 237.289C151.334 236.131 151.984 234.559 151.984 232.921V213.815C151.982 213.662 152.025 213.511 152.106 213.381C152.188 213.251 152.306 213.147 152.445 213.083L171.207 204.533H152.795C152.584 204.533 152.382 204.449 152.233 204.3C152.084 204.15 152 203.948 152 203.737V148.537C152 146.898 151.35 145.327 150.193 144.169C149.036 143.01 147.467 142.359 145.831 142.359H103.759Z" fill="#171717"/>
<path d="M144.622 155.367H105.222V177.18H144.622V155.367Z" fill="white"/>
<path d="M144.622 177.976H105.222C105.011 177.976 104.809 177.892 104.66 177.743C104.511 177.593 104.427 177.391 104.427 177.18V155.367C104.427 155.156 104.511 154.954 104.66 154.804C104.809 154.655 105.011 154.571 105.222 154.571H144.622C144.833 154.571 145.035 154.655 145.184 154.804C145.333 154.954 145.417 155.156 145.417 155.367V177.18C145.417 177.391 145.333 177.593 145.184 177.743C145.035 177.892 144.833 177.976 144.622 177.976ZM106.017 176.384H143.827V156.163H106.017V176.384Z" fill="#F1E7D9"/>
<path d="M144.622 185.284H105.222C105.011 185.284 104.809 185.2 104.66 185.051C104.511 184.901 104.427 184.699 104.427 184.488C104.427 184.277 104.511 184.074 104.66 183.925C104.809 183.776 105.011 183.692 105.222 183.692H144.622C144.833 183.692 145.035 183.776 145.184 183.925C145.333 184.074 145.417 184.277 145.417 184.488C145.417 184.699 145.333 184.901 145.184 185.051C145.035 185.2 144.833 185.284 144.622 185.284Z" fill="#F1E7D9"/>
<path d="M144.622 195.697H105.222C105.011 195.697 104.809 195.613 104.66 195.463C104.511 195.314 104.427 195.112 104.427 194.9C104.427 194.689 104.511 194.487 104.66 194.338C104.809 194.188 105.011 194.104 105.222 194.104H144.622C144.833 194.104 145.035 194.188 145.184 194.338C145.333 194.487 145.417 194.689 145.417 194.9C145.417 195.112 145.333 195.314 145.184 195.463C145.035 195.613 144.833 195.697 144.622 195.697Z" fill="#F1E7D9"/>
<path d="M144.622 206.109H105.222C105.011 206.109 104.809 206.025 104.66 205.876C104.511 205.727 104.427 205.524 104.427 205.313C104.427 205.102 104.511 204.9 104.66 204.75C104.809 204.601 105.011 204.517 105.222 204.517H144.622C144.833 204.517 145.035 204.601 145.184 204.75C145.333 204.9 145.417 205.102 145.417 205.313C145.417 205.524 145.333 205.727 145.184 205.876C145.035 206.025 144.833 206.109 144.622 206.109Z" fill="#F1E7D9"/>
<path d="M144.622 216.522H105.222C105.012 216.518 104.813 216.433 104.664 216.284C104.516 216.136 104.431 215.936 104.427 215.726C104.427 215.515 104.511 215.312 104.66 215.163C104.809 215.014 105.011 214.93 105.222 214.93H144.622C144.833 214.93 145.035 215.014 145.184 215.163C145.333 215.312 145.417 215.515 145.417 215.726C145.413 215.936 145.328 216.136 145.18 216.284C145.032 216.433 144.832 216.518 144.622 216.522Z" fill="#F1E7D9"/>
<path d="M134.319 226.935H105.222C105.012 226.931 104.813 226.845 104.664 226.697C104.516 226.549 104.431 226.348 104.427 226.139C104.427 225.927 104.511 225.725 104.66 225.576C104.809 225.426 105.011 225.343 105.222 225.343H134.319C134.53 225.343 134.732 225.426 134.881 225.576C135.03 225.725 135.114 225.927 135.114 226.139C135.114 226.35 135.03 226.552 134.881 226.702C134.732 226.851 134.53 226.935 134.319 226.935Z" fill="#F1E7D9"/>
<path d="M279.232 351.346C287.205 351.346 293.669 344.873 293.669 336.889C293.669 328.905 287.205 322.432 279.232 322.432C271.258 322.432 264.794 328.905 264.794 336.889C264.794 344.873 271.258 351.346 279.232 351.346Z" fill="white"/>
<path d="M279.232 352.142C276.219 352.142 273.274 351.247 270.769 349.571C268.264 347.895 266.312 345.513 265.159 342.726C264.006 339.939 263.704 336.872 264.292 333.913C264.88 330.955 266.331 328.237 268.461 326.104C270.591 323.97 273.305 322.518 276.26 321.929C279.215 321.341 282.278 321.643 285.061 322.797C287.844 323.952 290.223 325.907 291.897 328.415C293.571 330.923 294.464 333.872 294.464 336.889C294.46 340.933 292.854 344.81 289.998 347.67C287.142 350.529 283.27 352.138 279.232 352.142ZM279.232 323.228C276.534 323.228 273.896 324.029 271.653 325.531C269.409 327.032 267.66 329.165 266.628 331.661C265.595 334.157 265.325 336.904 265.852 339.554C266.378 342.204 267.677 344.638 269.585 346.549C271.493 348.459 273.924 349.76 276.57 350.287C279.217 350.814 281.96 350.544 284.452 349.51C286.945 348.476 289.076 346.725 290.575 344.478C292.074 342.232 292.874 339.591 292.874 336.889C292.874 335.095 292.521 333.319 291.835 331.661C291.15 330.004 290.145 328.498 288.878 327.229C287.611 325.961 286.107 324.955 284.452 324.268C282.797 323.582 281.023 323.228 279.232 323.228Z" fill="#F1E7D9"/>
<path d="M284.399 323.802L279.232 336.889L288.342 348.098" fill="white"/>
<path d="M288.342 348.894C288.225 348.895 288.109 348.867 288.004 348.815C287.899 348.762 287.808 348.686 287.738 348.591L278.627 337.446C278.534 337.339 278.473 337.207 278.451 337.066C278.428 336.926 278.445 336.782 278.5 336.65L283.668 323.579C283.743 323.383 283.891 323.225 284.082 323.139C284.272 323.052 284.489 323.044 284.685 323.117C284.882 323.195 285.04 323.347 285.126 323.54C285.212 323.734 285.219 323.953 285.146 324.152L280.154 336.889L288.962 347.732C289.095 347.897 289.158 348.108 289.137 348.32C289.116 348.531 289.014 348.726 288.851 348.862C288.689 348.926 288.511 348.937 288.342 348.894Z" fill="#F1E7D9"/>
<path d="M266.353 344.181C266.177 344.178 266.007 344.117 265.869 344.008C265.731 343.898 265.634 343.745 265.592 343.574C265.55 343.403 265.566 343.223 265.638 343.062C265.709 342.901 265.832 342.768 265.987 342.684L278.882 336.173C279.067 336.095 279.275 336.091 279.463 336.161C279.651 336.23 279.806 336.369 279.897 336.548C279.987 336.728 280.007 336.935 279.951 337.128C279.896 337.321 279.769 337.486 279.597 337.59L266.702 344.101C266.595 344.158 266.474 344.185 266.353 344.181Z" fill="#F1E7D9"/>
</svg>
