<svg width="203" height="110" viewBox="0 0 203 110" fill="none" xmlns="http://www.w3.org/2000/svg">
<g clip-path="url(#clip0_893_3285)">
<path d="M122.886 44.9581C122.964 47.3532 122.318 48.9238 121.396 50.3962C115.516 59.6627 110.831 69.4593 107.773 80.0018C107.596 80.5908 107.361 81.1798 107.047 81.7295C105.322 84.8117 102.657 85.1259 100.245 82.4755C98.1284 80.1392 96.8347 77.2337 95.5017 74.4655C91.5813 66.377 85.9947 59.5056 80.1532 52.7718C79.428 51.9472 78.6439 51.1815 77.9382 50.357C74.5666 46.3324 74.5862 44.5065 78.3891 40.796C82.9368 36.3395 86.2691 31.1565 88.5038 25.2472C91.0325 18.5526 93.4239 11.7991 95.3841 4.90811C95.5605 4.31914 95.7174 3.71054 95.933 3.12157C96.5799 1.43319 97.5992 0.0392892 99.5986 -0.0196078C101.598 -0.0785048 102.696 1.25649 103.421 2.92524C103.735 3.63201 104.068 4.3584 104.244 5.10443C107.145 17.0998 113.104 27.6424 119.789 37.8512C121.337 40.2071 122.651 42.6807 122.886 44.9581Z" fill="#FC3060"/>
<path d="M33.2649 72.7967C33.3041 69.6555 34.539 67.8886 36.5384 66.7695C41.7918 63.8443 44.5557 59.0933 46.5943 53.7729C48.3781 49.1397 50.1227 44.4868 51.8869 39.834C52.279 38.8131 52.6318 37.7726 53.1023 36.8106C54.4352 34.0621 56.0034 33.0215 58.0616 33.4731C60.1394 33.9246 61.8644 36.0646 62.0212 38.6364C62.1585 40.796 62.1585 42.9555 62.5309 45.1151C63.8639 52.6735 66.9414 59.27 72.8416 64.4529C76.4876 67.653 76.8405 69.4788 74.2726 72.8163C68.2743 80.63 65.334 89.7983 62.2173 98.9077C61.5116 100.969 61.0411 103.089 59.8846 104.974C58.9633 106.486 57.944 107.86 55.9054 107.723C53.8471 107.585 52.965 106.113 52.377 104.444C50.1619 98.1028 47.1432 92.1738 43.654 86.4411C41.7918 83.3589 39.6552 80.5318 36.7149 78.3526C34.637 76.8017 33.3629 74.7206 33.2453 72.777L33.2649 72.7967Z" fill="#171717"/>
<path d="M141.312 81.965C141.41 83.2804 140.998 84.1049 140.351 84.8313C135.177 90.7407 132.373 97.7298 130.786 105.288C130.354 107.35 130.315 110.137 127.355 110C124.846 109.882 124.787 107.291 124.16 105.406C122.004 98.7507 119.848 92.1346 114.947 86.7946C112.83 84.4779 112.81 82.6129 114.849 80.0803C118.711 75.2704 121.455 69.9304 123.494 64.1585C123.905 62.9805 124.513 61.8811 125.473 61.0369C127.767 59.0148 130.492 59.2111 132.471 61.567C133.393 62.6664 133.844 64.0014 134.216 65.3561C135.667 70.7157 136.353 76.3894 140.665 80.5711C141.077 80.9638 141.175 81.6705 141.292 81.9454L141.312 81.965Z" fill="#FC3060"/>
<path d="M144.84 33.1785C147.036 33.1393 148.114 34.0031 148.761 35.3381C151.152 40.2462 154.445 44.5849 157.484 49.1004C159.836 52.5949 159.699 54.2637 156.994 57.4637C154.387 60.5853 152.074 63.8639 150.349 67.5548C150.074 68.1045 149.78 68.6738 149.427 69.1646C147.33 71.9917 144.468 72.0702 142.606 69.0664C139.959 64.7866 136.725 61.1546 132.785 57.9742C129.296 55.1471 129.257 52.3593 132.667 49.3948C136.764 45.8218 139.92 41.7579 141.43 36.4964C141.978 34.5528 143.194 33.2374 144.821 33.1785H144.84Z" fill="#171717"/>
<path d="M203 41.2672C203 43.1715 202.118 44.4672 200.981 45.547C197.531 48.8256 195.081 52.7521 193.042 56.973C192.768 57.5227 192.493 58.0921 192.121 58.6025C190.121 61.3118 187.554 61.3707 185.691 58.6025C184.319 56.5411 183.3 54.2441 182.104 52.065C180.399 48.9238 178.537 45.9397 175.733 43.5445C172.891 41.1101 172.734 38.6757 175.733 36.5554C180.634 33.1197 182.849 28.0742 185.397 23.1269C186.181 21.6152 186.946 20.0839 187.828 18.6114C188.671 17.1979 189.847 16.2359 191.65 16.393C193.493 16.5697 194.297 17.8458 194.787 19.4164C194.963 20.0053 195.159 20.6139 195.257 21.2225C196.08 26.857 198.452 31.9025 201.295 36.7517C202.157 38.2242 203.098 39.6769 203.039 41.2672H203ZM188.69 49.7091C190.886 46.9409 192.689 44.6439 194.551 42.3666C195.336 41.4046 195.453 40.4819 194.865 39.3825C193.493 36.8303 192.16 34.2584 190.435 30.9798C188.259 34.2781 186.044 36.791 183.437 38.9309C182.575 39.6377 182.673 40.5997 183.359 41.385C185.397 43.7212 186.769 46.5286 188.69 49.6894V49.7091Z" fill="#171717"/>
<path d="M26.6001 49.9251C26.5805 52.1043 25.718 53.4 24.6399 54.5583C21.8172 57.5424 19.5434 60.8407 18.2104 64.7671C17.6223 66.4751 16.5834 67.869 14.6036 67.9868C12.6238 68.1243 11.4869 66.7893 10.6048 65.2383C9.76188 63.7463 8.93859 62.2346 8.1349 60.7229C6.80195 58.2099 5.07696 56.0896 2.80311 54.3031C-0.666473 51.6135 -0.921301 49.4932 2.17584 46.6661C6.78235 42.4648 10.2911 37.6352 12.4474 31.8241C13.0746 30.116 14.1528 28.7614 16.1914 28.8792C17.9752 28.9774 19.1121 30.2142 19.4257 31.8241C20.4843 37.4389 23.0717 42.3863 25.8161 47.2943C26.3257 48.2171 26.4629 49.3557 26.6197 49.9054L26.6001 49.9251ZM15.7601 43.682C8.50734 49.6895 8.48774 49.8269 13.2903 55.5988C13.4471 55.7951 13.8391 55.8148 14.1332 55.9129C20.1902 50.2392 20.2294 49.9251 15.7797 43.6624L15.7601 43.682Z" fill="#FC3060"/>
</g>
<defs>
<clipPath id="clip0_893_3285">
<rect width="203" height="110" fill="white"/>
</clipPath>
</defs>
</svg>
