<svg width="636" height="480" viewBox="0 0 636 480" fill="none" xmlns="http://www.w3.org/2000/svg">
<path d="M552.223 425.856C551.589 424.253 550.818 422.708 549.917 421.239C547.103 414.87 552.589 408.31 556.484 402.595C559.805 397.714 562.153 392.238 563.401 386.466C563.632 385.796 563.724 385.086 563.669 384.379C563.614 383.672 563.415 382.984 563.083 382.358C562.742 381.936 562.314 381.592 561.828 381.35C561.343 381.108 560.81 380.974 560.268 380.957C556.691 380.702 553.749 383.775 552 386.912C550.251 390.048 548.963 393.631 546.165 395.876C540.743 400.206 530.917 398.582 528.087 404.935C526.338 408.868 528.516 414.201 525.638 417.402C524.596 418.379 523.376 419.147 522.045 419.663C514.381 423.309 507.353 428.802 503.235 436.237C494.061 452.875 509.198 481.104 529.868 471.599C542.667 465.724 538.724 454.833 540.648 444.532C541.92 437.558 553.972 432.989 552.223 425.856Z" fill="white"/>
<path d="M521.647 474.289C518.943 474.246 516.277 473.632 513.826 472.488C511.374 471.344 509.19 469.696 507.417 467.65C499.546 459.132 497.4 445.169 502.551 435.807C507.321 427.082 515.637 421.796 521.711 418.898L521.965 418.771C523.11 418.323 524.157 417.658 525.05 416.812C526.465 415.22 526.481 412.959 526.513 410.539C526.389 408.506 526.681 406.469 527.371 404.553C529.152 400.525 533.461 399.442 537.643 398.407C540.51 397.912 543.244 396.828 545.672 395.223C547.572 393.438 549.068 391.266 550.06 388.854C550.458 388.042 550.871 387.262 551.317 386.45C552.445 384.428 555.562 379.763 560.332 380.081C560.991 380.098 561.638 380.261 562.226 380.558C562.815 380.856 563.33 381.28 563.734 381.801C564.136 382.522 564.384 383.32 564.46 384.142C564.537 384.965 564.441 385.794 564.18 386.577C562.901 392.445 560.51 398.012 557.136 402.977C556.723 403.598 556.277 404.234 555.832 404.871C552.318 409.903 548.311 415.618 550.633 420.793C550.909 421.375 551.222 421.939 551.571 422.481C552.185 423.427 552.661 424.457 552.986 425.538C554.067 429.948 550.553 433.355 547.135 436.683C544.591 439.15 541.951 441.698 541.427 444.532C541.003 447.165 540.769 449.826 540.727 452.493C540.425 460.326 540.139 467.714 530.201 472.283C527.528 473.564 524.61 474.248 521.647 474.289ZM559.807 381.737C556.182 381.737 553.606 385.59 552.652 387.294C552.223 388.058 551.825 388.886 551.428 389.634C550.352 392.235 548.724 394.571 546.658 396.481C544.063 398.252 541.119 399.446 538.024 399.983C534.049 400.986 530.297 401.926 528.818 405.253C528.22 406.97 527.972 408.789 528.087 410.603C528.087 413.198 528.087 415.905 526.21 417.927C525.191 418.933 523.98 419.723 522.649 420.252L522.394 420.379C516.527 423.165 508.546 428.34 503.935 436.619C499.165 445.376 501.136 458.527 508.577 466.567C511.09 469.528 514.52 471.561 518.321 472.343C522.122 473.125 526.074 472.611 529.549 470.882C538.597 466.711 538.851 460.119 539.089 452.461C539.125 449.735 539.364 447.015 539.805 444.325C540.425 440.997 543.239 438.259 545.974 435.632C549.154 432.447 552.255 429.566 551.38 426.079C551.096 425.148 550.678 424.263 550.14 423.452C549.769 422.849 549.43 422.227 549.122 421.589C546.451 415.539 550.712 409.441 554.465 404.075C554.91 403.438 555.355 402.817 555.769 402.196C559.021 397.396 561.33 392.02 562.574 386.355C562.967 385.212 562.898 383.961 562.383 382.868C562.111 382.539 561.771 382.273 561.387 382.089C561.003 381.905 560.583 381.807 560.157 381.801L559.807 381.737Z" fill="#171717"/>
<path d="M109.408 430.791C103.716 427.05 102.619 419.312 99.3275 413.278C94.8278 405.094 86.0351 400.206 77.1788 397.356C75.7001 396.863 73.7762 396.544 72.8381 397.786C72.4025 398.46 72.2272 399.269 72.3452 400.063C72.8381 408.836 81.8852 415.379 82.1714 424.152C82.2827 429.04 79.6115 434.215 81.8216 438.577C84.0317 442.94 89.9465 444.197 91.8704 448.576C93.206 451.633 92.1407 455.136 92.1566 458.463C92.3474 481.136 133.703 483.189 142.766 466.265C146.853 458.654 143.832 449.308 138.759 442.987C130.205 432.32 119.25 437.256 109.408 430.791Z" fill="white"/>
<path d="M118.36 478.27C115.179 478.283 112.008 477.914 108.915 477.171C98.0077 474.465 91.4251 467.507 91.4251 458.543C91.4402 457.479 91.5092 456.416 91.6318 455.359C92.0239 453.233 91.8763 451.043 91.2025 448.99C90.0664 447 88.4195 445.351 86.4325 444.214C84.2348 442.931 82.397 441.113 81.0901 438.928C79.5796 435.934 80.1838 432.639 80.7562 429.454C81.1349 427.723 81.3373 425.957 81.3604 424.184C81.265 419.949 78.9913 416.223 76.5904 412.37C74.1895 408.517 71.8204 404.633 71.5501 400.111C71.4317 399.124 71.6624 398.127 72.202 397.293C73.1878 396.019 74.9368 395.78 77.4172 396.608C88.4359 400.254 96.052 405.747 100.027 412.991C101.061 414.983 101.974 417.035 102.762 419.137C104.511 423.563 106.164 427.751 109.837 430.155C113.828 432.782 118.121 433.482 122.271 434.151C128.154 435.106 134.228 436.094 139.379 442.526C144.149 448.401 147.981 458.24 143.466 466.663C139.252 474.512 128.615 478.27 118.36 478.27ZM74.8732 397.707C74.6105 397.686 74.3466 397.725 74.1013 397.822C73.8561 397.918 73.6361 398.069 73.4581 398.264C73.1506 398.798 73.0382 399.423 73.1401 400.031C73.3627 404.139 75.5887 407.737 77.9101 411.527C80.2315 415.316 82.8232 419.487 82.9345 424.136C82.9141 426.021 82.701 427.899 82.2985 429.741C81.742 432.798 81.2173 435.696 82.4893 438.211C83.6882 440.097 85.3247 441.665 87.2593 442.781C89.5032 444.087 91.3499 445.981 92.6017 448.258C93.3956 450.542 93.5873 452.994 93.1582 455.375C93.0628 456.409 92.9674 457.46 92.9674 458.463C93.0628 470.277 104.431 474.385 109.313 475.563C121.047 478.461 136.899 475.563 142.082 465.883C146.232 458.145 142.559 448.974 138.155 443.481C133.385 437.526 127.868 436.635 122.033 435.696C117.724 434.995 113.256 434.263 108.979 431.444C104.702 428.626 103.064 424.152 101.299 419.694C100.517 417.65 99.6086 415.656 98.5801 413.724C94.7959 406.862 87.4501 401.607 76.8607 398.105C76.221 397.876 75.5515 397.742 74.8732 397.707Z" fill="#171717"/>
<path d="M139.745 405.031C139.904 401.321 142.098 397.993 142.607 394.315C143.847 385.097 134.768 378.394 128.79 371.229C122.43 363.634 119.091 354.082 115.434 344.99C114.098 341.679 112.604 338.24 109.805 336.026C107.007 333.813 102.491 333.352 100.075 336.026C98.2938 337.985 98.1825 340.93 98.3574 343.589C98.7991 349.947 100.304 356.184 102.809 362.042C105.051 367.296 108.168 372.71 107.182 378.346C106.371 382.995 102.953 386.641 100.281 390.51C97.6101 394.379 95.5113 399.522 97.785 403.677C99.1365 406.225 101.76 407.769 104.018 409.552C108.312 413.094 111.459 417.832 113.061 423.166C114.664 428.5 114.648 434.191 113.017 439.517C111.856 442.249 110.998 445.1 110.457 448.019C109.98 452.939 112.683 457.651 116.102 461.218C128.615 474.242 161.878 476.534 167.22 454.849C169.558 445.376 165.296 433.053 158.777 426.19C152.735 419.79 139.3 415.523 139.745 405.031Z" fill="white"/>
<path d="M142.416 471.806C132.256 471.806 121.603 468.016 115.529 461.679C113.081 459.132 109.074 453.958 109.678 447.86C109.973 445.755 110.545 443.699 111.38 441.746C111.682 440.95 112 440.154 112.254 439.326C113.823 434.153 113.832 428.631 112.279 423.453C110.726 418.276 107.681 413.672 103.525 410.221L102.062 409.106C100.054 407.83 98.3537 406.122 97.0855 404.107C94.3984 399.044 97.5307 393.169 99.6295 390.112C100.202 389.284 100.822 388.52 101.426 387.628C103.573 384.731 105.799 381.721 106.403 378.266C107.182 373.777 105.163 369.287 103.223 364.956C102.841 364.096 102.46 363.252 102.094 362.393C99.5456 356.429 98.0242 350.077 97.5943 343.605C97.4035 340.994 97.4671 337.698 99.5182 335.453C102.317 332.38 107.309 333.033 110.314 335.453C113.319 337.873 114.734 341.153 116.181 344.751L117.374 347.777C120.554 355.817 123.845 364.144 129.41 370.751C130.666 372.248 132.113 373.777 133.496 375.257C138.871 380.941 144.436 386.832 143.402 394.459C143.105 396.187 142.625 397.879 141.971 399.506C141.218 401.286 140.741 403.17 140.556 405.094C140.254 411.893 146.28 416.001 152.115 419.965C154.714 421.596 157.143 423.484 159.366 425.601C166.568 433.1 170.289 445.726 168.015 454.945C166.076 462.794 160.288 468.382 151.718 470.691C148.678 471.462 145.552 471.837 142.416 471.806ZM104.527 334.976C103.807 334.952 103.09 335.082 102.424 335.356C101.758 335.631 101.158 336.044 100.663 336.568C99.073 338.351 98.9935 341.233 99.073 343.526C99.4926 349.821 100.971 356.001 103.445 361.804C103.811 362.647 104.193 363.491 104.574 364.335C106.625 368.889 108.74 373.601 107.882 378.569C107.214 382.406 104.876 385.558 102.619 388.615C102.014 389.411 101.426 390.223 100.854 391.051C99.2638 393.265 96.0838 398.901 98.4052 403.391C99.5693 405.201 101.116 406.734 102.937 407.881C103.445 408.247 103.938 408.629 104.431 409.011C108.838 412.665 112.068 417.543 113.715 423.03C115.361 428.517 115.351 434.37 113.685 439.851C113.415 440.679 113.097 441.443 112.779 442.335C112.042 444.157 111.544 446.068 111.3 448.019C110.759 453.48 114.48 458.24 116.722 460.581C124.338 468.542 139.554 472.267 151.336 469.099C156.997 467.507 164.215 463.829 166.505 454.515C168.874 444.962 164.168 432.814 158.253 426.636C156.104 424.606 153.76 422.793 151.257 421.223C145.358 417.211 138.68 412.673 138.998 404.983C139.213 402.891 139.749 400.845 140.588 398.917C141.215 397.38 141.668 395.778 141.939 394.14C142.877 387.278 137.583 381.674 132.399 376.244C131 374.748 129.537 373.219 128.249 371.675C122.51 364.86 119.186 356.422 115.959 348.254L114.75 345.245C113.399 341.854 111.968 338.638 109.376 336.6C107.982 335.538 106.278 334.967 104.527 334.976Z" fill="#171717"/>
<path d="M411.19 478.445H522.745V374.413H411.19V478.445Z" fill="#FFCD49"/>
<path d="M522.744 479.225H411.19C410.979 479.225 410.777 479.141 410.628 478.992C410.479 478.843 410.395 478.64 410.395 478.429V374.397C410.395 374.186 410.479 373.984 410.628 373.834C410.777 373.685 410.979 373.601 411.19 373.601H522.744C522.955 373.601 523.158 373.685 523.307 373.834C523.456 373.984 523.539 374.186 523.539 374.397V478.429C523.539 478.64 523.456 478.843 523.307 478.992C523.158 479.141 522.955 479.225 522.744 479.225ZM411.985 477.633H521.949V375.193H411.985V477.633Z" fill="#171717"/>
<path d="M267.82 478.429H379.374V325.423H267.82V478.429Z" fill="#FC3060"/>
<path d="M379.374 479.225H267.804C267.593 479.225 267.391 479.141 267.242 478.992C267.093 478.842 267.009 478.64 267.009 478.429V325.423C267.013 325.213 267.098 325.013 267.246 324.864C267.394 324.716 267.594 324.631 267.804 324.626H379.374C379.584 324.631 379.784 324.716 379.932 324.864C380.08 325.013 380.165 325.213 380.169 325.423V478.429C380.169 478.64 380.085 478.842 379.936 478.992C379.787 479.141 379.585 479.225 379.374 479.225ZM268.599 477.633H378.579V326.219H268.599V477.633Z" fill="#171717"/>
<path d="M124.433 478.429H235.988L235.988 246.07H124.433L124.433 478.429Z" fill="#FFCD49"/>
<path d="M235.988 479.225H124.433C124.223 479.225 124.02 479.141 123.871 478.992C123.722 478.843 123.638 478.64 123.638 478.429V246.07C123.638 245.858 123.722 245.656 123.871 245.507C124.02 245.357 124.223 245.273 124.433 245.273H235.988C236.199 245.273 236.401 245.357 236.55 245.507C236.699 245.656 236.783 245.858 236.783 246.07V478.429C236.783 478.533 236.762 478.637 236.722 478.734C236.682 478.83 236.624 478.918 236.55 478.992C236.476 479.066 236.389 479.124 236.292 479.164C236.196 479.204 236.092 479.225 235.988 479.225ZM125.228 477.633H235.193V246.866H125.228V477.633Z" fill="#171717"/>
<path d="M438.681 306.763V327.493H423.449L438.681 336.377V361.087H514.731V306.763H438.681Z" fill="white"/>
<path d="M514.731 361.883H438.681C438.472 361.879 438.272 361.794 438.124 361.645C437.975 361.497 437.89 361.297 437.886 361.087V336.838L423.051 328.177C422.902 328.088 422.786 327.953 422.721 327.792C422.655 327.632 422.644 327.454 422.689 327.286C422.734 327.118 422.833 326.97 422.97 326.863C423.107 326.757 423.275 326.698 423.449 326.696H437.886V306.763C437.89 306.553 437.975 306.353 438.124 306.204C438.272 306.056 438.472 305.971 438.681 305.967H514.731C514.942 305.967 515.144 306.05 515.293 306.2C515.442 306.349 515.526 306.551 515.526 306.763V361.087C515.526 361.298 515.442 361.501 515.293 361.65C515.144 361.799 514.942 361.883 514.731 361.883ZM439.476 360.291H513.936V307.559H439.476V327.493C439.476 327.704 439.392 327.906 439.243 328.055C439.094 328.205 438.892 328.289 438.681 328.289H426.391L439.111 335.692C439.231 335.762 439.331 335.861 439.4 335.981C439.47 336.102 439.507 336.238 439.508 336.377L439.476 360.291Z" fill="#171717"/>
<path d="M458.715 274.362C458.922 273.741 459.128 273.12 459.351 272.499C459.462 272.181 459.589 271.862 459.717 271.544C459.787 271.346 459.924 271.178 460.103 271.068C460.282 270.958 460.494 270.912 460.702 270.939C461.211 270.939 461.704 271.114 462.197 271.194C462.465 271.241 462.736 271.273 463.008 271.289C463.208 271.301 463.406 271.238 463.564 271.114C464.137 270.557 464.693 269.984 465.234 269.411C465.328 269.303 465.393 269.174 465.424 269.035C465.454 268.896 465.449 268.751 465.409 268.614C465.282 268.009 465.138 267.404 465.011 266.799C464.972 266.562 464.972 266.32 465.011 266.083C465.016 265.995 465.038 265.909 465.077 265.83C465.115 265.751 465.168 265.68 465.234 265.621C466.161 265.015 467.174 264.553 468.239 264.252C468.396 264.203 468.564 264.207 468.718 264.261C468.873 264.315 469.006 264.418 469.098 264.554C469.479 265.08 469.877 265.605 470.242 266.147C470.364 266.35 470.541 266.514 470.752 266.621C470.963 266.728 471.199 266.773 471.435 266.752C472.087 266.752 472.755 266.752 473.422 266.656C473.545 266.65 473.665 266.613 473.77 266.549C473.876 266.485 473.964 266.396 474.027 266.29C474.265 265.94 474.488 265.589 474.71 265.239C474.933 264.889 475.108 264.618 475.314 264.332C475.409 264.181 475.552 264.068 475.72 264.01C475.887 263.952 476.07 263.953 476.237 264.013C477.159 264.332 478.081 264.65 478.987 265C479.159 265.07 479.301 265.197 479.391 265.359C479.481 265.521 479.512 265.709 479.48 265.892C479.48 266.401 479.321 266.911 479.226 267.484C479.226 267.723 479.226 267.962 479.146 268.2C479.124 268.355 479.14 268.513 479.192 268.66C479.245 268.807 479.333 268.939 479.449 269.044C479.926 269.506 480.418 269.952 480.895 270.429C481.027 270.574 481.197 270.679 481.385 270.733C481.573 270.786 481.773 270.786 481.961 270.732L483.932 270.286C484.147 270.214 484.382 270.229 484.587 270.327C484.792 270.425 484.95 270.599 485.029 270.812C485.411 271.592 485.777 272.404 486.111 273.184C486.179 273.292 486.224 273.412 486.244 273.538C486.264 273.664 486.258 273.793 486.227 273.917C486.196 274.04 486.14 274.156 486.062 274.257C485.985 274.359 485.888 274.443 485.777 274.505C485.443 274.76 485.077 274.999 484.727 275.254L483.996 275.843C483.9 275.926 483.824 276.028 483.772 276.144C483.719 276.259 483.693 276.385 483.694 276.512C483.694 277.212 483.694 277.897 483.694 278.581C483.698 278.771 483.751 278.955 483.849 279.117C483.947 279.279 484.085 279.413 484.25 279.505L485.379 280.173C485.602 280.317 485.84 280.46 486.047 280.619C486.209 280.719 486.329 280.874 486.384 281.056C486.44 281.237 486.427 281.433 486.349 281.606C486.047 282.45 485.745 283.199 485.427 284.09C485.374 284.221 485.305 284.344 485.22 284.456C485.148 284.59 485.035 284.696 484.897 284.759C484.759 284.822 484.605 284.839 484.457 284.807L482.66 284.52H482.533C482.284 284.455 482.02 284.466 481.777 284.551C481.534 284.636 481.321 284.792 481.166 284.998C480.832 285.396 480.45 285.762 480.084 286.144C479.917 286.308 479.797 286.515 479.738 286.742C479.679 286.97 479.684 287.209 479.751 287.434C479.894 288.023 480.037 288.596 480.164 289.185C480.211 289.298 480.234 289.421 480.23 289.543C480.226 289.666 480.196 289.786 480.142 289.897C480.087 290.007 480.01 290.104 479.915 290.182C479.821 290.259 479.71 290.316 479.592 290.347C478.797 290.729 478.002 291.096 477.143 291.446C476.958 291.547 476.742 291.574 476.538 291.521C476.334 291.467 476.158 291.338 476.046 291.159C475.728 290.761 475.442 290.331 475.14 289.917C474.504 289.01 474.345 288.93 473.232 288.994H471.944C471.737 288.994 471.535 289.049 471.356 289.152C471.178 289.256 471.029 289.404 470.926 289.583C470.672 290.013 470.417 290.459 470.147 290.873C470 291.093 469.835 291.301 469.654 291.494C469.574 291.593 469.465 291.664 469.341 291.695C469.218 291.727 469.088 291.718 468.97 291.669L466.363 290.698C466.246 290.644 466.135 290.58 466.029 290.507C465.892 290.434 465.782 290.318 465.716 290.178C465.65 290.037 465.631 289.879 465.663 289.726L465.949 287.959C465.966 287.779 465.966 287.598 465.949 287.418C465.964 287.271 465.944 287.122 465.892 286.984C465.839 286.846 465.756 286.722 465.647 286.622L464.248 285.3C464.113 285.171 463.946 285.08 463.764 285.038C463.582 284.996 463.392 285.004 463.215 285.061L461.466 285.459C460.702 285.603 460.464 285.459 460.13 284.791C459.796 284.122 459.43 283.199 459.112 282.418C459.059 282.328 459.025 282.228 459.011 282.124C458.998 282.02 459.005 281.914 459.033 281.813C459.062 281.712 459.11 281.617 459.175 281.535C459.241 281.453 459.322 281.386 459.414 281.336C459.891 280.985 460.353 280.635 460.845 280.317C461.086 280.185 461.281 279.984 461.405 279.74C461.53 279.496 461.579 279.22 461.545 278.948C461.545 278.327 461.545 277.706 461.45 277.085C461.447 276.954 461.412 276.826 461.348 276.713C461.284 276.599 461.194 276.502 461.084 276.432L459.494 275.445C459.126 275.277 458.837 274.975 458.683 274.601L458.715 274.362ZM478.415 277.817C478.417 277.04 478.265 276.271 477.968 275.553C477.672 274.835 477.235 274.183 476.685 273.636C476.135 273.088 475.482 272.654 474.764 272.361C474.045 272.068 473.276 271.92 472.5 271.926C470.959 271.971 469.494 272.611 468.413 273.712C467.331 274.812 466.717 276.289 466.697 277.833C466.709 279.38 467.327 280.861 468.419 281.957C469.51 283.052 470.987 283.676 472.532 283.692C473.306 283.703 474.075 283.558 474.792 283.267C475.51 282.976 476.162 282.544 476.71 281.996C477.258 281.449 477.691 280.797 477.984 280.079C478.277 279.361 478.424 278.592 478.415 277.817Z" fill="white"/>
<path d="M469.177 292.481C469.009 292.479 468.842 292.446 468.684 292.385L466.077 291.414C465.919 291.347 465.77 291.261 465.632 291.159C465.362 290.999 465.145 290.762 465.009 290.479C464.874 290.196 464.824 289.878 464.868 289.567L465.155 287.784C465.17 287.636 465.17 287.486 465.155 287.338C465.155 287.211 465.155 287.179 465.155 287.163L463.74 285.842C463.695 285.811 463.642 285.795 463.588 285.795C463.535 285.795 463.482 285.811 463.437 285.842L462.165 286.144L461.688 286.256C461.466 286.339 461.23 286.377 460.993 286.367C460.756 286.358 460.523 286.301 460.308 286.2C460.093 286.099 459.901 285.956 459.742 285.78C459.583 285.604 459.461 285.397 459.383 285.173C459.001 284.377 458.667 283.581 458.334 282.753C458.167 282.404 458.134 282.006 458.239 281.634C458.345 281.262 458.582 280.941 458.906 280.731C459.383 280.37 459.876 280.02 460.385 279.68C460.502 279.621 460.598 279.526 460.658 279.408C460.718 279.291 460.739 279.157 460.719 279.027C460.719 278.629 460.719 278.231 460.719 277.817V277.164L459.129 276.145C458.607 275.879 458.201 275.432 457.984 274.888C457.976 274.803 457.976 274.718 457.984 274.633V274.41C457.967 274.326 457.967 274.239 457.984 274.155L458.143 273.646L458.62 272.276C458.731 271.942 458.874 271.608 459.001 271.289C459.138 270.931 459.391 270.629 459.72 270.432C460.049 270.236 460.434 270.156 460.814 270.207C461.148 270.207 461.498 270.302 461.847 270.366L462.563 270.493C462.711 270.502 462.86 270.502 463.008 270.493C463.591 269.991 464.148 269.46 464.678 268.901L464.471 268.025C464.391 267.675 464.312 267.341 464.248 266.99C464.174 266.678 464.147 266.356 464.169 266.035C464.184 265.826 464.247 265.623 464.351 265.441C464.456 265.259 464.6 265.103 464.773 264.984C465.751 264.335 466.824 263.841 467.953 263.52C468.264 263.421 468.598 263.427 468.905 263.536C469.212 263.645 469.475 263.852 469.654 264.125L470.052 264.666L470.831 265.717C470.99 265.956 471.085 265.987 471.292 265.972H472.628H473.311C473.423 265.749 473.566 265.542 473.693 265.319L474.09 264.714L474.599 263.965C474.797 263.684 475.081 263.475 475.408 263.369C475.734 263.263 476.087 263.265 476.412 263.376C477.35 263.695 478.272 264.013 479.194 264.379C479.529 264.509 479.809 264.747 479.991 265.057C480.173 265.366 480.245 265.728 480.196 266.083C480.196 266.449 480.085 266.799 480.021 267.166L479.942 267.659C479.942 267.866 479.942 268.089 479.846 268.312C479.82 268.379 479.82 268.452 479.846 268.519L480.18 268.821C480.562 269.172 480.943 269.538 481.309 269.92C481.404 270.016 481.468 270.047 481.659 269.92L483.615 269.474C484.005 269.345 484.43 269.373 484.8 269.551C485.171 269.729 485.458 270.044 485.602 270.43C485.984 271.226 486.349 272.022 486.699 272.834C486.909 273.213 486.966 273.658 486.86 274.078C486.754 274.498 486.491 274.861 486.127 275.095L485.475 275.572L485.061 275.859L484.378 276.4V276.957C484.378 277.467 484.378 277.992 484.378 278.55C484.377 278.605 484.391 278.659 484.419 278.707C484.447 278.755 484.488 278.794 484.537 278.82L485.014 279.091L485.681 279.489C485.94 279.644 486.19 279.814 486.429 279.998C486.721 280.205 486.935 280.505 487.036 280.849C487.137 281.193 487.119 281.561 486.985 281.893C486.683 282.721 486.381 283.485 486.063 284.377C485.99 284.55 485.9 284.716 485.793 284.87C485.628 285.135 485.39 285.345 485.108 285.475C484.825 285.606 484.51 285.65 484.203 285.603L482.406 285.3H482.231C482.122 285.266 482.005 285.269 481.899 285.31C481.792 285.35 481.702 285.425 481.643 285.523C481.389 285.81 481.118 286.096 480.848 286.367L480.53 286.685C480.458 286.757 480.406 286.846 480.381 286.944C480.356 287.042 480.358 287.146 480.387 287.243C480.546 287.832 480.689 288.421 480.816 289.026C480.886 289.225 480.915 289.437 480.903 289.648C480.89 289.859 480.835 290.066 480.742 290.255C480.649 290.445 480.519 290.614 480.359 290.753C480.2 290.892 480.015 290.998 479.814 291.064C478.988 291.462 478.224 291.828 477.334 292.178C476.989 292.354 476.592 292.397 476.217 292.3C475.843 292.204 475.516 291.974 475.299 291.653C475.028 291.319 474.774 290.952 474.52 290.602L474.361 290.379C473.916 289.742 473.915 289.742 473.152 289.79H471.864C471.786 289.787 471.709 289.807 471.641 289.846C471.574 289.886 471.519 289.944 471.483 290.013L471.228 290.443L470.688 291.335C470.509 291.592 470.313 291.837 470.1 292.067C469.85 292.309 469.524 292.456 469.177 292.481ZM463.581 284.186C464.049 284.19 464.498 284.372 464.837 284.695L466.236 286.001C466.433 286.18 466.586 286.403 466.683 286.652C466.78 286.9 466.817 287.168 466.792 287.434C466.792 287.641 466.792 287.848 466.792 288.055L466.506 289.822L466.713 289.918L469.193 290.857C469.323 290.719 469.44 290.57 469.543 290.411L470.052 289.583L470.322 289.137C470.483 288.854 470.714 288.616 470.992 288.446C471.27 288.276 471.587 288.18 471.912 288.166H473.216C473.726 288.053 474.26 288.116 474.73 288.344C475.2 288.572 475.58 288.953 475.808 289.424L475.967 289.647C476.205 289.981 476.444 290.316 476.698 290.634H476.841C477.668 290.3 478.431 289.933 479.274 289.551L479.433 289.456C479.424 289.392 479.424 289.328 479.433 289.265C479.306 288.692 479.178 288.118 479.035 287.561C478.93 287.203 478.923 286.823 479.015 286.462C479.107 286.1 479.296 285.77 479.56 285.507L479.894 285.157C480.132 284.918 480.387 284.679 480.609 284.409C480.856 284.089 481.191 283.849 481.572 283.718C481.954 283.588 482.366 283.573 482.756 283.676L484.632 283.979C484.632 283.883 484.727 283.804 484.727 283.772C485.045 282.944 485.348 282.18 485.65 281.288C485.436 281.111 485.201 280.961 484.95 280.842L483.837 280.189C483.558 280.026 483.325 279.794 483.161 279.516C482.997 279.237 482.907 278.921 482.899 278.597C482.899 278.056 482.899 277.531 482.899 277.005V276.527C482.897 276.28 482.948 276.035 483.049 275.81C483.151 275.584 483.3 275.384 483.487 275.222C483.742 274.999 483.996 274.792 484.251 274.601L484.712 274.283C484.902 274.139 485.093 274.012 485.284 273.853C485.349 273.807 485.407 273.754 485.459 273.693C485.469 273.625 485.469 273.555 485.459 273.486C485.125 272.69 484.759 271.894 484.394 271.146L484.187 271.05L482.215 271.496C481.894 271.577 481.557 271.571 481.238 271.478C480.92 271.386 480.632 271.211 480.403 270.971C480.053 270.605 479.671 270.254 479.306 269.92L478.988 269.602C478.786 269.415 478.631 269.184 478.535 268.927C478.438 268.67 478.403 268.394 478.431 268.121C478.446 267.859 478.478 267.598 478.526 267.341L478.622 266.815C478.622 266.497 478.733 266.178 478.765 265.86C477.875 265.446 476.968 265.128 476.062 264.809C475.887 265.064 475.728 265.287 475.585 265.526L475.203 266.115L474.758 266.783C474.629 266.995 474.45 267.171 474.236 267.296C474.023 267.421 473.781 267.491 473.534 267.5H472.834H471.562C471.19 267.539 470.815 267.472 470.48 267.305C470.145 267.139 469.864 266.881 469.67 266.561C469.432 266.21 469.193 265.876 468.939 265.558L468.525 265C467.585 265.255 466.69 265.652 465.87 266.178C465.856 266.321 465.856 266.465 465.87 266.608C465.87 266.943 466.013 267.277 466.093 267.611L466.268 268.423C466.338 268.683 466.342 268.957 466.278 269.219C466.214 269.481 466.084 269.722 465.902 269.92C465.345 270.509 464.773 271.098 464.201 271.656C463.899 271.923 463.506 272.065 463.104 272.054C462.85 272.076 462.594 272.076 462.34 272.054L461.625 271.926L460.703 271.783C460.703 271.783 460.591 271.783 460.528 271.91C460.464 272.038 460.289 272.499 460.178 272.818L459.717 274.155L459.51 274.474C459.637 274.6 459.782 274.707 459.939 274.792L461.529 275.779C461.747 275.919 461.927 276.109 462.054 276.334C462.182 276.558 462.253 276.811 462.261 277.069V277.738C462.261 278.136 462.261 278.518 462.261 278.916C462.302 279.329 462.223 279.746 462.034 280.115C461.845 280.485 461.554 280.793 461.196 281.001C460.719 281.32 460.273 281.638 459.828 281.989C459.717 281.989 459.701 282.1 459.701 282.1C460.083 282.928 460.416 283.692 460.766 284.472C460.81 284.568 460.863 284.658 460.925 284.743H461.243L461.768 284.616L463.008 284.329C463.191 284.252 463.384 284.204 463.581 284.186ZM472.548 284.488C471.232 284.489 469.946 284.098 468.853 283.365C467.76 282.631 466.909 281.589 466.41 280.37C465.91 279.151 465.784 277.81 466.048 276.519C466.311 275.228 466.952 274.045 467.889 273.12C468.491 272.499 469.21 272.003 470.004 271.661C470.798 271.319 471.652 271.139 472.516 271.13C473.396 271.122 474.268 271.288 475.083 271.62C475.898 271.951 476.639 272.442 477.263 273.062C477.887 273.683 478.382 274.421 478.719 275.235C479.056 276.048 479.228 276.921 479.226 277.801C479.25 278.648 479.105 279.492 478.799 280.282C478.493 281.072 478.033 281.793 477.445 282.403C476.815 283.068 476.056 283.596 475.213 283.955C474.371 284.314 473.464 284.495 472.548 284.488ZM472.469 272.722C471.15 272.781 469.907 273.352 469.002 274.314C468.511 274.775 468.118 275.329 467.845 275.944C467.572 276.559 467.425 277.223 467.412 277.897C467.417 279.236 467.948 280.519 468.892 281.467C469.836 282.415 471.116 282.951 472.453 282.96C473.15 282.971 473.841 282.835 474.482 282.561C475.124 282.286 475.7 281.88 476.173 281.368C476.614 280.915 476.96 280.379 477.192 279.792C477.424 279.204 477.537 278.576 477.525 277.945C477.527 277.272 477.396 276.606 477.139 275.985C476.882 275.364 476.504 274.8 476.028 274.326C475.552 273.852 474.986 273.477 474.364 273.224C473.742 272.971 473.076 272.843 472.405 272.85L472.469 272.722Z" fill="#171717"/>
<path d="M258.105 216.185L244.304 209.959V179.47H172.42V226.008H244.304V216.185H258.105Z" fill="white"/>
<path d="M244.304 226.804H172.42C172.209 226.804 172.007 226.721 171.858 226.571C171.709 226.422 171.625 226.219 171.625 226.008V179.454C171.629 179.244 171.714 179.044 171.862 178.895C172.01 178.747 172.21 178.662 172.42 178.658H244.304C244.514 178.658 244.717 178.741 244.866 178.891C245.015 179.04 245.099 179.243 245.099 179.454V209.434L258.439 215.452C258.65 215.497 258.834 215.623 258.952 215.804C259.07 215.984 259.111 216.204 259.067 216.416C259.023 216.627 258.896 216.812 258.716 216.93C258.535 217.047 258.316 217.089 258.105 217.044H245.099V226.072C245.083 226.272 244.992 226.458 244.844 226.594C244.697 226.73 244.504 226.805 244.304 226.804ZM173.215 225.212H243.509V216.185C243.509 215.974 243.592 215.771 243.742 215.622C243.891 215.473 244.093 215.389 244.304 215.389H254.4L243.986 210.612C243.846 210.551 243.727 210.451 243.642 210.324C243.557 210.197 243.511 210.048 243.509 209.896V180.25H173.215V225.212Z" fill="#171717"/>
<path d="M209.546 192.032L220.263 202.827C220.317 202.885 220.384 202.931 220.458 202.961C220.532 202.991 220.612 203.005 220.692 203.002H237.132C237.065 205.565 236.381 208.074 235.137 210.316C233.894 212.557 232.128 214.465 229.99 215.877C227.853 217.288 225.406 218.162 222.859 218.423C220.311 218.685 217.738 218.326 215.359 217.378C212.98 216.43 210.864 214.92 209.193 212.978C207.521 211.035 206.343 208.717 205.758 206.221C205.173 203.724 205.199 201.123 205.834 198.639C206.468 196.155 207.693 193.861 209.403 191.952L209.546 192.032Z" fill="#FC3060"/>
<path d="M221.853 186.507V201.824H222.012H236.814C237.148 201.824 237.148 201.824 237.132 201.489C236.902 197.671 235.306 194.065 232.637 191.328C229.969 188.592 226.406 186.908 222.6 186.587L221.853 186.507Z" fill="#171717"/>
<path d="M220.724 201.617V186.523C218.944 186.615 217.19 186.986 215.525 187.622C213.531 188.404 211.714 189.578 210.182 191.077L220.724 201.617Z" fill="#171717"/>
<path d="M198.607 194.611H180.211C180 194.611 179.798 194.527 179.649 194.378C179.5 194.229 179.416 194.026 179.416 193.815C179.416 193.604 179.5 193.401 179.649 193.252C179.798 193.103 180 193.019 180.211 193.019H198.607C198.818 193.019 199.02 193.103 199.169 193.252C199.318 193.401 199.402 193.604 199.402 193.815C199.402 194.026 199.318 194.229 199.169 194.378C199.02 194.527 198.818 194.611 198.607 194.611Z" fill="#171717"/>
<path d="M198.607 202.365H180.211C180 202.365 179.798 202.281 179.649 202.132C179.5 201.982 179.416 201.78 179.416 201.569C179.416 201.358 179.5 201.155 179.649 201.006C179.798 200.857 180 200.773 180.211 200.773H198.607C198.818 200.773 199.02 200.857 199.169 201.006C199.318 201.155 199.402 201.358 199.402 201.569C199.402 201.78 199.318 201.982 199.169 202.132C199.02 202.281 198.818 202.365 198.607 202.365Z" fill="#171717"/>
<path d="M192.39 210.119H180.29C180.079 210.119 179.877 210.035 179.728 209.885C179.579 209.736 179.495 209.534 179.495 209.323C179.495 209.111 179.579 208.909 179.728 208.76C179.877 208.61 180.079 208.526 180.29 208.526H192.39C192.601 208.526 192.803 208.61 192.952 208.76C193.101 208.909 193.185 209.111 193.185 209.323C193.185 209.534 193.101 209.736 192.952 209.885C192.803 210.035 192.601 210.119 192.39 210.119Z" fill="#171717"/>
<path d="M460.512 329.562H454.613V353.652H460.512V329.562Z" fill="#FC3060"/>
<path d="M471.387 339.513H465.488V353.652H471.387V339.513Z" fill="#FC3060"/>
<path d="M482.263 333.033H476.364V353.652H482.263V333.033Z" fill="#FC3060"/>
<path d="M493.155 344.799H487.256V353.652H493.155V344.799Z" fill="#FC3060"/>
<path d="M504.03 333.033H498.131V353.652H504.03V333.033Z" fill="#FC3060"/>
<path d="M503.887 314.962H493.902C493.702 314.958 493.512 314.876 493.372 314.733C493.233 314.59 493.154 314.398 493.154 314.198C493.152 314.098 493.17 313.999 493.207 313.907C493.243 313.814 493.298 313.73 493.368 313.658C493.437 313.587 493.52 313.531 493.612 313.492C493.704 313.453 493.802 313.434 493.902 313.434H503.887C504.089 313.434 504.284 313.514 504.427 313.657C504.57 313.801 504.65 313.995 504.65 314.198C504.646 314.399 504.564 314.591 504.422 314.734C504.28 314.876 504.088 314.958 503.887 314.962Z" fill="#171717"/>
<path d="M500.421 318.672H493.902C493.702 318.668 493.512 318.585 493.372 318.443C493.233 318.3 493.154 318.108 493.154 317.908C493.152 317.808 493.17 317.709 493.207 317.617C493.243 317.524 493.298 317.44 493.368 317.368C493.437 317.297 493.52 317.241 493.612 317.202C493.704 317.163 493.802 317.144 493.902 317.144H500.421C500.623 317.144 500.817 317.224 500.96 317.367C501.104 317.511 501.184 317.705 501.184 317.908C501.18 318.109 501.098 318.301 500.956 318.444C500.814 318.586 500.622 318.668 500.421 318.672Z" fill="#171717"/>
<path d="M490.928 333.893C487.573 333.893 484.759 330.279 482.485 327.381C481.293 325.789 479.814 323.958 479.115 323.958C477.769 324.229 476.493 324.771 475.362 325.55C473.279 326.76 470.942 328.129 468.605 328.002C464.455 327.779 457.141 319.261 456.33 318.29C456.264 318.215 456.214 318.128 456.182 318.033C456.151 317.939 456.138 317.839 456.146 317.74C456.153 317.64 456.18 317.544 456.225 317.455C456.271 317.366 456.333 317.287 456.409 317.223C456.567 317.095 456.767 317.034 456.969 317.051C457.171 317.069 457.358 317.165 457.491 317.319C459.589 319.802 465.727 326.314 468.621 326.489C470.75 326.261 472.782 325.482 474.52 324.229C475.854 323.287 477.38 322.651 478.987 322.366C480.371 322.366 481.834 324.117 483.614 326.378C485.713 329.069 488.384 332.428 490.992 332.301C493.281 332.189 494.363 330.199 495.635 327.891C496.907 325.582 498.21 323.114 500.929 322.668C501.127 322.635 501.33 322.679 501.496 322.792C501.661 322.905 501.778 323.077 501.82 323.273C501.857 323.472 501.815 323.677 501.701 323.844C501.588 324.011 501.414 324.126 501.216 324.165C499.196 324.547 498.115 326.521 496.97 328.623C495.667 330.995 494.204 333.67 491.071 333.813L490.928 333.893Z" fill="#171717"/>
<path d="M509.07 354.416H449.843C449.632 354.416 449.43 354.332 449.281 354.183C449.132 354.033 449.048 353.831 449.048 353.62C449.048 353.409 449.132 353.206 449.281 353.057C449.43 352.908 449.632 352.824 449.843 352.824H509.07C509.281 352.824 509.483 352.908 509.632 353.057C509.782 353.206 509.865 353.409 509.865 353.62C509.865 353.831 509.782 354.033 509.632 354.183C509.483 354.332 509.281 354.416 509.07 354.416Z" fill="#171717"/>
<path d="M457.045 319.579C456.699 319.579 456.361 319.477 456.074 319.284C455.786 319.092 455.562 318.818 455.43 318.498C455.297 318.178 455.262 317.826 455.33 317.486C455.397 317.147 455.564 316.835 455.809 316.59C456.053 316.345 456.365 316.178 456.704 316.11C457.043 316.043 457.395 316.077 457.715 316.21C458.034 316.343 458.307 316.567 458.5 316.855C458.692 317.143 458.794 317.482 458.794 317.828C458.796 318.059 458.753 318.287 458.666 318.501C458.578 318.714 458.45 318.908 458.287 319.071C458.124 319.234 457.93 319.363 457.717 319.45C457.504 319.538 457.276 319.582 457.045 319.579ZM457.045 317.605C456.986 317.605 456.93 317.629 456.888 317.67C456.846 317.712 456.823 317.769 456.823 317.828C456.823 318.083 457.284 318.083 457.284 317.828C457.28 317.767 457.253 317.711 457.209 317.669C457.164 317.628 457.106 317.605 457.045 317.605Z" fill="#171717"/>
<path d="M501.152 325.232C500.688 325.232 500.244 325.047 499.916 324.719C499.588 324.39 499.403 323.945 499.403 323.48C499.403 323.016 499.588 322.57 499.916 322.242C500.244 321.913 500.688 321.729 501.152 321.729C501.616 321.729 502.061 321.913 502.389 322.242C502.717 322.57 502.901 323.016 502.901 323.48C502.901 323.945 502.717 324.39 502.389 324.719C502.061 325.047 501.616 325.232 501.152 325.232ZM501.152 323.257C501.093 323.257 501.037 323.281 500.995 323.323C500.953 323.364 500.93 323.421 500.93 323.48C500.93 323.735 501.375 323.735 501.375 323.48C501.375 323.421 501.351 323.364 501.31 323.323C501.268 323.281 501.211 323.257 501.152 323.257Z" fill="#171717"/>
<path d="M480.72 252.804V248.283C479.13 247.837 477.54 247.502 475.95 246.977C472.957 246.021 470.373 244.08 468.621 241.468C467.177 239.186 466.442 236.526 466.506 233.826H475.299C475.362 235.354 475.924 236.819 476.897 237.998C477.87 239.177 479.202 240.004 480.689 240.354V228.381C478.924 227.871 477.175 227.394 475.426 226.788C473.51 226.244 471.754 225.244 470.306 223.875C468.81 222.378 467.816 220.453 467.46 218.366C466.943 215.805 467.136 213.151 468.016 210.692C468.657 208.92 469.683 207.312 471.019 205.985C472.355 204.658 473.969 203.645 475.744 203.018C477.205 202.551 478.691 202.169 480.196 201.871L480.72 201.76V195.789H488.957V196.362C488.957 198.082 488.957 199.786 488.957 201.489C488.957 201.919 489.1 202.046 489.497 202.142C492.315 202.678 494.955 203.909 497.177 205.724C499.512 207.661 501.061 210.384 501.534 213.383C501.677 214.195 501.74 214.975 501.852 215.898H492.9C492.877 214.675 492.498 213.485 491.808 212.476C491.119 211.466 490.15 210.68 489.02 210.214V221.359L489.99 221.582C492.406 222.057 494.759 222.81 497.002 223.827C498.689 224.562 500.146 225.74 501.218 227.237C502.29 228.734 502.937 230.494 503.092 232.329C503.601 235.745 502.769 239.226 500.77 242.041C499.125 244.342 496.8 246.068 494.124 246.977C492.534 247.55 490.753 247.916 488.973 248.41V252.788L480.72 252.804ZM488.988 230.1V240.497C490.323 240.303 491.581 239.753 492.63 238.905C494.538 237.313 495.221 233.412 492.423 231.708C491.308 231.109 490.162 230.573 488.988 230.1ZM480.689 219.465V209.434C479.598 209.902 478.537 210.433 477.509 211.026C476.922 211.442 476.449 211.998 476.131 212.643C475.813 213.288 475.66 214.002 475.687 214.721C475.714 215.44 475.919 216.141 476.284 216.761C476.65 217.381 477.163 217.899 477.779 218.27C478.717 218.748 479.687 219.051 480.689 219.465Z" fill="#FC3060"/>
<path d="M488.957 253.6H480.721C480.511 253.596 480.311 253.511 480.163 253.363C480.015 253.214 479.93 253.014 479.926 252.804V248.904L478.988 248.665C477.859 248.378 476.778 248.092 475.696 247.725C472.536 246.706 469.809 244.654 467.953 241.898C466.419 239.491 465.639 236.68 465.711 233.826C465.707 233.72 465.724 233.615 465.763 233.516C465.801 233.417 465.859 233.328 465.934 233.253C466.009 233.178 466.098 233.12 466.197 233.081C466.295 233.043 466.401 233.025 466.506 233.03H475.299C475.493 233.024 475.682 233.092 475.829 233.218C475.976 233.345 476.07 233.522 476.094 233.714C476.127 234.904 476.503 236.06 477.177 237.04C477.852 238.021 478.795 238.784 479.894 239.239V228.986L478.892 228.699C477.652 228.333 476.412 227.983 475.188 227.601C473.147 226.99 471.282 225.898 469.75 224.416C468.123 222.801 467.048 220.711 466.681 218.446C466.134 215.741 466.337 212.938 467.269 210.342C467.954 208.468 469.043 206.77 470.458 205.366C471.874 203.963 473.581 202.889 475.458 202.222C476.495 201.853 477.558 201.561 478.638 201.346L479.942 201.059V195.789C479.942 195.578 480.025 195.376 480.175 195.226C480.324 195.077 480.526 194.993 480.737 194.993H488.973C489.184 194.993 489.386 195.077 489.535 195.226C489.684 195.376 489.768 195.578 489.768 195.789V197.795C489.768 198.989 489.768 200.184 489.768 201.378C492.687 201.944 495.42 203.23 497.718 205.119C500.198 207.17 501.843 210.058 502.345 213.239C502.456 213.812 502.52 214.402 502.583 214.991L502.679 215.803C502.69 215.914 502.677 216.027 502.643 216.134C502.608 216.241 502.551 216.339 502.477 216.423C502.402 216.507 502.311 216.574 502.209 216.621C502.106 216.668 501.996 216.693 501.884 216.694H492.9C492.698 216.691 492.505 216.612 492.358 216.474C492.211 216.336 492.121 216.147 492.105 215.946C492.097 215.089 491.885 214.246 491.487 213.488C491.089 212.729 490.516 212.076 489.816 211.583V220.738H490.149C492.629 221.217 495.041 221.992 497.336 223.047C499.147 223.834 500.711 225.098 501.862 226.705C503.013 228.311 503.707 230.2 503.871 232.17C504.419 235.784 503.535 239.469 501.407 242.439C499.673 244.879 497.213 246.707 494.379 247.662C493.218 248.06 492.057 248.362 490.817 248.681L489.72 248.999V252.773C489.724 252.877 489.708 252.981 489.672 253.08C489.636 253.178 489.581 253.268 489.51 253.345C489.439 253.422 489.354 253.484 489.259 253.528C489.164 253.572 489.061 253.596 488.957 253.6ZM481.516 252.008H488.13V248.426C488.131 248.252 488.189 248.082 488.295 247.944C488.402 247.806 488.55 247.707 488.718 247.662L490.308 247.216C491.517 246.913 492.646 246.611 493.759 246.229C496.274 245.375 498.459 243.755 500.007 241.596C501.906 238.949 502.689 235.66 502.186 232.441C502.056 230.737 501.463 229.102 500.471 227.713C499.479 226.323 498.125 225.233 496.557 224.56C494.366 223.567 492.066 222.835 489.704 222.378L489.005 222.219L488.734 222.139C488.559 222.103 488.402 222.007 488.289 221.868C488.176 221.728 488.114 221.555 488.114 221.375V210.23C488.117 210.095 488.152 209.963 488.216 209.844C488.279 209.725 488.37 209.623 488.48 209.545C488.597 209.483 488.728 209.45 488.862 209.45C488.995 209.45 489.126 209.483 489.243 209.545C490.388 210.018 491.387 210.788 492.136 211.776C492.885 212.764 493.357 213.934 493.504 215.166H500.85C500.85 214.624 500.739 214.099 500.643 213.574C500.202 210.761 498.748 208.207 496.557 206.393C494.432 204.666 491.914 203.49 489.227 202.97C488.884 202.938 488.567 202.77 488.347 202.505C488.126 202.239 488.02 201.897 488.051 201.553C488.051 200.311 488.051 199.085 488.051 197.859V196.649H481.404V201.824C481.408 202.008 481.345 202.187 481.229 202.33C481.113 202.473 480.949 202.57 480.768 202.604H480.578H480.276L478.861 202.922C477.861 203.112 476.878 203.378 475.919 203.718C474.251 204.309 472.735 205.262 471.479 206.509C470.223 207.756 469.257 209.266 468.653 210.931C467.811 213.25 467.635 215.76 468.144 218.175C468.451 220.12 469.37 221.916 470.767 223.302C472.111 224.586 473.749 225.521 475.537 226.024C476.746 226.422 477.97 226.773 479.21 227.123L480.8 227.569C480.965 227.617 481.11 227.717 481.214 227.855C481.317 227.993 481.373 228.161 481.373 228.333V240.306C481.373 240.426 481.346 240.544 481.294 240.652C481.242 240.759 481.165 240.854 481.071 240.927C480.973 241.004 480.859 241.057 480.738 241.082C480.616 241.106 480.491 241.103 480.371 241.07C478.881 240.704 477.536 239.898 476.509 238.757C475.483 237.616 474.823 236.192 474.615 234.67H467.317C467.386 236.932 468.068 239.133 469.289 241.038C470.948 243.502 473.392 245.332 476.221 246.229C477.239 246.579 478.272 246.85 479.401 247.136L480.991 247.534C481.156 247.583 481.301 247.683 481.404 247.821C481.508 247.959 481.563 248.126 481.563 248.299L481.516 252.008ZM488.989 241.293C488.801 241.296 488.62 241.227 488.48 241.102C488.394 241.026 488.324 240.933 488.274 240.829C488.225 240.725 488.198 240.612 488.194 240.497V230.1C488.195 229.967 488.229 229.836 488.294 229.72C488.358 229.603 488.451 229.505 488.563 229.434C488.675 229.363 488.804 229.321 488.937 229.312C489.069 229.303 489.202 229.328 489.323 229.384L490.436 229.861C491.264 230.182 492.066 230.565 492.837 231.008C493.489 231.403 494.034 231.952 494.425 232.607C494.816 233.262 495.04 234.003 495.078 234.765C495.145 235.657 495.005 236.553 494.668 237.381C494.332 238.21 493.808 238.949 493.139 239.542C491.985 240.492 490.594 241.108 489.116 241.325L488.989 241.293ZM489.784 231.31V239.446C490.64 239.206 491.436 238.788 492.121 238.22C492.59 237.791 492.956 237.263 493.193 236.673C493.429 236.083 493.531 235.447 493.488 234.813C493.467 234.307 493.321 233.813 493.063 233.377C492.805 232.941 492.443 232.576 492.01 232.313C491.303 231.918 490.57 231.572 489.816 231.278L489.784 231.31ZM480.689 220.34C480.589 220.361 480.486 220.361 480.387 220.34L479.465 219.974C478.765 219.703 478.113 219.449 477.461 219.13C476.731 218.753 476.114 218.189 475.673 217.496C475.231 216.802 474.982 216.004 474.949 215.182C474.878 214.284 475.04 213.382 475.419 212.565C475.798 211.748 476.381 211.042 477.111 210.517C477.808 210.066 478.542 209.677 479.306 209.354L480.339 208.861C480.46 208.796 480.596 208.765 480.732 208.77C480.869 208.775 481.002 208.815 481.118 208.888C481.234 208.961 481.329 209.062 481.393 209.184C481.458 209.305 481.489 209.44 481.484 209.577V219.608C481.486 219.737 481.455 219.865 481.393 219.98C481.332 220.094 481.243 220.191 481.134 220.261C480.998 220.333 480.842 220.36 480.689 220.34ZM479.894 210.787C479.237 211.07 478.604 211.405 478.002 211.79C477.514 212.158 477.125 212.642 476.869 213.198C476.614 213.754 476.5 214.364 476.539 214.975C476.55 215.512 476.703 216.036 476.982 216.495C477.262 216.954 477.657 217.33 478.129 217.586C478.683 217.864 479.251 218.114 479.83 218.334L479.894 210.787Z" fill="white"/>
<path d="M378.77 184.628C378.77 184.628 429.3 182.129 439.524 215.564V282.434C439.524 282.434 400.267 251.419 378.77 261.736V184.628Z" fill="#171717"/>
<path d="M439.523 283.103C439.344 283.101 439.171 283.039 439.031 282.928C438.633 282.625 399.885 252.343 379.119 262.389C379.003 262.456 378.872 262.492 378.738 262.492C378.604 262.492 378.472 262.456 378.356 262.389C378.241 262.315 378.146 262.214 378.079 262.095C378.013 261.975 377.977 261.841 377.975 261.705V184.628C377.974 184.422 378.054 184.225 378.196 184.076C378.338 183.928 378.533 183.84 378.738 183.832C379.247 183.832 430.015 181.683 440.287 215.261C440.294 215.341 440.294 215.421 440.287 215.5V282.371C440.287 282.52 440.245 282.666 440.167 282.793C440.088 282.92 439.975 283.022 439.842 283.087C439.737 283.111 439.63 283.116 439.523 283.103ZM389.009 258.727C396.848 258.727 406.404 261.625 417.629 267.389C425.019 271.266 432.095 275.716 438.792 280.699V215.564C429.475 185.472 385.925 185.217 379.628 185.313V260.367C382.62 259.217 385.806 258.66 389.009 258.727Z" fill="#171717"/>
<path d="M429.3 262.628C429.117 262.628 428.939 262.565 428.797 262.449C428.655 262.333 428.558 262.171 428.521 261.991C425.612 247.789 419.903 227.632 416.342 227.298C414.466 227.107 413.432 231.66 412.526 235.673C411.492 240.21 410.522 244.509 408.01 245.496C407.414 245.697 406.776 245.741 406.158 245.624C405.54 245.507 404.962 245.232 404.48 244.828C396.642 239.558 388.39 206.234 388.04 204.817C387.992 204.61 388.026 204.393 388.136 204.211C388.246 204.029 388.423 203.898 388.628 203.845C388.833 203.798 389.048 203.833 389.226 203.943C389.405 204.053 389.533 204.23 389.582 204.435C389.678 204.769 398.025 238.586 405.355 243.506C405.634 243.755 405.969 243.933 406.332 244.025C406.695 244.116 407.074 244.118 407.438 244.032C409.155 243.331 410.125 239.08 410.968 235.322C412.128 230.212 413.194 225.387 416.485 225.77C422.527 226.343 428.871 255.829 430.079 261.736C430.1 261.839 430.101 261.944 430.081 262.047C430.061 262.15 430.021 262.247 429.964 262.335C429.906 262.422 429.832 262.497 429.745 262.555C429.659 262.614 429.562 262.655 429.459 262.676L429.3 262.628Z" fill="white"/>
<path d="M439.524 215.564C439.524 215.564 436.058 242.822 419.108 248.665V307.909C419.108 307.909 431.828 302.145 439.524 282.434V215.564Z" fill="white"/>
<path d="M419.108 308.657C418.897 308.657 418.695 308.573 418.546 308.424C418.397 308.275 418.313 308.072 418.313 307.861V248.601C418.317 248.436 418.37 248.276 418.467 248.143C418.563 248.009 418.698 247.908 418.854 247.853C435.135 242.233 438.697 215.659 438.729 215.405C438.737 215.303 438.765 215.203 438.812 215.113C438.859 215.022 438.923 214.941 439.002 214.876C439.081 214.811 439.171 214.762 439.269 214.732C439.367 214.703 439.47 214.693 439.571 214.704C439.772 214.72 439.96 214.81 440.099 214.957C440.237 215.105 440.315 215.298 440.319 215.5V282.371C440.334 282.466 440.334 282.562 440.319 282.657C432.639 302.527 420.014 308.403 419.49 308.641C419.365 308.675 419.235 308.681 419.108 308.657ZM419.903 249.158V306.476C423.083 304.55 432.623 297.847 438.729 282.116V223.206C436.423 231.772 431.144 244.939 419.903 249.158Z" fill="#171717"/>
<path d="M410.872 199.642C410.719 199.647 410.569 199.602 410.443 199.515C407.644 197.753 404.498 196.618 401.221 196.187C401.116 196.177 401.015 196.147 400.922 196.097C400.829 196.048 400.747 195.98 400.681 195.899C400.614 195.817 400.564 195.724 400.534 195.623C400.504 195.522 400.494 195.416 400.505 195.312C400.529 195.105 400.632 194.915 400.792 194.782C400.951 194.648 401.156 194.581 401.364 194.595C404.903 195.048 408.3 196.271 411.317 198.177C411.493 198.297 411.614 198.481 411.656 198.689C411.697 198.898 411.656 199.114 411.54 199.292C411.464 199.399 411.364 199.487 411.248 199.548C411.132 199.609 411.003 199.641 410.872 199.642Z" fill="white"/>
<path d="M410.22 204.88C410.063 204.877 409.91 204.833 409.775 204.753C407.966 203.56 405.965 202.687 403.86 202.174C403.756 202.157 403.656 202.12 403.565 202.064C403.475 202.009 403.397 201.936 403.335 201.851C403.273 201.765 403.229 201.668 403.204 201.565C403.18 201.462 403.176 201.355 403.192 201.25C403.209 201.146 403.246 201.046 403.301 200.955C403.357 200.865 403.429 200.787 403.515 200.725C403.601 200.663 403.698 200.618 403.801 200.594C403.903 200.569 404.01 200.565 404.114 200.582C406.44 201.125 408.652 202.074 410.649 203.384C410.826 203.498 410.951 203.678 410.995 203.884C411.04 204.09 411.001 204.305 410.888 204.482C410.819 204.599 410.721 204.697 410.605 204.767C410.488 204.836 410.356 204.875 410.22 204.88Z" fill="white"/>
<path d="M352.98 261.577L360.835 256.482C363.315 254.89 366.129 250.114 368.18 250.337C370.231 250.56 365.827 256.212 365.827 256.212C365.827 256.212 374.127 251.308 376.512 251.435C378.897 251.563 379.692 255.702 378.992 256.88C378.293 258.059 371.44 260.272 368.769 262.373C365.181 264.737 361.465 266.901 357.639 268.853" fill="white"/>
<path d="M357.607 269.697C357.431 269.695 357.261 269.634 357.123 269.524C356.986 269.414 356.888 269.261 356.846 269.09C356.805 268.919 356.821 268.739 356.892 268.578C356.964 268.417 357.086 268.284 357.241 268.2C361.019 266.285 364.687 264.158 368.228 261.832C370.148 260.572 372.188 259.505 374.318 258.648C375.711 258.108 377.039 257.414 378.277 256.578C378.519 255.553 378.372 254.474 377.863 253.553C377.747 253.249 377.554 252.981 377.303 252.774C377.052 252.568 376.752 252.43 376.432 252.374C374.842 252.263 369.309 255.193 366.177 257.039C366.018 257.134 365.83 257.17 365.647 257.141C365.465 257.112 365.298 257.019 365.175 256.88C365.059 256.736 364.996 256.556 364.996 256.371C364.996 256.185 365.059 256.006 365.175 255.861C366.352 254.505 367.274 252.946 367.894 251.26C367.051 251.371 365.652 252.852 364.507 254.205C363.577 255.36 362.509 256.398 361.327 257.294L353.473 262.389L352.614 261.052C352.614 261.052 357.988 257.549 360.469 255.957C361.553 255.138 362.535 254.192 363.394 253.139C365.096 251.244 366.718 249.461 368.339 249.684C368.586 249.704 368.821 249.792 369.021 249.938C369.22 250.084 369.375 250.283 369.468 250.512C369.61 251.751 369.262 252.997 368.498 253.983C371.154 252.566 374.858 250.798 376.448 250.798H376.56C377.161 250.857 377.736 251.077 378.223 251.436C378.71 251.795 379.091 252.278 379.326 252.836C379.724 253.532 379.96 254.308 380.018 255.107C380.076 255.906 379.953 256.708 379.66 257.453C379.183 258.202 377.736 258.87 375.033 260.112C373.016 260.936 371.083 261.955 369.262 263.153C365.645 265.557 361.892 267.747 358.02 269.713C357.884 269.748 357.74 269.742 357.607 269.697Z" fill="#171717"/>
<path d="M360.04 229.336C362.628 227.946 365.364 226.851 368.196 226.072C371.376 225.435 375.431 225.212 374.699 223.795C373.968 222.378 366.431 223.365 366.4 223.381C369.85 222.92 373.109 212.379 374.143 209.816C374.333 209.408 374.425 208.961 374.413 208.511C374.395 208.286 374.296 208.076 374.136 207.918C373.975 207.76 373.763 207.665 373.539 207.651C373.23 207.701 372.948 207.859 372.744 208.097C366.956 213.43 361.773 218.955 355.731 224.018C355.126 224.623 360.04 229.336 360.04 229.336Z" fill="white"/>
<path d="M360.04 230.132C359.833 230.13 359.634 230.051 359.483 229.909C354.872 225.467 354.872 224.512 354.888 224.193C354.905 223.932 355.011 223.684 355.19 223.493C358.895 220.308 362.345 216.997 365.668 213.749C367.783 211.695 369.961 209.577 372.203 207.508C372.54 207.142 372.997 206.91 373.491 206.855C373.926 206.846 374.347 207.007 374.665 207.305C374.982 207.602 375.172 208.012 375.192 208.447C375.242 209.033 375.132 209.622 374.874 210.15C374.731 210.517 374.54 211.026 374.318 211.647C372.855 215.707 371.138 219.958 369.262 222.33C372.124 222.139 374.811 222.33 375.415 223.477C375.517 223.676 375.57 223.897 375.57 224.122C375.57 224.346 375.517 224.567 375.415 224.766C374.89 225.77 373.268 226.088 370.438 226.534L368.323 226.9C365.565 227.667 362.899 228.735 360.373 230.084C360.267 230.126 360.153 230.142 360.04 230.132ZM356.589 224.384C357.675 225.809 358.877 227.14 360.183 228.365C362.674 227.042 365.31 226.011 368.037 225.292C368.753 225.149 369.5 225.037 370.216 224.91C371.467 224.775 372.7 224.497 373.888 224.082C371.442 223.697 368.948 223.724 366.511 224.161C366.3 224.191 366.086 224.135 365.916 224.007C365.746 223.879 365.634 223.688 365.605 223.477C365.575 223.266 365.63 223.051 365.759 222.881C365.887 222.711 366.077 222.599 366.288 222.569C368.769 222.235 371.71 214.115 372.823 211.042C373.062 210.405 373.252 209.864 373.396 209.45C373.539 209.169 373.616 208.858 373.618 208.542C373.616 208.508 373.606 208.475 373.59 208.444C373.573 208.414 373.55 208.388 373.523 208.367C373.453 208.461 373.373 208.546 373.284 208.622C371.058 210.676 368.88 212.793 366.781 214.831C363.538 218.048 360.183 221.311 356.589 224.384Z" fill="#171717"/>
<path d="M306.234 232.297C306.234 232.297 332.628 239.414 336.826 238.873L354.856 222.951L363.442 230.18C363.442 230.18 356.78 244.254 349.021 251.929C341.262 259.603 297.076 256.021 297.076 256.021L306.234 232.297Z" fill="white"/>
<path d="M318.795 257.676C307.665 257.676 297.855 256.896 297.012 256.833C296.889 256.825 296.77 256.787 296.665 256.724C296.56 256.66 296.472 256.572 296.408 256.466C296.353 256.355 296.325 256.232 296.325 256.108C296.325 255.984 296.353 255.861 296.408 255.75L305.566 232.011C305.638 231.827 305.775 231.676 305.951 231.588C306.128 231.5 306.33 231.48 306.52 231.533C313.516 233.412 331.96 238.109 336.333 238.109H336.571L354.411 222.378C354.554 222.252 354.737 222.182 354.928 222.182C355.118 222.182 355.302 222.252 355.445 222.378L364.031 229.607C364.166 229.72 364.26 229.876 364.298 230.049C364.335 230.222 364.314 230.402 364.237 230.562C363.967 231.135 357.432 244.891 349.657 252.534C345.38 256.673 331.324 257.676 318.795 257.676ZM298.205 255.368C304.962 255.845 341.707 258.122 348.464 251.435C355.222 244.748 361.184 233.125 362.456 230.451L354.872 224.082L337.382 239.542C337.261 239.646 337.112 239.713 336.953 239.733C332.978 240.242 311.036 234.463 306.743 233.364L298.205 255.368Z" fill="#171717"/>
<path d="M345.491 394.873C345.491 394.873 340.021 400.015 340.387 402.833C340.753 405.651 357.098 424.057 359.07 422.258C361.041 420.459 355.635 404.744 355.635 404.744L345.491 394.873Z" fill="#FFCD49"/>
<path d="M358.704 423.133C358.437 423.127 358.173 423.073 357.925 422.974C353.823 421.478 339.99 405.667 339.608 402.881C339.195 399.808 344.378 394.841 344.951 394.299C345.099 394.158 345.295 394.08 345.499 394.08C345.704 394.08 345.9 394.158 346.048 394.299L356.16 404.075C356.252 404.159 356.323 404.262 356.367 404.378C358.037 409.282 361.709 420.873 359.547 422.799C359.319 423.014 359.018 423.134 358.704 423.133ZM345.491 395.971C343.52 397.945 340.96 401.098 341.183 402.674C341.564 405.508 356.033 421.127 358.593 421.541C359.245 420.283 357.623 412.928 354.936 405.078L345.491 395.971Z" fill="#FFCD49"/>
<path d="M353.521 381.721L345.491 394.872L355.635 404.648L365.986 389.379L353.521 381.721Z" fill="white"/>
<path d="M355.636 405.444C355.428 405.446 355.228 405.366 355.079 405.221L344.935 395.477C344.807 395.35 344.725 395.184 344.702 395.006C344.679 394.827 344.716 394.646 344.808 394.49L352.758 381.339C352.81 381.247 352.881 381.167 352.966 381.104C353.051 381.041 353.148 380.996 353.251 380.973C353.353 380.948 353.458 380.944 353.562 380.96C353.666 380.977 353.765 381.013 353.855 381.068L366.32 388.727C366.413 388.782 366.493 388.856 366.555 388.944C366.618 389.031 366.663 389.131 366.686 389.236C366.709 389.343 366.71 389.453 366.688 389.56C366.666 389.667 366.622 389.768 366.559 389.857L356.287 405.03C356.222 405.125 356.137 405.204 356.038 405.262C355.94 405.319 355.829 405.355 355.715 405.365L355.636 405.444ZM346.509 394.745L355.508 403.406L364.858 389.618L353.728 382.804L346.509 394.745Z" fill="#171717"/>
<path d="M329.989 299.009C329.989 299.009 375.208 316.522 383.476 325.168C391.744 333.813 378.118 386.609 365.811 395.143L349.466 383.807C349.466 383.807 363.776 343.796 360.803 339.991C357.829 336.186 319.892 326.505 319.892 326.505L298.157 295.172L329.989 299.009Z" fill="#171717"/>
<path d="M365.811 395.939C365.651 395.94 365.495 395.89 365.366 395.796L349.021 384.46C348.878 384.359 348.771 384.215 348.717 384.048C348.662 383.882 348.663 383.702 348.719 383.536C355.699 364.08 361.884 342.65 360.183 340.548C358.084 337.905 334.822 331.202 319.701 327.333C319.514 327.287 319.35 327.173 319.24 327.015L297.505 295.729C297.418 295.603 297.37 295.455 297.365 295.302C297.361 295.149 297.4 294.998 297.479 294.867C297.558 294.736 297.672 294.63 297.81 294.563C297.947 294.496 298.1 294.469 298.252 294.487L330.052 298.276H330.243C332.103 298.993 375.733 316.013 384.001 324.627C387.181 327.811 387.022 336.042 386.402 342.347C384.478 361.549 375.065 389.682 366.225 395.812C366.102 395.894 365.958 395.939 365.811 395.939ZM350.42 383.505L365.795 394.172C374.175 387.66 382.999 360.737 384.875 342.172C385.718 333.75 385.018 327.843 382.92 325.709C375.049 317.526 332.119 300.681 329.814 299.773L299.826 296.207L320.401 325.805C325.441 327.094 358.418 335.676 361.439 339.497C361.963 340.182 363.983 345.548 350.42 383.505Z" fill="#171717"/>
<path d="M311.386 413.931L308.349 426.588L320.003 434.04L324.98 416.669L311.386 413.931Z" fill="white"/>
<path d="M320.004 434.82C319.853 434.822 319.705 434.784 319.574 434.708L307.92 427.321C307.782 427.23 307.675 427.098 307.616 426.944C307.556 426.79 307.545 426.621 307.586 426.461L310.623 413.803C310.643 413.703 310.684 413.608 310.742 413.524C310.799 413.44 310.874 413.369 310.959 413.314C311.045 413.259 311.142 413.222 311.242 413.205C311.343 413.188 311.446 413.191 311.545 413.214L325.139 415.953C325.249 415.97 325.353 416.012 325.444 416.075C325.535 416.139 325.61 416.222 325.664 416.319C325.72 416.414 325.756 416.52 325.769 416.629C325.783 416.739 325.774 416.85 325.743 416.956L320.767 434.31C320.737 434.431 320.678 434.542 320.594 434.633C320.511 434.725 320.407 434.794 320.29 434.836L320.004 434.82ZM309.255 426.222L319.542 432.782L323.979 417.274L311.99 414.854L309.255 426.222Z" fill="#171717"/>
<path d="M282.861 305.425C282.861 305.425 278.552 325.582 289.762 327.286C309.923 330.342 320.131 345.755 320.242 356.263C320.417 370.895 307.856 416.032 307.856 416.032L328.526 423.738C328.526 423.738 351.342 364.685 348.035 348.493C344.728 332.301 318.906 296.254 318.906 296.254L282.861 305.425Z" fill="#171717"/>
<path d="M328.526 424.535C328.431 424.55 328.334 424.55 328.24 424.535L307.57 416.828C307.386 416.757 307.235 416.619 307.147 416.443C307.059 416.266 307.04 416.063 307.093 415.873C307.22 415.427 319.622 370.672 319.463 356.311C319.272 340.134 301.559 329.929 289.634 328.114C288.464 327.953 287.34 327.546 286.338 326.92C285.335 326.295 284.475 325.464 283.815 324.483C279.427 318.115 281.971 305.839 282.082 305.378C282.113 305.232 282.185 305.097 282.289 304.99C282.393 304.883 282.525 304.808 282.67 304.772L318.715 295.602C318.87 295.562 319.033 295.569 319.183 295.623C319.334 295.677 319.464 295.775 319.558 295.904C320.608 297.385 345.507 332.285 348.814 348.445C352.121 364.606 330.195 421.685 329.257 424.136C329.185 424.265 329.078 424.371 328.949 424.442C328.82 424.512 328.673 424.544 328.526 424.535ZM308.81 415.555L328.065 422.735C330.656 415.889 350.325 363.459 347.256 348.652C344.187 333.845 321.53 301.318 318.636 297.162L283.656 306.078C283.243 308.371 281.684 318.385 285.246 323.592C285.783 324.397 286.487 325.077 287.31 325.586C288.133 326.094 289.056 326.419 290.016 326.537C311.306 329.722 321.053 345.898 321.18 356.295C321.18 370.003 310.447 409.568 308.81 415.555Z" fill="#171717"/>
<path d="M293.419 215.93C282.972 213.112 285.834 196.569 287.885 188.736C288.169 187.047 288.989 185.495 290.223 184.31C290.86 183.757 291.69 183.48 292.531 183.54C293.371 183.6 294.154 183.991 294.707 184.628C294.468 182.431 296.615 180.712 298.682 179.852C302.602 178.315 306.957 178.315 310.877 179.852C313.58 180.95 316.029 182.765 318.827 183.291C321.625 183.816 325.282 182.351 325.568 179.454C326.86 180.79 327.82 182.411 328.372 184.186C328.924 185.961 329.053 187.841 328.748 189.675C328.065 193.672 325.568 195.455 322.913 197.971C320.258 200.486 319.59 204.419 316.41 206.505C310.575 210.278 307.522 215.564 300.16 216.312C297.909 216.595 295.624 216.465 293.419 215.93Z" fill="white"/>
<path d="M297.743 217.236C296.221 217.255 294.703 217.073 293.228 216.694C281.891 213.653 285.166 195.996 287.106 188.545C287.435 186.698 288.349 185.006 289.714 183.721C290.193 183.342 290.746 183.065 291.337 182.909C291.928 182.753 292.544 182.72 293.148 182.813C293.471 182.873 293.786 182.969 294.086 183.1C294.495 182.186 295.089 181.367 295.831 180.695C296.573 180.024 297.446 179.514 298.395 179.199C302.485 177.6 307.026 177.6 311.115 179.199C312.133 179.613 313.119 180.122 314.057 180.616C315.592 181.505 317.247 182.17 318.97 182.59C319.75 182.732 320.551 182.718 321.326 182.549C322.101 182.379 322.835 182.058 323.485 181.603C323.841 181.356 324.141 181.038 324.366 180.667C324.59 180.297 324.735 179.884 324.789 179.454C324.806 179.305 324.863 179.163 324.956 179.046C325.049 178.928 325.174 178.839 325.315 178.789C325.456 178.739 325.609 178.73 325.755 178.763C325.901 178.796 326.035 178.87 326.141 178.976C327.528 180.4 328.562 182.13 329.161 184.027C329.761 185.924 329.908 187.934 329.591 189.898C328.939 193.735 326.824 195.63 324.376 197.859L323.517 198.655C322.438 199.745 321.527 200.99 320.814 202.349C319.863 204.242 318.473 205.88 316.76 207.125C315.036 208.295 313.394 209.583 311.847 210.978C308.539 213.828 305.487 216.519 300.16 217.06C299.358 217.163 298.552 217.221 297.743 217.236ZM292.465 184.326C291.833 184.323 291.218 184.53 290.716 184.915C289.628 186.012 288.906 187.419 288.649 188.943C286.836 195.933 283.672 212.475 293.625 215.15C295.732 215.659 297.913 215.789 300.065 215.532C304.835 215.038 307.617 212.618 310.877 209.816C312.474 208.368 314.175 207.037 315.965 205.836C317.495 204.716 318.737 203.248 319.59 201.553C320.373 200.054 321.381 198.685 322.579 197.493L323.454 196.697C325.775 194.595 327.619 192.939 328.224 189.659C328.439 188.164 328.348 186.641 327.957 185.183C327.566 183.724 326.883 182.36 325.95 181.173C325.6 181.86 325.093 182.454 324.471 182.909C323.644 183.493 322.709 183.906 321.721 184.124C320.733 184.343 319.711 184.363 318.715 184.182C316.848 183.768 315.052 183.076 313.389 182.129C312.483 181.667 311.529 181.173 310.591 180.791C306.855 179.322 302.703 179.322 298.968 180.791C297.107 181.524 295.311 183.004 295.501 184.692C295.523 184.871 295.482 185.053 295.387 185.206C295.291 185.359 295.147 185.476 294.977 185.536C294.806 185.592 294.62 185.59 294.45 185.53C294.281 185.469 294.136 185.354 294.039 185.201C293.91 185.008 293.741 184.845 293.544 184.724C293.346 184.603 293.124 184.527 292.894 184.501C292.758 184.426 292.614 184.367 292.465 184.326Z" fill="#171717"/>
<path d="M319.177 207.603C319.177 207.603 322.261 215.389 321.021 216.615C319.781 217.841 316.887 216.233 316.887 216.233" fill="white"/>
<path d="M319.717 217.825C318.601 217.75 317.515 217.429 316.537 216.885C316.445 216.835 316.364 216.767 316.299 216.686C316.233 216.604 316.184 216.511 316.154 216.41C316.125 216.309 316.115 216.204 316.127 216.1C316.138 215.996 316.169 215.895 316.219 215.803C316.269 215.711 316.337 215.629 316.419 215.564C316.5 215.498 316.594 215.449 316.694 215.419C316.794 215.39 316.9 215.38 317.004 215.391C317.108 215.403 317.209 215.434 317.301 215.484C318.27 216.026 319.956 216.551 320.481 215.994C321.005 215.437 319.924 211.552 318.461 207.842C318.42 207.745 318.399 207.641 318.4 207.535C318.4 207.43 318.422 207.326 318.463 207.229C318.505 207.133 318.566 207.045 318.642 206.973C318.718 206.9 318.808 206.844 318.906 206.807C319.004 206.768 319.107 206.749 319.212 206.75C319.316 206.752 319.42 206.774 319.516 206.815C319.612 206.857 319.698 206.917 319.771 206.992C319.844 207.067 319.901 207.156 319.94 207.253C321.148 210.342 322.993 215.739 321.53 217.124C321.042 217.589 320.39 217.841 319.717 217.825Z" fill="#171717"/>
<path d="M320.115 198.305C322.5 201.266 320.624 206.043 319.908 209.275C318.923 213.812 317.825 218.334 316.633 222.808C315.87 225.658 308.413 224.146 307.268 223.015L305.964 232.679C305.964 232.679 303.102 237.583 297.68 233.523C292.258 229.463 291.67 225.324 291.67 225.324L294.85 212.3C294.85 212.3 299.779 213.367 303.913 208.112C308.047 202.858 309.844 193.783 309.844 193.783C309.844 193.783 317.794 195.423 320.115 198.305Z" fill="white"/>
<path d="M301.766 235.927C300.094 235.851 298.492 235.231 297.203 234.16C291.59 229.957 290.843 225.626 290.843 225.435C290.819 225.336 290.819 225.232 290.843 225.133L294.15 212.093C294.199 211.893 294.325 211.72 294.501 211.612C294.677 211.505 294.888 211.472 295.088 211.52C295.263 211.52 299.588 212.395 303.356 207.619C307.331 202.572 309.096 193.735 309.128 193.656C309.145 193.552 309.183 193.453 309.241 193.365C309.298 193.278 309.374 193.203 309.462 193.146C309.548 193.09 309.644 193.051 309.745 193.032C309.846 193.013 309.95 193.014 310.05 193.035C310.384 193.035 318.255 194.722 320.735 197.811C322.961 200.582 321.943 204.546 321.117 207.73C320.958 208.335 320.814 208.925 320.687 209.466C319.701 214.003 318.588 218.557 317.396 223.031C317.243 223.544 316.949 224.003 316.546 224.355C316.144 224.707 315.65 224.938 315.122 225.021C312.696 225.446 310.199 225.199 307.904 224.305L306.743 232.807C306.728 232.912 306.696 233.015 306.648 233.109C305.783 234.488 304.413 235.471 302.832 235.848C302.48 235.907 302.123 235.933 301.766 235.927ZM292.56 225.356C293.529 228.446 295.535 231.106 298.236 232.886C298.825 233.41 299.517 233.805 300.268 234.043C301.018 234.282 301.81 234.36 302.593 234.272C303.68 233.987 304.631 233.327 305.28 232.409L306.568 222.856C306.59 222.71 306.653 222.573 306.748 222.461C306.844 222.348 306.968 222.265 307.109 222.219C307.248 222.171 307.398 222.163 307.542 222.197C307.685 222.231 307.816 222.305 307.92 222.41C310.046 223.462 312.45 223.813 314.788 223.413C315.44 223.238 315.838 222.951 315.949 222.569C317.126 218.111 318.223 213.574 319.224 209.052C319.336 208.495 319.495 207.906 319.654 207.269C320.385 204.435 321.244 200.9 319.574 198.751C317.984 196.792 313.103 195.312 310.591 194.707C310.05 197.079 308.222 204.068 304.676 208.558C303.664 210.017 302.302 211.198 300.716 211.994C299.13 212.789 297.37 213.174 295.597 213.112L292.56 225.356Z" fill="#171717"/>
<path d="M317.237 219.401C316.734 219.606 316.193 219.701 315.651 219.677C315.108 219.654 314.577 219.513 314.094 219.265C313.611 219.018 313.187 218.668 312.851 218.241C312.515 217.813 312.276 217.318 312.149 216.79" fill="white"/>
<path d="M315.679 220.436C314.951 220.446 314.232 220.283 313.58 219.958C313.025 219.65 312.541 219.226 312.163 218.715C311.784 218.205 311.52 217.619 311.386 216.997C311.332 216.794 311.361 216.578 311.465 216.397C311.569 216.215 311.741 216.081 311.942 216.026C312.147 215.971 312.364 215.999 312.548 216.103C312.733 216.208 312.869 216.38 312.928 216.583C313.004 216.99 313.167 217.376 313.405 217.714C313.644 218.052 313.953 218.334 314.312 218.541C315.154 218.897 316.097 218.937 316.967 218.653C317.167 218.586 317.386 218.6 317.576 218.693C317.766 218.785 317.912 218.947 317.984 219.146C318.02 219.243 318.035 219.347 318.03 219.45C318.025 219.553 318 219.654 317.955 219.748C317.911 219.841 317.849 219.925 317.772 219.993C317.695 220.062 317.605 220.115 317.507 220.149C316.916 220.337 316.299 220.433 315.679 220.436Z" fill="#171717"/>
<path d="M309.859 208.622C309.976 207.462 309.767 206.293 309.255 205.247C308.964 204.386 308.552 203.571 308.031 202.827C307.766 202.46 307.423 202.158 307.027 201.94C306.631 201.723 306.192 201.596 305.741 201.569C305.343 201.585 304.953 201.686 304.597 201.864C304.24 202.042 303.926 202.294 303.674 202.604C303.166 203.225 302.807 203.955 302.625 204.737C302.2 206.426 302.225 208.196 302.697 209.872C303.168 211.548 304.07 213.072 305.312 214.29L305.105 213.956" fill="white"/>
<path d="M305.28 215.134C305.073 215.132 304.875 215.052 304.724 214.911C303.381 213.583 302.407 211.926 301.9 210.106C301.392 208.285 301.368 206.363 301.83 204.53C302.042 203.632 302.455 202.793 303.038 202.078C303.365 201.683 303.773 201.362 304.233 201.137C304.694 200.912 305.197 200.788 305.709 200.773C306.283 200.801 306.843 200.958 307.347 201.234C307.851 201.51 308.286 201.897 308.619 202.365C309.192 203.167 309.637 204.053 309.939 204.992C310.511 206.179 310.737 207.503 310.591 208.813C310.551 209.024 310.428 209.211 310.251 209.332C310.074 209.453 309.856 209.498 309.645 209.458C309.434 209.418 309.248 209.295 309.127 209.118C309.006 208.94 308.961 208.722 309.001 208.511C309.085 207.49 308.887 206.465 308.428 205.549C308.17 204.768 307.8 204.028 307.331 203.352C307.141 203.079 306.893 202.851 306.604 202.686C306.315 202.521 305.993 202.422 305.662 202.397C305.378 202.414 305.101 202.491 304.849 202.622C304.597 202.754 304.375 202.938 304.199 203.161C303.768 203.688 303.468 204.31 303.324 204.976C302.955 206.418 302.941 207.927 303.285 209.375C303.628 210.823 304.319 212.166 305.296 213.287C305.469 213.347 305.615 213.465 305.709 213.621L305.9 213.956C305.973 214.076 306.013 214.213 306.016 214.353C306.019 214.493 305.985 214.632 305.917 214.755C305.849 214.878 305.75 214.98 305.63 215.053C305.51 215.125 305.373 215.164 305.232 215.166L305.28 215.134Z" fill="#171717"/>
<path d="M307.268 223.015C305.202 221.833 303.518 220.081 302.418 217.968C302.418 217.968 301.226 224.942 306.727 228.19L307.268 223.015Z" fill="#171717"/>
<path d="M306.727 228.986C306.586 228.99 306.447 228.952 306.329 228.874C300.415 225.387 301.559 218.143 301.639 217.841C301.671 217.67 301.755 217.513 301.881 217.393C302.006 217.273 302.167 217.196 302.338 217.172C302.511 217.152 302.686 217.19 302.835 217.279C302.984 217.368 303.1 217.504 303.165 217.665C304.191 219.614 305.752 221.227 307.665 222.315C307.799 222.393 307.907 222.508 307.978 222.646C308.048 222.785 308.078 222.94 308.063 223.095L307.522 228.301C307.507 228.436 307.458 228.565 307.38 228.676C307.303 228.788 307.198 228.878 307.077 228.938C306.965 228.978 306.846 228.994 306.727 228.986ZM303.133 220.595C303.194 221.759 303.485 222.899 303.99 223.948C304.495 224.998 305.204 225.937 306.075 226.709L306.425 223.365C305.203 222.601 304.095 221.669 303.133 220.595Z" fill="#171717"/>
<path d="M317.879 204.122C318.214 203.271 318.214 202.475 317.879 202.342C317.544 202.21 317.001 202.793 316.666 203.644C316.331 204.495 316.332 205.292 316.667 205.424C317.002 205.556 317.544 204.973 317.879 204.122Z" fill="#171717"/>
<path d="M287.122 221.232C287.122 221.232 303.817 224.082 309.382 233.969C314.947 243.856 316.235 279.043 319.256 281.734C322.277 284.425 330.084 298.356 329.909 298.993C329.734 299.63 279.888 309.039 279.888 309.039C279.888 309.039 278.425 297.624 274.895 282.61C271.366 267.595 273.019 220.531 287.122 221.232Z" fill="white"/>
<path d="M279.967 309.851C279.802 309.853 279.641 309.803 279.506 309.708C279.419 309.645 279.345 309.564 279.29 309.471C279.236 309.378 279.201 309.274 279.188 309.167C279.188 309.055 277.598 297.592 274.196 282.801C271.397 270.875 271.524 234.733 280.73 223.668C281.467 222.656 282.438 221.838 283.559 221.283C284.681 220.728 285.92 220.454 287.17 220.484H287.265C287.965 220.595 304.39 223.493 310.145 233.571C313.325 239.239 315.138 252.502 316.664 264.204C317.65 271.703 318.763 280.126 319.844 281.193C322.452 283.549 331.102 297.894 330.736 299.248C330.561 299.884 330.434 300.362 280.094 309.883L279.967 309.851ZM286.804 222.028C285.859 222.077 284.938 222.343 284.111 222.804C283.285 223.264 282.574 223.909 282.034 224.687C273.75 234.638 272.796 269.522 275.817 282.434C278.791 295.028 280.317 305.218 280.73 308.132C298.666 304.725 324.583 299.693 329.066 298.579C327.779 295.761 321.498 284.791 318.875 282.403C317.412 281.065 316.553 275.015 315.17 264.443C313.723 253.457 311.99 239.781 308.81 234.383C303.579 225.228 288.044 222.267 287.09 222.092L286.804 222.028Z" fill="#171717"/>
<path d="M308.873 232.998L307.554 237.806L309.494 238.523L310.018 272.436L317.078 278.661L320.194 268.105L311.02 238.65L312.387 237.042L308.873 232.998Z" fill="#171717"/>
<path d="M299.095 236.994C299.429 237.536 314.709 270.175 314.709 270.175L354.681 256.626L362.631 268.408C362.631 268.408 327.874 288.532 314.931 291.128C301.989 293.723 278.934 245.815 279.84 241.038" fill="white"/>
<path d="M313.962 291.987C311.163 291.987 307.888 290.125 304.199 286.431C292.56 274.744 278.25 245.146 279.125 240.815C279.171 240.611 279.294 240.431 279.469 240.316C279.644 240.2 279.857 240.156 280.063 240.194C280.165 240.215 280.262 240.256 280.349 240.315C280.435 240.373 280.51 240.448 280.567 240.536C280.625 240.623 280.665 240.721 280.684 240.823C280.704 240.926 280.704 241.031 280.683 241.134C279.999 244.509 293.403 273.359 305.328 285.348C309.144 289.169 312.34 290.841 314.868 290.347C326.427 288.023 356.415 271.05 361.503 268.057L354.395 257.501L315.011 270.844C314.824 270.906 314.622 270.898 314.44 270.822C314.259 270.746 314.111 270.607 314.025 270.43C309.843 261.482 298.888 238.109 298.459 237.329C298.359 237.146 298.333 236.932 298.386 236.73C298.439 236.528 298.568 236.355 298.745 236.246C298.923 236.139 299.136 236.105 299.338 236.153C299.54 236.2 299.715 236.325 299.826 236.501C300.144 237.026 312.054 262.437 315.17 269.108L354.475 255.798C354.64 255.744 354.818 255.747 354.981 255.804C355.145 255.862 355.285 255.971 355.381 256.116L363.331 267.882C363.392 267.972 363.433 268.074 363.452 268.181C363.471 268.288 363.468 268.397 363.442 268.503C363.421 268.609 363.377 268.709 363.314 268.797C363.251 268.885 363.17 268.958 363.077 269.013C361.646 269.84 328.097 289.233 315.218 291.828C314.806 291.927 314.385 291.98 313.962 291.987Z" fill="#171717"/>
<path d="M315.79 291.366C307.188 291.366 298.809 283.517 290.843 267.994C290.794 267.901 290.765 267.799 290.756 267.695C290.747 267.591 290.759 267.485 290.792 267.386C290.824 267.286 290.877 267.194 290.946 267.116C291.015 267.037 291.099 266.972 291.193 266.927C291.379 266.831 291.595 266.813 291.794 266.875C291.993 266.938 292.16 267.077 292.258 267.261C300.288 282.912 308.572 290.475 316.903 289.727C325.235 288.978 343.361 278.056 343.536 277.945C343.624 277.879 343.726 277.833 343.833 277.809C343.94 277.785 344.052 277.784 344.16 277.805C344.268 277.826 344.37 277.87 344.46 277.933C344.551 277.996 344.627 278.077 344.684 278.171C344.742 278.265 344.779 278.37 344.794 278.479C344.809 278.588 344.801 278.699 344.771 278.805C344.74 278.911 344.688 279.01 344.618 279.094C344.548 279.179 344.461 279.249 344.363 279.298C343.615 279.76 325.887 290.539 317.046 291.319L315.79 291.366Z" fill="#171717"/>
<path d="M308.349 426.588C308.349 426.588 303.945 437.574 304.247 438.625C304.549 439.676 320.258 465.533 322.897 458.447C325.537 451.362 320.004 434.024 320.004 434.024L308.349 426.588Z" fill="#FFCD49"/>
<path d="M321.419 460.469H321.323C315.981 460.231 303.833 439.899 303.484 438.832C303.134 437.765 305.566 431.413 307.618 426.286C307.665 426.18 307.733 426.085 307.818 426.005C307.902 425.926 308.002 425.865 308.11 425.824C308.222 425.792 308.339 425.784 308.455 425.801C308.57 425.817 308.68 425.858 308.778 425.92L320.433 433.371C320.589 433.465 320.707 433.612 320.767 433.785C320.989 434.501 326.348 451.458 323.645 458.718C323.519 459.215 323.232 459.656 322.829 459.973C322.427 460.29 321.931 460.464 321.419 460.469ZM308.699 427.767C307.2 431.247 305.962 434.834 304.994 438.498C305.582 439.962 317.364 458.877 321.403 458.877C321.562 458.877 321.864 458.877 322.134 458.161C324.472 451.888 319.988 436.762 319.304 434.549L308.699 427.767Z" fill="#FFCD49"/>
<path d="M340.435 331.139C340.298 331.141 340.162 331.107 340.042 331.04C339.922 330.973 339.822 330.875 339.751 330.756L326.141 308.259C326.065 308.082 326.055 307.883 326.114 307.7C326.173 307.516 326.296 307.36 326.462 307.261C326.627 307.161 326.823 307.126 327.012 307.16C327.202 307.194 327.372 307.296 327.492 307.447L341.103 329.929C341.16 330.018 341.198 330.117 341.215 330.222C341.233 330.326 341.229 330.433 341.203 330.536C341.178 330.639 341.132 330.735 341.068 330.82C341.005 330.904 340.924 330.975 340.833 331.027C340.713 331.101 340.575 331.14 340.435 331.139Z" fill="white"/>
</svg>
