<svg width="120" height="120" viewBox="0 0 120 120" fill="none" xmlns="http://www.w3.org/2000/svg">
<g clip-path="url(#clip0_185_251)">
<g clip-path="url(#clip1_185_251)">
<path d="M118.897 80.9104C118.897 80.9104 126.359 81.7363 122.722 95.7274L104.987 93.6178C104.987 93.6178 113.151 79.2585 118.897 80.9104Z" fill="white"/>
<path d="M122.707 95.9763L104.967 93.8666C104.926 93.8621 104.887 93.8474 104.853 93.8239C104.819 93.8005 104.791 93.769 104.773 93.7323C104.754 93.6952 104.745 93.6543 104.745 93.6129C104.745 93.5715 104.754 93.5306 104.773 93.4935C105.111 92.9014 113.081 79.0148 118.951 80.6667C119.666 80.8068 120.345 81.0896 120.947 81.4983C121.55 81.9069 122.064 82.433 122.459 83.0449C124.299 85.7118 124.474 90.0106 122.956 95.7922C122.942 95.8464 122.909 95.8942 122.864 95.9276C122.819 95.961 122.764 95.9782 122.707 95.9763ZM105.395 93.4387L122.538 95.4787C124.285 88.5926 123.24 85.0849 122.041 83.3534C121.684 82.7964 121.219 82.3171 120.673 81.9443C120.126 81.5715 119.51 81.313 118.862 81.1841H118.822C113.802 79.7064 106.648 91.3043 105.395 93.4387Z" fill="#171717"/>
<path d="M103.514 108.226C103.514 108.226 106.947 108.723 110.265 97.847C113.583 86.9706 111.489 81.1741 118.897 80.9303L95.4595 77.8555C95.4595 77.8555 90.2059 106.261 103.514 108.226Z" fill="white"/>
<path d="M103.584 108.479H103.474C102.293 108.309 101.161 107.895 100.149 107.263C99.1378 106.631 98.2691 105.794 97.5987 104.808C95.161 101.399 94.0217 95.8118 94.2107 88.2043C94.2995 84.7158 94.632 81.2377 95.2057 77.7956C95.2167 77.7324 95.2521 77.6762 95.3042 77.6389C95.3564 77.6017 95.4211 77.5865 95.4843 77.5966L118.917 80.6714C118.979 80.6789 119.036 80.7097 119.077 80.7577C119.118 80.8057 119.138 80.8673 119.135 80.9301C119.131 80.9922 119.103 81.0504 119.058 81.0935C119.013 81.1366 118.954 81.1617 118.892 81.164C113.917 81.3431 113.419 84.0647 112.424 89.493C111.956 92.3371 111.314 95.1502 110.504 97.9165C107.439 107.957 104.22 108.479 103.584 108.479ZM103.544 107.982C103.618 107.982 106.857 108.166 110.011 97.7722C110.819 95.022 111.46 92.2257 111.932 89.3984C112.792 84.6468 113.32 81.7362 116.907 80.9053L95.6485 78.114C95.2853 80.2883 92.6635 97.0656 97.9917 104.514C98.6243 105.447 99.445 106.238 100.401 106.835C101.357 107.432 102.428 107.823 103.544 107.982Z" fill="#171717"/>
<path d="M105.489 34.3447C105.489 34.3447 111.434 35.3398 110.061 44.1216C108.375 54.8736 99.9867 91.8863 99.7827 100.165C99.5788 108.445 103.514 108.226 103.514 108.226L49.0775 102.584C49.0775 102.584 46.5204 100.499 52.1123 79.1988C57.7042 57.8987 62.7936 39.7033 65.7687 38.2754C68.7437 36.8474 105.489 34.3447 105.489 34.3447Z" fill="white"/>
<path d="M103.489 108.48C103.357 108.475 103.226 108.46 103.096 108.435L49.0775 102.832C49.0298 102.828 48.9847 102.809 48.9482 102.778C48.6696 102.554 46.4209 99.9864 51.8934 79.1341C58.2863 54.7791 62.8384 39.4098 65.6841 38.0465C68.6691 36.6334 103.992 34.1955 105.484 34.0959H105.544C105.603 34.0959 111.713 35.2503 110.315 44.1564C109.693 48.1368 108.205 55.4458 106.479 63.934C103.519 78.4773 100.171 94.9611 100.041 100.17C99.937 104.415 100.947 106.32 101.813 107.171C102.18 107.553 102.65 107.82 103.166 107.942L103.549 107.982C103.615 107.982 103.678 108.008 103.725 108.055C103.771 108.101 103.798 108.165 103.798 108.231C103.798 108.297 103.771 108.36 103.725 108.407C103.678 108.453 103.615 108.48 103.549 108.48H103.489ZM49.2069 102.345L101.753 107.793C101.653 107.716 101.559 107.633 101.469 107.544C100.096 106.211 99.4494 103.723 99.534 100.156C99.6633 94.9064 103.016 78.3977 106.001 63.8345C107.728 55.3761 109.215 48.0273 109.832 44.0818C111.121 35.8871 105.977 34.688 105.494 34.5935C104.24 34.6781 68.7537 37.1409 65.893 38.4993C62.908 39.9123 57.351 60.282 52.371 79.2585C50.1223 87.8213 48.8885 94.3044 48.7741 98.5335C48.6646 101.27 49.0775 102.141 49.2069 102.345Z" fill="#171717"/>
<path d="M61.515 33.2353C61.515 33.2353 55.351 32.9467 53.9431 40.6687C53.1521 45.0023 44.6896 79.9154 44.6896 79.9154L85.3105 88.7419C94.9371 89.1847 97.3052 44.3705 97.3052 44.3705C97.3052 44.3705 97.2803 34.3548 105.469 34.3548C105.489 34.3448 66.6841 32.1656 61.515 33.2353Z" fill="white"/>
<path d="M85.4696 88.9856H85.3204L44.6597 80.1492C44.6267 80.144 44.5952 80.1314 44.5677 80.1125C44.5401 80.0936 44.5172 80.0687 44.5005 80.0397C44.4833 80.0117 44.4718 79.9806 44.4667 79.9482C44.4615 79.9157 44.4629 79.8826 44.4707 79.8506C44.5552 79.5024 52.9282 44.8978 53.7192 40.6189C55.0973 33.0661 61.0175 32.9666 61.515 32.9765C66.7437 31.9367 103.927 34.0065 105.509 34.096C105.541 34.0973 105.572 34.1049 105.601 34.1183C105.631 34.1318 105.657 34.1508 105.678 34.1744C105.7 34.198 105.717 34.2256 105.728 34.2557C105.739 34.2858 105.744 34.3178 105.743 34.3498C105.74 34.4145 105.713 34.4758 105.667 34.5211C105.621 34.5664 105.559 34.5924 105.494 34.5936C104.557 34.5627 103.624 34.7233 102.752 35.0655C101.879 35.4077 101.086 35.9243 100.42 36.5838C97.6037 39.3999 97.5788 44.3306 97.5788 44.3804C97.4793 46.2014 95.1062 88.9856 85.4696 88.9856ZM45.0129 79.7163L85.395 88.4931C89.1461 88.6821 92.36 81.1194 94.7032 66.6755C96.4743 55.6648 97.0813 44.455 97.0863 44.3455C97.0863 44.1465 97.0863 39.176 100.071 36.2056C100.881 35.3939 101.876 34.7926 102.972 34.4543C94.2853 33.9965 65.898 32.5835 61.5996 33.4592H61.515C61.2712 33.4592 55.545 33.28 54.2018 40.6886C53.4605 44.8033 45.7741 76.5718 45.0129 79.7163Z" fill="#171717"/>
<path d="M85.3304 88.7318C85.3304 88.7318 76.639 87.5874 78.6091 77.8355L39.8041 74.7407L43.1374 85.3982L85.3304 88.7318Z" fill="white"/>
<path d="M85.3303 88.9606L43.1075 85.647C43.0588 85.6417 43.0128 85.6224 42.9748 85.5915C42.9369 85.5606 42.9086 85.5194 42.8936 85.4728L39.5553 74.8104C39.544 74.7714 39.5421 74.7303 39.5499 74.6905C39.5577 74.6506 39.5749 74.6133 39.6001 74.5815C39.6255 74.55 39.6584 74.5253 39.6958 74.5096C39.7331 74.494 39.7738 74.4879 39.814 74.4919L78.619 77.5867C78.6891 77.5964 78.7529 77.6319 78.7981 77.6862C78.8187 77.7146 78.8333 77.7469 78.841 77.7811C78.8487 77.8153 78.8493 77.8507 78.8429 77.8852C78.231 80.9053 78.5991 83.3582 79.9324 85.2489C81.8926 87.9954 85.3204 88.483 85.3552 88.488C85.4212 88.4926 85.4826 88.5232 85.526 88.5732C85.5694 88.6231 85.5911 88.6882 85.5865 88.7542C85.5819 88.8201 85.5513 88.8816 85.5014 88.925C85.4514 88.9684 85.3863 88.9901 85.3204 88.9855L85.3303 88.9606ZM43.3264 85.1444L83.0368 88.284C81.6486 87.6938 80.4454 86.7398 79.5543 85.5226C78.1763 83.5921 77.7633 81.0795 78.3255 78.0593L40.1523 75.0293L43.3264 85.1444Z" fill="#171717"/>
<path d="M91.9571 99.4091L52.5103 96.0109C52.4776 96.0083 52.4457 95.9994 52.4165 95.9845C52.3872 95.9696 52.3612 95.9491 52.34 95.9241C52.3187 95.8992 52.3026 95.8702 52.2925 95.839C52.2825 95.8078 52.2787 95.7749 52.2814 95.7422C52.2832 95.7094 52.2917 95.6774 52.3065 95.648C52.3212 95.6187 52.3418 95.5927 52.367 95.5717C52.3922 95.5507 52.4215 95.5351 52.453 95.5259C52.4845 95.5167 52.5175 95.5141 52.5501 95.5183L92.0018 98.9165C92.0678 98.9198 92.1298 98.9492 92.1741 98.9982C92.2184 99.0472 92.2415 99.1118 92.2382 99.1778C92.2349 99.2437 92.2055 99.3057 92.1565 99.35C92.1075 99.3943 92.0429 99.4174 91.977 99.4141L91.9571 99.4091Z" fill="#B8BABA"/>
<path d="M89.375 94.0306L49.9232 90.6323C49.8906 90.6294 49.8588 90.6201 49.8297 90.6048C49.8007 90.5896 49.7749 90.5688 49.7539 90.5436C49.7114 90.4928 49.6909 90.4272 49.6969 90.3612C49.7028 90.2952 49.7347 90.2343 49.7856 90.1918C49.8364 90.1494 49.902 90.1289 49.968 90.1348L89.375 93.5331C89.4405 93.5394 89.5011 93.5709 89.5438 93.6211C89.5865 93.6712 89.608 93.736 89.6038 93.8017C89.5993 93.8609 89.5737 93.9165 89.5317 93.9585C89.4897 94.0005 89.4342 94.026 89.375 94.0306Z" fill="#B8BABA"/>
<path d="M61.9379 70.9147L56.6445 70.4171C56.5787 70.41 56.5182 70.378 56.4753 70.3276C56.4554 70.3017 56.4407 70.2721 56.4321 70.2405C56.4236 70.2089 56.4214 70.1759 56.4256 70.1435L57.4505 61.8842C57.458 61.8199 57.4902 61.7611 57.5404 61.7202C57.5905 61.6794 57.6546 61.6596 57.7191 61.6652L63.0125 62.1628C63.0452 62.1658 63.077 62.1753 63.106 62.1907C63.1351 62.206 63.1608 62.227 63.1817 62.2524C63.2219 62.3068 63.2413 62.3739 63.2364 62.4414L62.2065 70.6958C62.199 70.76 62.1668 70.8188 62.1166 70.8597C62.0665 70.9006 62.0024 70.9203 61.9379 70.9147ZM56.9231 69.9196L61.719 70.3823L62.6842 62.6205L57.8883 62.1578L56.9231 69.9196Z" fill="#B8BABA"/>
<path d="M62.6443 65.2076H62.6195L57.331 64.7101C57.2979 64.7067 57.2658 64.6966 57.2367 64.6804C57.2076 64.6641 57.1821 64.642 57.1619 64.6156C57.14 64.5907 57.1237 64.5613 57.1143 64.5295C57.1048 64.4977 57.1024 64.4643 57.1072 64.4315L57.4256 61.879C57.4331 61.8148 57.4653 61.756 57.5155 61.7151C57.5657 61.6742 57.6298 61.6545 57.6942 61.6601L62.9876 62.1577C63.0203 62.1607 63.0521 62.1702 63.0812 62.1855C63.1102 62.2009 63.1359 62.2219 63.1568 62.2472C63.197 62.3017 63.2164 62.3688 63.2115 62.4363L62.8931 64.9837C62.8869 65.0453 62.858 65.1024 62.812 65.1438C62.766 65.1852 62.7062 65.208 62.6443 65.2076ZM57.6345 64.2125L62.4304 64.6802L62.6841 62.6204L57.8882 62.1577L57.6345 64.2125Z" fill="#B8BABA"/>
<path d="M69.8382 71.6807L64.5497 71.1832C64.4831 71.1753 64.4222 71.1413 64.3806 71.0886C64.3587 71.0637 64.3424 71.0344 64.333 71.0026C64.3235 70.9708 64.3211 70.9373 64.3259 70.9045L66.1716 56.0626C66.1747 56.0307 66.1841 55.9998 66.1994 55.9716C66.2147 55.9434 66.2355 55.9186 66.2605 55.8987C66.2856 55.8787 66.3144 55.864 66.3453 55.8554C66.3762 55.8468 66.4085 55.8445 66.4402 55.8487L71.7336 56.3462C71.7994 56.3534 71.8599 56.3854 71.9028 56.4358C71.9232 56.4625 71.9381 56.4929 71.9466 56.5254C71.9551 56.5578 71.9572 56.5916 71.9525 56.6249L70.1118 71.4618C70.1031 71.5265 70.0698 71.5853 70.0188 71.6261C69.9679 71.6668 69.9032 71.6864 69.8382 71.6807ZM64.8283 70.6856L69.6242 71.1533L71.4053 56.804L66.6094 56.3413L64.8283 70.6856Z" fill="#B8BABA"/>
<path d="M71.2959 59.9584L66.0074 59.4609C65.9393 59.4532 65.8769 59.4193 65.8333 59.3664C65.8131 59.3406 65.7982 59.311 65.7897 59.2794C65.7811 59.2478 65.7791 59.2147 65.7836 59.1823L66.1716 56.0626C66.1747 56.0307 66.1841 55.9998 66.1994 55.9716C66.2147 55.9434 66.2355 55.9186 66.2606 55.8987C66.2856 55.8787 66.3145 55.864 66.3453 55.8554C66.3762 55.8468 66.4085 55.8445 66.4403 55.8487L71.7337 56.3462C71.7994 56.3534 71.86 56.3854 71.9028 56.4358C71.9232 56.4625 71.9381 56.4929 71.9466 56.5254C71.9552 56.5578 71.9572 56.5916 71.9526 56.6249L71.5645 59.7395C71.557 59.8038 71.5247 59.8626 71.4746 59.9035C71.4244 59.9443 71.3603 59.9641 71.2959 59.9584ZM66.2811 58.9634L71.077 59.431L71.4053 56.804L66.6094 56.3413L66.2811 58.9634Z" fill="#B8BABA"/>
<path d="M77.7434 72.447H77.7186L72.4252 71.9494C72.3924 71.9457 72.3607 71.9356 72.3319 71.9195C72.3031 71.9035 72.2778 71.8819 72.2574 71.8559C72.2371 71.83 72.2221 71.8003 72.2133 71.7685C72.2045 71.7367 72.2021 71.7035 72.2063 71.6708L75.8281 42.5045C75.8312 42.4724 75.8406 42.4413 75.8558 42.4129C75.871 42.3844 75.8917 42.3593 75.9167 42.339C75.9417 42.3186 75.9705 42.3034 76.0014 42.2942C76.0323 42.2851 76.0647 42.2821 76.0967 42.2856L81.3901 42.7831C81.4565 42.792 81.5169 42.8258 81.5593 42.8777C81.5795 42.9034 81.5943 42.933 81.6029 42.9646C81.6114 42.9963 81.6135 43.0293 81.609 43.0617L77.9872 72.233C77.9799 72.2924 77.951 72.347 77.9061 72.3864C77.8611 72.4259 77.8032 72.4474 77.7434 72.447ZM72.7286 71.4519L77.5245 71.9196L81.0866 43.2458L76.2907 42.7781L72.7286 71.4519Z" fill="#B8BABA"/>
<path d="M80.9175 46.8481L75.6241 46.3505C75.5913 46.3469 75.5596 46.3367 75.5308 46.3206C75.502 46.3046 75.4767 46.283 75.4564 46.257C75.436 46.2311 75.421 46.2014 75.4122 46.1696C75.4034 46.1378 75.401 46.1046 75.4052 46.0719L75.848 42.5045C75.8511 42.4724 75.8605 42.4413 75.8757 42.4129C75.8909 42.3844 75.9116 42.3593 75.9366 42.339C75.9616 42.3186 75.9904 42.3034 76.0213 42.2942C76.0522 42.2851 76.0846 42.2821 76.1166 42.2856L81.41 42.7831C81.4764 42.792 81.5368 42.8258 81.5792 42.8777C81.5994 42.9034 81.6142 42.933 81.6228 42.9646C81.6313 42.9963 81.6334 43.0293 81.6289 43.0617L81.1861 46.6292C81.183 46.6613 81.1736 46.6924 81.1584 46.7208C81.1432 46.7492 81.1225 46.7743 81.0975 46.7947C81.0725 46.815 81.0437 46.8303 81.0128 46.8394C80.9819 46.8486 80.9495 46.8515 80.9175 46.8481ZM75.9027 45.853L80.6986 46.3207L81.0817 43.2458L76.2858 42.7781L75.9027 45.853Z" fill="#B8BABA"/>
<path d="M85.6438 73.2183H85.6189L80.3305 72.7207C80.2973 72.7177 80.265 72.7079 80.2357 72.6922C80.2063 72.6764 80.1804 72.6548 80.1595 72.6289C80.1386 72.6029 80.1232 72.5729 80.1141 72.5409C80.105 72.5088 80.1025 72.4752 80.1066 72.4421L81.3305 62.5906C81.338 62.5267 81.3704 62.4684 81.4207 62.4283C81.471 62.3883 81.5352 62.3697 81.5991 62.3767L86.8925 62.8742C86.9253 62.8779 86.957 62.8881 86.9858 62.9042C87.0146 62.9202 87.0399 62.9418 87.0602 62.9678C87.0806 62.9937 87.0956 63.0234 87.1044 63.0552C87.1132 63.087 87.1156 63.1202 87.1114 63.1529L85.8925 72.9994C85.8842 73.0596 85.8545 73.1149 85.8088 73.155C85.7632 73.1952 85.7046 73.2177 85.6438 73.2183ZM80.634 72.2232L85.4299 72.6909L86.589 63.3519L81.7931 62.8842L80.634 72.2232Z" fill="#B8BABA"/>
<path d="M86.4348 66.8397L81.1414 66.3422C81.0747 66.3343 81.0139 66.3003 80.9722 66.2476C80.9326 66.1986 80.913 66.1364 80.9175 66.0735L81.3503 62.5906C81.3578 62.5267 81.3903 62.4684 81.4406 62.4283C81.4909 62.3883 81.555 62.3697 81.619 62.3767L86.9124 62.8742C86.9451 62.8779 86.9768 62.8881 87.0056 62.9042C87.0344 62.9202 87.0597 62.9418 87.0801 62.9678C87.1005 62.9937 87.1155 63.0234 87.1243 63.0552C87.1331 63.087 87.1354 63.1202 87.1313 63.1529L86.7034 66.6108C86.6971 66.6764 86.6655 66.7369 86.6154 66.7796C86.5653 66.8223 86.5005 66.8439 86.4348 66.8397ZM81.425 65.8446L86.2209 66.3123L86.589 63.327L81.7931 62.8593L81.425 65.8446Z" fill="#B8BABA"/>
<path d="M88.6735 73.5366H88.6486L54.3858 70.213C54.3531 70.2099 54.3213 70.2003 54.2923 70.1849C54.2633 70.1694 54.2376 70.1483 54.2168 70.1229C54.196 70.0974 54.1804 70.0681 54.171 70.0366C54.1616 70.0051 54.1585 69.9721 54.1619 69.9394C54.1644 69.9068 54.1734 69.8752 54.1883 69.8462C54.2033 69.8172 54.2239 69.7915 54.2489 69.7706C54.274 69.7497 54.303 69.7341 54.3342 69.7246C54.3654 69.7152 54.3982 69.712 54.4306 69.7155L88.6984 73.0391C88.7305 73.0422 88.7616 73.0516 88.79 73.0668C88.8184 73.0821 88.8435 73.1028 88.8639 73.1278C88.8843 73.1527 88.8995 73.1815 88.9086 73.2124C88.9178 73.2433 88.9207 73.2757 88.9173 73.3078C88.9124 73.3694 88.8847 73.427 88.8396 73.4693C88.7945 73.5116 88.7353 73.5356 88.6735 73.5366Z" fill="#B8BABA"/>
<path d="M93.962 48.1169L85.5045 47.3507C85.4393 47.3444 85.3793 47.3126 85.3374 47.2623C85.2955 47.212 85.2751 47.1473 85.2806 47.082C85.2831 47.0493 85.2921 47.0174 85.307 46.9882C85.3218 46.959 85.3424 46.933 85.3673 46.9117C85.3923 46.8904 85.4212 46.8743 85.4525 46.8642C85.4837 46.8542 85.5166 46.8504 85.5493 46.8532L94.0068 47.6244C94.0393 47.6268 94.071 47.6358 94.0999 47.6508C94.1289 47.6657 94.1546 47.6863 94.1755 47.7114C94.1964 47.7364 94.212 47.7654 94.2215 47.7966C94.2309 47.8278 94.2341 47.8606 94.2306 47.893C94.2243 47.9582 94.1926 48.0182 94.1423 48.0602C94.092 48.1021 94.0272 48.1225 93.962 48.1169Z" fill="#B8BABA"/>
<path d="M93.8177 50.2016L85.3602 49.4304C85.3277 49.428 85.296 49.419 85.267 49.404C85.238 49.3891 85.2123 49.3685 85.1915 49.3434C85.1706 49.3184 85.1549 49.2894 85.1455 49.2582C85.136 49.227 85.1329 49.1942 85.1363 49.1618C85.1388 49.1293 85.1478 49.0976 85.1627 49.0686C85.1776 49.0396 85.1983 49.0139 85.2233 48.993C85.2484 48.9722 85.2773 48.9565 85.3085 48.947C85.3397 48.9376 85.3725 48.9344 85.4049 48.9379L93.8624 49.7041C93.895 49.7066 93.9266 49.7156 93.9556 49.7305C93.9846 49.7455 94.0103 49.7661 94.0312 49.7911C94.052 49.8162 94.0677 49.8452 94.0772 49.8764C94.0866 49.9076 94.0897 49.9403 94.0863 49.9728C94.0838 50.0055 94.0749 50.0374 94.06 50.0666C94.0451 50.0958 94.0246 50.1218 93.9996 50.1431C93.9746 50.1644 93.9457 50.1805 93.9145 50.1905C93.8833 50.2006 93.8504 50.2044 93.8177 50.2016Z" fill="#B8BABA"/>
<path d="M93.6734 52.2864L85.2159 51.5152C85.1832 51.5122 85.1515 51.5029 85.1224 51.4877C85.0934 51.4724 85.0676 51.4516 85.0466 51.4265C85.0041 51.3756 84.9836 51.31 84.9895 51.244C84.9955 51.178 85.0274 51.1171 85.0782 51.0746C85.1291 51.0322 85.1947 51.0117 85.2607 51.0176L93.7182 51.7838C93.7828 51.7914 93.8421 51.8234 93.8838 51.8734C93.9255 51.9234 93.9463 51.9876 93.942 52.0525C93.9402 52.0857 93.9317 52.1181 93.9171 52.1479C93.9025 52.1777 93.882 52.2043 93.857 52.2261C93.832 52.2479 93.8028 52.2644 93.7713 52.2748C93.7398 52.2851 93.7065 52.2891 93.6734 52.2864Z" fill="#B8BABA"/>
<path d="M91.4645 54.182L85.0866 53.6049C85.0538 53.6017 85.0221 53.5922 84.993 53.5767C84.964 53.5612 84.9384 53.5402 84.9176 53.5147C84.8967 53.4893 84.8812 53.46 84.8718 53.4285C84.8623 53.397 84.8593 53.3639 84.8627 53.3312C84.8652 53.2987 84.8742 53.267 84.8891 53.238C84.904 53.209 84.9247 53.1833 84.9497 53.1625C84.9747 53.1416 85.0037 53.1259 85.0349 53.1165C85.0661 53.107 85.0989 53.1039 85.1313 53.1073L91.5093 53.6845C91.542 53.6876 91.5738 53.6971 91.6028 53.7126C91.6318 53.7281 91.6575 53.7491 91.6783 53.7746C91.6991 53.8 91.7147 53.8294 91.7241 53.8609C91.7335 53.8924 91.7366 53.9254 91.7332 53.9581C91.7307 53.9906 91.7217 54.0223 91.7068 54.0513C91.6918 54.0803 91.6712 54.106 91.6462 54.1268C91.6211 54.1477 91.5921 54.1634 91.5609 54.1728C91.5297 54.1823 91.4969 54.1854 91.4645 54.182Z" fill="#B8BABA"/>
<path d="M43.1075 75.7607C44.4242 73.1351 46.2291 70.7846 48.4258 68.8348C51.958 65.7849 54.0724 63.5658 52.963 62.9588C51.8535 62.3518 48.182 64.949 48.182 64.949L50.7441 54.0825C50.7441 54.0825 44.8438 58.8142 43.1075 62.2423C41.3712 65.6704 37.9484 72.8949 37.9484 72.8949L43.1075 75.7607Z" fill="white"/>
<path d="M43.1075 76.0245C43.0659 76.0241 43.025 76.0139 42.9881 75.9947L37.824 73.1387C37.7689 73.1081 37.7274 73.0577 37.708 72.9977C37.6886 72.9376 37.6927 72.8724 37.7196 72.8153C37.7544 72.7457 41.1672 65.5511 42.8886 62.1578C44.6099 58.7646 50.3511 54.1125 50.5899 53.9184C50.632 53.8884 50.6824 53.8723 50.7342 53.8723C50.7859 53.8723 50.8363 53.8884 50.8784 53.9184C50.9221 53.9453 50.9562 53.9852 50.9758 54.0326C50.9954 54.0799 50.9997 54.1323 50.9879 54.1821L48.58 64.3968C49.7292 63.6306 52.1073 62.2076 53.0873 62.745C53.2027 62.8018 53.3019 62.8867 53.3758 62.9919C53.4497 63.0971 53.4959 63.2192 53.5102 63.347C53.6097 64.2774 52.1819 65.9193 48.5949 69.019C46.4287 70.9503 44.6464 73.2731 43.3413 75.8653C43.3271 75.8969 43.3065 75.9251 43.2808 75.9482C43.2551 75.9713 43.2249 75.9889 43.1921 75.9997L43.1075 76.0245ZM38.2718 72.8153L43.003 75.4324C44.3306 72.8735 46.1144 70.5787 48.2666 68.6608C49.4655 67.6209 53.1222 64.4615 53.0077 63.4166C53.0039 63.3677 52.9865 63.3209 52.9575 63.2813C52.9285 63.2418 52.889 63.2111 52.8436 63.1927C52.1321 62.8096 49.6994 64.1878 48.3263 65.1829C48.2848 65.2116 48.2355 65.227 48.1851 65.2271C48.1346 65.2271 48.0853 65.2118 48.0438 65.1832C48.0022 65.1546 47.9704 65.114 47.9524 65.0669C47.9344 65.0197 47.9312 64.9683 47.9432 64.9192L50.3362 54.7742C48.8437 56.0529 44.7094 59.6651 43.3314 62.3817C41.7742 65.4267 38.8389 71.5864 38.2618 72.8004L38.2718 72.8153Z" fill="#171717"/>
<path d="M42.6996 47.7785C42.0779 47.7775 41.4705 47.5923 40.9541 47.2462C40.4377 46.9 40.0355 46.4086 39.7983 45.8339C39.5611 45.2592 39.4995 44.6271 39.6214 44.0175C39.7433 43.4079 40.0431 42.848 40.483 42.4088C40.923 41.9695 41.4832 41.6705 42.093 41.5496C42.7028 41.4286 43.3347 41.4912 43.9089 41.7293C44.4832 41.9675 44.9739 42.3705 45.3192 42.8875C45.6645 43.4045 45.8488 44.0123 45.8488 44.634C45.8474 45.4684 45.5151 46.2682 44.9246 46.8578C44.3342 47.4474 43.5339 47.7785 42.6996 47.7785ZM42.6996 41.987C42.1763 41.988 41.6651 42.1441 41.2305 42.4356C40.7959 42.727 40.4575 43.1407 40.2579 43.6245C40.0583 44.1083 40.0066 44.6403 40.1093 45.1534C40.212 45.6666 40.4645 46.1378 40.8348 46.5074C41.2052 46.8771 41.6768 47.1287 42.19 47.2305C42.7033 47.3322 43.2352 47.2795 43.7186 47.079C44.2019 46.8785 44.615 46.5392 44.9056 46.1041C45.1962 45.6689 45.3513 45.1573 45.3513 44.634C45.3499 43.9315 45.07 43.2583 44.5728 42.762C44.0757 42.2658 43.402 41.987 42.6996 41.987Z" fill="#171717"/>
<path d="M21.8891 57.1922C20.5857 57.1325 19.2822 56.9086 17.7698 56.7792C16.3619 56.6598 14.551 56.1324 14.5211 54.7244C14.4963 53.5153 15.949 52.5252 15.6306 51.3559C15.5208 51.0431 15.3519 50.7542 15.1331 50.5051C13.1224 47.8074 12.2331 44.4364 12.6513 41.0978C13.0695 37.7591 14.7628 34.7117 17.3768 32.5934C16.9788 32.7277 16.5609 32.3346 16.5211 31.9167C16.5212 31.4955 16.6812 31.09 16.9688 30.7823C17.9638 29.5733 19.4116 28.8817 20.8842 28.399C25.5855 26.8517 30.7595 27.0208 35.5057 28.399C39.1623 29.4688 43.5453 32.3794 43.0627 36.7927C42.8886 38.3799 41.6448 39.9272 40.0777 39.9969C39.2618 44.7236 36.7843 47.9577 33.6699 51.3709C31.5783 53.7305 28.9338 55.5341 25.9736 56.62C24.6634 57.0792 23.2751 57.2737 21.8891 57.1922Z" fill="#171717"/>
<path d="M22.4613 57.4509H21.8792C21.1081 57.4161 20.3469 57.3265 19.541 57.227C18.9688 57.1623 18.3768 57.0927 17.75 57.0379C15.5958 56.8538 14.2973 55.9931 14.2675 54.7393C14.3145 54.1234 14.5315 53.5326 14.8943 53.0327C15.2227 52.4804 15.5311 51.958 15.3918 51.4306C15.2995 51.1713 15.1594 50.9317 14.9789 50.724L14.9341 50.6594C12.9463 47.9869 12.0348 44.6651 12.3804 41.3522C12.7259 38.0393 14.3032 34.9772 16.7997 32.7725L16.74 32.7376C16.6042 32.6515 16.4892 32.5363 16.4032 32.4004C16.3172 32.2644 16.2623 32.1112 16.2425 31.9515C16.2277 31.465 16.4067 30.9926 16.74 30.638C17.8495 29.2498 19.5708 28.5682 20.7748 28.1502C25.2523 26.6576 30.4959 26.6576 35.5405 28.1502C39.7295 29.3792 43.7443 32.5287 43.2767 36.8076C43.1025 38.3699 41.9285 40.0267 40.227 40.2208C39.3315 45.1117 36.6749 48.3607 33.7943 51.5301C31.6796 53.9056 29.0099 55.7209 26.0234 56.814C24.8814 57.2292 23.6764 57.4446 22.4613 57.4509ZM21.8991 56.9534C23.2505 57.0269 24.6031 56.8325 25.8791 56.3812C28.7905 55.321 31.3914 53.551 33.4461 51.2315C36.8888 47.4452 39.033 44.3952 39.7942 39.9869C39.8032 39.9306 39.8314 39.879 39.874 39.841C39.9166 39.8029 39.971 39.7807 40.028 39.778C41.5205 39.7133 42.6498 38.1759 42.7991 36.7927C43.2369 32.8123 39.4111 29.827 35.4212 28.6677C30.4462 27.2198 25.3319 27.2149 20.9489 28.6677C19.8096 29.0458 18.1778 29.6926 17.148 30.9714C16.8964 31.2277 16.7553 31.5724 16.755 31.9316C16.7654 32.0146 16.7935 32.0943 16.8372 32.1655C16.881 32.2367 16.9394 32.2978 17.0087 32.3446C17.0479 32.3724 17.0927 32.3913 17.14 32.3999C17.1872 32.4085 17.2358 32.4066 17.2823 32.3943C17.3376 32.3753 17.3978 32.3763 17.4524 32.3973C17.507 32.4182 17.5524 32.4577 17.5808 32.5088C17.6077 32.5605 17.6159 32.6199 17.6041 32.677C17.5923 32.7341 17.5613 32.7854 17.5161 32.8222C14.9566 34.9008 13.2989 37.8878 12.8892 41.1596C12.4794 44.4314 13.3493 47.7351 15.3172 50.3807L15.3669 50.4404C15.5852 50.6992 15.7539 50.9961 15.8644 51.3161C16.0634 52.0475 15.6853 52.6844 15.3172 53.3063C15.0054 53.7286 14.8129 54.227 14.76 54.7492C14.7898 56.1921 17.0783 56.5006 17.7798 56.5603C18.4813 56.62 19.0136 56.6847 19.5907 56.7543C20.3867 56.8489 21.1379 56.9384 21.8892 56.9733L21.8991 56.9534Z" fill="#171717"/>
<path d="M41.3165 46.8879C41.3165 46.8879 44.6846 52.4406 43.9035 53.5352C43.1224 54.6298 40.6847 53.7889 40.6847 53.7889" fill="white"/>
<path d="M42.4459 54.3411C41.8195 54.3311 41.1985 54.2237 40.6051 54.0227C40.5434 54.0012 40.4926 53.9563 40.4637 53.8976C40.4349 53.8389 40.4303 53.7713 40.4509 53.7092C40.4734 53.6471 40.5193 53.5963 40.5788 53.5675C40.6382 53.5387 40.7066 53.5342 40.7693 53.555C41.3961 53.7689 43.1473 54.162 43.6996 53.3908C44.1722 52.7291 42.4658 49.2661 41.1026 47.0172C41.0855 46.9892 41.074 46.958 41.069 46.9255C41.064 46.893 41.0654 46.8598 41.0733 46.8279C41.0812 46.796 41.0953 46.7659 41.1148 46.7395C41.1344 46.7131 41.159 46.6908 41.1872 46.6739C41.2148 46.6569 41.2456 46.6455 41.2777 46.6406C41.3098 46.6356 41.3426 46.6371 41.3741 46.645C41.4057 46.6529 41.4353 46.667 41.4613 46.6864C41.4873 46.7059 41.5091 46.7304 41.5255 46.7585C42.1026 47.7088 44.9433 52.5101 44.1025 53.6794C43.8992 53.9139 43.6427 54.0963 43.3545 54.2114C43.0663 54.3265 42.7548 54.371 42.4459 54.3411Z" fill="#171717"/>
<path d="M40.829 39.7035C43.0329 41.6489 42.222 45.5546 42.1026 48.112C41.94 51.7077 41.6913 55.2983 41.3563 58.884C41.1474 61.1578 35.242 60.9786 34.2271 60.2572L34.8042 69.2977L22.5856 64.0834L23.3767 56.6201C23.3767 56.6201 27.3965 56.8042 29.879 52.2467C32.3615 47.6891 32.4262 37.5889 32.4262 37.5889C32.4262 37.5889 38.6748 37.8028 40.829 39.7035Z" fill="white"/>
<path d="M34.8043 69.5563C34.7715 69.5637 34.7375 69.5637 34.7048 69.5563L22.4862 64.3221C22.4376 64.2997 22.3972 64.2628 22.3704 64.2164C22.3437 64.1701 22.332 64.1166 22.3369 64.0633L23.1329 56.6399C23.1403 56.577 23.171 56.5192 23.2189 56.4778C23.2667 56.4364 23.3283 56.4143 23.3916 56.416C23.5458 56.416 27.287 56.5305 29.6601 52.1719C32.0879 47.7238 32.1775 37.743 32.1775 37.6286C32.1789 37.5631 32.2057 37.5007 32.2521 37.4544C32.2754 37.4296 32.3042 37.4104 32.3361 37.3983C32.368 37.3862 32.4022 37.3816 32.4362 37.3848C32.6949 37.3848 38.7942 37.6087 40.9932 39.5441C42.9185 41.2457 42.6598 44.3057 42.4508 46.7636C42.411 47.2611 42.3712 47.7238 42.3513 48.1517C42.1872 51.7391 41.9334 55.3662 41.6051 58.9336C41.5653 59.3764 41.3066 59.9984 40.3265 60.4263C38.6947 61.1776 35.7644 61.1079 34.5008 60.6701L35.053 69.2926C35.0553 69.3349 35.0469 69.3771 35.0286 69.4153C35.0104 69.4536 34.9828 69.4866 34.9485 69.5115C34.906 69.5405 34.8557 69.556 34.8043 69.5563ZM22.8643 63.9141L34.5406 68.9194L33.9884 60.282C33.9852 60.2349 33.9955 60.1879 34.018 60.1465C34.0405 60.1051 34.0743 60.0709 34.1155 60.048C34.1567 60.025 34.2036 60.0143 34.2506 60.0169C34.2977 60.0196 34.3431 60.0356 34.3814 60.063C35.048 60.5606 38.3912 60.7745 40.1325 59.9785C40.7444 59.6949 41.0777 59.3217 41.1275 58.8689C41.4558 55.3065 41.7096 51.6893 41.8737 48.1119C41.8737 47.6741 41.9334 47.2014 41.9782 46.7039C42.1722 44.3554 42.421 41.4348 40.6797 39.8974C38.8589 38.2903 33.8739 37.937 32.6899 37.8724C32.665 39.5143 32.4113 48.1866 30.1178 52.3908C27.9338 56.3712 24.5408 56.8688 23.6503 56.8688L22.8643 63.9141Z" fill="#171717"/>
<path d="M41.3712 56.1972C41.3712 56.1972 38.5206 57.8043 37.1475 54.8638L41.3712 56.1972Z" fill="white"/>
<path d="M39.6598 56.8837C39.3561 56.8868 39.0538 56.8415 38.7643 56.7494C38.3491 56.5997 37.9701 56.3641 37.6521 56.0581C37.334 55.752 37.0841 55.3823 36.9186 54.9731C36.8928 54.9122 36.8913 54.8437 36.9144 54.7817C36.9375 54.7197 36.9835 54.6689 37.043 54.6398C37.0723 54.6256 37.1042 54.6174 37.1367 54.6158C37.1692 54.6141 37.2017 54.619 37.2324 54.6302C37.263 54.6413 37.291 54.6584 37.3149 54.6806C37.3388 54.7028 37.358 54.7295 37.3713 54.7592C37.5107 55.1022 37.7204 55.4123 37.9869 55.6693C38.2534 55.9264 38.5707 56.1248 38.9186 56.2518C39.7062 56.4403 40.5354 56.3359 41.2518 55.9583C41.3092 55.926 41.3771 55.9179 41.4405 55.9356C41.5039 55.9533 41.5577 55.9955 41.5901 56.0528C41.6211 56.1105 41.6285 56.1779 41.6109 56.241C41.5933 56.304 41.552 56.3578 41.4956 56.3911C40.9303 56.6959 40.3017 56.8645 39.6598 56.8837Z" fill="#171717"/>
<path d="M26.496 48.7438C26.473 48.7483 26.4493 48.7483 26.4263 48.7438C26.3952 48.7352 26.366 48.7205 26.3406 48.7005C26.3152 48.6805 26.294 48.6557 26.2782 48.6275C26.2625 48.5992 26.2525 48.5681 26.2489 48.536C26.2453 48.5038 26.2481 48.4713 26.2572 48.4403C26.7547 46.6839 27.1029 46.6591 27.2522 46.6491C27.5308 46.6491 39.3663 45.1565 45.5801 44.4002C45.6125 44.3953 45.6456 44.397 45.6774 44.4052C45.7091 44.4134 45.7389 44.4279 45.7649 44.4479C45.7909 44.4679 45.8126 44.4929 45.8287 44.5214C45.8449 44.55 45.855 44.5815 45.8587 44.6141C45.8672 44.6794 45.8494 44.7454 45.8093 44.7977C45.7692 44.8499 45.71 44.8841 45.6448 44.8928C44.9234 44.9823 28.3467 47.0322 27.3318 47.1417C27.0701 47.589 26.8741 48.0716 26.7497 48.5746C26.733 48.6275 26.6987 48.673 26.6526 48.7038C26.6064 48.7345 26.5512 48.7486 26.496 48.7438Z" fill="#171717"/>
<path d="M34.3316 48.9279C34.3316 48.0273 33.8789 47.1964 33.4162 46.4402C33.0881 45.812 32.6652 45.238 32.1625 44.7385C31.9123 44.4928 31.6108 44.3055 31.2796 44.1902C30.9484 44.075 30.5958 44.0345 30.2471 44.0718C29.9441 44.1364 29.6581 44.2642 29.4078 44.4468C29.1575 44.6294 28.9485 44.8628 28.7944 45.1316C28.5012 45.6768 28.3313 46.2798 28.2969 46.8979C28.1875 48.2458 28.4341 49.5987 29.0122 50.8212C29.5902 52.0438 30.4793 53.0929 31.5904 53.8636L31.4013 53.6397" fill="white"/>
<path d="M31.5854 54.1322C31.5356 54.1313 31.4871 54.1157 31.4461 54.0875C30.2989 53.2874 29.3812 52.201 28.7842 50.9361C28.1872 49.6713 27.9317 48.2722 28.0432 46.878C28.0847 46.2193 28.2734 45.5783 28.5954 45.0022C28.7662 44.701 29 44.4402 29.2807 44.2376C29.5615 44.0349 29.8826 43.8952 30.2223 43.828C30.6082 43.7813 30.9997 43.8224 31.3675 43.9482C31.7353 44.074 32.07 44.2812 32.3466 44.5544C32.8681 45.0636 33.3093 45.6491 33.655 46.2909C34.0878 47.0223 34.65 47.9328 34.6052 48.9328C34.6015 48.998 34.5732 49.0593 34.5262 49.1045C34.4791 49.1497 34.4167 49.1755 34.3515 49.1766C34.3188 49.176 34.2866 49.1689 34.2567 49.1558C34.2267 49.1427 34.1997 49.1238 34.177 49.1003C34.1544 49.0767 34.1366 49.0489 34.1247 49.0185C34.1129 48.988 34.1071 48.9556 34.1077 48.9229C34.1077 48.0621 33.6102 47.2213 33.2271 46.5446C32.9123 45.9487 32.5117 45.4022 32.0381 44.9226C31.8152 44.7015 31.5462 44.5324 31.2504 44.4275C30.9545 44.3226 30.6391 44.2843 30.3267 44.3156C30.0593 44.3748 29.8073 44.4895 29.587 44.6524C29.3668 44.8153 29.1832 45.0226 29.0482 45.2609C28.7599 45.7706 28.5898 46.3385 28.5506 46.9227C28.455 48.15 28.6627 49.3819 29.1555 50.5099C29.6483 51.6379 30.411 52.6273 31.3764 53.3909C31.4171 53.3859 31.4583 53.391 31.4965 53.4057C31.5347 53.4205 31.5686 53.4444 31.5953 53.4755L31.7844 53.6994C31.8243 53.7448 31.8463 53.8031 31.8463 53.8636C31.8463 53.924 31.8243 53.9823 31.7844 54.0277C31.7612 54.059 31.7313 54.0846 31.6968 54.1027C31.6624 54.1208 31.6243 54.1309 31.5854 54.1322Z" fill="#171717"/>
<path d="M40.3869 45.3361C40.6671 45.3317 40.8852 44.7513 40.8741 44.0396C40.8629 43.328 40.6267 42.7547 40.3464 42.7591C40.0662 42.7635 39.8481 43.344 39.8593 44.0556C39.8705 44.7672 40.1067 45.3405 40.3869 45.3361Z" fill="#171717"/>
<path d="M6.49152 127.456C6.49152 127.456 2.45679 81.6069 9.10837 72.2281C15.7599 62.8493 32.0929 61.3418 39.6499 67.392C47.2069 73.4421 52.953 127.869 52.953 127.869C52.953 127.869 27.9586 143.482 6.49152 127.456Z" fill="#FC3060"/>
<path d="M64.3879 61.3501L66.255 60.7369L68.5445 67.7094C68.6211 67.9426 68.6019 68.1967 68.4911 68.4157C68.3804 68.6347 68.1872 68.8008 67.954 68.8774L67.8453 68.9131C67.6122 68.9897 67.3581 68.9705 67.1391 68.8597C66.9201 68.749 66.754 68.5558 66.6775 68.3226L64.3879 61.3501Z" fill="white"/>
<path d="M67.5547 69.203C67.3077 69.2003 67.0677 69.1207 66.868 68.9754C66.6683 68.8301 66.5188 68.6261 66.4403 68.392L64.1518 61.4263C64.1269 61.3657 64.1269 61.2978 64.1518 61.2372C64.166 61.2077 64.1862 61.1814 64.211 61.16C64.2358 61.1386 64.2648 61.1225 64.296 61.1128L66.1617 60.4958C66.2244 60.4768 66.292 60.4827 66.3504 60.5124C66.4089 60.5421 66.4535 60.5932 66.4751 60.6551L68.7636 67.6208C68.8134 67.7677 68.8336 67.9231 68.823 68.0779C68.8123 68.2328 68.7712 68.3839 68.7018 68.5227C68.6324 68.6615 68.5361 68.7852 68.4187 68.8866C68.3012 68.988 68.1648 69.0651 68.0174 69.1134L67.9079 69.1482C67.7937 69.1845 67.6745 69.203 67.5547 69.203ZM64.699 61.5009L66.9129 68.2377C66.9695 68.4082 67.0911 68.5495 67.2512 68.6308C67.4063 68.7055 67.5837 68.7197 67.7487 68.6706L67.8582 68.6358C68.0283 68.579 68.169 68.4569 68.2493 68.2965C68.3295 68.136 68.3427 67.9502 68.286 67.78L66.0771 61.0432L64.699 61.5009Z" fill="#171717"/>
<path d="M64.7829 54.3153L61.7673 55.3057L64.0072 62.1269L67.0228 61.1365L64.7829 54.3153Z" fill="white"/>
<path d="M64.0025 62.3667C63.9499 62.3673 63.8985 62.3513 63.8556 62.3209C63.8127 62.2905 63.7805 62.2473 63.7637 62.1975L61.515 55.3761C61.4901 55.3155 61.4901 55.2476 61.515 55.187C61.5292 55.1575 61.5494 55.1312 61.5742 55.1098C61.599 55.0884 61.628 55.0724 61.6593 55.0626L64.6741 54.0675C64.7051 54.0567 64.738 54.0523 64.7707 54.0545C64.8035 54.0567 64.8355 54.0655 64.8647 54.0804C64.894 54.0953 64.92 54.1159 64.9411 54.141C64.9622 54.1662 64.978 54.1953 64.9875 54.2268L67.2263 61.0481C67.2512 61.1087 67.2512 61.1766 67.2263 61.2372C67.2121 61.2667 67.1919 61.293 67.1671 61.3144C67.1423 61.3358 67.1133 61.3519 67.082 61.3616L64.0672 62.3567L64.0025 62.3667ZM62.0772 55.4557L64.1617 61.8044L66.6989 60.9685L64.6194 54.6298L62.0772 55.4557Z" fill="#171717"/>
<path d="M67.5075 66.2124L66.6189 66.5042C66.0315 66.6971 65.7117 67.3297 65.9046 67.9171L69.1006 77.6503C69.2935 78.2377 69.926 78.5575 70.5134 78.3646L71.402 78.0727C71.9893 77.8798 72.3091 77.2473 72.1162 76.6598L68.9202 66.9267C68.7273 66.3393 68.0948 66.0195 67.5075 66.2124Z" fill="white"/>
<path d="M70.1715 78.6615C69.883 78.6616 69.6019 78.5708 69.3679 78.402C69.1339 78.2332 68.959 77.995 68.8681 77.7212L65.6741 67.9891C65.6173 67.8183 65.5948 67.6379 65.6078 67.4583C65.6209 67.2787 65.6692 67.1035 65.7501 66.9426C65.831 66.7818 65.9428 66.6385 66.0792 66.5209C66.2155 66.4034 66.3738 66.3139 66.5448 66.2576L67.4303 65.9691C67.7747 65.8558 68.1499 65.884 68.4736 66.0472C68.7973 66.2105 69.043 66.4955 69.1566 66.8398L72.3556 76.5768C72.4115 76.7477 72.4332 76.9279 72.4195 77.1071C72.4058 77.2864 72.3569 77.4612 72.2755 77.6215C72.1942 77.7819 72.0821 77.9246 71.9456 78.0416C71.8091 78.1586 71.6509 78.2475 71.48 78.3033L70.5944 78.5919C70.4585 78.6391 70.3154 78.6627 70.1715 78.6615ZM67.8582 66.397C67.7652 66.3972 67.6728 66.4124 67.5845 66.4417L66.699 66.7303C66.4819 66.805 66.3031 66.9623 66.2015 67.1682C66.1493 67.2695 66.118 67.3803 66.1095 67.494C66.1009 67.6076 66.1153 67.7219 66.1518 67.8299L69.3457 77.5669C69.4184 77.7859 69.575 77.967 69.7812 78.0706C69.9873 78.1741 70.2261 78.1916 70.4452 78.1192L71.3307 77.8306C71.5498 77.7578 71.7312 77.6014 71.8356 77.3955C71.9399 77.1896 71.9587 76.9508 71.8879 76.731L68.689 66.999C68.6324 66.8244 68.522 66.6722 68.3737 66.564C68.2254 66.4559 68.0467 66.3974 67.8631 66.397H67.8582Z" fill="#171717"/>
<path d="M62.699 61.4859C67.3508 61.4859 71.1217 57.7146 71.1217 53.0624C71.1217 48.4102 67.3508 44.6389 62.699 44.6389C58.0473 44.6389 54.2764 48.4102 54.2764 53.0624C54.2764 57.7146 58.0473 61.4859 62.699 61.4859Z" fill="white"/>
<path d="M62.6941 61.7397C60.5056 61.7432 58.3962 60.9219 56.7862 59.4393C55.1763 57.9568 54.1841 55.9219 54.0073 53.7404C53.8306 51.5588 54.4823 49.3908 55.8326 47.6683C57.1829 45.9459 59.1327 44.7956 61.2932 44.4467C63.4537 44.0979 65.6663 44.576 67.49 45.7859C69.3138 46.9957 70.6147 48.8484 71.1334 50.9748C71.6522 53.1011 71.3508 55.3448 70.2892 57.2588C69.2276 59.1728 67.4839 60.6164 65.4055 61.3019C64.5303 61.5892 63.6153 61.7369 62.6941 61.7397ZM62.6941 44.8828C61.4008 44.8838 60.1262 45.1914 58.9749 45.7806C57.8236 46.3697 56.8284 47.2235 56.0709 48.2719C55.3135 49.3202 54.8155 50.5333 54.6177 51.8115C54.4199 53.0897 54.528 54.3965 54.9331 55.6248C55.4035 57.0561 56.2602 58.3296 57.4087 59.3046C58.5572 60.2796 59.9527 60.9182 61.4413 61.1499C62.9298 61.3816 64.4534 61.1974 65.8439 60.6176C67.2343 60.0379 68.4375 59.0851 69.3206 57.8645C70.2037 56.6439 70.7323 55.203 70.8481 53.7008C70.9639 52.1986 70.6624 50.6937 69.9768 49.3522C69.2912 48.0106 68.2483 46.8846 66.9631 46.0986C65.6779 45.3125 64.2006 44.8969 62.6941 44.8977V44.8828Z" fill="#171717"/>
<path d="M62.6991 59.9038C66.4771 59.9038 69.5397 56.8408 69.5397 53.0625C69.5397 49.2841 66.4771 46.2212 62.6991 46.2212C58.9211 46.2212 55.8585 49.2841 55.8585 53.0625C55.8585 56.8408 58.9211 59.9038 62.6991 59.9038Z" fill="white"/>
<path d="M62.7041 60.1526C61.3975 60.1532 60.1162 59.7928 59.0015 59.111C57.8869 58.4293 56.9823 57.4527 56.3877 56.2892C55.7931 55.1257 55.5316 53.8204 55.632 52.5176C55.7324 51.2148 56.1909 49.965 56.9568 48.9064C57.7226 47.8477 58.7662 47.0214 59.9721 46.5185C61.178 46.0156 62.4995 45.8558 63.7905 46.0567C65.0815 46.2577 66.2919 46.8115 67.288 47.657C68.2841 48.5026 69.0272 49.6071 69.4352 50.8484C69.7852 51.913 69.8778 53.0454 69.7055 54.1527C69.5332 55.26 69.1009 56.3107 68.444 57.2186C67.7872 58.1265 66.9245 58.8658 65.9268 59.3758C64.929 59.8858 63.8246 60.152 62.7041 60.1526ZM62.7041 46.465C61.3103 46.4663 59.9527 46.9092 58.8262 47.7299C57.6996 48.5507 56.8619 49.7072 56.4333 51.0336C56.0047 52.36 56.0071 53.788 56.4403 55.1129C56.8735 56.4378 57.7151 57.5915 58.8445 58.4084C59.9739 59.2253 61.3329 59.6634 62.7267 59.66C64.1205 59.6565 65.4774 59.2117 66.6027 58.3892C67.7281 57.5668 68.564 56.409 68.9907 55.082C69.4173 53.755 69.4127 52.3269 68.9775 51.0026C68.5469 49.6775 67.7061 48.5236 66.5765 47.7079C65.447 46.8922 64.0873 46.4569 62.6941 46.465H62.7041Z" fill="#171717"/>
<path d="M61.515 81.7961L61.8483 79.3083C61.8483 79.2038 62.0175 71.5266 62.6792 70.9346C63.3408 70.3425 71.9277 64.1132 72.5297 64.964C73.1316 65.8148 71.9625 67.4169 71.9625 67.4169C71.9625 67.4169 73.9774 67.2129 73.7734 68.412C73.5694 69.6111 72.3655 70.8301 72.3655 70.8301C72.3655 70.8301 73.5993 69.9245 73.7883 71.2331C73.842 71.6123 73.7943 71.9989 73.6501 72.3538C73.5059 72.7086 73.2704 73.0189 72.9675 73.2531C72.9675 73.2531 74.7833 72.4471 74.3804 73.9547C73.9774 75.4623 69.5596 79.2984 69.5596 79.2984L69.0273 82.5822L61.515 81.7961Z" fill="white"/>
<path d="M69.0123 82.8408L61.5498 82.0448H61.52C61.2961 81.99 61.2961 81.99 61.6046 79.7411L61.6643 79.2933C61.6643 79.2485 61.7936 71.4718 62.5797 70.7603C63.0772 70.2976 70.9974 64.4763 72.47 64.6455C72.5346 64.6489 72.5977 64.6667 72.6545 64.6977C72.7113 64.7287 72.7605 64.7721 72.7983 64.8246C73.2958 65.5261 72.7983 66.576 72.465 67.1581C72.9589 67.1418 73.4419 67.3063 73.8232 67.6208C73.9233 67.735 73.996 67.8706 74.0357 68.0172C74.0754 68.1638 74.0809 68.3175 74.052 68.4666C73.9033 69.1323 73.6075 69.7562 73.1864 70.2926C73.3005 70.2886 73.4141 70.3089 73.5197 70.3524C73.6801 70.4331 73.8156 70.5557 73.912 70.7073C74.0083 70.8588 74.0619 71.0336 74.0669 71.2131C74.1513 71.7676 74.0349 72.334 73.7386 72.8102C73.9958 72.7704 74.2583 72.8329 74.4699 72.9844C74.5962 73.1244 74.68 73.2975 74.7117 73.4833C74.7434 73.6692 74.7217 73.8602 74.649 74.0342C74.256 75.5269 70.4053 78.9301 69.8183 79.4426L69.3208 82.6368C69.3149 82.671 69.3021 82.7036 69.2832 82.7326C69.2643 82.7616 69.2396 82.7864 69.2107 82.8055C69.1818 82.8247 69.1493 82.8377 69.1152 82.8437C69.0811 82.8498 69.0461 82.8488 69.0123 82.8408ZM61.8135 81.5771L68.8034 82.3184L69.3009 79.2684C69.3079 79.2105 69.3363 79.1572 69.3805 79.1192C70.5944 78.0693 73.8082 75.084 74.1266 73.9049C74.1963 73.6312 74.1913 73.4073 74.1266 73.3575C73.9475 73.2083 73.3953 73.3575 73.0719 73.4869C73.0161 73.512 72.9529 73.5152 72.8948 73.4959C72.8368 73.4765 72.7881 73.436 72.7585 73.3824C72.7266 73.3294 72.7166 73.266 72.7305 73.2056C72.7444 73.1453 72.7812 73.0927 72.8331 73.059C73.0983 72.8522 73.3042 72.579 73.43 72.2672C73.5558 71.9553 73.597 71.6157 73.5495 71.2828C73.5197 71.0987 73.46 70.8748 73.3058 70.8101C73.062 70.7056 72.6441 70.9494 72.5147 71.0439C72.4642 71.0801 72.402 71.0961 72.3404 71.0888C72.2787 71.0814 72.222 71.0512 72.1814 71.0041C72.1398 70.9576 72.1168 70.8974 72.1168 70.835C72.1168 70.7726 72.1398 70.7123 72.1814 70.6658C72.1814 70.6658 73.3406 69.4966 73.5247 68.3821C73.5444 68.3088 73.5457 68.2319 73.5283 68.158C73.5109 68.0842 73.4755 68.0159 73.4252 67.9591C73.1167 67.6308 72.256 67.6357 71.9824 67.6606C71.9341 67.6653 71.8855 67.6561 71.8423 67.6341C71.7991 67.6121 71.7631 67.5781 71.7386 67.5362C71.7117 67.4966 71.6973 67.4498 71.6973 67.4019C71.6973 67.354 71.7117 67.3072 71.7386 67.2675C72.0421 66.8596 72.7336 65.6754 72.3406 65.1082C71.475 64.8395 63.7239 70.3474 62.8583 71.1285C62.3608 71.6261 62.107 78.0594 62.107 79.3182C62.107 79.3182 62.0822 79.5172 62.0424 79.8157C62.0125 80.2784 61.8682 81.1541 61.8135 81.5771Z" fill="#171717"/>
<path d="M39.6499 67.397C39.6499 67.397 44.4856 70.3226 48.1074 77.0245C51.7292 83.7265 57.4803 105.146 57.4803 105.146L60.2116 79.1889L70.7834 81.5721C70.7834 81.5721 71.6889 119.386 62.3259 123.64C52.963 127.894 29.0283 101.569 29.0283 101.569L39.6499 67.397Z" fill="#FC3060"/>
<path d="M19.9937 66.188L21.2076 62.2573L37.028 63.7848L37.9385 67.397C37.9385 67.397 29.675 71.3276 19.9937 66.188Z" fill="white"/>
<path d="M30.3665 69.0588C26.7052 69.0517 23.1024 68.139 19.8792 66.4019C19.8283 66.3745 19.7885 66.3302 19.7667 66.2766C19.745 66.223 19.7425 66.1635 19.7598 66.1084L20.9688 62.1777C20.9856 62.1236 21.0204 62.0768 21.0674 62.0451C21.1145 62.0134 21.1709 61.9988 21.2275 62.0036L37.0529 63.536C37.1039 63.5405 37.1523 63.5605 37.1915 63.5935C37.2307 63.6264 37.2587 63.6706 37.2718 63.7201L38.1773 67.3323C38.1919 67.3879 38.1864 67.4467 38.1618 67.4986C38.1372 67.5505 38.0952 67.592 38.043 67.6159C35.606 68.6043 32.996 69.0949 30.3665 69.0588ZM20.2922 66.0735C22.9339 67.489 25.8466 68.3261 28.8367 68.5294C31.8268 68.7327 34.826 68.2975 37.635 67.2527L36.8191 64.0187L21.3966 62.526L20.2922 66.0735Z" fill="#171717"/>
<path d="M52.953 122.112C52.9067 122.114 52.8612 122.1 52.8237 122.073C52.6595 121.973 36.6798 111.753 31.0531 85.1395C31.0458 85.1075 31.0448 85.0743 31.0504 85.0419C31.0559 85.0095 31.0678 84.9786 31.0854 84.9508C31.103 84.9231 31.1259 84.8991 31.1528 84.8802C31.1797 84.8614 31.2101 84.848 31.2421 84.841C31.3073 84.8289 31.3745 84.8424 31.4301 84.8785C31.4856 84.9146 31.5252 84.9706 31.5406 85.035C37.1276 111.445 52.9331 121.555 53.0874 121.655C53.1324 121.684 53.1669 121.727 53.1856 121.777C53.2043 121.827 53.2062 121.882 53.1911 121.934C53.176 121.985 53.1446 122.03 53.1017 122.063C53.0588 122.095 53.0067 122.112 52.953 122.112Z" fill="#171717"/>
<path d="M63.2364 56.6896V57.615C63.2364 57.6683 63.2156 57.7194 63.1784 57.7575C63.1412 57.7956 63.0906 57.8177 63.0374 57.819H61.928C61.8747 57.8177 61.8241 57.7956 61.7869 57.7575C61.7497 57.7194 61.7289 57.6683 61.7289 57.615V56.7194C61.2978 56.6962 60.8698 56.6329 60.4504 56.5303C60.3509 56.5005 60.2564 56.4358 60.2564 56.3264V55.3313C60.2576 55.2802 60.2785 55.2316 60.3146 55.1954C60.3507 55.1593 60.3993 55.1385 60.4504 55.1372C60.8633 55.1919 61.8782 55.2616 62.3508 55.2616C63.0473 55.2616 63.2563 55.0178 63.2563 54.5551C63.2563 54.2615 63.117 54.1023 62.5946 53.7888L61.2066 52.9629C60.8489 52.7943 60.5472 52.5264 60.3373 52.1913C60.1274 51.8561 60.0181 51.4677 60.0225 51.0722C60.0225 50.1567 60.4554 49.4005 61.724 49.1815V48.3158C61.724 48.2626 61.7448 48.2114 61.782 48.1733C61.8191 48.1352 61.8698 48.1131 61.923 48.1118H63.0324C63.0856 48.1131 63.1362 48.1352 63.1734 48.1733C63.2106 48.2114 63.2314 48.2626 63.2314 48.3158V49.1567C63.7329 49.1826 64.2318 49.2458 64.7239 49.3457C64.8234 49.3756 64.913 49.4353 64.913 49.5398V50.5349C64.913 50.5584 64.9083 50.5817 64.8993 50.6034C64.8903 50.6252 64.8771 50.6449 64.8605 50.6615C64.8439 50.6782 64.8241 50.6914 64.8024 50.7004C64.7807 50.7094 64.7574 50.714 64.7339 50.714C64.107 50.6543 63.2811 50.6045 62.5996 50.6045C62.0424 50.6045 61.8235 50.7638 61.8235 51.1369C61.8235 51.3907 61.9528 51.5499 62.5001 51.8434L63.7737 52.535C64.8134 53.1022 65.1468 53.764 65.1468 54.58C65.1491 55.1066 64.9544 55.6151 64.6009 56.0055C64.2474 56.3959 63.7607 56.6399 63.2364 56.6896Z" fill="#FC3060"/>
<path d="M71.1167 43.5345L58.8335 42.4896C58.7979 42.4881 58.7633 42.4783 58.7322 42.461C58.7011 42.4438 58.6744 42.4195 58.6544 42.3901C58.6329 42.3612 58.6177 42.3281 58.61 42.2929C58.6023 42.2578 58.6022 42.2213 58.6096 42.1861L59.6643 37.6335C59.6808 37.5703 59.721 37.5159 59.7766 37.4816C59.8322 37.4473 59.8989 37.4358 59.9628 37.4494C59.9949 37.4565 60.0252 37.4698 60.0521 37.4887C60.079 37.5076 60.102 37.5316 60.1195 37.5593C60.1371 37.5871 60.149 37.618 60.1546 37.6504C60.1601 37.6828 60.1592 37.7159 60.1518 37.748L59.1568 42.0219L71.1565 43.017C71.2225 43.017 71.2858 43.0432 71.3324 43.0899C71.3791 43.1365 71.4053 43.1998 71.4053 43.2658C71.4053 43.3318 71.3791 43.395 71.3324 43.4417C71.2858 43.4884 71.2225 43.5146 71.1565 43.5146L71.1167 43.5345Z" fill="#B8BABA"/>
<path d="M59.7688 42.0916C59.7302 42.0912 59.6923 42.0821 59.6578 42.0648C59.6233 42.0476 59.5932 42.0227 59.5698 41.9921C59.5296 41.9399 59.5118 41.874 59.5202 41.8087C59.5286 41.7434 59.5625 41.6841 59.6145 41.6438C60.5669 40.9151 61.5864 40.2787 62.6592 39.7432C63.0085 39.5278 63.4221 39.4415 63.8284 39.4994C64.2246 39.6364 64.5607 39.9073 64.7786 40.2656C64.9322 40.5118 65.1486 40.7127 65.4054 40.8477C65.6106 40.883 65.8208 40.8765 66.0234 40.8286C66.226 40.7807 66.4168 40.6925 66.5845 40.5691C67.9377 39.8526 69.47 39.0416 70.4252 37.7331C70.4648 37.6803 70.5237 37.6454 70.589 37.636C70.6543 37.6267 70.7207 37.6437 70.7735 37.6833C70.8259 37.7229 70.861 37.7814 70.8712 37.8464C70.8814 37.9114 70.866 37.9778 70.8282 38.0316C69.8033 39.4247 68.2163 40.2656 66.8183 41.0169C66.5921 41.1787 66.3338 41.29 66.0609 41.3432C65.7879 41.3964 65.5067 41.3903 65.2363 41.3254C64.8865 41.1642 64.5909 40.9049 64.3856 40.579C64.1766 40.3104 63.9826 40.0815 63.7139 39.9969C63.4204 39.9699 63.1262 40.0417 62.8781 40.2009C61.8248 40.7184 60.825 41.3383 59.8931 42.0518C59.8561 42.0761 59.8131 42.0899 59.7688 42.0916Z" fill="#B8BABA"/>
</g>
</g>
<defs>
<clipPath id="clip0_185_251">
<rect width="120" height="120" fill="white"/>
</clipPath>
<clipPath id="clip1_185_251">
<rect width="214" height="160" fill="white" transform="translate(-59 -2)"/>
</clipPath>
</defs>
</svg>
