<svg width="120" height="120" viewBox="0 0 120 120" fill="none" xmlns="http://www.w3.org/2000/svg">
<g clip-path="url(#clip0_185_178)">
<path d="M79.5056 122.282C79.4542 122.283 79.4032 122.273 79.3568 122.251C79.2844 122.212 79.2303 122.146 79.206 122.067C79.1817 121.989 79.189 121.904 79.2266 121.831L94.46 93.3524C94.4783 93.3163 94.5037 93.2843 94.5346 93.2582C94.5656 93.2321 94.6015 93.2124 94.6402 93.2004C94.6789 93.1883 94.7197 93.184 94.7601 93.1879C94.8005 93.1918 94.8397 93.2036 94.8754 93.2228C94.9118 93.2417 94.9441 93.2675 94.9704 93.2989C94.9967 93.3302 95.0165 93.3665 95.0286 93.4055C95.0407 93.4445 95.0449 93.4856 95.041 93.5262C95.037 93.5669 95.025 93.6063 95.0056 93.6423L79.7908 122.121C79.763 122.172 79.7216 122.214 79.6712 122.242C79.6208 122.27 79.5634 122.284 79.5056 122.282Z" fill="#171717"/>
<path d="M94.3856 100.676C94.3856 100.676 99.3146 119.666 100.22 124.447L62.3998 123.275L64.3156 93.0439L94.3856 100.676Z" fill="#FC3060"/>
<path d="M69.7282 54.959C69.7282 54.959 61.0482 78.1567 59.7214 78.5824C58.3946 79.0081 39.7822 75.8986 38.1702 75.8431C36.5582 75.7876 30.3458 80.495 30.3458 80.495C30.3458 80.495 57.6754 95.4131 66.0082 91.5509C74.341 87.6888 76.1514 86.9361 76.1514 86.9361C76.1514 86.9361 72.14 54.959 69.7282 54.959Z" fill="white"/>
<path d="M62.4618 92.5566C51.8164 92.5566 31.158 81.3588 30.1722 80.8344C30.1172 80.8055 30.0705 80.7631 30.0365 80.7112C30.0026 80.6593 29.9825 80.5997 29.9781 80.5379C29.9738 80.4762 29.9853 80.4143 30.0117 80.3582C30.0381 80.3021 30.0784 80.2537 30.1288 80.2174C30.7488 79.7362 36.4218 75.4977 38.1516 75.4977C38.7716 75.4977 41.3942 75.911 44.7484 76.4108C49.9936 77.1943 58.7666 78.4961 59.5788 78.2617C60.5832 77.5707 66.1136 63.5348 69.3562 54.8603C69.3853 54.7879 69.4359 54.726 69.5013 54.683C69.5666 54.64 69.6437 54.6179 69.722 54.6197C70.342 54.6197 71.582 54.8233 74.186 70.9137C75.4694 78.8231 76.48 86.8436 76.4862 86.9546C76.4954 87.0338 76.4786 87.1138 76.4383 87.1827C76.3981 87.2516 76.3367 87.3058 76.263 87.3372C76.263 87.3372 74.3472 88.1392 66.1322 91.9459C64.9659 92.4052 63.7149 92.6134 62.4618 92.5566ZM31.0278 80.4457C34.785 82.4385 58.3884 94.679 65.8532 91.224C72.4872 88.1392 75.0168 87.0348 75.7732 86.714C73.969 72.3759 71.3774 57.3714 69.939 55.5082C67.2296 62.7389 61.1908 78.5084 59.8516 78.9527C58.9774 79.2365 52.7402 78.3357 44.6926 77.1388C41.4872 76.6637 38.7282 76.2504 38.1826 76.2319C37.1038 76.2134 33.421 78.675 31.0278 80.4457Z" fill="#171717"/>
<path d="M70.1436 23.383C70.2552 23.2041 70.3606 23.0313 70.4784 22.8524C74.279 16.9913 82.3638 16.4607 87.6338 20.7979C87.9988 21.1469 88.4201 21.4326 88.88 21.6431C89.4482 21.783 90.0307 21.8575 90.616 21.8652C92.6496 22.1305 94.0818 23.9321 95.2102 25.641C98.5086 30.6199 99.0976 38.8563 99.0976 44.7051C99.0976 49.2768 97.994 53.9595 95.1854 57.5996C91.1864 62.7266 84.3912 64.8921 77.8936 65.435C70.6954 66.052 62.6788 64.6206 58.0846 59.0803C56.1564 56.7482 54.9846 53.5277 56.0014 50.6835C56.9004 48.2156 59.2254 46.593 60.9614 44.6249C66.1198 38.8008 66.1384 30.0153 70.1436 23.383Z" fill="#171717"/>
<path d="M74.837 65.9347C67.4528 65.9347 61.3458 63.584 57.7994 59.3085C56.0138 57.1491 54.5072 53.7188 55.6604 50.56C56.3238 48.7091 57.7312 47.3518 59.0952 46.0192C59.6346 45.4948 60.1926 44.9457 60.6948 44.3842C63.5468 41.1513 64.7744 37.0671 66.0764 32.736C67.056 29.4846 68.0604 26.1222 69.8336 23.1916C69.9369 23.0106 70.0485 22.8317 70.1684 22.6549C71.0223 21.3318 72.1516 20.2065 73.48 19.355C74.8085 18.5035 76.3051 17.9457 77.8688 17.7192C79.6399 17.4572 81.4468 17.5714 83.1705 18.0542C84.8941 18.5369 86.4955 19.3774 87.8694 20.5202L88.0182 20.6374C88.3048 20.9139 88.6386 21.1374 89.004 21.2975C89.3392 21.401 89.6884 21.453 90.0394 21.4518C90.2502 21.4518 90.461 21.4518 90.6594 21.5011C92.8294 21.7849 94.3298 23.6543 95.514 25.4374C98.1366 29.4044 99.4634 35.8825 99.4572 44.705C99.4572 48.3513 98.7566 53.5954 95.4644 57.8216C90.988 63.5779 83.4488 65.3362 77.9184 65.7989C76.8706 65.8915 75.86 65.9347 74.837 65.9347ZM70.4598 23.568C68.7362 26.4183 67.7442 29.7376 66.777 32.9458C65.537 37.1596 64.204 41.5154 61.2404 44.8654C60.7258 45.4454 60.1554 46.0007 59.6098 46.5436C58.2458 47.8762 56.9562 49.1348 56.3486 50.813C55.3008 53.6756 56.702 56.8407 58.3636 58.8334C62.2386 63.5038 69.3438 65.7804 77.8626 65.0648C83.2504 64.6082 90.5788 62.9054 94.894 57.3651C98.056 53.2993 98.7256 48.2279 98.7318 44.6865C98.7318 36.0121 97.4484 29.6697 94.9064 25.826C93.8152 24.1788 92.4264 22.4574 90.5664 22.2106C90.3804 22.2106 90.1944 22.2106 90.0022 22.1675C89.581 22.1665 89.1626 22.0999 88.7622 21.97C88.3178 21.7818 87.9105 21.5165 87.5594 21.1865L87.4168 21.0693C86.1217 19.9928 84.6128 19.2005 82.9888 18.7444C81.3648 18.2883 79.6623 18.1786 77.9928 18.4225C76.5312 18.6352 75.1325 19.1572 73.8908 19.9533C72.6491 20.7493 71.5933 21.801 70.7946 23.0374C70.683 23.2101 70.5776 23.3829 70.4722 23.5556L70.4598 23.568Z" fill="#171717"/>
<path d="M64.5263 101.188C64.5263 101.188 63.8319 82.679 64.6379 68.4272C65.0905 60.4499 67.6325 58.6114 69.7281 54.9651C73.5907 48.2403 92.1535 47.2901 99.8167 54.7307C107.48 62.1712 94.3855 100.676 94.3855 100.676L64.5263 101.188Z" fill="#FC3060"/>
<path d="M75.4135 48.7338L74.6634 56.853L76.945 68.0508L87.7143 55.4772C88.1235 48.2094 88.6568 40.9601 88.7684 33.6923C88.7882 33.5325 88.7509 33.3709 88.6629 33.2357C88.5781 33.1654 88.4769 33.1173 88.3687 33.0958C88.2604 33.0743 88.1484 33.0799 88.0429 33.1123L85.904 33.3653L85.6931 29.3427C85.1499 30.0008 84.6781 30.7143 84.2857 31.4712L78.3028 30.953L77.6021 27.3438C77.2305 27.9027 77.0401 28.5616 77.0565 29.2317C76.9759 29.898 76.7031 30.6568 76.0521 30.8358C75.7577 30.8913 75.4543 30.8786 75.1656 30.7987L70.6581 29.9165C70.6147 29.9165 69.846 42.0398 69.9018 43.0516C70.1374 47.3148 75.4135 48.7338 75.4135 48.7338Z" fill="white"/>
<path d="M76.945 68.415H76.852C76.7848 68.3983 76.7239 68.3626 76.6766 68.3123C76.6293 68.2619 76.5976 68.1991 76.5854 68.1312L74.3038 56.9396C74.3008 56.9047 74.3008 56.8696 74.3038 56.8347L75.023 49.0116C73.8636 48.6291 69.7592 47.0065 69.5422 43.0888C69.5422 42.9654 70.1126 29.9167 70.4226 29.6514C70.465 29.6159 70.5148 29.5903 70.5685 29.5764C70.6221 29.5625 70.6782 29.5607 70.7326 29.5712L75.24 30.4411C75.4759 30.5066 75.7232 30.5214 75.9654 30.4843C76.5172 30.33 76.666 29.454 76.697 29.1887L76.728 28.911C76.727 28.2548 76.945 27.6167 77.348 27.0972C77.3925 27.0468 77.4507 27.0101 77.5155 26.9915C77.5803 26.9729 77.6491 26.9732 77.7138 26.9923C77.7798 27.0101 77.8394 27.0462 77.8855 27.0965C77.9316 27.1467 77.9624 27.209 77.9742 27.2761L78.6252 30.6139L84.0874 31.0889C84.4656 30.3856 84.9143 29.722 85.4266 29.1085C85.4738 29.0524 85.537 29.0118 85.6078 28.992C85.6785 28.9722 85.7537 28.9741 85.8234 28.9974C85.8928 29.022 85.9536 29.0658 85.9987 29.1238C86.0437 29.1818 86.0711 29.2514 86.0776 29.3244L86.2574 32.9583L88.012 32.7485C88.1788 32.7093 88.3528 32.7118 88.5183 32.756C88.6839 32.8001 88.8359 32.8845 88.9606 33.0015C89.1065 33.2032 89.1727 33.4514 89.1466 33.6987C89.066 39.2513 88.725 44.9088 88.3964 50.3566C88.2889 52.0676 88.1876 53.7766 88.0926 55.4835C88.0922 55.5657 88.0612 55.6448 88.0058 55.7056L77.224 68.2855C77.1903 68.3266 77.1477 68.3596 77.0994 68.3821C77.0511 68.4045 76.9983 68.4158 76.945 68.415ZM75.0354 56.81L77.1558 67.2181L87.3548 55.3108C87.4478 53.6388 87.547 51.973 87.6524 50.3011C87.9748 44.8471 88.3158 39.1958 88.4026 33.6431C88.4121 33.5715 88.4121 33.4989 88.4026 33.4272C88.3062 33.4097 88.2075 33.4097 88.1112 33.4272L85.966 33.6863C85.864 33.6979 85.7616 33.6691 85.6808 33.6061C85.604 33.5382 85.5572 33.4428 85.5506 33.3408L85.3956 30.3239C85.1129 30.7321 84.8581 31.1587 84.633 31.601C84.5998 31.6659 84.5478 31.7195 84.4836 31.7547C84.4195 31.7899 84.3463 31.8051 84.2734 31.7984L78.2904 31.274C78.2102 31.2683 78.1343 31.236 78.0748 31.1823C78.0152 31.1286 77.9754 31.0567 77.9618 30.9779L77.503 28.6334C77.503 28.7383 77.503 28.8432 77.472 28.9481L77.441 29.2319C77.317 30.2622 76.852 30.9532 76.201 31.1444C75.8527 31.2289 75.4891 31.2289 75.1408 31.1444L71.0302 30.3424C70.869 32.4277 70.2738 42.1819 70.3172 43.0209C70.5342 46.9633 75.5066 48.3576 75.5562 48.37C75.6402 48.3928 75.7135 48.4441 75.7633 48.5152C75.8132 48.5862 75.8364 48.6724 75.829 48.7587L75.0354 56.81Z" fill="#171717"/>
<path d="M85.0483 39.5966C85.4237 38.7071 86.0927 37.9716 86.945 37.5117C87.7972 37.0518 88.7816 36.8949 89.7355 37.067C92.0667 37.684 91.7815 40.3246 90.8701 42.0027C90.5923 42.5025 90.2177 42.9424 89.7679 43.2971C89.3181 43.6518 88.8021 43.9142 88.2497 44.0692C87.6973 44.2241 87.1195 44.2684 86.5498 44.1997C85.9801 44.1309 85.4297 43.9504 84.9305 43.6685" fill="white"/>
<path d="M87.082 44.5818C86.2641 44.5823 85.4603 44.3696 84.7508 43.9648C84.6859 43.9091 84.6428 43.8324 84.6289 43.7483C84.615 43.6641 84.6313 43.5778 84.6748 43.5044C84.7184 43.4309 84.7865 43.375 84.8672 43.3464C84.9479 43.3178 85.0362 43.3183 85.1166 43.3479C85.5726 43.6073 86.076 43.7737 86.5974 43.8375C87.1188 43.9012 87.6477 43.861 88.1533 43.7192C88.6589 43.5773 89.131 43.3367 89.5421 43.0113C89.9533 42.6859 90.2951 42.2823 90.5478 41.824C91.0686 40.8862 91.4034 39.498 90.9818 38.5171C90.8609 38.2471 90.6768 38.0099 90.4449 37.8253C90.2129 37.6407 89.94 37.514 89.6488 37.4559C88.786 37.3059 87.8976 37.4488 87.1262 37.8617C86.3549 38.2746 85.7454 38.9334 85.3956 39.7325C85.3793 39.7778 85.3542 39.8196 85.3217 39.8553C85.2892 39.891 85.25 39.92 85.2062 39.9406C85.1625 39.9613 85.115 39.9731 85.0667 39.9755C85.0183 39.9779 84.97 39.9708 84.9244 39.9546C84.8788 39.9384 84.8369 39.9134 84.801 39.8811C84.7651 39.8487 84.7359 39.8097 84.7152 39.7661C84.6945 39.7226 84.6826 39.6754 84.6802 39.6273C84.6778 39.5792 84.6849 39.5311 84.7012 39.4857C85.1142 38.516 85.8477 37.7158 86.7802 37.2176C87.7127 36.7195 88.7882 36.5532 89.8286 36.7464C90.2344 36.8286 90.6148 37.0058 90.9382 37.2633C91.2616 37.5208 91.5189 37.8511 91.6886 38.2271C92.2466 39.5165 91.7878 41.1638 91.2236 42.1756C90.9226 42.7179 90.5167 43.1955 90.0293 43.5809C89.542 43.9663 88.9828 44.252 88.384 44.4214C87.9598 44.5357 87.5214 44.5897 87.082 44.5818Z" fill="#171717"/>
<path d="M76.1328 34.5994C76.1328 34.5994 72.7104 38.4307 73.287 39.2574C73.8636 40.0841 75.8165 39.8744 75.8165 39.8744" fill="white"/>
<path d="M75.2399 40.2506C74.5393 40.2506 73.4729 40.1334 73.0079 39.467C72.3879 38.5416 74.5331 35.864 75.8785 34.3524C75.9488 34.286 76.042 34.249 76.1389 34.249C76.2359 34.249 76.3291 34.286 76.3993 34.3524C76.4718 34.4175 76.5156 34.5083 76.5214 34.6052C76.5272 34.7022 76.4945 34.7975 76.4303 34.8707C74.7873 36.7216 73.4729 38.6835 73.6155 39.0907C73.9379 39.5472 75.1221 39.5966 75.7979 39.5226C75.846 39.5166 75.8948 39.5201 75.9415 39.533C75.9882 39.5459 76.0319 39.568 76.07 39.5978C76.1081 39.6277 76.1398 39.6647 76.1633 39.7069C76.1869 39.7491 76.2018 39.7955 76.2071 39.8434C76.2176 39.9391 76.1895 40.035 76.1291 40.1101C76.0687 40.1853 75.9808 40.2336 75.8847 40.2444C75.6702 40.2609 75.4548 40.2629 75.2399 40.2506Z" fill="#171717"/>
<path d="M75.4136 48.7338C75.4136 48.7338 78.4639 49.5913 82.3823 47.5369C82.3823 47.5369 80.4604 53.0895 75.0106 53.1265L75.4136 48.7338Z" fill="#171717"/>
<path d="M75.0106 53.4906C74.9595 53.4907 74.9089 53.4804 74.8619 53.4602C74.815 53.4401 74.7727 53.4105 74.7378 53.3734C74.7006 53.3398 74.671 53.2988 74.6507 53.2531C74.6304 53.2074 74.6199 53.158 74.62 53.1081L75.023 48.7153C75.0282 48.6617 75.0447 48.6099 75.0714 48.5631C75.0981 48.5163 75.1344 48.4757 75.178 48.4438C75.2227 48.4132 75.2738 48.3929 75.3274 48.3844C75.381 48.3758 75.4359 48.3793 75.488 48.3945C75.519 48.3945 78.4578 49.1842 82.184 47.2284C82.2487 47.1939 82.3223 47.1796 82.3953 47.1873C82.4682 47.195 82.5372 47.2244 82.5932 47.2716C82.65 47.3196 82.6911 47.3835 82.711 47.455C82.7309 47.5265 82.7287 47.6024 82.7048 47.6726C82.7048 47.7282 80.634 53.4967 74.9858 53.5029L75.0106 53.4906ZM75.7422 49.1719L75.4136 52.7441C78.9786 52.5405 80.882 49.7518 81.6136 48.2958C79.78 49.1374 77.7438 49.4434 75.7422 49.178V49.1719Z" fill="#171717"/>
<path d="M80.9305 35.1233C80.9329 34.4111 80.6795 33.833 80.3645 33.8319C80.0494 33.8309 79.7921 34.4074 79.7898 35.1195C79.7874 35.8316 80.0408 36.4098 80.3559 36.4108C80.6709 36.4119 80.9282 35.8354 80.9305 35.1233Z" fill="#171717"/>
<path d="M73.5956 34.6199C73.6358 33.9088 73.4134 33.3182 73.0989 33.3006C72.7843 33.283 72.4968 33.8451 72.4566 34.5561C72.4164 35.2671 72.6388 35.8578 72.9533 35.8754C73.2678 35.893 73.5554 35.3309 73.5956 34.6199Z" fill="#171717"/>
<path d="M76.4055 42.8109C75.4947 42.7861 74.5942 42.6131 73.7395 42.2989C73.639 42.2577 73.5354 42.2247 73.4295 42.2001C73.3335 42.1835 73.2476 42.1305 73.1899 42.0523C73.1321 41.9742 73.1069 41.8768 73.1195 41.7806C73.1334 41.686 73.1841 41.6007 73.2606 41.5429C73.3372 41.4852 73.4335 41.4598 73.5287 41.4721C73.68 41.5063 73.8291 41.5496 73.9751 41.6017C75.2151 42.0089 78.4391 43.0947 80.1751 39.4732C80.2179 39.3856 80.2938 39.3186 80.3863 39.2868C80.4787 39.2549 80.5801 39.261 80.668 39.3035C80.756 39.3461 80.8234 39.4216 80.8554 39.5136C80.8873 39.6056 80.8813 39.7065 80.8385 39.794C79.6853 42.2001 77.9307 42.8109 76.4055 42.8109Z" fill="#171717"/>
<path d="M99.5254 62.8375C98.3536 72.604 92.352 95.5735 84.0254 93.7781C75.6988 91.9827 58.0722 77.879 57.632 77.4286C57.1918 76.9783 51.0228 75.4112 49.9502 73.4924C48.8776 71.5737 48.58 65.9532 48.58 65.9532C48.58 65.9532 42.597 62.4735 42.7148 61.2149C42.8326 59.9563 54.718 65.5336 55.7038 66.0334C55.7038 66.0334 56.7268 63.0103 58.1218 63.8123C59.5168 64.6144 60.143 69.7968 62.0836 70.6668C64.0242 71.5367 82.3514 80.1309 82.3514 80.1309C82.3514 80.1309 85.3522 61.9121 90.9384 55.6561C93.6416 52.6021 100.697 53.071 99.5254 62.8375Z" fill="white"/>
<path d="M84.943 94.2408C84.6055 94.2395 84.269 94.2044 83.9386 94.1359C75.5252 92.3159 58.0288 78.3602 57.3654 77.6877C56.8657 77.4517 56.3523 77.2457 55.8278 77.0708C53.6826 76.2996 50.44 75.1212 49.6278 73.6652C48.6296 71.876 48.2762 67.1994 48.208 66.1629C46.2674 65.0277 42.2064 62.4611 42.3304 61.1779C42.338 61.0887 42.3682 61.003 42.418 60.9285C42.4679 60.8541 42.5359 60.7934 42.6156 60.7522C43.9238 60.0488 53.4656 64.5526 55.4806 65.5213C55.7472 64.9043 56.3362 63.7074 57.1856 63.3866C57.3647 63.3168 57.5576 63.2893 57.7491 63.3064C57.9407 63.3236 58.1256 63.3848 58.2892 63.4853C59.0332 63.911 59.5292 65.1758 60.0624 66.638C60.5956 68.1002 61.3024 69.914 62.22 70.3397C63.9746 71.1294 79.2514 78.2862 82.06 79.5941C82.587 76.6142 85.501 61.184 90.6532 55.4154C91.3967 54.5901 92.3796 54.015 93.4658 53.7697C94.5521 53.5243 95.6881 53.6208 96.7168 54.0458C99.2836 55.1933 100.437 58.4139 99.9036 62.8807C99.0046 70.3829 94.7948 88.4105 88.1608 93.1117C87.2346 93.8162 86.1084 94.2113 84.943 94.2408ZM43.0806 61.3876C43.3658 62.0848 45.8272 63.9418 48.7412 65.6323C48.7935 65.663 48.8373 65.7061 48.8687 65.7578C48.9001 65.8095 48.9181 65.8681 48.921 65.9285C48.921 65.984 49.2496 71.4811 50.2664 73.332C50.9484 74.5659 54.16 75.7135 56.082 76.4168C56.7164 76.575 57.3228 76.8288 57.88 77.1695C58.593 77.8666 76.046 91.6804 84.0874 93.4141C84.7191 93.5327 85.3691 93.5142 85.9929 93.3598C86.6168 93.2054 87.1998 92.9188 87.702 92.5195C93.7842 88.2007 98.1552 71.0246 99.1472 62.7881C99.6432 58.6607 98.6326 55.7116 96.3882 54.7059C95.5025 54.3406 94.5244 54.2589 93.5899 54.4723C92.6554 54.6857 91.811 55.1836 91.174 55.8967C85.7242 61.9984 82.7048 80.0013 82.6738 80.1803C82.6663 80.2368 82.6448 80.2907 82.6113 80.337C82.5777 80.3833 82.5332 80.4206 82.4816 80.4455C82.4308 80.4715 82.3745 80.4851 82.3173 80.4851C82.2602 80.4851 82.2038 80.4715 82.153 80.4455C81.9732 80.3592 63.8134 71.8513 61.8976 70.9875C60.6948 70.4446 60.0376 68.6369 59.3556 66.8909C58.8968 65.657 58.4194 64.4231 57.9048 64.1146C57.8349 64.0693 57.7551 64.0413 57.6721 64.0327C57.5891 64.0241 57.5052 64.0353 57.4274 64.0652C56.8074 64.2873 56.2432 65.4534 56.0138 66.1382C55.9956 66.1875 55.9675 66.2326 55.9313 66.2708C55.895 66.3089 55.8514 66.3394 55.803 66.3603C55.7542 66.3817 55.7014 66.3928 55.648 66.3928C55.5946 66.3928 55.5419 66.3817 55.493 66.3603C53.9616 65.5459 44.767 61.3938 43.093 61.3938L43.0806 61.3876Z" fill="#171717"/>
<path d="M35.4856 81.7474L52.0582 72.6349L38.6166 35.3828L23.78 46.1179L35.4856 81.7474Z" fill="white"/>
<path d="M35.4856 82.1054C35.4406 82.1142 35.3942 82.1142 35.3492 82.1054C35.2998 82.0861 35.2552 82.0563 35.2188 82.0178C35.1823 81.9794 35.1549 81.9335 35.1384 81.8833L23.4328 46.2538C23.4088 46.1794 23.409 46.0993 23.4335 46.0251C23.458 45.9508 23.5055 45.8862 23.5692 45.8404L38.3996 35.1053C38.4457 35.0711 38.4993 35.0482 38.5559 35.0385C38.6126 35.0288 38.6708 35.0325 38.7257 35.0493C38.7807 35.0661 38.8309 35.0956 38.8723 35.1354C38.9136 35.1751 38.945 35.224 38.9638 35.2781L52.4054 72.5302C52.4342 72.612 52.4332 72.7013 52.4026 72.7825C52.372 72.8636 52.3138 72.9316 52.238 72.9744L35.6654 82.0869C35.608 82.1079 35.5462 82.1143 35.4856 82.1054ZM24.214 46.26L35.6964 81.217L51.6056 72.4623L38.4368 35.9629L24.214 46.26Z" fill="#171717"/>
<path d="M37.4199 78.169H37.3393C37.307 78.1559 37.278 78.1358 37.2544 78.1102C37.2308 78.0846 37.2132 78.0541 37.2029 78.0209L27.0535 47.0618C27.0385 47.0141 27.0388 46.9629 27.0544 46.9154C27.0699 46.8678 27.1 46.8263 27.1403 46.7965L37.1781 39.8495C37.2085 39.8311 37.2422 39.8188 37.2773 39.8135C37.3124 39.8082 37.3483 39.81 37.3827 39.8187C37.4165 39.83 37.4474 39.8485 37.4731 39.8731C37.4988 39.8976 37.5188 39.9275 37.5315 39.9606L49.0512 71.1418C49.069 71.1924 49.0689 71.2475 49.0508 71.298C49.0328 71.3486 48.9979 71.3914 48.952 71.4194L37.5315 78.1381C37.4972 78.1568 37.459 78.1674 37.4199 78.169ZM27.5557 47.0803L37.5502 77.5952L48.5799 71.1233L37.2277 40.3986L27.5557 47.0803Z" fill="#B8BABA"/>
<path d="M35.4856 81.7475L25.2432 79.2489L12.7874 41.7747L23.78 46.1181L35.4856 81.7475Z" fill="white"/>
<path d="M35.4856 82.1052H35.3988L25.1564 79.6374C25.096 79.6226 25.0404 79.5927 24.9948 79.5506C24.9493 79.5085 24.9152 79.4556 24.896 79.3967L12.434 41.9225C12.4125 41.856 12.4104 41.7847 12.428 41.717C12.4456 41.6493 12.482 41.588 12.5332 41.54C12.5849 41.4928 12.6489 41.4609 12.7179 41.4478C12.7869 41.4347 12.8582 41.441 12.9238 41.466L23.9164 45.7847C23.9669 45.805 24.0125 45.8358 24.05 45.8752C24.0874 45.9146 24.1159 45.9616 24.1334 46.013L35.8328 81.6425C35.8531 81.7044 35.8569 81.7705 35.8438 81.8343C35.8308 81.8981 35.8014 81.9574 35.7584 82.0065C35.6839 82.0736 35.586 82.109 35.4856 82.1052ZM25.5284 78.934L34.94 81.2353L23.4948 46.3955L13.3888 42.4038L25.5284 78.934Z" fill="#171717"/>
<path d="M38.4368 71.9377C38.6619 71.9548 38.8748 72.0459 39.042 72.1967C39.2093 72.3475 39.3214 72.5494 39.3606 72.7705C39.3916 73.2641 38.939 73.6405 38.5298 73.9243L35.7832 75.8553C36.7916 75.2739 37.8739 74.8299 39.001 74.5351C39.4708 74.3774 39.9755 74.3539 40.458 74.4672C40.6966 74.5333 40.9035 74.6823 41.0411 74.8872C41.1788 75.092 41.238 75.3392 41.2082 75.5839C41.0955 75.8971 40.8761 76.1612 40.5882 76.3304C39.6274 77.0464 38.5492 77.5912 37.4014 77.9407C38.0311 77.7837 38.6261 77.5117 39.156 77.1386C39.6858 76.7669 40.3029 76.5374 40.9478 76.4723C41.2711 76.4488 41.5929 76.5355 41.86 76.7184C42.1271 76.9012 42.3236 77.1691 42.4172 77.478C42.566 78.243 41.8406 78.9031 41.109 79.1931C40.3774 79.4831 39.559 79.5941 38.97 80.1C39.7307 79.5221 40.6121 79.1215 41.5492 78.9278C41.6852 78.8767 41.8314 78.8584 41.9758 78.8745C42.1203 78.8906 42.2588 78.9406 42.38 79.0204C42.4424 79.0956 42.4888 79.1827 42.5164 79.2763C42.544 79.3699 42.5523 79.4681 42.5407 79.565C42.5291 79.6619 42.4979 79.7554 42.449 79.8399C42.4001 79.9245 42.3344 79.9983 42.256 80.0568C41.9265 80.2829 41.5621 80.4538 41.1772 80.5628C39.125 81.408 38.1764 84.2645 35.963 84.4928C32.7018 84.8136 30.662 79.5016 31.003 76.8548C31.344 74.2081 35.963 71.6168 38.4368 71.9377Z" fill="white"/>
<path d="M35.6654 84.8755C35.1525 84.8578 34.6487 84.736 34.1849 84.5174C33.7211 84.2989 33.3071 83.9882 32.9684 83.6046C31.3308 81.732 30.4941 79.2963 30.6372 76.818C31.0216 73.98 35.7026 71.2654 38.4864 71.5862C38.7962 71.6151 39.0871 71.7472 39.3121 71.961C39.5372 72.1748 39.6831 72.458 39.7264 72.7646C39.706 73.0747 39.6043 73.374 39.4313 73.6328C39.2583 73.8915 39.0202 74.1006 38.7406 74.2391L38.908 74.1959C39.4456 74.0118 40.026 73.9903 40.5758 74.1342C40.9004 74.2289 41.1796 74.4372 41.3619 74.7207C41.5443 75.0041 41.6174 75.3437 41.5678 75.6766C41.5245 75.8488 41.4465 76.0105 41.3384 76.1517C41.6822 76.1914 42.0057 76.3342 42.266 76.5612C42.5262 76.7882 42.7109 77.0887 42.7954 77.4226C42.8307 77.6397 42.8197 77.8618 42.7631 78.0744C42.7065 78.287 42.6055 78.4853 42.4668 78.6566C42.6046 78.7316 42.7183 78.8438 42.7951 78.9801C42.8718 79.1165 42.9085 79.2716 42.9008 79.4278C42.8988 79.6009 42.8603 79.7716 42.7876 79.9289C42.715 80.0863 42.6099 80.2266 42.4792 80.3409C42.214 80.5454 41.9136 80.7001 41.5926 80.7974L41.3012 80.9023C40.4541 81.354 39.7174 81.986 39.1436 82.7532C38.2632 83.7403 37.3518 84.7521 35.9816 84.8879L35.6654 84.8755ZM37.978 72.2772C35.5352 72.2772 31.6726 74.6525 31.3688 76.9044C31.2558 79.1563 32.0172 81.3652 33.4954 83.074C33.7884 83.4219 34.1591 83.6967 34.5778 83.8767C34.9966 84.0566 35.4518 84.1367 35.9072 84.1105C36.9984 84.0056 37.7672 83.1357 38.5918 82.2164C39.2405 81.3735 40.071 80.6862 41.0222 80.2051L41.3384 80.0817C41.5748 80.0172 41.7975 79.9106 41.9956 79.7671C42.0977 79.672 42.1598 79.5419 42.1692 79.4031C42.1707 79.3807 42.1676 79.3582 42.1602 79.337C42.1527 79.3158 42.141 79.2963 42.1258 79.2797C42.0238 79.2235 41.9041 79.208 41.791 79.2365C41.6234 79.3471 41.4447 79.4402 41.2578 79.5141C41.0284 79.6005 40.7928 79.6745 40.551 79.7486C40.1865 79.8504 39.8333 79.9889 39.497 80.1619L39.2056 80.3717C39.1304 80.4304 39.0351 80.4574 38.94 80.447C38.845 80.4367 38.7579 80.3897 38.6972 80.3162C38.6368 80.2428 38.6075 80.1489 38.6156 80.0545C38.6237 79.96 38.6686 79.8724 38.7406 79.8103C38.8538 79.7105 38.9763 79.6216 39.1064 79.545C39.8287 79.0639 40.6368 78.7246 41.4872 78.5455C41.6664 78.4445 41.8136 78.2957 41.9122 78.1158C42.0108 77.9359 42.0569 77.7321 42.0452 77.5275C41.9666 77.3053 41.8163 77.1153 41.6178 76.9869C41.4193 76.8586 41.1838 76.7992 40.9478 76.818C40.7362 76.8292 40.5274 76.8708 40.3278 76.9414C39.7607 77.3222 39.1562 77.6446 38.5236 77.9039C38.1934 78.0865 37.8352 78.2136 37.4634 78.2802C37.3689 78.3023 37.2694 78.2861 37.1868 78.2352C37.1042 78.1843 37.0454 78.1028 37.0232 78.0087C37.001 77.9147 37.0173 77.8157 37.0684 77.7335C37.1196 77.6514 37.2015 77.5928 37.296 77.5707C37.6076 77.4784 37.9139 77.3692 38.2136 77.2437C38.4244 77.1327 38.629 77.0093 38.8336 76.8797L38.9576 76.8057C39.2842 76.6061 39.6263 76.4328 39.9806 76.2874L40.365 76.016C40.5736 75.891 40.7365 75.7029 40.83 75.4792C40.8982 75.2077 40.6192 74.8931 40.3278 74.8005C39.9157 74.7086 39.4859 74.7343 39.0878 74.8746C38.0008 75.1605 36.9579 75.5922 35.9878 76.1579C35.9049 76.2043 35.8074 76.2173 35.7151 76.1944C35.6229 76.1714 35.543 76.1142 35.4918 76.0345C35.4413 75.9553 35.4234 75.8598 35.4419 75.7679C35.4603 75.6759 35.5138 75.5946 35.591 75.5409L38.3376 73.6098C38.6786 73.3692 39.032 73.0792 39.0072 72.7769C38.9824 72.4746 38.6848 72.3204 38.3872 72.2833C38.2511 72.2722 38.1144 72.2701 37.978 72.2772Z" fill="#171717"/>
<path d="M88.7001 41.2996L86.4868 46.6239L90.5601 46.9756L88.7001 41.2996Z" fill="#171717"/>
<path d="M90.5602 47.3394L86.4868 46.9878C86.4294 46.9847 86.3738 46.9672 86.325 46.937C86.2762 46.9068 86.2359 46.8649 86.2078 46.815C86.1772 46.7667 86.1585 46.712 86.1531 46.6552C86.1477 46.5984 86.1558 46.5411 86.1768 46.488L88.3902 41.1575C88.4157 41.087 88.4624 41.0262 88.524 40.9831C88.5856 40.9401 88.659 40.917 88.7343 40.917C88.8095 40.917 88.8829 40.9401 88.9445 40.9831C89.0061 41.0262 89.0528 41.087 89.0784 41.1575L90.9384 46.8335C90.9559 46.8889 90.96 46.9475 90.9506 47.0047C90.9411 47.062 90.9182 47.1162 90.8839 47.163C90.8495 47.2098 90.8045 47.248 90.7526 47.2743C90.7007 47.3007 90.6433 47.3145 90.585 47.3148L90.5602 47.3394ZM87.02 46.3215L90.0394 46.5806L88.6568 42.3729L87.02 46.3215Z" fill="#171717"/>
<path d="M-42.901 119.771H81.409L61.2466 97.8872H-22.7448L-42.901 119.771Z" fill="white"/>
<path d="M81.44 120.073H-42.901C-42.9598 120.075 -43.0177 120.059 -43.0674 120.027C-43.117 119.996 -43.1563 119.951 -43.1802 119.897C-43.204 119.844 -43.2115 119.785 -43.2015 119.727C-43.1916 119.669 -43.1647 119.616 -43.1242 119.573L-22.968 97.6837C-22.9095 97.6229 -22.8294 97.5875 -22.7448 97.585H61.2466C61.2887 97.5848 61.3303 97.5935 61.3688 97.6105C61.4073 97.6275 61.4417 97.6525 61.4698 97.6837L81.626 119.573C81.666 119.616 81.6928 119.668 81.7029 119.725C81.7131 119.783 81.7061 119.841 81.683 119.895C81.6599 119.948 81.6217 119.993 81.5729 120.025C81.5242 120.057 81.4672 120.073 81.409 120.073H81.44ZM-42.188 119.456H80.7208L61.1164 98.1649H-22.5836L-42.188 119.456Z" fill="#171717"/>
<path d="M-42.963 126.199L81.5143 126.199V119.876L-42.963 119.876V126.199Z" fill="#171717"/>
<path d="M81.5144 126.526H-42.9693C-43.0124 126.526 -43.0551 126.518 -43.095 126.502C-43.1349 126.485 -43.1711 126.461 -43.2016 126.431C-43.2321 126.4 -43.2563 126.364 -43.2728 126.325C-43.2894 126.285 -43.2979 126.242 -43.2979 126.199V119.876C-43.2979 119.833 -43.2894 119.79 -43.2728 119.75C-43.2563 119.711 -43.2321 119.675 -43.2016 119.644C-43.1711 119.614 -43.1349 119.59 -43.095 119.573C-43.0551 119.557 -43.0124 119.549 -42.9693 119.549H81.5144C81.5572 119.549 81.5996 119.557 81.6392 119.574C81.6787 119.59 81.7145 119.614 81.7445 119.645C81.7746 119.675 81.7982 119.711 81.814 119.751C81.8298 119.791 81.8376 119.833 81.8368 119.876V126.199C81.8376 126.242 81.8298 126.284 81.814 126.324C81.7982 126.364 81.7746 126.4 81.7445 126.43C81.7145 126.461 81.6787 126.485 81.6392 126.501C81.5996 126.518 81.5572 126.526 81.5144 126.526ZM-42.6406 125.872H81.1857V120.203H-42.6406V125.872Z" fill="#171717"/>
<path d="M24.6418 63.3744C23.067 63.3744 20.9218 61.0854 19.5082 57.7415C17.9086 53.9781 17.8962 50.5046 19.5082 49.8321C21.1202 49.1596 23.6064 51.5843 25.206 55.3477C26.8118 59.1173 26.818 62.5908 25.206 63.2633C25.0274 63.3379 24.8355 63.3757 24.6418 63.3744ZM20.06 50.1776C19.9222 50.177 19.7855 50.2021 19.657 50.2516C18.3488 50.8069 18.4728 54.1508 19.9236 57.5626C21.3744 60.9744 23.7118 63.3867 25.0138 62.8376C26.3158 62.2885 26.2042 58.9384 24.7534 55.5266C23.4514 52.448 21.4178 50.1776 20.06 50.1776Z" fill="#B8BABA"/>
<path d="M22.5028 49.0116C22.4784 49.0176 22.4528 49.0176 22.4284 49.0116L16.2594 46.9386C16.2304 46.9296 16.2035 46.9148 16.1805 46.8951C16.1574 46.8755 16.1387 46.8513 16.1253 46.8242C16.112 46.797 16.1043 46.7675 16.1029 46.7373C16.1014 46.7071 16.1061 46.6769 16.1168 46.6486C16.1266 46.6203 16.1418 46.5941 16.1618 46.5716C16.1817 46.5491 16.2059 46.5308 16.233 46.5176C16.26 46.5044 16.2894 46.4967 16.3195 46.4948C16.3495 46.493 16.3797 46.497 16.4082 46.5067L22.5772 48.592C22.6347 48.6117 22.6821 48.6533 22.7088 48.7076C22.7356 48.762 22.7395 48.8248 22.7198 48.882C22.7018 48.9235 22.6712 48.9583 22.6322 48.9815C22.5933 49.0048 22.548 49.0153 22.5028 49.0116Z" fill="#B8BABA"/>
<path d="M29.019 68.8714H28.9756L23.16 67.7671C23.1299 67.7627 23.101 67.7522 23.0751 67.7362C23.0492 67.7203 23.0268 67.6993 23.0094 67.6744C22.992 67.6496 22.9798 67.6214 22.9737 67.5917C22.9677 67.5621 22.9677 67.5314 22.974 67.5018C22.986 67.4415 23.0213 67.3883 23.0724 67.3537C23.1234 67.3191 23.186 67.3058 23.2468 67.3167L29.0624 68.4211C29.0921 68.4263 29.1205 68.4373 29.146 68.4534C29.1715 68.4696 29.1935 68.4906 29.2108 68.5153C29.228 68.5399 29.2403 68.5677 29.2467 68.5971C29.2532 68.6264 29.2537 68.6568 29.2484 68.6863C29.2382 68.7391 29.2096 68.7866 29.1676 68.8205C29.1256 68.8544 29.073 68.8724 29.019 68.8714Z" fill="#B8BABA"/>
<path d="M29.98 71.4813H29.9366L24.09 70.3831C24.0294 70.3712 23.976 70.336 23.9412 70.2852C23.9064 70.2345 23.8931 70.1721 23.904 70.1117C23.9099 70.082 23.9217 70.0538 23.9386 70.0287C23.9556 70.0036 23.9774 69.9821 24.0028 69.9654C24.0282 69.9488 24.0566 69.9373 24.0865 69.9317C24.1164 69.9261 24.1471 69.9264 24.1768 69.9327L29.98 71.0001C30.0101 71.0045 30.039 71.015 30.0649 71.0309C30.0908 71.0468 30.1132 71.0679 30.1306 71.0927C30.148 71.1176 30.1601 71.1457 30.1662 71.1754C30.1723 71.2051 30.1722 71.2357 30.166 71.2654C30.1631 71.3167 30.1433 71.3656 30.1097 71.4046C30.0761 71.4436 30.0305 71.4706 29.98 71.4813Z" fill="#B8BABA"/>
<path d="M30.7674 74.2576H30.724L24.9022 73.1532C24.8422 73.1418 24.7892 73.1071 24.7549 73.0567C24.7206 73.0064 24.7078 72.9446 24.7193 72.8848C24.7308 72.8251 24.7657 72.7724 24.8162 72.7383C24.8668 72.7041 24.929 72.6914 24.989 72.7028L30.8108 73.801C30.8702 73.8144 30.9221 73.8501 30.9556 73.9007C30.9892 73.9513 31.0017 74.0129 30.9906 74.0725C30.9817 74.1248 30.9543 74.1722 30.9134 74.2061C30.8724 74.2401 30.8207 74.2583 30.7674 74.2576Z" fill="#B8BABA"/>
</g>
<defs>
<clipPath id="clip0_185_178">
<rect width="120" height="120" fill="white"/>
</clipPath>
</defs>
</svg>
