<svg width="120" height="120" viewBox="0 0 120 120" fill="none" xmlns="http://www.w3.org/2000/svg">
<g clip-path="url(#clip0_185_102)">
<path d="M29.2376 129.336C29.2376 129.336 29.2376 130.286 27.7289 130.286C26.2202 130.286 26.2255 129.336 26.2255 129.336V102.546H29.2376V129.336Z" fill="white"/>
<path d="M27.7289 130.541C25.9794 130.541 25.958 129.342 25.958 129.326V102.546C25.958 102.475 25.9862 102.408 26.0364 102.358C26.0865 102.308 26.1546 102.281 26.2255 102.281H29.2376C29.3085 102.281 29.3765 102.308 29.4267 102.358C29.4769 102.408 29.5051 102.475 29.5051 102.546V129.337C29.5051 129.337 29.4837 130.541 27.7289 130.541ZM26.493 102.801V129.337C26.493 129.406 26.5519 130.021 27.7289 130.021C28.9059 130.021 28.9701 129.347 28.9701 129.337V102.801H26.493Z" fill="#171717"/>
<path d="M29.2376 113.15V102.535H26.2255V114.513C27.226 114.041 28.205 113.558 29.2376 113.15Z" fill="#171717"/>
<path d="M26.2255 114.779C26.1745 114.777 26.1248 114.763 26.0811 114.736C26.0434 114.713 26.0124 114.68 25.9909 114.641C25.9694 114.602 25.9581 114.558 25.958 114.514V102.546C25.958 102.475 25.9862 102.408 26.0364 102.358C26.0865 102.308 26.1546 102.281 26.2255 102.281H29.2376C29.3085 102.281 29.3765 102.308 29.4267 102.358C29.4769 102.408 29.5051 102.475 29.5051 102.546V113.16C29.5048 113.213 29.4889 113.264 29.4594 113.307C29.4299 113.351 29.3881 113.384 29.3392 113.404C28.2692 113.845 27.2795 114.317 26.3432 114.763C26.3053 114.776 26.2654 114.781 26.2255 114.779ZM26.493 102.811V114.089C27.2795 113.718 28.098 113.335 28.9701 112.969V102.811H26.493Z" fill="#171717"/>
<path d="M2.42871 80.2769V99.9984C2.42871 105.714 13.7547 110.353 27.7289 110.353C41.7031 110.353 53.0344 105.714 53.0344 99.9984V80.2769H2.42871Z" fill="white"/>
<path d="M27.7288 110.618C13.6316 110.618 2.16119 105.842 2.16119 100.004V80.2768C2.16119 80.2065 2.18938 80.139 2.23954 80.0892C2.28971 80.0394 2.35775 80.0115 2.42869 80.0115H53.0343C53.1053 80.0115 53.1733 80.0394 53.2235 80.0892C53.2737 80.139 53.3018 80.2065 53.3018 80.2768V99.9984C53.3018 105.852 41.8314 110.618 27.7288 110.618ZM2.69619 80.5422V99.9984C2.69619 105.56 13.9312 110.082 27.7288 110.082C41.5265 110.082 52.7668 105.555 52.7668 99.9984V80.5422H2.69619Z" fill="#171717"/>
<path d="M27.7288 90.631C41.7047 90.631 53.0343 85.9952 53.0343 80.2767C53.0343 74.5582 41.7047 69.9224 27.7288 69.9224C13.753 69.9224 2.42334 74.5582 2.42334 80.2767C2.42334 85.9952 13.753 90.631 27.7288 90.631Z" fill="white"/>
<path d="M27.7288 90.8965C13.6316 90.8965 2.16119 86.12 2.16119 80.2821C2.16119 74.4442 13.6316 69.6677 27.7288 69.6677C41.8261 69.6677 53.3018 74.4442 53.3018 80.2821C53.3018 86.12 41.8314 90.8965 27.7288 90.8965ZM27.7288 70.1984C13.9258 70.1984 2.69619 74.7255 2.69619 80.2821C2.69619 85.8387 13.9312 90.3658 27.7288 90.3658C41.5265 90.3658 52.7668 85.8387 52.7668 80.2821C52.7668 74.7255 41.5372 70.1878 27.7288 70.1878V70.1984Z" fill="#171717"/>
<path d="M39.3544 69.7686C38.4721 70.3499 37.5285 70.834 36.5403 71.2121C35.588 71.4615 30.6178 70.5646 29.2108 71.2121C27.8037 71.8596 24.0855 73.404 23.6361 74.354C23.1867 75.304 23.6361 78.3397 25.3427 78.8863C27.0494 79.4329 31.0672 77.9629 32.5224 78C33.9776 78.0372 36.0909 77.9363 36.9897 77.5383C37.8885 77.1402 41.5639 73.9559 41.5639 73.9559" fill="white"/>
<path d="M26.3004 79.2738C25.9493 79.2815 25.5991 79.2349 25.2625 79.1358C24.8908 78.9919 24.5549 78.7698 24.2778 78.4849C24.0008 78.2 23.7892 77.859 23.6575 77.4853C23.1813 76.392 23.069 74.9379 23.4007 74.2373C23.7966 73.4041 26.0757 72.3214 28.4136 71.2865L29.1038 70.9734C30.0133 70.5541 32.1426 70.724 34.0204 70.8726C34.8343 70.9794 35.6567 71.0079 36.4761 70.9575C37.4368 70.5878 38.3536 70.1144 39.2099 69.5458C39.2704 69.5076 39.3436 69.4945 39.4136 69.5094C39.4837 69.5243 39.5451 69.566 39.5844 69.6254C39.6227 69.6845 39.6357 69.7563 39.6206 69.8249C39.6056 69.8936 39.5637 69.9535 39.5042 69.9916C38.5992 70.5894 37.6303 71.086 36.6152 71.4723C35.7364 71.5534 34.8509 71.5302 33.9776 71.4033C32.2549 71.2653 30.1149 71.0955 29.3285 71.4563L28.633 71.7695C27.2045 72.4063 24.2299 73.7384 23.8822 74.4655C23.6468 74.9644 23.6949 76.2381 24.1497 77.273C24.256 77.5752 24.4246 77.8521 24.6447 78.086C24.8649 78.3199 25.1318 78.5057 25.4283 78.6317C26.4127 78.9448 28.3655 78.5149 29.933 78.1646C30.7829 77.9346 31.654 77.7906 32.5331 77.7348C34.0632 77.7772 36.0802 77.6551 36.888 77.2996C37.5996 76.9864 40.3816 74.646 41.3927 73.7544C41.4469 73.7183 41.5125 73.7031 41.5772 73.7116C41.6419 73.7202 41.7013 73.7519 41.744 73.8009C41.7867 73.8498 41.81 73.9125 41.8093 73.9773C41.8087 74.042 41.7842 74.1043 41.7405 74.1524C41.5907 74.2851 38.0383 77.3739 37.1074 77.7825C36.1765 78.1912 34.0418 78.3132 32.5224 78.2655C31.6864 78.3224 30.8583 78.4628 30.0507 78.6847C28.8237 79.0052 27.5672 79.2026 26.3004 79.2738Z" fill="#171717"/>
<path d="M83.0425 108.67L87.8575 129.331C87.8575 129.331 91.9235 132.579 97.4447 128.546L95.4384 107.227L83.0425 108.67Z" fill="#171717"/>
<path d="M91.9021 130.822C90.3978 130.841 88.9253 130.392 87.6917 129.538C87.6443 129.5 87.6105 129.448 87.5954 129.389L82.7804 108.729C82.773 108.692 82.773 108.655 82.7803 108.618C82.7877 108.582 82.8022 108.547 82.8232 108.516C82.845 108.486 82.873 108.462 82.9053 108.443C82.9375 108.425 82.9734 108.414 83.0104 108.41L95.4063 106.961C95.4773 106.956 95.5478 106.977 95.6043 107.02C95.6328 107.041 95.6565 107.068 95.674 107.099C95.6915 107.13 95.7024 107.165 95.706 107.2L97.7122 128.519C97.7172 128.565 97.7099 128.611 97.6912 128.653C97.6724 128.695 97.6427 128.731 97.6052 128.758C95.9817 130.044 93.9791 130.769 91.9021 130.822ZM88.0983 129.177C88.66 129.586 92.2713 131.91 97.1665 128.418L95.1977 107.524L83.3688 108.898L88.0983 129.177Z" fill="#171717"/>
<path d="M67.26 107.227C67.0567 107.625 70.1704 128.456 70.1704 128.456C70.1704 128.456 74.8891 130.451 78.8053 128.456L79.7095 107.227H67.26Z" fill="#171717"/>
<path d="M74.8249 129.602C73.1999 129.591 71.591 129.281 70.0795 128.689C70.0367 128.672 69.9993 128.643 69.9711 128.607C69.9429 128.571 69.9249 128.528 69.919 128.482C68.4905 118.929 66.832 107.497 67.03 107.11C67.0525 107.066 67.0869 107.028 67.1293 107.002C67.1718 106.976 67.2207 106.962 67.2707 106.961H79.7202C79.7925 106.962 79.8617 106.99 79.9127 107.041C79.9386 107.067 79.9586 107.097 79.9715 107.131C79.9845 107.165 79.99 107.201 79.9877 107.237L79.0835 128.466C79.0822 128.514 79.0681 128.56 79.0427 128.6C79.0173 128.64 78.9815 128.673 78.939 128.694C77.6598 129.317 76.2495 129.628 74.8249 129.602ZM70.4219 128.254C71.2083 128.551 75.194 129.899 78.5592 128.28L79.4419 107.492H67.5328C67.6398 109.259 69.277 120.574 70.4219 128.254Z" fill="#171717"/>
<path d="M66.9711 71.313L64.1088 108.67C64.1088 108.67 89.4143 116.743 100.708 108.67C100.708 108.67 95.9895 66.8337 94.3577 63.3947C92.726 59.9556 66.9711 71.313 66.9711 71.313Z" fill="#171717"/>
<path d="M86.1241 112.497C83.4529 112.49 80.7848 112.313 78.1366 111.966C73.3673 111.324 68.657 110.307 64.05 108.925C63.9928 108.906 63.9436 108.868 63.9106 108.818C63.8776 108.768 63.8626 108.709 63.8681 108.649L66.725 71.2917C66.7283 71.2441 66.7445 71.1983 66.7718 71.1591C66.7991 71.1199 66.8365 71.0887 66.8802 71.0688C66.9444 71.0422 73.4072 68.2029 79.9823 65.8146C93.4964 60.9161 94.3417 62.694 94.6199 63.2831C96.2249 66.7169 100.805 106.929 100.997 108.644C101.002 108.69 100.995 108.737 100.976 108.78C100.957 108.822 100.928 108.86 100.89 108.888C96.99 111.658 91.4688 112.497 86.1241 112.497ZM64.3871 108.463C66.7892 109.196 89.837 115.893 100.425 108.532C100.109 105.73 95.6578 66.7434 94.117 63.4901C93.0149 61.1708 77.0987 67.1308 67.2226 71.4774L64.3871 108.463Z" fill="#171717"/>
<path d="M69.2769 27.7994C77.211 25.8464 79.9769 27.6773 85.9475 31.0899C90.7625 33.8549 102.575 40.1811 102.046 45.8598C101.516 51.5385 95.4866 57.5356 95.4866 57.5356C95.4866 57.5356 93.7799 59.356 94.989 69.2114H70.7321C70.7321 69.2114 68.025 54.4309 64.585 50.2435C64.585 50.2435 61.2573 60.5554 55.2385 65.6344C49.2198 70.7133 40.7935 75.3465 40.7935 75.3465L37.9313 69.5086C37.9313 69.5086 48.1605 59.4249 51.6166 51.5385C55.0727 43.652 55.6879 36.8004 57.5016 35.1552C59.3152 33.5099 61.3429 29.7524 69.2769 27.7994Z" fill="#FC3060"/>
<path d="M70.2132 26.966L69.5284 49.1236C69.5284 49.1236 59.4383 36.9807 59.2885 33.2551L56.9452 35.8662L63.8413 52.1911L69.9778 70.1666L96.9418 69.1741L91.0193 51.6604C91.0193 51.6604 84.0055 49.7816 81.0095 45.0954C78.0135 40.4091 79.688 27.4012 79.688 27.4012C79.688 27.4012 74.8784 25.3633 70.2132 26.966Z" fill="#171717"/>
<path d="M69.9778 70.4319C69.922 70.4323 69.8675 70.415 69.8223 70.3825C69.777 70.3501 69.7434 70.3042 69.7263 70.2514L63.5899 52.276L56.6991 35.967C56.6792 35.9208 56.6727 35.87 56.6802 35.8203C56.6878 35.7707 56.7091 35.724 56.7419 35.6857L59.0852 33.0746C59.1219 33.0356 59.1694 33.0082 59.2218 32.996C59.2742 32.9837 59.329 32.987 59.3794 33.0056C59.4299 33.0228 59.4738 33.055 59.5053 33.0976C59.5369 33.1403 59.5546 33.1915 59.556 33.2444C59.6844 36.3969 67.3242 45.9817 69.2823 48.4017L69.935 26.9607C69.9379 26.9068 69.9567 26.855 69.9891 26.8116C70.0214 26.7682 70.0658 26.7352 70.1169 26.7166C74.8249 25.1244 79.581 27.0615 79.7843 27.1464C79.8382 27.1683 79.8831 27.2072 79.9122 27.2572C79.9412 27.3072 79.9527 27.3653 79.9448 27.4224C79.9448 27.5551 78.3398 40.3773 81.2235 44.9361C84.1071 49.495 91.0086 51.3632 91.0782 51.3791C91.1207 51.3923 91.1597 51.4149 91.1922 51.4453C91.2246 51.4756 91.2496 51.5129 91.2654 51.5542L97.1825 69.0679C97.1961 69.1066 97.2003 69.1479 97.1947 69.1885C97.1891 69.2291 97.1739 69.2678 97.1504 69.3015C97.1266 69.3351 97.0955 69.3631 97.0594 69.3833C97.0233 69.4035 96.9831 69.4154 96.9418 69.4182L69.9778 70.4107V70.4319ZM57.2555 35.9352L64.0874 52.1115L70.1704 69.9171L96.5726 68.9406L90.8 51.862C89.7621 51.5648 83.5882 49.6489 80.7741 45.2227C77.96 40.7965 79.1691 29.3012 79.3885 27.5604C78.479 27.2261 74.4129 25.8833 70.4646 27.1571L69.7852 49.1341C69.7834 49.1877 69.7649 49.2394 69.7324 49.2821C69.6998 49.3249 69.6547 49.3566 69.6033 49.373C69.5527 49.3906 69.4979 49.3924 69.4462 49.3782C69.3946 49.3639 69.3486 49.3343 69.3144 49.2934C68.9185 48.8157 60.0696 38.1483 59.0959 33.8547L57.2555 35.9352Z" fill="#171717"/>
<path d="M80.635 66.823V81.1842C80.635 81.1842 88.7724 75.0279 91.2815 74.6299C91.2815 74.6299 92.2873 56.8985 89.623 55.6036C86.9587 54.3086 80.635 63.973 80.635 66.823Z" fill="#B8BABA"/>
<path d="M80.635 81.4708C80.5961 81.4781 80.5562 81.4781 80.5173 81.4708C80.4727 81.4484 80.4351 81.4143 80.4087 81.3722C80.3823 81.3301 80.368 81.2816 80.3675 81.232V66.8495C80.3675 64.456 84.5405 57.6628 87.5846 55.784C88.4353 55.2533 89.1629 55.1312 89.7246 55.4125C90.174 55.6301 91.5383 56.2935 91.7041 65.6448C91.7844 70.1983 91.5329 74.667 91.5329 74.667C91.5298 74.7272 91.5057 74.7845 91.4647 74.829C91.4237 74.8736 91.3684 74.9026 91.3082 74.9111C88.89 75.2986 80.865 81.3541 80.7848 81.4177C80.7405 81.4483 80.6888 81.4666 80.635 81.4708ZM89.0826 55.7681C88.6451 55.8031 88.2253 55.9554 87.8682 56.2086C84.9952 57.9812 80.9132 64.594 80.9132 66.823V80.6535C82.5984 79.401 88.6332 75.0014 91.0354 74.4123C91.4206 67.3537 91.335 56.7234 89.516 55.8371C89.3761 55.7776 89.2234 55.7539 89.0719 55.7681H89.0826Z" fill="#171717"/>
<path d="M64.5368 27.6984C68.865 26.5945 67.062 19.1379 65.8422 16.1341C64.9969 14.059 63.0281 13.0187 60.8667 12.5676C60.3878 12.4463 59.887 12.4363 59.4035 12.5385C58.9201 12.6407 58.4669 12.8523 58.0794 13.1567C56.4744 11.9626 54.2809 12.2227 52.3495 12.6738C50.9906 12.9869 49.5729 13.4168 48.6313 14.4358C48.2281 14.8995 47.9424 15.4521 47.7982 16.0476C47.6539 16.643 47.6553 17.2641 47.802 17.8589C48.1498 19.3661 48.9255 19.9818 50.3914 20.1569C50.2256 21.3829 50.033 21.7491 50.7873 22.7521C51.5389 23.6435 52.4448 24.3948 53.4623 24.9705C54.5409 25.5547 55.6644 26.0533 56.8221 26.4619C59.251 27.4543 61.6371 28.3247 64.3121 27.7462L64.5368 27.6984Z" fill="white"/>
<path d="M62.5627 28.1973C60.5672 28.1973 58.7054 27.5233 56.7152 26.7113L55.9662 26.4088C55.0516 26.0779 54.1659 25.6732 53.3179 25.1988C52.2782 24.5995 51.3498 23.8276 50.5734 22.9167C49.8458 21.9667 49.926 21.4678 50.0651 20.555C50.0651 20.4966 50.0651 20.4382 50.0651 20.3799C48.6206 20.141 47.8556 19.3927 47.5185 17.9173C47.361 17.2818 47.3594 16.618 47.5139 15.9818C47.6684 15.3455 47.9746 14.7553 48.4066 14.2607C49.3803 13.1992 50.8355 12.7481 52.264 12.4138C54.0723 11.9945 56.3407 11.6708 58.042 12.8224C58.4521 12.5384 58.9185 12.3441 59.4101 12.2526C59.9018 12.1611 60.4075 12.1744 60.8935 12.2917C63.5418 12.8224 65.2805 14.1015 66.0616 16.0067C66.9765 18.2517 68.3247 23.2457 66.8855 26.0904C66.6654 26.5508 66.3448 26.9568 65.9469 27.279C65.549 27.6012 65.0838 27.8315 64.585 27.9532L64.3603 28.0063C63.7696 28.1325 63.167 28.1966 62.5627 28.1973ZM55.1369 12.5571C54.2177 12.5801 53.3042 12.7066 52.4138 12.9339C51.1619 13.2205 49.7388 13.6185 48.8293 14.6163C48.4559 15.0485 48.1917 15.5629 48.0586 16.1167C47.9256 16.6704 47.9275 17.2477 48.0642 17.8006C48.3799 19.1592 49.0165 19.7271 50.4236 19.8916C50.4949 19.9011 50.5599 19.9371 50.6055 19.9924C50.6274 20.0209 50.6434 20.0533 50.6526 20.088C50.6618 20.1226 50.6639 20.1587 50.659 20.1941C50.659 20.3533 50.6162 20.4966 50.5948 20.6346C50.461 21.4997 50.4075 21.8287 50.996 22.593C51.7335 23.4433 52.613 24.1614 53.5961 24.7158C54.4154 25.178 55.2727 25.5703 56.1588 25.8887L56.9185 26.1912C59.4169 27.2102 61.696 28.0116 64.2694 27.4597L64.4727 27.4119C64.899 27.3089 65.2967 27.1124 65.6365 26.8369C65.9763 26.5613 66.2495 26.2138 66.4361 25.8197C67.688 23.3625 66.618 18.7187 65.5908 16.1978C64.8846 14.4517 63.2743 13.3054 60.8079 12.7906C60.3711 12.6765 59.9134 12.6651 59.4714 12.7573C59.0293 12.8494 58.615 13.0425 58.2613 13.3213C58.2132 13.361 58.1527 13.3828 58.0901 13.3828C58.0275 13.3828 57.967 13.361 57.9189 13.3213C57.1012 12.7707 56.1236 12.5022 55.1369 12.5571Z" fill="#171717"/>
<path d="M52.815 25.8462C52.815 25.8462 52.601 29.4498 53.2751 29.7788C53.9492 30.1079 54.9336 29.073 54.9336 29.073" fill="white"/>
<path d="M53.5586 30.1131C53.4155 30.1151 53.2741 30.0823 53.1467 30.0176C52.3923 29.6461 52.4726 26.966 52.5368 25.8302C52.5423 25.7603 52.5749 25.6953 52.6278 25.6487C52.6807 25.6022 52.7497 25.5778 52.8203 25.5808C52.8555 25.5828 52.8899 25.5917 52.9216 25.607C52.9533 25.6222 52.9816 25.6435 53.0049 25.6697C53.0283 25.6958 53.0462 25.7262 53.0577 25.7593C53.0692 25.7923 53.074 25.8272 53.0718 25.8621C52.9648 27.6718 53.1092 29.3914 53.3821 29.5453C53.7566 29.7257 54.4521 29.1844 54.7249 28.8925C54.7498 28.8676 54.7794 28.8479 54.812 28.8344C54.8446 28.8209 54.8796 28.814 54.9149 28.814C54.9502 28.814 54.9851 28.8209 55.0177 28.8344C55.0503 28.8479 55.0799 28.8676 55.1048 28.8925C55.1299 28.9172 55.1498 28.9465 55.1633 28.9788C55.1769 29.0112 55.1839 29.0459 55.1839 29.0809C55.1839 29.1159 55.1769 29.1506 55.1633 29.183C55.1498 29.2153 55.1299 29.2446 55.1048 29.2693C55.0192 29.3542 54.2809 30.1131 53.5586 30.1131Z" fill="#171717"/>
<path d="M50.0009 19.8066C49.4177 21.335 52.0071 25.4269 52.7347 26.6528C53.7619 28.3724 54.8319 30.0689 55.9447 31.7424C56.6402 32.8039 59.5185 31.1852 59.8288 30.5695L63.0923 34.5977C63.0923 34.5977 63.4989 34.741 65.1895 32.3528C66.8801 29.9645 66.5859 29.4179 66.5859 29.4179L63.4775 24.5247C63.4775 24.5247 61.5943 25.6286 59.1975 24.0364C56.8007 22.4442 54.8159 18.984 54.8159 18.984C54.8159 18.984 50.568 18.3152 50.0009 19.8066Z" fill="white"/>
<path d="M63.0977 34.8685C63.0587 34.8735 63.0191 34.8735 62.98 34.8685C62.9348 34.8495 62.8945 34.8205 62.8623 34.7836L59.8075 31.0102C58.9747 31.7421 57.941 32.2114 56.8382 32.3582C56.6233 32.3931 56.4028 32.3679 56.2015 32.2854C56.0002 32.2029 55.8261 32.0664 55.6987 31.8912C54.6287 30.2194 53.5266 28.5052 52.4887 26.7857L52.2907 26.4566C50.7392 23.8773 49.2198 21.0645 49.7334 19.7165C50.3594 18.066 54.3505 18.6551 54.7999 18.724C54.8402 18.7298 54.8785 18.7448 54.912 18.7678C54.9454 18.7909 54.973 18.8213 54.9925 18.8567C54.9925 18.8886 56.9452 22.2799 59.2725 23.8136C61.5141 25.289 63.2208 24.3444 63.2957 24.2966C63.3556 24.263 63.4264 24.2536 63.4931 24.2704C63.5599 24.2872 63.6176 24.3289 63.6541 24.3868L66.7625 29.2747C66.8855 29.5029 66.9711 30.2353 65.3608 32.5068C63.9056 34.5978 63.3385 34.8685 63.0977 34.8685ZM59.8075 30.3043C59.8477 30.3041 59.8875 30.3131 59.9237 30.3306C59.9598 30.3481 59.9915 30.3736 60.0161 30.4052L63.1619 34.2847C63.3599 34.152 63.8842 33.7115 64.9488 32.2043C66.3024 30.2937 66.3238 29.6303 66.3131 29.5242L63.3599 24.8698C62.7553 25.1245 61.0647 25.6128 59.005 24.2541C56.7794 22.7947 54.9711 19.8492 54.6073 19.2282C53.0558 19 50.6001 18.9894 50.2524 19.9022C49.7602 21.1919 51.943 24.822 52.7669 26.186L52.9648 26.5203C53.9813 28.2292 55.0513 29.9381 56.1481 31.5993C56.2272 31.6936 56.3308 31.7648 56.4478 31.805C56.5647 31.8452 56.6904 31.853 56.8115 31.8275C57.8578 31.6754 58.8263 31.1913 59.5721 30.4476C59.5918 30.4082 59.6213 30.3743 59.6578 30.3493C59.6942 30.3242 59.7366 30.3087 59.7807 30.3043H59.8075Z" fill="#171717"/>
<path d="M55.2118 30.4317C55.2118 30.4317 56.0089 30.2353 56.7847 27.7781L55.2118 30.4317Z" fill="white"/>
<path d="M55.2118 30.6971C55.1408 30.707 55.0689 30.6884 55.0117 30.6456C54.9545 30.6029 54.9168 30.5393 54.9068 30.4689C54.8969 30.3985 54.9156 30.3271 54.9587 30.2704C55.0019 30.2136 55.0659 30.1762 55.1369 30.1664C55.169 30.1664 55.8484 29.848 56.5332 27.7092C56.5438 27.6743 56.5611 27.6419 56.5843 27.6137C56.6075 27.5855 56.636 27.5621 56.6683 27.5448C56.7006 27.5276 56.736 27.5168 56.7725 27.5131C56.809 27.5095 56.8459 27.5129 56.881 27.5234C56.9161 27.5339 56.9488 27.5511 56.9773 27.5741C57.0057 27.5971 57.0293 27.6254 57.0466 27.6574C57.064 27.6894 57.0749 27.7246 57.0786 27.7608C57.0823 27.797 57.0788 27.8335 57.0682 27.8684C56.2818 30.3203 55.4632 30.6387 55.3027 30.6759C55.276 30.6936 55.2437 30.7011 55.2118 30.6971Z" fill="#171717"/>
<path d="M56.7954 25.0342C56.5908 24.5745 56.5204 24.067 56.5921 23.5695C56.5897 23.1809 56.6474 22.7943 56.7633 22.4231C56.8225 22.2372 56.9229 22.0669 57.0571 21.9245C57.1914 21.7822 57.356 21.6715 57.5391 21.6005C57.7055 21.5514 57.8807 21.5389 58.0525 21.5636C58.2243 21.5883 58.3886 21.6498 58.5342 21.7438C58.821 21.9317 59.0608 22.1822 59.235 22.4762C59.6435 23.1093 59.8768 23.8378 59.9116 24.5887C59.9463 25.3395 59.7812 26.0862 59.4329 26.7538L59.4704 26.5999" fill="white"/>
<path d="M59.449 27.0192C59.4171 27.0242 59.3846 27.0242 59.3527 27.0192C59.2922 26.9964 59.242 26.9527 59.2116 26.8961C59.1811 26.8395 59.1723 26.7739 59.1868 26.7114L59.235 26.5203C59.2495 26.4531 59.2898 26.3941 59.3473 26.3558C59.6061 25.7516 59.7135 25.0942 59.6604 24.4399C59.6073 23.7855 59.3953 23.1536 59.0424 22.5983C58.8814 22.3381 58.6639 22.1169 58.4057 21.9508C58.2909 21.8808 58.1624 21.8356 58.0287 21.8182C57.895 21.8008 57.7592 21.8117 57.63 21.85C57.4866 21.9103 57.3583 22.0009 57.2538 22.1154C57.1494 22.23 57.0715 22.3658 57.0254 22.5134C56.9198 22.8574 56.8675 23.2153 56.8703 23.5748C56.8059 24.0243 56.865 24.4827 57.0415 24.9016C57.0762 24.9635 57.0848 25.0366 57.0652 25.1048C57.0456 25.173 56.9996 25.2307 56.9372 25.2652C56.8747 25.2996 56.801 25.3081 56.7323 25.2887C56.6636 25.2693 56.6054 25.2236 56.5707 25.1617C56.3448 24.6629 56.2632 24.1116 56.3353 23.5695C56.3331 23.1537 56.3963 22.7401 56.5225 22.3436C56.5963 22.1203 56.719 21.916 56.8818 21.7453C57.0446 21.5746 57.2435 21.4418 57.4641 21.3564C57.6677 21.2956 57.8822 21.2793 58.0928 21.3086C58.3034 21.3379 58.5051 21.4122 58.6839 21.5262C59.01 21.733 59.2845 22.0107 59.4864 22.3382C59.9189 23.0131 60.1657 23.7886 60.2024 24.5874C60.239 25.3863 60.0641 26.1808 59.6951 26.8918C59.6702 26.9338 59.6339 26.9679 59.5904 26.9905C59.5469 27.013 59.4979 27.0229 59.449 27.0192Z" fill="#171717"/>
<path d="M59.8074 30.5696C59.8074 30.5696 61.0272 29.2587 61.1289 27.8523C61.1289 27.8523 63.9269 30.6173 61.7441 32.9525L59.8074 30.5696Z" fill="#171717"/>
<path d="M61.7442 33.218C61.706 33.218 61.6684 33.2094 61.6341 33.1928C61.5998 33.1763 61.5697 33.1522 61.5462 33.1224L59.6095 30.7342C59.5681 30.6861 59.5453 30.625 59.5453 30.5617C59.5453 30.4985 59.5681 30.4373 59.6095 30.3892C60.2539 29.6703 60.6805 28.7854 60.84 27.8365C60.8424 27.7859 60.86 27.7371 60.8905 27.6965C60.921 27.6558 60.963 27.6251 61.0112 27.6083C61.0591 27.59 61.1113 27.5858 61.1616 27.5961C61.2119 27.6065 61.2581 27.631 61.2948 27.6667C61.3269 27.6985 64.2533 30.6387 61.9154 33.1331C61.894 33.1578 61.8678 33.1781 61.8384 33.1927C61.809 33.2073 61.777 33.2159 61.7442 33.218ZM60.1392 30.5644L61.7442 32.528C62.9693 30.9359 61.9047 29.211 61.2948 28.4415C61.0673 29.223 60.6793 29.9494 60.1552 30.575L60.1392 30.5644Z" fill="#171717"/>
<path d="M53.3432 23.6834C53.4747 23.5995 53.4067 23.262 53.1913 22.9296C52.9759 22.5973 52.6947 22.3958 52.5631 22.4797C52.4316 22.5636 52.4996 22.901 52.715 23.2334C52.9304 23.5658 53.2116 23.7673 53.3432 23.6834Z" fill="#171717"/>
<path d="M84.594 66.7328C84.594 66.7328 87.804 63.1929 87.8575 60.6029C87.911 58.013 83.2886 57.0684 83.2886 57.0684L78.2275 61.2504C78.2275 61.2504 84.3426 64.8912 84.594 66.7328Z" fill="white"/>
<path d="M84.594 66.9982H84.5137C84.4644 66.9825 84.4206 66.9532 84.3875 66.9138C84.3543 66.8743 84.3331 66.8263 84.3265 66.7753C84.1339 65.3689 79.7629 62.4818 78.0937 61.4681C78.057 61.4466 78.026 61.4165 78.0037 61.3804C77.9813 61.3444 77.9681 61.3034 77.9653 61.2612C77.9608 61.2194 77.9668 61.1773 77.9826 61.1384C77.9985 61.0995 78.0238 61.0651 78.0563 61.0383L83.1174 56.8562C83.1478 56.83 83.1839 56.8111 83.2229 56.801C83.2618 56.7908 83.3026 56.7898 83.3421 56.7978C83.54 56.8403 88.1571 57.8221 88.125 60.5978C88.0715 63.2514 84.915 66.7488 84.7919 66.8974C84.7682 66.9273 84.7382 66.9518 84.704 66.9692C84.6699 66.9866 84.6323 66.9965 84.594 66.9982ZM78.709 61.2187C79.9502 61.9776 83.8503 64.4614 84.717 66.2021C85.5035 65.2628 87.5739 62.5986 87.6114 60.5978C87.6542 58.4749 84.0911 57.5249 83.3795 57.3551L78.709 61.2187Z" fill="#171717"/>
<path d="M75.4387 77.4005C82.6206 75.3536 87.3289 69.8484 85.9549 65.1044C84.5808 60.3604 77.6449 58.174 70.4629 60.2209C63.281 62.2679 58.5727 67.773 59.9467 72.517C61.3207 77.2611 68.2567 79.4475 75.4387 77.4005Z" fill="white"/>
<path d="M70.1062 78.4406C64.9756 78.4406 60.7384 76.2487 59.6844 72.6027C58.272 67.7254 63.071 62.0626 70.3844 59.9822C77.6979 57.9018 84.792 60.168 86.2044 65.0453C87.6168 69.9226 82.8178 75.5853 75.5044 77.6658C73.7502 78.1724 71.9332 78.4332 70.1062 78.4406ZM75.82 59.7328C74.0346 59.7405 72.259 59.996 70.5449 60.4917C63.515 62.4925 58.8766 67.8581 60.2087 72.4541C61.5409 77.0501 68.3407 79.1571 75.3706 77.1563C82.4005 75.1555 87.0336 69.7846 85.7015 65.1939C84.701 61.776 80.6885 59.7328 75.82 59.7328Z" fill="#171717"/>
<path d="M70.9248 75.6755C69.8077 75.6844 68.696 75.5214 67.6292 75.1925C65.4892 74.5185 64.0286 73.2076 63.5364 71.4775C63.0442 69.7474 63.5739 67.9005 65.0291 66.1968C66.6527 64.3968 68.7704 63.1057 71.1227 62.4818C76.3122 61.0011 81.3519 62.6251 82.3577 66.1013C83.3635 69.5722 79.9556 73.6004 74.7714 75.0811C73.5231 75.4549 72.2286 75.655 70.9248 75.6755ZM74.964 62.503C73.7128 62.5082 72.4685 62.6869 71.2672 63.0338C69.0204 63.6266 66.995 64.8524 65.4357 66.563C64.0982 68.1552 63.606 69.8323 64.05 71.3395C64.4941 72.8468 65.8209 74.0515 67.795 74.6724C70.0311 75.308 72.4055 75.2821 74.627 74.5981C79.5329 73.2023 82.7697 69.4661 81.8495 66.2711C81.17 63.9201 78.3613 62.503 74.964 62.503Z" fill="#B8BABA"/>
<path d="M82.6359 59.1594C82.6359 59.1594 77.7621 62.7471 78.265 63.9943C78.7679 65.2415 81.8816 62.7471 83.7915 60.6561" fill="white"/>
<path d="M78.7839 64.5888H78.6127C78.4788 64.5674 78.3531 64.5108 78.2487 64.425C78.1443 64.3391 78.0649 64.2271 78.0189 64.1005C77.9226 63.8617 77.6818 62.5084 82.4754 58.9579C82.5322 58.9156 82.6035 58.8975 82.6738 58.9075C82.744 58.9174 82.8074 58.9546 82.8499 59.0109C82.8925 59.0672 82.9108 59.138 82.9008 59.2077C82.8907 59.2773 82.8532 59.3402 82.7964 59.3824C80.5334 61.0489 78.2543 63.2514 78.5164 63.9042C78.5286 63.9459 78.5528 63.9832 78.5861 64.0115C78.6193 64.0398 78.6602 64.0578 78.7037 64.0634C79.4687 64.2014 81.6997 62.5614 83.5936 60.4863C83.6423 60.4389 83.7074 60.4118 83.7756 60.4104C83.8438 60.4091 83.9099 60.4336 83.9605 60.479C84.011 60.5245 84.0422 60.5873 84.0476 60.6548C84.053 60.7222 84.0322 60.7892 83.9895 60.8419C82.5717 62.3863 80.1 64.5888 78.7839 64.5888Z" fill="#171717"/>
<path d="M81.7799 57.7159C81.7799 57.7159 87.6649 59.4089 88.3604 63.0231C89.0559 66.6373 87.2904 82.129 87.2904 82.129C87.2904 82.129 95.0212 76.3601 97.4287 71.4774C97.4287 71.4774 96.6797 59.8759 94.7537 55.4391C94.2764 54.2057 93.438 53.1422 92.3463 52.3856C91.2545 51.6289 89.9595 51.2137 88.6279 51.1934L81.7799 57.7159Z" fill="white"/>
<path d="M87.3065 82.3785C87.2599 82.3794 87.2138 82.3684 87.1727 82.3466C87.1272 82.321 87.0903 82.2827 87.0665 82.2365C87.0428 82.1903 87.0332 82.1382 87.039 82.0866C87.039 81.9274 88.7831 66.5524 88.109 63.0444C87.4456 59.6637 81.7746 57.9866 81.7157 57.9707C81.6713 57.9573 81.6311 57.9326 81.5992 57.8991C81.5673 57.8656 81.5448 57.8244 81.5338 57.7797C81.5215 57.7345 81.522 57.6868 81.5352 57.6419C81.5484 57.5969 81.5738 57.5565 81.6087 57.5249L88.4835 50.9812C88.535 50.9455 88.5974 50.9287 88.66 50.9334C90.0449 50.9576 91.3912 51.3898 92.5278 52.1751C93.6643 52.9605 94.5397 54.0634 95.0426 55.3437C96.9472 59.7646 97.7176 70.9893 97.7176 71.4669C97.7227 71.5128 97.7134 71.5592 97.6908 71.5996C95.2833 76.4822 87.788 82.1078 87.4723 82.3466C87.4221 82.3751 87.3638 82.3863 87.3065 82.3785ZM82.2882 57.5992C83.6952 58.0769 88.002 59.7858 88.6226 62.9436C89.2432 66.1013 87.9645 78.5467 87.6382 81.5187C89.3716 80.1654 95.1282 75.4526 97.1772 71.4351C97.1077 70.4585 96.3319 59.7168 94.5396 55.556C94.084 54.3901 93.2949 53.3818 92.2694 52.6548C91.2438 51.9279 90.0265 51.514 88.767 51.4641L82.2882 57.5992Z" fill="#171717"/>
<path d="M88.66 51.4641C88.6042 51.462 88.5502 51.4435 88.5049 51.411C88.4479 51.3705 88.4093 51.3094 88.3973 51.2409C88.3853 51.1725 88.4009 51.102 88.4407 51.0448C88.5744 50.8591 91.6828 46.5284 93.1861 44.9256C93.2101 44.9002 93.2391 44.88 93.2713 44.8662C93.3035 44.8524 93.3383 44.8452 93.3734 44.8452C93.4085 44.8452 93.4432 44.8524 93.4754 44.8662C93.5076 44.88 93.5366 44.9002 93.5606 44.9256C93.5857 44.9503 93.6056 44.9796 93.6192 45.012C93.6327 45.0443 93.6397 45.079 93.6397 45.114C93.6397 45.1491 93.6327 45.1837 93.6192 45.2161C93.6056 45.2484 93.5857 45.2778 93.5606 45.3024C92.084 46.8946 88.8954 51.3208 88.8633 51.3686C88.838 51.3976 88.8068 51.4212 88.7718 51.4376C88.7368 51.4541 88.6987 51.4631 88.66 51.4641Z" fill="#171717"/>
<path d="M65.3608 36.604H65.1735C64.05 36.4448 62.8998 34.8367 62.8516 34.7677C62.8155 34.71 62.8031 34.6406 62.8169 34.5741C62.8308 34.5075 62.8699 34.4487 62.9262 34.4099C62.9825 34.3711 63.0516 34.3552 63.1194 34.3655C63.1871 34.3758 63.2483 34.4115 63.2903 34.4652C63.5846 34.8792 64.5048 35.9725 65.2484 36.0574C65.3378 36.0724 65.4293 36.0684 65.517 36.0455C65.6046 36.0226 65.6864 35.9814 65.7567 35.9247C66.6287 35.2295 68.2177 30.5114 68.7527 28.7494C68.7732 28.679 68.8212 28.6196 68.8859 28.5843C68.9506 28.549 69.0268 28.5406 69.0977 28.561C69.1687 28.5814 69.2286 28.6289 69.2642 28.6931C69.2998 28.7573 69.3082 28.8329 69.2877 28.9033C69.0844 29.5667 67.2707 35.4152 66.1098 36.3334C65.9011 36.5101 65.6351 36.6062 65.3608 36.604Z" fill="#171717"/>
<path d="M61.6586 37.3789C61.2731 37.3665 60.8966 37.2608 60.5618 37.0711C60.5305 37.055 60.5028 37.033 60.4801 37.0064C60.4574 36.9797 60.4402 36.9488 60.4295 36.9156C60.4188 36.8823 60.4149 36.8473 60.4178 36.8125C60.4208 36.7777 60.4306 36.7438 60.4468 36.7128C60.4629 36.6818 60.4851 36.6543 60.512 36.6317C60.5389 36.6092 60.57 36.5922 60.6035 36.5816C60.6371 36.571 60.6724 36.567 60.7074 36.57C60.7425 36.5729 60.7766 36.5827 60.8079 36.5987C60.9992 36.7294 61.2209 36.8096 61.452 36.8319C61.6832 36.8541 61.9163 36.8177 62.1294 36.7261C62.8195 36.3387 63.0335 35.049 63.0603 34.6032C63.0623 34.5683 63.0713 34.5342 63.0866 34.5028C63.102 34.4714 63.1235 34.4433 63.1498 34.4201C63.1762 34.3969 63.2069 34.3791 63.2402 34.3678C63.2734 34.3564 63.3087 34.3516 63.3438 34.3538C63.379 34.3558 63.4134 34.3647 63.445 34.3799C63.4767 34.3952 63.505 34.4165 63.5284 34.4426C63.5518 34.4688 63.5697 34.4992 63.5812 34.5322C63.5926 34.5653 63.5974 34.6002 63.5953 34.6351C63.5953 34.7147 63.4776 36.5987 62.3915 37.209C62.1666 37.3289 61.9137 37.3875 61.6586 37.3789Z" fill="#171717"/>
<path d="M64.4085 37.8989C64.2961 37.8511 62.001 37.331 62.001 37.4478C62.001 37.5645 62.8249 39.5706 62.8249 39.5706L64.8311 38.3234L67.7041 38.8542L67.4526 35.5425L64.4085 37.8989Z" fill="#171717"/>
<path d="M91.0193 48.524C90.9796 48.5241 90.9404 48.5156 90.9044 48.4991C90.8683 48.4826 90.8363 48.4585 90.8107 48.4285C90.5325 48.0835 83.9466 39.99 82.7857 35.5851C82.7676 35.5175 82.7772 35.4456 82.8122 35.385C82.8473 35.3244 82.905 35.28 82.9729 35.2613C83.0424 35.2435 83.1162 35.2535 83.1783 35.2893C83.2404 35.325 83.2858 35.3837 83.3046 35.4524C84.4388 39.7459 91.1584 48.0092 91.228 48.0941C91.2723 48.1484 91.2933 48.2179 91.2862 48.2875C91.2792 48.3571 91.2448 48.4211 91.1905 48.4656C91.1409 48.5021 91.0811 48.5225 91.0193 48.524Z" fill="#171717"/>
<path d="M85.9422 112.661C83.0767 112.646 80.216 112.426 77.3822 112.003C74.0139 111.518 70.6823 110.809 67.4098 109.88C67.3423 109.858 67.286 109.811 67.2531 109.749C67.2201 109.686 67.213 109.614 67.2332 109.546C67.2542 109.479 67.3008 109.424 67.3629 109.391C67.425 109.358 67.4976 109.351 67.5649 109.371C67.7361 109.424 84.6849 114.492 95.7006 110.772C95.7673 110.75 95.8401 110.755 95.9031 110.786C95.9662 110.816 96.0145 110.871 96.0376 110.937C96.06 111.003 96.0552 111.076 96.0242 111.14C95.9933 111.203 95.9386 111.252 95.8718 111.276C92.6575 112.26 89.3053 112.727 85.9422 112.661Z" fill="white"/>
<path d="M28.2531 80.2715C29.5325 80.2715 30.5697 79.8176 30.5697 79.2578C30.5697 78.698 29.5325 78.2441 28.2531 78.2441C26.9737 78.2441 25.9366 78.698 25.9366 79.2578C25.9366 79.8176 26.9737 80.2715 28.2531 80.2715Z" fill="white"/>
<path d="M28.2532 80.5421C26.7766 80.5421 25.6638 80.0114 25.6638 79.2578C25.6638 78.5042 26.7766 77.9788 28.2532 77.9788C29.7298 77.9788 30.8372 78.5095 30.8372 79.2578C30.8372 80.0061 29.7244 80.5421 28.2532 80.5421ZM28.2532 78.5095C27.0013 78.5095 26.1988 78.9553 26.1988 79.2578C26.1988 79.5603 27.0013 80.0114 28.2532 80.0114C29.5051 80.0114 30.3022 79.5656 30.3022 79.2578C30.3022 78.95 29.5051 78.5307 28.2532 78.5307V78.5095Z" fill="#171717"/>
<path d="M30.5804 78.7643C30.6125 77.2624 30.7837 72.677 31.6129 70.1189C32.6187 67.0301 32.5171 61.6274 32.5171 61.6274C32.5171 60.566 30.6071 59.7593 28.2371 59.7593C25.867 59.7593 23.9571 60.5925 23.9571 61.6274C23.9571 61.6274 23.8554 67.0301 24.8612 70.1189C25.6905 72.677 25.8617 77.2624 25.8938 78.7643C24.7863 79.0934 24.0587 79.6453 24.0587 80.2769C24.0587 81.2852 25.9205 82.0972 28.221 82.0972C30.5215 82.0972 32.3833 81.2852 32.3833 80.2769C32.4154 79.6453 31.6878 79.0934 30.5804 78.7643Z" fill="white"/>
<path d="M28.2532 82.3626C25.7708 82.3626 23.8234 81.4498 23.8234 80.2769C23.8234 79.5711 24.4868 78.9607 25.6531 78.5733C25.6103 76.9811 25.4284 72.6293 24.6366 70.1986C23.6308 67.1045 23.7164 61.845 23.7217 61.6221C23.7217 60.428 25.7119 59.4993 28.2532 59.4993C30.7944 59.4993 32.7846 60.4333 32.7846 61.6221C32.7846 61.8397 32.8756 67.0992 31.8698 70.1933C31.078 72.6239 30.8907 76.9918 30.8533 78.568C32.0196 78.9554 32.683 79.5658 32.683 80.2716C32.683 81.4498 30.7356 82.3626 28.2532 82.3626ZM28.2532 60.0247C25.8992 60.0247 24.2567 60.8685 24.2567 61.6168C24.2567 61.6752 24.1658 67.0142 25.1448 70.0287C25.9741 72.5656 26.1506 76.9705 26.2148 78.7484C26.2151 78.8066 26.1965 78.8632 26.1618 78.9101C26.1272 78.9569 26.0782 78.9914 26.0222 79.0085C25.0111 79.3057 24.3798 79.7887 24.3798 80.2663C24.3798 81.004 25.9848 81.8213 28.2746 81.8213C30.5644 81.8213 32.1694 81.004 32.1694 80.2663C32.1694 79.7887 31.5381 79.3057 30.5216 79.0085C30.4661 78.9912 30.4178 78.9565 30.3841 78.9096C30.3503 78.8626 30.3328 78.8061 30.3343 78.7484C30.3718 76.9705 30.5537 72.5656 31.3776 70.0287C32.3566 67.0142 32.271 61.6752 32.271 61.6221C32.2496 60.8685 30.6072 60.0247 28.2532 60.0247Z" fill="#171717"/>
<path d="M24.0427 64.2915C24.0896 66.2642 24.3752 68.2243 24.8934 70.1294C25.6156 72.3584 25.835 76.1372 25.9045 78.0584C26.6426 78.3816 27.4478 78.5254 28.2532 78.4776C29.9866 78.4776 30.6018 78.0584 30.6018 78.0584C30.666 76.1372 30.8854 72.3584 31.613 70.1294C32.1312 68.2243 32.4168 66.2642 32.4636 64.2915H24.0427Z" fill="#FC3060"/>
<path d="M28.2532 78.7323C27.4013 78.7805 26.5501 78.6258 25.7708 78.2812C25.7318 78.2578 25.6992 78.2252 25.6759 78.1863C25.6525 78.1475 25.6392 78.1035 25.637 78.0583C25.5675 76.0575 25.3481 72.3796 24.6366 70.1984C24.1135 68.2741 23.8244 66.2946 23.7752 64.3021C23.7732 64.2664 23.7783 64.2307 23.7902 64.197C23.8021 64.1633 23.8207 64.1323 23.8448 64.1057C23.8987 64.056 23.9691 64.0276 24.0427 64.0261H32.485C32.5573 64.0263 32.6266 64.0549 32.6776 64.1057C32.7035 64.1313 32.7235 64.162 32.7364 64.1959C32.7493 64.2298 32.7548 64.266 32.7525 64.3021C32.7007 66.2943 32.4116 68.2735 31.8912 70.1984C31.1796 72.3796 30.9603 76.0363 30.8907 78.0583C30.8883 78.1002 30.8765 78.141 30.8561 78.1777C30.8357 78.2144 30.8073 78.2462 30.773 78.2706C30.6821 78.3184 30.0187 78.7323 28.2532 78.7323ZM26.1667 77.8779C26.8353 78.1154 27.5433 78.2253 28.2532 78.2016C28.9627 78.2343 29.6717 78.1279 30.3397 77.8885C30.4146 75.8293 30.65 72.2204 31.3562 70.0392C31.8459 68.25 32.1224 66.4099 32.1801 64.5568H24.3209C24.3809 66.4097 24.6574 68.2495 25.1448 70.0392C25.8564 72.2204 26.0918 75.8187 26.1667 77.8779Z" fill="#171717"/>
<path d="M28.2531 66.0695C30.6081 66.0695 32.5171 65.2331 32.5171 64.2014C32.5171 63.1696 30.6081 62.3333 28.2531 62.3333C25.8982 62.3333 23.9892 63.1696 23.9892 64.2014C23.9892 65.2331 25.8982 66.0695 28.2531 66.0695Z" fill="#FC3060"/>
<path d="M28.2531 66.3241C25.7119 66.3241 23.7217 65.3847 23.7217 64.2012C23.7217 63.0177 25.7119 62.0784 28.2531 62.0784C30.7944 62.0784 32.7846 63.0177 32.7846 64.2012C32.7846 65.3847 30.7944 66.3241 28.2531 66.3241ZM28.2531 62.6091C25.8991 62.6091 24.2567 63.4529 24.2567 64.2012C24.2567 64.9496 25.8991 65.7934 28.2531 65.7934C30.6071 65.7934 32.2496 64.9496 32.2496 64.2012C32.2496 63.4529 30.6071 62.6091 28.2531 62.6091Z" fill="#171717"/>
<path d="M28.2531 63.7609C25.7119 63.7609 23.7217 62.8215 23.7217 61.638C23.7217 60.4545 25.7119 59.5151 28.2531 59.5151C30.7944 59.5151 32.7846 60.4492 32.7846 61.638C32.7846 62.8268 30.7944 63.7609 28.2531 63.7609ZM28.2531 60.0459C25.8991 60.0459 24.2567 60.8897 24.2567 61.638C24.2567 62.3863 25.8991 63.2302 28.2531 63.2302C30.6071 63.2302 32.2496 62.3863 32.2496 61.638C32.2496 60.8897 30.6071 60.0246 28.2531 60.0246V60.0459Z" fill="#171717"/>
<path d="M32.5171 73.1545C32.5171 73.1545 28.007 75.1978 27.7556 76.4928C27.5041 77.7877 29.3606 77.5914 32.271 76.4928C32.271 76.4928 35.5345 77.2888 37.8938 75.0492" fill="white"/>
<path d="M28.74 77.6552C28.3943 77.6812 28.0501 77.5874 27.7663 77.3898C27.6363 77.2734 27.5418 77.1232 27.4936 76.9562C27.4454 76.7892 27.4453 76.6121 27.4935 76.4451C27.7663 75.0546 31.934 73.1281 32.4101 72.9158C32.4747 72.8863 32.5484 72.8834 32.6151 72.9078C32.6819 72.9321 32.7361 72.9818 32.7659 73.0459C32.7957 73.1099 32.7986 73.1831 32.774 73.2493C32.7494 73.3154 32.6994 73.3692 32.6348 73.3988C30.9389 74.1683 28.1836 75.7021 28.0231 76.546C27.9589 76.8591 28.0713 76.9493 28.1087 76.9811C28.3067 77.1457 29.1038 77.4057 32.1854 76.2488C32.2354 76.23 32.2906 76.23 32.3405 76.2488C32.3726 76.2488 35.4971 76.9758 37.7173 74.8689C37.7422 74.844 37.7718 74.8243 37.8044 74.8108C37.837 74.7973 37.8719 74.7904 37.9072 74.7904C37.9425 74.7904 37.9775 74.7973 38.0101 74.8108C38.0427 74.8243 38.0723 74.844 38.0972 74.8689C38.1221 74.8931 38.1419 74.922 38.1554 74.9539C38.1689 74.9858 38.1758 75.02 38.1758 75.0546C38.1758 75.0892 38.1689 75.1235 38.1554 75.1554C38.1419 75.1873 38.1221 75.2162 38.0972 75.2404C35.8448 77.3633 32.8541 76.8856 32.3085 76.7689C31.1764 77.2575 29.9706 77.557 28.74 77.6552Z" fill="#171717"/>
<path d="M13.0163 106.096C12.9454 106.096 12.8774 106.068 12.8272 106.019C12.777 105.969 12.7488 105.901 12.7488 105.831V91.7988C12.7488 91.7284 12.777 91.6609 12.8272 91.6112C12.8774 91.5614 12.9454 91.5334 13.0163 91.5334C13.0873 91.5334 13.1553 91.5614 13.2055 91.6112C13.2557 91.6609 13.2838 91.7284 13.2838 91.7988V105.842C13.2811 105.91 13.2517 105.975 13.2018 106.022C13.1519 106.07 13.0855 106.096 13.0163 106.096Z" fill="#B8BABA"/>
<path d="M42.4413 106.096C42.3704 106.096 42.3023 106.068 42.2522 106.019C42.202 105.969 42.1738 105.901 42.1738 105.831V91.7988C42.1738 91.7284 42.202 91.6609 42.2522 91.6112C42.3023 91.5614 42.3704 91.5334 42.4413 91.5334C42.5123 91.5334 42.5803 91.5614 42.6305 91.6112C42.6806 91.6609 42.7088 91.7284 42.7088 91.7988V105.842C42.7061 105.91 42.6767 105.975 42.6268 106.022C42.5769 106.07 42.5105 106.096 42.4413 106.096Z" fill="#B8BABA"/>
<path d="M28.2532 106.096C28.1822 106.096 28.1142 106.068 28.064 106.019C28.0138 105.969 27.9857 105.901 27.9857 105.831V91.7988C27.9857 91.7284 28.0138 91.6609 28.064 91.6112C28.1142 91.5614 28.1822 91.5334 28.2532 91.5334C28.3241 91.5334 28.3921 91.5614 28.4423 91.6112C28.4925 91.6609 28.5207 91.7284 28.5207 91.7988V105.842C28.5179 105.91 28.4885 105.975 28.4386 106.022C28.3888 106.07 28.3223 106.096 28.2532 106.096Z" fill="#B8BABA"/>
</g>
<defs>
<clipPath id="clip0_185_102">
<rect width="120" height="120" fill="white"/>
</clipPath>
</defs>
</svg>
