<svg width="580" height="213" viewBox="0 0 580 213" fill="none" xmlns="http://www.w3.org/2000/svg">
<g clip-path="url(#clip0_893_3308)">
<path d="M219.704 86.148C223.159 81.6927 224.406 77.5938 226.08 73.7801C233.489 56.7786 242.928 41.0958 256.678 28.3002C276.375 10.0155 299.457 -0.392118 326.778 -4.95166e-05C350.572 0.356376 367.919 11.6194 378.747 32.506C385.515 45.5512 387.83 59.7725 388.293 74.2791C388.507 80.4809 388.293 86.7183 388.578 92.9201C388.756 97.4111 389.611 97.8745 393.814 95.9141C399.478 93.3122 404.999 90.3182 410.698 87.752C433.994 77.2018 458.18 70.1445 484.111 71.5346C505.804 72.7108 526.178 78.1285 543.988 91.1737C564.22 105.965 574.586 126.389 578.076 150.554C579.822 162.601 579.858 174.755 579.964 186.91C580.036 196.07 577.613 199.598 568.744 202.521C557.916 206.085 546.589 207.547 535.368 209.436C516.49 212.608 497.433 213.214 478.376 212.857C446.781 212.287 415.186 211.966 383.663 210.79C355.238 209.721 326.884 207.44 298.567 204.909C286.67 203.84 274.737 203.376 262.769 202.877C227.79 201.487 192.811 200.561 157.868 198.85C125.489 197.282 93.1462 194.751 60.7677 193.04C47.4458 192.327 34.0527 191.614 20.7308 193.111C14.0699 193.86 9.9736 190.224 6.5897 185.448C-8.08573 164.776 2.99208 133.054 27.8904 127.636C38.1846 125.391 40.9986 121.078 43.7057 111.526C55.5672 69.895 86.3784 42.878 130.939 35.8207C161.893 30.9377 186.649 42.4503 205.563 66.8298C210.229 72.8177 214.575 79.0552 219.704 86.0411V86.148Z" fill="#FDB137"/>
<path d="M369.023 126.959C368.952 131.592 369.343 135.584 368.382 139.469C367.705 142.25 366.066 144.139 363.003 143.782C360.439 143.497 359.049 141.644 358.836 139.113C358.657 136.867 358.729 134.622 358.693 132.341C358.551 117.585 356.698 103.114 351.07 89.2846C347.829 81.3363 343.59 74.0653 337.357 68.0773C326.956 58.133 314.845 55.4598 301.202 60.0934C290.659 63.6933 282.431 70.5367 275.342 78.8057C264.122 91.9222 256.82 107.106 251.726 123.43C251.05 125.569 250.551 127.814 249.732 129.882C248.592 132.697 246.668 134.943 243.249 133.767C240.007 132.662 239.509 129.846 240.007 126.816C240.15 125.996 240.435 125.177 240.649 124.357C245.671 106.215 253.472 89.4272 265.404 74.6355C272.208 66.1883 280.115 58.9528 289.768 53.749C310.535 42.5216 332.797 46.5492 348.292 64.4774C359.975 78.0216 365.14 94.3102 367.669 111.597C368.453 116.908 368.667 122.254 369.094 126.923L369.023 126.959Z" fill="#FFCD49"/>
<path d="M474.422 100.441C499.891 100.263 519.375 110.563 533.836 130.523C540.854 140.182 546.375 150.661 550.898 161.639C553.321 167.484 552.822 170.657 549.723 172.154C546.446 173.722 544.238 172.047 541.566 165.916C537.185 155.794 532.234 145.956 525.751 136.974C508.083 112.452 478.305 103.791 450.13 115.161C432.747 122.183 419.318 134.016 408.917 149.414C407.813 151.053 406.851 152.835 405.498 154.225C404.002 155.758 402.007 156.043 400.012 155.01C398.018 153.976 397.198 152.087 397.59 150.055C397.982 148.166 398.694 146.206 399.763 144.602C413.726 123.608 432.284 108.639 457.147 102.152C462.988 100.619 468.937 100.369 474.351 100.441H474.422Z" fill="#FFCD49"/>
<path d="M136.211 70.8574C148.713 71.1069 159.862 74.8138 169.943 81.7997C185.616 92.6707 195.767 107.783 203.176 124.963C203.817 126.46 204.031 128.242 204.031 129.917C204.031 131.771 202.856 133.054 201.182 133.802C199.436 134.551 197.833 133.945 196.444 132.84C194.378 131.165 193.666 128.634 192.597 126.353C187.29 114.983 180.593 104.575 171.261 95.9854C150.601 76.9879 124.848 76.382 103.405 94.4885C91.4365 104.575 83.3864 117.442 77.2597 131.664C76.2624 133.98 75.3362 136.404 73.9114 138.471C72.5223 140.467 70.2782 141.073 67.856 139.933C65.7545 138.935 65.1489 137.081 65.327 135.014C65.4339 133.624 65.8257 132.234 66.3244 130.951C73.5909 113.165 83.422 97.1616 98.8098 85.0432C109.816 76.3464 122.248 71.2851 136.246 70.9644L136.211 70.8574Z" fill="#FFCD49"/>
<path d="M515.742 169.373C515.991 173.722 512.18 176.252 508.796 174.328C506.872 173.223 505.376 171.405 503.773 169.837C499.57 165.631 495.652 161.104 491.199 157.219C474.494 142.641 450.45 142.784 433.638 157.326C433.21 157.683 432.854 158.11 432.462 158.538C430.218 160.962 427.796 163.029 424.448 160.498C421.847 158.538 422.097 155.045 424.911 151.481C425.445 150.804 426.05 150.233 426.692 149.663C441.901 135.121 470.54 131.842 488.742 142.606C498.68 148.487 506.16 157.005 513.64 165.488C514.709 166.7 515.243 168.411 515.777 169.373H515.742Z" fill="#FFCD49"/>
<path d="M307.115 100.476C316.234 100.548 322.005 104.326 326.065 110.599C332.512 120.472 332.904 131.913 334.008 143.105C334.222 145.243 332.833 146.883 330.731 147.525C328.594 148.166 326.849 147.275 325.424 145.707C323.607 143.675 323.465 141.109 323.216 138.578C322.61 132.697 321.969 126.781 319.867 121.185C315.629 109.743 306.581 107.427 297.213 115.411C291.478 120.294 287.489 126.353 285.743 133.766C284.354 139.683 282.466 141.608 279.296 140.752C276.09 139.861 274.416 136.582 275.699 131.521C278.904 118.583 286.242 108.567 298.495 102.579C301.559 101.082 304.943 100.369 307.115 100.548V100.476Z" fill="#FFCD49"/>
<path d="M132.613 115.304C139.737 115.304 144.403 116.266 148.963 118.013C159.399 122.04 166.844 129.775 174.075 137.794C176.141 140.111 176.818 142.927 174.146 145.279C171.866 147.275 169.337 146.669 167.2 144.851C165.455 143.39 163.923 141.75 162.249 140.182C159.577 137.687 157.013 134.978 154.128 132.733C140.129 122.005 124.1 123.395 112.274 136.44C109.638 139.362 107.644 142.82 105.257 145.956C103.725 147.988 101.588 148.772 99.2729 147.525C97.0644 146.348 96.1739 144.281 96.6726 141.786C96.8863 140.681 97.2425 139.576 97.8124 138.614C106.219 124.713 117.938 115.91 132.649 115.232L132.613 115.304Z" fill="#FFCD49"/>
</g>
<defs>
<clipPath id="clip0_893_3308">
<rect width="580" height="213" fill="white"/>
</clipPath>
</defs>
</svg>
