<svg width="350" height="109" viewBox="0 0 350 109" fill="none" xmlns="http://www.w3.org/2000/svg">
<g clip-path="url(#clip0_893_3316)">
<path d="M174.376 92.726C161.828 92.2457 149.934 94.7819 138.77 99.0474C131.738 101.737 124.609 104.293 116.961 106.118C101.858 109.749 86.6786 110.038 71.4795 106.445C65.4268 105.004 59.451 103.428 53.4944 101.795C41.1584 98.3941 28.4381 96.8186 15.0837 97.8753C12.9509 98.0482 10.7796 98.2404 8.72357 97.7024C4.41942 96.5688 0.480361 95.2622 0.134492 91.5348C-0.249806 87.5959 -0.230591 83.7916 5.53389 81.4283C10.0302 79.5838 15.0261 78.5654 20.2333 77.9314C33.9912 76.2406 47.2303 76.7017 59.6239 81.582C63.1018 82.9462 66.7719 84.099 70.3074 85.4248C80.4529 89.1907 91.0211 89.7479 102.05 87.4422C107.988 86.1933 113.503 84.3296 119.017 82.4466C125.358 80.2562 131.603 77.9122 138.117 75.9908C160.099 69.4773 182.292 68.8817 204.62 75.3183C208.559 76.4519 212.536 77.5279 216.475 78.6231C227.639 81.7549 239.13 81.9086 250.832 80.2947C263.898 78.4886 276.522 75.5489 289.646 73.8773C308.746 71.4563 325.482 74.5882 340.412 82.6195C344.85 85.0213 345.273 87.2309 341.968 90.4588C337.26 95.0701 333.706 95.9732 326.366 93.6291C313.03 89.402 299.599 90.0361 285.976 92.6299C279.789 93.802 273.755 95.3007 267.971 97.2028C254.367 101.68 240.244 102.544 225.545 100.162C216.975 98.7784 208.405 97.4334 200.104 95.4352C191.938 93.4561 183.541 92.5147 174.376 92.7452V92.726Z" fill="white"/>
<path d="M36.3931 40.253C44.1559 40.5412 51.5345 41.4059 58.0868 43.7115C77.7052 50.6477 96.9778 49.3412 116.462 43.5002C129.739 39.5229 143.439 36.5063 158.004 35.0845C169.629 33.9701 180.774 34.8732 191.9 36.8522C194.205 37.2557 196.53 37.6784 198.702 38.2932C215.707 43.0583 232.481 42.3666 249.391 37.9089C263.84 34.0854 278.847 31.7029 294.527 31.2994C306.478 30.992 317.738 32.2024 328.095 36.4295C333.168 38.5046 338.548 40.2338 343.64 42.2897C351.595 45.4984 352.171 52.7997 344.985 56.8538C343.409 57.7376 341.603 58.0642 339.662 57.776C338.298 57.5647 336.915 57.2188 335.723 56.7193C320.774 50.5516 304.71 50.3403 288.09 52.6075C278.021 53.9909 268.375 56.2774 258.614 58.2948C252.234 59.6014 245.855 60.831 239.245 61.5227C225.41 62.983 212.229 61.2922 199.317 58.1411C195.301 57.1612 191.285 56.1429 187.384 54.9708C177.392 51.9543 167.189 51.8198 156.679 53.5298C149.473 54.7018 142.556 56.3542 135.677 58.1411C125.243 60.8695 114.713 63.2712 103.588 64.5201C88.0236 66.2686 73.2665 64.5969 58.8746 60.6581C53.1485 59.0826 47.5378 57.3341 41.485 56.3542C34.3179 55.2014 27.4197 55.3359 20.5792 57.4302C11.7595 60.1393 7.66676 58.1027 8.16635 51.6084C8.32007 49.5525 9.72276 48.0346 11.9325 46.6897C18.9651 42.405 27.5734 40.8679 36.4507 40.2146L36.3931 40.253Z" fill="white"/>
<path d="M87.8507 26.3613C81.2599 26.4574 75.1112 25.1893 68.9624 23.9404C59.8545 22.0958 50.9388 19.867 41.6003 18.5221C32.8575 17.2732 24.5951 17.7343 16.717 20.674C14.1998 21.6155 11.6058 22.4417 8.62749 21.5002C2.9783 19.7133 1.71011 16.0627 5.82211 12.9116C9.83803 9.83742 15.1414 8.0121 20.9058 6.82085C32.4732 4.45755 43.983 5.01475 55.3198 7.4549C60.527 8.5693 65.6958 9.83742 70.6149 11.4322C81.3176 14.8907 92.1548 14.8138 103.299 12.6618C114.732 10.4523 126.012 7.93525 137.252 5.30296C144.227 3.66978 151.318 2.42088 158.696 1.82525C167.266 1.11434 175.317 2.03661 182.965 4.55362C187.864 6.16758 192.63 7.99289 197.337 9.83742C205.292 12.9693 213.632 14.0452 222.701 12.4313C229.157 11.2785 235.498 9.9527 241.762 8.4156C255.635 5.03396 269.739 2.24796 284.4 0.691639C302.847 -1.26817 319.41 0.902991 333.859 9.10729C338.029 11.4706 342.468 13.6225 346.637 15.9858C350.173 17.9649 350.807 19.6557 349.001 21.212C347.233 22.7491 344.312 23.0181 340.623 21.5386C333.667 18.7334 326.615 16.2164 318.68 14.7946C302.347 11.8741 286.187 11.9894 270.143 15.5247C260.651 17.619 251.216 19.8094 241.743 21.9613C224.968 25.7465 208.597 25.8425 192.822 19.6941C188.095 17.8496 182.772 16.8312 177.719 15.4094C167.304 12.4889 156.89 12.7387 146.283 14.833C139.174 16.2356 132.449 18.2146 125.819 20.3858C113.868 24.3054 101.032 25.8041 87.8891 26.3805L87.8507 26.3613Z" fill="white"/>
</g>
<defs>
<clipPath id="clip0_893_3316">
<rect width="350" height="109" fill="white"/>
</clipPath>
</defs>
</svg>
