<svg width="66" height="55" viewBox="0 0 66 55" fill="none" xmlns="http://www.w3.org/2000/svg">
<g clip-path="url(#clip0_893_3299)">
<path d="M8.3884 48.2599C8.07622 48.4194 8.05608 48.7499 7.94531 49.0006C7.48208 50.0605 6.98864 51.0975 6.37436 52.0548C6.0219 52.6018 5.59896 53.0234 5.02495 53.2514C4.25962 53.5704 3.7259 53.3767 3.29288 52.6246C2.97064 52.0662 2.80951 51.4394 2.72895 50.7898C2.49734 48.9209 2.68867 47.0747 3.00085 45.24C3.04113 45.012 3.08141 44.7955 3.14183 44.5676C3.26267 44.1345 3.10155 43.975 2.72895 43.9294C2.38657 43.8838 2.04418 43.7927 1.70179 43.6901C1.24864 43.5534 0.825688 43.3368 0.483301 42.9608C-0.11084 42.2884 -0.16119 41.5249 0.322178 40.7499C0.604144 40.3055 0.996881 40.0206 1.41983 39.8041C2.34629 39.3254 3.26267 38.824 4.20927 38.391C5.15587 37.9579 5.70973 37.2058 5.99169 36.1346C6.15282 35.542 6.33408 34.9494 6.51534 34.3682C6.70668 33.7756 6.97857 33.24 7.36124 32.7727C8.10643 31.8838 9.03289 31.8383 9.82843 32.6702C10.3017 33.1716 10.624 33.787 10.8858 34.4593C11.1073 35.0291 11.3188 35.5989 11.5202 36.1801C11.7518 36.8297 12.1546 37.2286 12.7488 37.4679C13.6752 37.8326 14.6319 37.9123 15.5886 37.9579C16.4647 37.9921 17.3307 38.0947 18.1968 38.1744C18.2874 38.1744 18.368 38.1858 18.4586 38.2086C19.1333 38.3796 19.7979 38.5847 20.0396 39.4052C20.3014 40.2599 20.0195 41.012 19.526 41.673C19.1232 42.2086 18.6096 42.5733 18.0457 42.8696C16.9682 43.4394 15.9008 44.0434 14.8132 44.579C14.3097 44.8297 14.3298 45.2172 14.3802 45.6958C14.5211 46.9608 14.6521 48.2257 14.783 49.4907C14.8937 50.4707 14.8031 51.4508 14.6521 52.4194C14.6218 52.6474 14.5614 52.8639 14.4809 53.0804C14.068 54.2656 13.1315 54.6303 12.1446 54.0035C11.7317 53.7414 11.4095 53.3653 11.0973 52.9778C10.191 51.861 9.48605 50.5847 8.87177 49.24C8.72071 48.8981 8.62001 48.5106 8.35819 48.2599H8.3884Z" fill="#FC3060"/>
<path d="M32.0735 29.5134C31.56 29.8895 31.5902 30.4821 31.4492 30.9607C30.8651 32.9778 30.2105 34.9607 29.3244 36.841C28.8209 37.9123 28.1462 38.7897 27.1895 39.3595C25.9005 40.1345 24.9136 39.9635 23.957 38.7442C23.252 37.8439 22.8392 36.7727 22.5471 35.6217C21.7214 32.351 21.661 29.012 21.812 25.6501C21.8322 25.2399 21.8523 24.8296 21.9127 24.4194C22.0336 23.6217 21.7012 23.3709 21.0366 23.3937C20.4123 23.4051 19.7778 23.3482 19.1535 23.257C18.3177 23.1316 17.512 22.8809 16.8172 22.2883C15.5987 21.2513 15.347 19.9066 16.0519 18.4023C16.4547 17.5362 17.0891 16.9208 17.794 16.408C19.3347 15.2912 20.8553 14.1288 22.4464 13.1031C24.0275 12.0661 24.8532 10.5618 25.1251 8.57893C25.2762 7.47352 25.4675 6.3795 25.6689 5.28548C25.8804 4.18007 26.2429 3.14303 26.827 2.20856C27.9548 0.407992 29.5963 0.0775082 31.1974 1.33107C32.1541 2.08321 32.8691 3.10885 33.4733 4.21426C33.9969 5.16013 34.5004 6.12879 34.9939 7.09745C35.5477 8.19147 36.3634 8.79545 37.4712 9.04617C39.1932 9.43363 40.9152 9.30827 42.6372 9.10315C44.2081 8.92081 45.769 8.85243 47.3399 8.74987C47.5011 8.74987 47.6521 8.72708 47.8132 8.74987C49.0418 8.85243 50.2804 9.04617 50.9048 10.4365C51.5593 11.8838 51.2371 13.2969 50.4919 14.6188C49.8978 15.69 49.0619 16.4878 48.1254 17.1715C46.3329 18.4935 44.5606 19.8724 42.7379 21.1373C41.892 21.7185 42.0128 22.4251 42.2142 23.257C42.7479 25.4678 43.2514 27.69 43.7751 29.9009C44.188 31.6217 44.2383 33.388 44.198 35.1544C44.198 35.5647 44.1275 35.9749 44.047 36.3738C43.5737 38.596 41.9927 39.5191 40.0894 38.6872C39.2939 38.3339 38.6393 37.7527 37.9948 37.1487C36.1318 35.4051 34.5911 33.3425 33.2014 31.1088C32.859 30.5504 32.5972 29.8895 32.0635 29.502L32.0735 29.5134Z" fill="#171717"/>
<path d="M11.621 9.23997C11.48 9.31975 11.4699 9.4679 11.4196 9.58186C11.2081 10.0719 10.9765 10.5619 10.6845 11.0064C10.5233 11.2571 10.3219 11.4622 10.05 11.5648C9.69758 11.7129 9.44583 11.6217 9.23435 11.2685C9.0833 11.0064 9.01281 10.7215 8.97253 10.4138C8.86176 9.53627 8.95239 8.68157 9.10344 7.81547C9.12358 7.71291 9.14372 7.61035 9.17393 7.50778C9.23435 7.30265 9.15379 7.23428 8.9826 7.21149C8.82148 7.18869 8.66035 7.15451 8.49923 7.09753C8.28776 7.02915 8.08635 6.93798 7.92523 6.75565C7.64327 6.43656 7.62313 6.08328 7.85474 5.71861C7.98565 5.51348 8.16692 5.37673 8.36832 5.27416C8.80134 5.04624 9.22429 4.81832 9.66737 4.6132C10.1105 4.40807 10.3723 4.05479 10.5032 3.55337C10.5737 3.27986 10.6643 3.00636 10.7449 2.73285C10.8355 2.45935 10.9564 2.20864 11.1376 1.99211C11.4901 1.57046 11.9231 1.55907 12.2856 1.94653C12.5072 2.17445 12.6582 2.47075 12.7791 2.77844C12.8798 3.04055 12.9805 3.31405 13.0812 3.57616C13.1919 3.88385 13.3833 4.06619 13.6552 4.18015C14.0882 4.35109 14.5313 4.38528 14.9844 4.40807C15.3973 4.41946 15.8001 4.46505 16.2029 4.51063C16.2432 4.51063 16.2835 4.51063 16.3238 4.53342C16.6359 4.6132 16.9481 4.71576 17.069 5.09183C17.1898 5.49069 17.069 5.84396 16.8273 6.15166C16.6359 6.40237 16.3943 6.57331 16.1425 6.71006C15.639 6.97217 15.1355 7.25707 14.632 7.50778C14.4004 7.62174 14.4004 7.80408 14.4306 8.032C14.5011 8.62459 14.5514 9.21718 14.6219 9.80978C14.6723 10.2656 14.6219 10.7215 14.5615 11.1773C14.5413 11.2799 14.5212 11.3824 14.4809 11.485C14.2896 12.0434 13.8566 12.2143 13.3933 11.918C13.202 11.7927 13.051 11.6217 12.8999 11.4394C12.477 10.9152 12.1446 10.3226 11.8627 9.69582C11.7922 9.53627 11.7418 9.35394 11.621 9.23997Z" fill="#FC3060"/>
<path d="M55.5975 32.7615C55.3458 32.7615 55.235 32.978 55.094 33.1034C54.4797 33.6504 53.8554 34.1746 53.1706 34.5963C52.7779 34.8356 52.365 34.9723 51.9219 34.9267C51.3177 34.8698 51.0055 34.5507 50.9249 33.8783C50.8645 33.3883 50.9249 32.8983 51.0659 32.431C51.4385 31.0749 52.0931 29.9011 52.8181 28.7729C52.9088 28.6361 52.9994 28.4994 53.1001 28.374C53.3015 28.1233 53.2411 27.9524 52.9994 27.7928C52.7779 27.6333 52.5664 27.451 52.375 27.2572C52.1132 26.9951 51.8816 26.6988 51.7608 26.3228C51.5493 25.6504 51.7306 25.1148 52.2743 24.7729C52.5865 24.5792 52.9289 24.5222 53.2814 24.5336C54.0467 24.5336 54.802 24.5336 55.5673 24.5792C56.3226 24.6248 56.9167 24.3171 57.4101 23.7017C57.682 23.3598 57.9741 23.0293 58.2661 22.6988C58.5581 22.3683 58.9005 22.0948 59.2832 21.9239C60.0385 21.5934 60.6729 21.9011 60.9851 22.7444C61.1663 23.2572 61.2066 23.7928 61.1965 24.3399C61.1965 24.8071 61.1663 25.2743 61.1462 25.7302C61.116 26.2544 61.2771 26.676 61.6094 27.0521C62.1331 27.6333 62.7574 28.0322 63.3918 28.4082C63.9759 28.7501 64.5298 29.1262 65.0937 29.5022C65.1541 29.5364 65.2045 29.582 65.2548 29.6162C65.6576 29.9695 66.0504 30.3569 65.9899 31.0065C65.9295 31.6789 65.5267 32.0891 65.0031 32.3512C64.5801 32.5678 64.127 32.6248 63.6637 32.6248C62.7675 32.6248 61.8813 32.6475 60.9851 32.6134C60.5722 32.602 60.4715 32.8755 60.3708 33.2173C60.109 34.129 59.8371 35.0293 59.5752 35.9296C59.3738 36.6361 59.0314 37.2629 58.6588 37.8669C58.5783 38.0037 58.4675 38.1404 58.3567 38.2544C57.7425 38.904 57.0073 38.8242 56.5139 38.0379C56.3125 37.7074 56.2017 37.3427 56.0909 36.9666C55.7888 35.884 55.6781 34.7672 55.6479 33.6276C55.6479 33.3427 55.6881 33.0464 55.5774 32.7729L55.5975 32.7615Z" fill="#FC3060"/>
</g>
<defs>
<clipPath id="clip0_893_3299">
<rect width="66" height="53.7322" fill="white" transform="translate(0 0.579102)"/>
</clipPath>
</defs>
</svg>
