<svg width="137" height="32" viewBox="0 0 137 32" fill="none" xmlns="http://www.w3.org/2000/svg">
<path d="M44.7894 31.6657H0.0969238L6.3182 9.27145H38.6819L44.7894 31.6657Z" fill="#FFCD49"/>
<path d="M27.7511 24.474C27.3011 24.9775 26.5354 25.2811 25.9148 24.999C25.16 24.6597 24.9822 23.7026 24.8261 22.8955C24.4669 20.8107 23.7189 18.8093 22.6197 16.9924C21.8358 15.7032 20.5076 14.3747 19.0269 14.7425C17.7786 15.0496 17.1652 16.3924 16.287 17.3209C15.8834 17.768 15.3803 18.1174 14.8169 18.3416C14.2535 18.5658 13.645 18.659 13.039 18.6137C12.4346 18.5502 11.8671 18.2967 11.4206 17.8908C10.9741 17.4849 10.6725 16.9482 10.5604 16.3603C10.4515 15.5353 10.7346 14.539 10.114 13.9747C9.35194 13.2855 8.12896 13.9926 7.10557 13.839C5.24751 13.5604 5.6213 9.27145 6.30718 9.27145H38.6673C39.0556 10.6714 40.1189 12.9533 37.829 13.2498C36.9907 13.3569 36.0144 13.2712 35.4483 13.9033C35.2197 14.1675 35.1144 14.5175 34.9112 14.7996C34.6822 15.094 34.3548 15.2992 33.9868 15.3789C33.6189 15.4586 33.2342 15.4078 32.9007 15.2353C32.3419 14.9246 31.7503 14.2497 31.2132 14.5961C31.0127 14.7651 30.878 14.9973 30.8322 15.2532L28.5894 22.6563C28.4437 23.3137 28.158 23.9332 27.7511 24.474Z" fill="white"/>
<path d="M26.4339 25.4667C26.2033 25.4682 25.9753 25.4194 25.7661 25.3239C24.819 24.8989 24.6266 23.774 24.4851 22.9526C24.129 20.9105 23.3906 18.9513 22.3077 17.1744C21.9448 16.5887 20.6673 14.7032 19.1177 15.0889C18.352 15.2781 17.8403 15.9495 17.3032 16.6602C17.0673 16.9637 16.8278 17.2816 16.5774 17.5637C16.137 18.0544 15.586 18.437 14.9684 18.6807C14.3509 18.9244 13.6839 19.0225 13.021 18.9672C12.3364 18.8952 11.6941 18.6067 11.1903 18.145C10.6864 17.6834 10.3483 17.0734 10.2266 16.4066C10.1977 16.1314 10.1868 15.8547 10.194 15.5781C10.194 15.0103 10.194 14.5067 9.89275 14.2389C9.59154 13.9711 9.03267 14.0175 8.44113 14.1139C7.99935 14.2097 7.54496 14.2363 7.09476 14.1925C5.78106 13.9961 5.32017 12.2855 5.44355 10.6784C5.49436 10.0213 5.67944 8.91427 6.35081 8.91427H38.7073C38.7892 8.91151 38.8697 8.93613 38.9356 8.98411C39.0015 9.0321 39.0489 9.10063 39.0702 9.17854C39.1173 9.35353 39.179 9.53566 39.2407 9.74636C39.5565 10.7391 39.9448 11.9783 39.4004 12.814C39.2313 13.0457 39.0114 13.2369 38.757 13.3736C38.5026 13.5102 38.2201 13.5887 37.9307 13.6032C37.7456 13.6282 37.5678 13.6425 37.3573 13.6568C36.7186 13.7068 36.1125 13.7532 35.7786 14.1353C35.6779 14.2658 35.5926 14.4072 35.5246 14.5567C35.4481 14.7132 35.3595 14.8636 35.2597 15.0067C34.9805 15.3747 34.5761 15.6316 34.1205 15.7306C33.6648 15.8295 33.1881 15.764 32.7774 15.546C32.615 15.4503 32.4575 15.3466 32.3057 15.2353C31.9137 14.9567 31.6415 14.7817 31.4673 14.896C31.346 15.0226 31.2652 15.1816 31.2351 15.3531L28.9887 22.7562C28.8277 23.4645 28.512 24.1299 28.0633 24.7061C27.8618 24.939 27.6123 25.1272 27.3315 25.2583C27.0506 25.3894 26.7447 25.4605 26.4339 25.4667ZM19.5387 14.3246C20.7399 14.3246 21.9811 15.2138 22.9464 16.8244C24.0715 18.6777 24.8369 20.7206 25.2036 22.849C25.3524 23.7097 25.5194 24.4418 26.071 24.6918C26.5464 24.9025 27.1597 24.6239 27.479 24.2525C27.8551 23.75 28.1208 23.1759 28.2593 22.5669L30.4839 15.1496C30.551 14.8128 30.7391 14.5111 31.0137 14.2996C31.6234 13.9068 32.2331 14.3389 32.6758 14.6567C32.821 14.7567 32.9553 14.8532 33.0823 14.9246C33.3375 15.0521 33.6298 15.0884 33.9092 15.0271C34.1886 14.9659 34.4376 14.811 34.6137 14.5889C34.6923 14.4755 34.7615 14.3561 34.8206 14.2318C34.9173 14.0296 35.0392 13.8401 35.1835 13.6675C35.7133 13.0604 36.5335 12.9961 37.2557 12.9533C37.4371 12.9533 37.6186 12.9247 37.7928 12.9033C37.9766 12.9 38.1575 12.8562 38.322 12.7753C38.4865 12.6944 38.6305 12.5782 38.7436 12.4355C39.1065 11.8784 38.7726 10.8177 38.504 9.9642C38.4714 9.85349 38.4351 9.74279 38.4024 9.63565H6.39436C6.18025 9.92849 5.94436 11.3712 6.30001 12.4926C6.48509 13.089 6.77904 13.4211 7.17097 13.4782C7.54646 13.51 7.92468 13.4847 8.29235 13.4033C8.98549 13.289 9.77299 13.164 10.3718 13.7068C10.9706 14.2496 10.9125 14.9353 10.9052 15.5781C10.8992 15.8165 10.9077 16.055 10.9306 16.2923C11.0355 16.8024 11.3034 17.266 11.6952 17.6156C12.0869 17.9651 12.582 18.1822 13.1081 18.2351C13.657 18.2728 14.2074 18.1861 14.7169 17.9818C15.2265 17.7775 15.6817 17.461 16.0476 17.0566C16.2871 16.7994 16.5085 16.5138 16.7407 16.2102C17.3359 15.4281 17.9528 14.6246 18.9653 14.3746C19.1523 14.3342 19.3438 14.3174 19.5351 14.3246H19.5387Z" fill="black"/>
<path d="M44.6371 31.9735H0.362903C0.266655 31.9735 0.174349 31.9358 0.106292 31.8689C0.0382341 31.8019 0 31.711 0 31.6163C0 31.5216 0.0382341 31.4308 0.106292 31.3638C0.174349 31.2968 0.266655 31.2592 0.362903 31.2592H44.6371C44.7333 31.2592 44.8256 31.2968 44.8937 31.3638C44.9618 31.4308 45 31.5216 45 31.6163C45 31.711 44.9618 31.8019 44.8937 31.8689C44.8256 31.9358 44.7333 31.9735 44.6371 31.9735Z" fill="black"/>
<path d="M22.5 9.13574C24.6826 9.13574 26.452 7.39457 26.452 5.24672C26.452 3.09887 24.6826 1.3577 22.5 1.3577C20.3174 1.3577 18.548 3.09887 18.548 5.24672C18.548 7.39457 20.3174 9.13574 22.5 9.13574Z" fill="#FC3060"/>
<path d="M22.5 9.4928C21.6466 9.4928 20.8123 9.24377 20.1027 8.77719C19.3932 8.31062 18.8401 7.64747 18.5135 6.87159C18.1869 6.09571 18.1015 5.24195 18.268 4.41828C18.4345 3.59461 18.8454 2.83802 19.4489 2.24419C20.0523 1.65035 20.8212 1.24595 21.6582 1.08211C22.4952 0.918271 23.3628 1.00236 24.1512 1.32374C24.9397 1.64512 25.6136 2.18936 26.0877 2.88763C26.5618 3.5859 26.8149 4.40685 26.8149 5.24666C26.8139 6.37252 26.359 7.45199 25.55 8.24809C24.741 9.04419 23.6441 9.49185 22.5 9.4928ZM22.5 1.71833C21.79 1.71833 21.0959 1.92556 20.5056 2.31381C19.9153 2.70206 19.4553 3.25388 19.1837 3.89946C18.9122 4.54503 18.8413 5.25537 18.9801 5.94059C19.1189 6.6258 19.4611 7.25512 19.9634 7.74893C20.4657 8.24273 21.1055 8.57883 21.802 8.7147C22.4985 8.85058 23.2202 8.78013 23.876 8.51226C24.5317 8.24439 25.092 7.79114 25.486 7.20985C25.8799 6.62856 26.0898 5.94536 26.0891 5.24666C26.0872 4.31085 25.7083 3.41396 25.0355 2.75258C24.3627 2.09119 23.4509 1.71927 22.5 1.71833Z" fill="black"/>
<path d="M23.0371 3.04685C22.9408 3.04685 22.8485 3.00922 22.7805 2.94225C22.7124 2.87528 22.6742 2.78444 22.6742 2.68973C22.6953 1.97012 22.9832 1.28297 23.4835 0.757716C23.7687 0.498573 24.1039 0.298367 24.4692 0.168939C24.8345 0.0395112 25.2224 -0.016506 25.6101 0.00419887C25.7063 0.00419887 25.7986 0.0418235 25.8667 0.108796C25.9347 0.175769 25.973 0.266604 25.973 0.361317C25.973 0.456031 25.9347 0.546863 25.8667 0.613836C25.7986 0.680809 25.7063 0.718436 25.6101 0.718436H25.5811C23.4762 0.718436 23.4036 2.50403 23.4036 2.6933C23.4032 2.7402 23.3933 2.78655 23.3746 2.82969C23.3559 2.87284 23.3288 2.91195 23.2948 2.94478C23.2607 2.97761 23.2205 3.00352 23.1763 3.02103C23.132 3.03855 23.0848 3.04732 23.0371 3.04685Z" fill="black"/>
<path d="M24.075 3.69327C24.0187 3.69327 23.9631 3.68036 23.9127 3.65557C23.8623 3.63077 23.8185 3.59478 23.7847 3.55042C23.4218 3.05046 22.3875 3.01117 22.0282 3.03974C21.9806 3.0435 21.9326 3.03797 21.8871 3.02349C21.8417 3.00901 21.7995 2.98585 21.7631 2.95535C21.7267 2.92484 21.6968 2.88757 21.675 2.84568C21.6533 2.80379 21.6401 2.75809 21.6363 2.71119C21.6325 2.66429 21.6381 2.61712 21.6528 2.57235C21.6675 2.52759 21.6911 2.48612 21.7221 2.4503C21.7531 2.41449 21.7909 2.38504 21.8335 2.36362C21.8761 2.34221 21.9225 2.32926 21.9702 2.32551C22.0391 2.32551 23.6758 2.20408 24.369 3.12188C24.4085 3.17519 24.4323 3.23825 24.4377 3.30406C24.443 3.36987 24.4298 3.43586 24.3993 3.49469C24.3689 3.55351 24.3224 3.60288 24.2652 3.63731C24.2079 3.67174 24.1421 3.68987 24.075 3.6897V3.69327Z" fill="black"/>
<path d="M3.90845 29.1594C3.87833 29.1631 3.84785 29.1631 3.81773 29.1594C3.77146 29.1477 3.72798 29.1272 3.68979 29.099C3.65159 29.0708 3.61944 29.0354 3.59517 28.9949C3.57089 28.9544 3.55498 28.9097 3.54833 28.8631C3.54168 28.8166 3.54444 28.7692 3.55644 28.7237L5.90442 19.6743C5.92848 19.5824 5.98865 19.5037 6.07168 19.4555C6.15471 19.4073 6.2538 19.3935 6.34716 19.4172C6.44052 19.4409 6.5205 19.5001 6.5695 19.5818C6.61851 19.6635 6.63252 19.761 6.60846 19.8529L4.25684 28.9023C4.23485 28.9764 4.18901 29.0416 4.12619 29.088C4.06338 29.1343 3.98698 29.1594 3.90845 29.1594Z" fill="black"/>
<path d="M68.3004 29.3344C68.8893 29.7822 69.1837 30.2221 69.1837 30.6539C69.1837 31.3577 68.8745 31.7095 68.2562 31.7095C67.5937 31.7095 66.5853 30.6779 65.2309 28.6147C63.6998 30.7259 62.5809 31.7815 61.8743 31.7815C61.2707 31.7815 60.9689 31.4536 60.9689 30.7979C60.9689 30.446 61.1455 30.1501 61.4989 29.9102C62.5147 29.2065 63.4716 28.2068 64.3696 26.9113C63.6335 24.976 63.1624 22.137 62.9563 18.3944C62.4263 19.514 61.9994 20.0738 61.6755 20.0738C61.1897 20.0738 60.9468 19.8099 60.9468 19.2821C60.9468 19.1541 61.0351 18.9222 61.2118 18.5863C61.3443 18.3464 61.5283 17.9865 61.7639 17.5067C61.6166 17.6826 61.3737 17.7706 61.0351 17.7706H54.8299C54.2263 17.7706 53.9245 17.4987 53.9245 16.9549C53.9245 16.3791 54.2263 16.0912 54.8299 16.0912H57.2148V14.2199H55.3819C54.7931 14.2199 54.4986 13.948 54.4986 13.4042C54.4986 12.8764 54.7931 12.6125 55.3819 12.6125H57.2148V10.8851C57.2148 10.2773 57.4872 9.97345 58.0319 9.97345C58.5766 9.97345 58.8489 10.2773 58.8489 10.8851V12.6125H60.7481C61.3369 12.6125 61.6314 12.8764 61.6314 13.4042C61.6314 13.948 61.3369 14.2199 60.7481 14.2199H58.8489V16.0912H61.0351C61.6387 16.0912 61.9405 16.3791 61.9405 16.9549C61.9405 17.0509 61.9332 17.1149 61.9184 17.1468C62.7281 15.3875 63.2581 13.5641 63.5084 11.6768C63.5231 11.5649 63.5452 11.3809 63.5747 11.125C63.6188 10.8691 63.6556 10.6772 63.6851 10.5492C63.7145 10.4213 63.7513 10.3333 63.7955 10.2853C63.9427 10.0774 64.1783 9.97345 64.5021 9.97345C65.091 9.97345 65.3854 10.2533 65.3854 10.8131C65.3854 11.4849 65.0174 12.8524 64.2813 14.9157H68.3887C68.9187 14.9157 69.1837 15.2195 69.1837 15.8273C69.1837 16.4351 68.9187 16.739 68.3887 16.739H68.1458C68.0722 21.0254 67.4171 24.4482 66.1804 27.0073C66.7693 27.9029 67.476 28.6786 68.3004 29.3344ZM53.9465 9.99744C54.5207 9.99744 54.8078 10.3013 54.8078 10.9091C54.8078 11.245 54.3146 12.7884 53.3282 15.5394V30.7739C53.3282 31.5256 53.0412 31.9015 52.467 31.9015C51.8928 31.9015 51.6058 31.5256 51.6058 30.7739V19.6659C50.7519 21.5692 50.1409 22.5209 49.7729 22.5209C49.2576 22.5209 49 22.201 49 21.5612C49 21.2733 49.1546 20.8575 49.4637 20.3137C50.8623 17.8826 52.0033 14.8677 52.8866 11.269C53.1074 10.4213 53.4607 9.99744 53.9465 9.99744ZM64.193 16.739C64.3402 20.5296 64.7009 23.2966 65.275 25.04C66.07 22.8808 66.4896 20.1138 66.5338 16.739H64.193ZM61.4768 25.9996C61.3296 28.2868 61.0646 29.7902 60.6818 30.51C60.2843 31.2457 59.4599 31.6136 58.2085 31.6136C57.5166 31.6136 57.1706 31.3017 57.1706 30.6779C57.1706 30.0382 57.5534 29.7183 58.3189 29.7183C58.687 29.7183 58.9667 29.6383 59.1581 29.4784C59.3495 29.3024 59.4746 29.0385 59.5335 28.6866C59.7543 27.2952 59.8647 26.3435 59.8647 25.8317C59.8647 25.4478 59.6881 25.2559 59.3348 25.2559H57.3473C57.1559 26.6954 56.7216 28.1508 56.0444 29.6223C55.5292 30.7739 55.0065 31.3497 54.4765 31.3497C53.9465 31.3497 53.6816 31.0378 53.6816 30.414C53.6816 30.1901 53.792 29.9342 54.0128 29.6463C55.2936 28.0629 55.9782 25.5358 56.0665 22.0651V22.0171H54.8519C54.2042 22.0171 53.8803 21.7372 53.8803 21.1774C53.8803 20.6016 54.2042 20.3137 54.8519 20.3137H57.1927V18.8982C57.1927 18.3224 57.4651 18.0345 58.0098 18.0345C58.5692 18.0345 58.8489 18.3224 58.8489 18.8982V20.3137H61.1235C61.7418 20.3137 62.0509 20.6016 62.0509 21.1774C62.0509 21.7372 61.7418 22.0171 61.1235 22.0171H57.6344L57.524 23.6485H59.8206C60.9542 23.6485 61.521 24.2003 61.521 25.3039L61.4768 25.9996Z" fill="#FC3060"/>
<path d="M90.9794 18.7063C91.5536 18.9622 91.8407 19.3141 91.8407 19.7619C91.8407 20.4177 91.5683 20.7455 91.0236 20.7455C90.523 20.7455 89.6913 20.2097 88.5282 19.1381V20.3377C88.5282 21.3773 88.035 21.8971 87.0487 21.8971H82.5217C81.5353 21.8971 81.0422 21.3613 81.0422 20.2897V19.1861C80.1147 20.1617 79.5037 20.6496 79.2093 20.6496C78.7824 20.6496 78.5247 20.4656 78.4364 20.0978C78.245 22.177 77.8254 24.0723 77.1777 25.7837C78.2376 26.8873 78.7676 27.663 78.7676 28.1109C78.7676 28.7186 78.4732 29.0225 77.8843 29.0225C77.6046 29.0225 77.2954 28.7906 76.9568 28.3268L76.3385 27.5111C75.9116 28.2468 75.2785 29.0545 74.4394 29.9342C73.6591 30.7659 73.0408 31.1817 72.5844 31.1817C72.0692 31.1817 71.8115 30.8459 71.8115 30.1741C71.8115 29.7902 72.0471 29.4384 72.5182 29.1185C73.5929 28.3987 74.4762 27.4231 75.1681 26.1916L74.0861 25.2319C73.5414 24.7521 73.1365 24.3522 72.8715 24.0323C72.6212 23.6965 72.4961 23.4166 72.4961 23.1926L73.4015 16.8829H72.474C71.8999 16.8829 71.6128 16.5711 71.6128 15.9473C71.6128 15.3235 71.9514 15.0116 72.6286 15.0116H73.6444C73.8211 13.6521 73.9241 12.5725 73.9536 11.7728C73.9977 10.6532 74.329 10.0934 74.9473 10.0934C75.5067 10.0934 75.7865 10.3493 75.7865 10.8611L75.3006 14.9396H77.0231C77.5531 14.9396 77.9432 15.0916 78.1935 15.3955C78.4585 15.6994 78.591 16.1712 78.591 16.811C78.591 17.7706 78.5615 18.6103 78.5026 19.33C78.6204 19.1221 78.8044 18.9302 79.0547 18.7543C80.1147 17.9386 81.0422 16.9069 81.8371 15.6594H79.5184C78.9296 15.6594 78.6351 15.3715 78.6351 14.7957C78.6351 14.2199 78.9296 13.932 79.5184 13.932H82.8309L83.4271 12.5165L79.673 12.8044C79.4228 12.8204 79.224 12.7484 79.0768 12.5885C78.9443 12.4286 78.878 12.2046 78.878 11.9167C78.878 11.3569 79.3933 11.0611 80.4238 11.0291C83.5449 10.9331 86.3568 10.6052 88.8595 10.0454L89.1907 10.0214C89.4704 10.0054 89.6839 10.0774 89.8311 10.2374C89.9931 10.3973 90.074 10.6372 90.074 10.9571C90.074 11.4369 89.7354 11.7408 89.0582 11.8688C87.7333 12.1247 86.4819 12.2926 85.3041 12.3726L84.6196 13.932H90.604C91.2076 13.932 91.5094 14.2199 91.5094 14.7957C91.5094 15.3715 91.2076 15.6594 90.604 15.6594H87.6228C88.462 17.0829 89.5808 18.0985 90.9794 18.7063ZM83.7363 15.6594C83.4713 16.1232 83.0959 16.667 82.61 17.2908H86.8941C86.4083 16.635 86.0697 16.0912 85.8783 15.6594H83.7363ZM76.9789 17.4347C76.9936 17.2108 76.9495 17.0429 76.8464 16.9309C76.7581 16.819 76.6182 16.771 76.4269 16.787H75.0577L74.4615 20.7695C74.4026 21.1854 74.3216 21.6252 74.2186 22.089C74.1597 22.4409 74.1302 22.6248 74.1302 22.6408C74.1302 23.0247 74.432 23.4246 75.0356 23.8404L75.8969 24.5362C76.1766 23.7205 76.3974 22.7848 76.5593 21.7292C76.736 20.6576 76.8759 19.2261 76.9789 17.4347ZM86.9604 19.1381C86.9604 18.8822 86.8499 18.7543 86.6291 18.7543H82.8971C82.6763 18.7543 82.5659 18.8822 82.5659 19.1381V19.9298C82.5659 20.2497 82.7278 20.4177 83.0517 20.4336H86.4966C86.7763 20.4336 86.9309 20.2657 86.9604 19.9298V19.1381ZM89.3011 22.7848C90.4936 22.7848 91.0898 23.4246 91.0898 24.7041V29.6223C91.0898 30.422 90.9205 31.0058 90.5819 31.3737C90.2433 31.7415 89.7133 31.9095 88.992 31.8775H88.0424C87.4535 31.8775 87.1591 31.5576 87.1591 30.9178C87.1591 30.2781 87.4535 29.9582 88.0424 29.9582H88.727C89.1097 29.9582 89.3159 29.7263 89.3453 29.2624V25.2079C89.3453 24.6801 89.0877 24.4002 88.5724 24.3682H81.263C80.7772 24.3682 80.5195 24.6481 80.4901 25.2079V30.9658C80.4901 31.6376 80.2104 31.9734 79.6509 31.9734C79.1062 31.9734 78.8339 31.6376 78.8339 30.9658V24.6801C78.8339 23.4166 79.408 22.7848 80.5563 22.7848H89.3011ZM87.932 28.5907C87.932 29.6783 87.4167 30.2221 86.3862 30.2221H83.2946C82.7941 30.2221 82.4187 30.0781 82.1684 29.7902C81.9181 29.5183 81.793 29.1185 81.793 28.5907V27.0552C81.793 25.9516 82.2935 25.3998 83.2946 25.3998H86.3862C87.4167 25.3998 87.932 25.9516 87.932 27.0552V28.5907ZM86.3862 27.3431C86.3862 27.0232 86.239 26.8633 85.9445 26.8633H83.7583C83.4492 26.8633 83.2946 27.0232 83.2946 27.3431V28.2788C83.2946 28.4387 83.3314 28.5587 83.405 28.6387C83.4786 28.7026 83.5964 28.7426 83.7583 28.7586H85.9445C86.239 28.7586 86.3862 28.5987 86.3862 28.2788V27.3431Z" fill="#FC3060"/>
<path d="M106.217 31.0858C105.554 31.0858 105.076 30.9258 104.781 30.6059C104.487 30.3021 104.354 29.7982 104.384 29.0945V16.2832H102.992C102.448 16.2832 102.175 15.9793 102.175 15.3715C102.175 14.7317 102.448 14.4118 102.992 14.4118H104.384V11.101C104.384 10.4453 104.671 10.1174 105.245 10.1174C105.819 10.1174 106.106 10.4453 106.106 11.101V14.4118H110.677V11.125C110.677 10.4533 110.972 10.1174 111.561 10.1174C112.164 10.1174 112.466 10.4533 112.466 11.125V14.4118H113.592C114.137 14.4118 114.409 14.7317 114.409 15.3715C114.409 15.9793 114.137 16.2832 113.592 16.2832H112.466V29.0945C112.466 29.8302 112.319 30.358 112.024 30.6779C111.73 31.0138 111.266 31.1497 110.633 31.0858H106.217ZM96.9418 30.9178C96.3087 30.9178 95.845 30.7579 95.5506 30.438C95.2561 30.1181 95.1163 29.6223 95.131 28.9505V24.2243C95.131 23.5365 95.2782 23.0327 95.5726 22.7128C95.8671 22.3929 96.3235 22.249 96.9418 22.281H98.1784V18.6823H95.131C94.5274 18.6823 94.2256 18.3784 94.2256 17.7706C94.2256 17.1628 94.5274 16.8589 95.131 16.8589H98.1784V13.0923L97.5601 13.1883C96.1762 13.3962 95.3592 13.5002 95.1089 13.5002C94.6378 13.5002 94.4023 13.1803 94.4023 12.5405C94.4023 11.9967 94.7114 11.6928 95.3297 11.6288C98.8335 11.261 100.909 10.9571 101.557 10.7172L102.264 10.5732C102.897 10.5732 103.213 10.9011 103.213 11.5569C103.213 12.0367 102.727 12.3646 101.756 12.5405L99.8788 12.8284V16.8589H102.551C103.184 16.8589 103.5 17.1628 103.5 17.7706C103.5 18.3784 103.184 18.6823 102.551 18.6823H99.8788V22.281H101.005C101.638 22.281 102.102 22.4409 102.396 22.7608C102.705 23.0647 102.845 23.5525 102.816 24.2243V28.9505C102.816 29.6383 102.669 30.1421 102.374 30.462C102.08 30.7819 101.623 30.9338 101.005 30.9178H96.9418ZM110.677 21.5852V16.2832H106.106V21.5852H110.677ZM109.816 29.2384C110.42 29.2384 110.707 28.9266 110.677 28.3028V23.4326H106.106V28.3028C106.106 28.9426 106.393 29.2544 106.967 29.2384H109.816ZM100.298 29.1665C100.902 29.1665 101.189 28.8546 101.16 28.2308V24.944C101.16 24.2882 100.873 23.9764 100.298 24.0083H97.6484C97.0596 24.0083 96.7725 24.3202 96.7872 24.944V28.2308C96.7872 28.8706 97.0743 29.1825 97.6484 29.1665H100.298Z" fill="#FC3060"/>
<path d="M132.429 16.3791V20.8415H134.438C135.101 20.8415 135.579 21.0014 135.874 21.3213C136.168 21.6252 136.301 22.121 136.271 22.8088V29.0465C136.271 29.7663 136.124 30.2861 135.83 30.6059C135.535 30.9258 135.071 31.0618 134.438 31.0138H129.624C128.962 31.0138 128.483 30.8619 128.189 30.558C127.895 30.2541 127.762 29.7583 127.791 29.0705V22.7848C127.791 22.0651 127.931 21.5532 128.211 21.2493C128.505 20.9295 128.977 20.7935 129.624 20.8415H130.706V11.0291C130.706 10.3413 130.993 9.99744 131.568 9.99744C132.142 9.99744 132.429 10.3413 132.429 11.0291V14.4598H135.896C136.632 14.4598 137 14.7877 137 15.4435C137 16.0672 136.632 16.3791 135.896 16.3791H132.429ZM117.766 26.3355C117.442 26.3515 117.192 26.2795 117.015 26.1196C116.838 25.9436 116.75 25.6957 116.75 25.3758C116.75 24.7201 117.199 24.3922 118.097 24.3922C119.201 24.3922 120.357 24.3522 121.564 24.2722V22.5929H118.34C117.692 22.5929 117.368 22.297 117.368 21.7052C117.368 21.1294 117.692 20.8415 118.34 20.8415H121.564V19.33H119.245C118.701 19.33 118.289 19.1781 118.009 18.8742C117.729 18.5543 117.589 18.0985 117.589 17.5067V12.6365C117.589 12.0287 117.729 11.5729 118.009 11.269C118.289 10.9491 118.701 10.7892 119.245 10.7892H125.561C126.106 10.7892 126.518 10.9491 126.798 11.269C127.077 11.5729 127.217 12.0287 127.217 12.6365V17.5067C127.217 18.0985 127.077 18.5543 126.798 18.8742C126.518 19.1781 126.106 19.33 125.561 19.33H123.044V20.8415H126.047C126.695 20.8415 127.019 21.1294 127.019 21.7052C127.019 22.297 126.695 22.5929 126.047 22.5929H123.044V24.1763L126.4 23.9844C126.68 23.9684 126.893 24.0403 127.041 24.2003C127.188 24.3602 127.261 24.5841 127.261 24.872C127.261 25.4318 126.835 25.7357 125.981 25.7837L117.766 26.3355ZM121.564 17.6027V12.5405H119.599C119.422 12.5405 119.297 12.5885 119.223 12.6845C119.15 12.7804 119.106 12.9244 119.091 13.1163V17.0269C119.091 17.2188 119.128 17.3628 119.201 17.4587C119.29 17.5387 119.422 17.5867 119.599 17.6027H121.564ZM123.044 17.6027H125.208C125.384 17.6027 125.51 17.5547 125.583 17.4587C125.657 17.3628 125.701 17.2188 125.716 17.0269V13.1163C125.716 12.9244 125.672 12.7884 125.583 12.7085C125.51 12.6125 125.384 12.5565 125.208 12.5405H123.044V17.6027ZM121.167 16.0672C121.181 16.2752 121.13 16.4431 121.012 16.5711C120.894 16.699 120.725 16.763 120.504 16.763C120.313 16.763 120.151 16.627 120.018 16.3551C119.886 16.0832 119.761 15.6594 119.643 15.0836L119.444 13.956C119.415 13.7641 119.459 13.6121 119.577 13.5002C119.709 13.3882 119.878 13.3322 120.085 13.3322C120.261 13.3322 120.416 13.4602 120.548 13.7161C120.681 13.972 120.813 14.3719 120.946 14.9157L121.122 15.7074L121.167 16.0672ZM124.589 13.3322C124.796 13.3322 124.958 13.3962 125.075 13.5242C125.193 13.6361 125.252 13.8041 125.252 14.028L125.186 14.4118L124.965 15.2995C124.715 16.3071 124.435 16.811 124.126 16.811C123.684 16.811 123.463 16.579 123.463 16.1152L123.905 14.1479C124.023 13.6041 124.251 13.3322 124.589 13.3322ZM130.221 22.5929C129.985 22.5929 129.801 22.6648 129.669 22.8088C129.551 22.9527 129.492 23.1447 129.492 23.3846V28.4707C129.492 28.7266 129.558 28.9266 129.691 29.0705C129.823 29.1985 130 29.2624 130.221 29.2624H133.842C134.078 29.2624 134.254 29.1905 134.372 29.0465C134.505 28.9026 134.571 28.7106 134.571 28.4707V23.3846C134.571 23.1287 134.505 22.9367 134.372 22.8088C134.24 22.6648 134.063 22.5929 133.842 22.5929H130.221ZM125.892 26.4794C126.246 26.4794 126.621 27.0073 127.019 28.0629C127.387 29.0225 127.571 29.6143 127.571 29.8382C127.571 30.0941 127.504 30.2861 127.372 30.414C127.239 30.542 127.048 30.6059 126.798 30.6059C126.606 30.6059 126.43 30.486 126.268 30.2461C126.106 30.0222 125.944 29.6623 125.782 29.1665L125.34 27.799C125.237 27.5111 125.186 27.3031 125.186 27.1752C125.186 26.9513 125.245 26.7833 125.362 26.6714C125.495 26.5434 125.672 26.4794 125.892 26.4794ZM124.921 30.2461C124.95 30.502 124.891 30.6939 124.744 30.8219C124.612 30.9498 124.413 31.0138 124.148 31.0138C123.794 31.0138 123.566 30.8619 123.463 30.558C123.316 30.1261 123.147 29.5663 122.955 28.8786L122.712 27.8949L122.624 27.4391C122.58 27.2152 122.631 27.0392 122.779 26.9113C122.926 26.7833 123.117 26.7194 123.353 26.7194C123.574 26.7194 123.78 26.8793 123.971 27.1992C124.163 27.5191 124.361 28.0229 124.567 28.7106L124.854 29.7663L124.921 30.2461ZM122.072 30.51C122.116 30.7819 122.057 30.9978 121.895 31.1577C121.748 31.3177 121.542 31.3977 121.277 31.3977C120.806 31.3977 120.534 31.0298 120.46 30.2941C120.416 29.8462 120.305 29.0705 120.129 27.9669C120.114 27.9029 120.107 27.823 120.107 27.727C120.107 27.4871 120.173 27.3111 120.305 27.1992C120.438 27.0712 120.607 27.0073 120.813 27.0073C121.049 27.0073 121.248 27.1992 121.41 27.583C121.571 27.9509 121.733 28.5667 121.895 29.4304L122.072 30.51ZM118.45 27.1032C118.701 27.1032 118.892 27.1832 119.025 27.3431C119.172 27.4871 119.231 27.687 119.201 27.9429C119.098 28.7266 118.958 29.4064 118.782 29.9822C118.634 30.478 118.48 30.8379 118.318 31.0618C118.171 31.2857 117.987 31.3977 117.766 31.3977C117.236 31.3977 116.971 31.1098 116.971 30.534L117.633 28.0629C117.722 27.743 117.825 27.5031 117.943 27.3431C118.06 27.1832 118.23 27.1032 118.45 27.1032Z" fill="#FC3060"/>
</svg>
