<svg width="90" height="90" viewBox="0 0 90 90" fill="none" xmlns="http://www.w3.org/2000/svg">
<path d="M89.385 63.7885H0L12.4426 19H77.17L89.385 63.7885Z" fill="#FFCD49"/>
<path d="M55.5024 48.948C54.6024 49.9551 53.0709 50.5622 51.8298 49.9979C50.3201 49.3194 49.9645 47.4052 49.6524 45.7911C48.934 41.6214 47.4379 37.6186 45.2395 33.9847C43.6717 31.4063 41.0153 28.7494 38.054 29.485C35.5572 30.0993 34.3306 32.7848 32.5742 34.6418C31.767 35.5361 30.7607 36.2347 29.6339 36.6832C28.5071 37.1317 27.2902 37.3179 26.0782 37.2273C24.8693 37.1004 23.7343 36.5934 22.8413 35.7816C21.9483 34.9698 21.3451 33.8963 21.1209 32.7205C20.9032 31.0706 21.4693 29.0779 20.2282 27.9494C18.704 26.5709 16.258 27.9851 14.2113 27.678C10.4951 27.1209 11.2427 18.5429 12.6145 18.5429H77.3346C78.1113 21.3427 80.2379 25.9067 75.658 26.4995C73.9814 26.7138 72.029 26.5424 70.8967 27.8066C70.4395 28.3351 70.229 29.0351 69.8225 29.5993C69.3645 30.188 68.7096 30.5983 67.9738 30.7578C67.238 30.9172 66.4686 30.8155 65.8016 30.4707C64.6838 29.8493 63.5008 28.4994 62.4266 29.1922C62.0255 29.5301 61.7561 29.9947 61.6645 30.5064L57.179 45.3125C56.8875 46.6273 56.3161 47.8664 55.5024 48.948Z" fill="white"/>
<path d="M52.8678 50.9334C52.4066 50.9365 51.9505 50.8389 51.5323 50.6477C49.6379 49.7978 49.2532 47.548 48.9702 45.9052C48.2579 41.8211 46.7813 37.9025 44.6153 34.3488C43.8895 33.1775 41.3347 29.4063 38.2355 30.1777C36.704 30.5562 35.6807 31.899 34.6065 33.3203C34.1347 33.9274 33.6557 34.5631 33.1548 35.1274C32.274 36.1089 31.1719 36.8739 29.9368 37.3613C28.7017 37.8487 27.3679 38.045 26.042 37.9343C24.6729 37.7903 23.3882 37.2134 22.3805 36.2901C21.3729 35.3668 20.6966 34.1468 20.4532 32.8132C20.3954 32.2628 20.3736 31.7094 20.3879 31.1562C20.3879 30.0206 20.3879 29.0135 19.7855 28.4778C19.1831 27.9421 18.0653 28.035 16.8823 28.2278C15.9987 28.4195 15.0899 28.4725 14.1895 28.385C11.5621 27.9921 10.6403 24.5709 10.8871 21.3569C10.9887 20.0427 11.3589 17.8285 12.7016 17.8285H77.4145C77.5784 17.823 77.7393 17.8723 77.8711 17.9682C78.0029 18.0642 78.0978 18.2013 78.1403 18.3571C78.2347 18.7071 78.3581 19.0713 78.4815 19.4927C79.1129 21.4783 79.8895 23.9567 78.8008 25.628C78.4627 26.0914 78.0229 26.4739 77.514 26.7471C77.0051 27.0204 76.4403 27.1774 75.8613 27.2065C75.4911 27.2565 75.1355 27.285 74.7145 27.3136C73.4371 27.4136 72.225 27.5065 71.5573 28.2707C71.3557 28.5316 71.1853 28.8144 71.0492 29.1135C70.8962 29.4263 70.7191 29.7272 70.5194 30.0134C69.9609 30.7493 69.1523 31.2631 68.2409 31.4611C67.3295 31.6591 66.3762 31.5281 65.5549 31.0919C65.2299 30.9006 64.915 30.6932 64.6113 30.4705C63.8274 29.9134 63.2831 29.5635 62.9347 29.792C62.6919 30.0452 62.5304 30.3632 62.4702 30.7062L57.9774 45.5124C57.6555 46.9291 57.0239 48.2598 56.1266 49.4121C55.7236 49.8779 55.2247 50.2544 54.663 50.5166C54.1012 50.7789 53.4894 50.9209 52.8678 50.9334ZM39.0774 28.6492C41.4798 28.6492 43.9621 30.4277 45.8928 33.6489C48.143 37.3555 49.6738 41.4412 50.4073 45.6981C50.7049 47.4194 51.0387 48.8836 52.1419 49.3835C53.0928 49.8049 54.3194 49.2478 54.9581 48.505C55.7102 47.4999 56.2416 46.3519 56.5186 45.1338L60.9678 30.2991C61.102 29.6256 61.4782 29.0222 62.0274 28.5992C63.2468 27.8136 64.4661 28.6778 65.3516 29.3135C65.6419 29.5135 65.9105 29.7063 66.1645 29.8492C66.675 30.1042 67.2596 30.1767 67.8184 30.0542C68.3772 29.9318 68.8753 29.6219 69.2274 29.1778C69.3847 28.951 69.523 28.7122 69.6411 28.4635C69.8347 28.0593 70.0785 27.6802 70.367 27.335C71.4266 26.1208 73.067 25.9923 74.5113 25.9066C74.8742 25.9066 75.2371 25.8494 75.5855 25.8066C75.9533 25.7999 76.3149 25.7125 76.644 25.5506C76.973 25.3887 77.261 25.1565 77.4871 24.8709C78.2129 23.7567 77.5452 21.6354 77.0081 19.9284C76.9428 19.707 76.8702 19.4856 76.8049 19.2713H12.7887C12.3605 19.857 11.8887 22.7425 12.6 24.9852C12.9702 26.178 13.5581 26.8422 14.3419 26.9565C15.0929 27.02 15.8494 26.9694 16.5847 26.8065C17.971 26.5779 19.546 26.328 20.7436 27.4136C21.9411 28.4992 21.825 29.8706 21.8105 31.1562C21.7984 31.6329 21.8154 32.1099 21.8613 32.5847C22.0711 33.6047 22.6068 34.5321 23.3903 35.2311C24.1739 35.9302 25.164 36.3643 26.2161 36.4701C27.314 36.5455 28.4147 36.3723 29.4339 35.9637C30.453 35.5551 31.3634 34.922 32.0952 34.1131C32.5742 33.5989 33.017 33.0275 33.4815 32.4204C34.6718 30.8562 35.9057 29.2492 37.9307 28.7492C38.3046 28.6684 38.6876 28.6348 39.0702 28.6492H39.0774Z" fill="black"/>
<path d="M89.2742 63.9469H0.725806C0.533311 63.9469 0.348698 63.8717 0.212583 63.7377C0.0764681 63.6038 0 63.4221 0 63.2327C0 63.0432 0.0764681 62.8616 0.212583 62.7276C0.348698 62.5937 0.533311 62.5184 0.725806 62.5184H89.2742C89.4667 62.5184 89.6513 62.5937 89.7874 62.7276C89.9235 62.8616 90 63.0432 90 63.2327C90 63.4221 89.9235 63.6038 89.7874 63.7377C89.6513 63.8717 89.4667 63.9469 89.2742 63.9469Z" fill="black"/>
<path d="M45 18.2715C49.3653 18.2715 52.904 14.7891 52.904 10.4934C52.904 6.19775 49.3653 2.71539 45 2.71539C40.6347 2.71539 37.0959 6.19775 37.0959 10.4934C37.0959 14.7891 40.6347 18.2715 45 18.2715Z" fill="#FC3060"/>
<path d="M45.0001 18.9856C43.2933 18.9856 41.6248 18.4876 40.2056 17.5544C38.7864 16.6213 37.6803 15.295 37.0271 13.7432C36.374 12.1914 36.2031 10.4839 36.5361 8.83659C36.869 7.18925 37.691 5.67607 38.8979 4.4884C40.1048 3.30074 41.6425 2.49193 43.3165 2.16425C44.9905 1.83657 46.7257 2.00475 48.3026 2.64751C49.8795 3.29027 51.2273 4.37874 52.1755 5.77529C53.1238 7.17184 53.6299 8.81374 53.6299 10.4934C53.628 12.7451 52.7182 14.904 51.1002 16.4962C49.4822 18.0884 47.2883 18.9837 45.0001 18.9856ZM45.0001 3.43669C43.5801 3.43669 42.1919 3.85115 41.0113 4.62765C39.8307 5.40415 38.9107 6.50778 38.3676 7.79894C37.8245 9.0901 37.6827 10.5108 37.9603 11.8812C38.2379 13.2516 38.9223 14.5103 39.9269 15.4979C40.9315 16.4855 42.2112 17.1577 43.6041 17.4294C44.997 17.7012 46.4406 17.5603 47.7521 17.0245C49.0636 16.4888 50.1842 15.5823 50.9721 14.4197C51.76 13.2572 52.1797 11.8907 52.1783 10.4934C52.1745 8.62173 51.4167 6.82795 50.0712 5.50518C48.7256 4.18242 46.902 3.43857 45.0001 3.43669Z" fill="black"/>
<path d="M46.0742 6.0937C45.8817 6.0937 45.6971 6.01845 45.561 5.8845C45.4249 5.75055 45.3484 5.56889 45.3484 5.37946C45.3907 3.94025 45.9664 2.56593 46.9669 1.51543C47.5375 0.997147 48.2078 0.596734 48.9384 0.337878C49.6689 0.0790224 50.4448 -0.033012 51.2202 0.00839774C51.4127 0.00839774 51.5973 0.083647 51.7334 0.217592C51.8695 0.351538 51.946 0.533207 51.946 0.722635C51.946 0.912062 51.8695 1.09373 51.7334 1.22767C51.5973 1.36162 51.4127 1.43687 51.2202 1.43687H51.1621C46.9524 1.43687 46.8073 5.00806 46.8073 5.3866C46.8063 5.4804 46.7866 5.57309 46.7492 5.65939C46.7119 5.74569 46.6576 5.8239 46.5896 5.88956C46.5215 5.95522 46.4409 6.00704 46.3525 6.04207C46.2641 6.07709 46.1695 6.09464 46.0742 6.0937Z" fill="black"/>
<path d="M48.15 7.38651C48.0373 7.38651 47.9262 7.36069 47.8254 7.31111C47.7246 7.26152 47.637 7.18952 47.5694 7.10082C46.8435 6.10088 44.775 6.02232 44.0565 6.07946C43.9611 6.08696 43.8653 6.07591 43.7743 6.04695C43.6833 6.01799 43.599 5.97168 43.5262 5.91066C43.4534 5.84964 43.3936 5.77512 43.3501 5.69133C43.3065 5.60755 43.2802 5.51615 43.2726 5.42235C43.265 5.32856 43.2762 5.23421 43.3056 5.14468C43.335 5.05515 43.3821 4.97221 43.4441 4.90058C43.5061 4.82895 43.5819 4.77004 43.667 4.72722C43.7521 4.68439 43.845 4.65849 43.9403 4.65098C44.0782 4.65098 47.3516 4.40814 48.7379 6.24373C48.8171 6.35034 48.8647 6.47646 48.8754 6.60809C48.8861 6.73971 48.8595 6.87168 48.7986 6.98934C48.7377 7.107 48.6448 7.20574 48.5303 7.27459C48.4158 7.34344 48.2842 7.37971 48.15 7.37937V7.38651Z" fill="black"/>
<path d="M7.81691 58.3188C7.75666 58.3262 7.6957 58.3262 7.63546 58.3188C7.54292 58.2955 7.45595 58.2544 7.37957 58.198C7.30319 58.1415 7.23888 58.0708 7.19033 57.9898C7.14178 57.9089 7.10995 57.8193 7.09666 57.7262C7.08337 57.6331 7.08888 57.5384 7.11288 57.4474L11.8088 39.3486C11.857 39.1649 11.9773 39.0075 12.1434 38.911C12.3094 38.8146 12.5076 38.787 12.6943 38.8344C12.881 38.8817 13.041 39.0002 13.139 39.1636C13.237 39.327 13.265 39.522 13.2169 39.7057L8.51368 57.8045C8.4697 57.9529 8.37802 58.0832 8.25239 58.1759C8.12675 58.2686 7.97395 58.3188 7.81691 58.3188Z" fill="black"/>
<path d="M19.3004 87.3079C19.8893 87.7557 20.1837 88.1955 20.1837 88.6274C20.1837 89.3311 19.8745 89.683 19.2562 89.683C18.5937 89.683 17.5853 88.6514 16.2309 86.5881C14.6998 88.6994 13.5809 89.755 12.8743 89.755C12.2707 89.755 11.9689 89.4271 11.9689 88.7713C11.9689 88.4195 12.1455 88.1236 12.4989 87.8836C13.5147 87.1799 14.4716 86.1803 15.3696 84.8847C14.6335 82.9494 14.1624 80.1105 13.9563 76.3678C13.4263 77.4874 12.9994 78.0472 12.6755 78.0472C12.1897 78.0472 11.9468 77.7833 11.9468 77.2555C11.9468 77.1276 12.0351 76.8956 12.2118 76.5598C12.3443 76.3199 12.5283 75.96 12.7639 75.4802C12.6166 75.6561 12.3737 75.7441 12.0351 75.7441H5.82986C5.22627 75.7441 4.92447 75.4722 4.92447 74.9284C4.92447 74.3526 5.22627 74.0647 5.82986 74.0647H8.21481V72.1934H6.38193C5.79306 72.1934 5.49862 71.9215 5.49862 71.3777C5.49862 70.8498 5.79306 70.5859 6.38193 70.5859H8.21481V68.8586C8.21481 68.2508 8.48716 67.9469 9.03187 67.9469C9.57658 67.9469 9.84893 68.2508 9.84893 68.8586V70.5859H11.7481C12.3369 70.5859 12.6314 70.8498 12.6314 71.3777C12.6314 71.9215 12.3369 72.1934 11.7481 72.1934H9.84893V74.0647H12.0351C12.6387 74.0647 12.9405 74.3526 12.9405 74.9284C12.9405 75.0243 12.9332 75.0883 12.9184 75.1203C13.7281 73.3609 14.2581 71.5376 14.5084 69.6503C14.5231 69.5383 14.5452 69.3544 14.5747 69.0985C14.6188 68.8426 14.6556 68.6506 14.6851 68.5227C14.7145 68.3947 14.7513 68.3068 14.7955 68.2588C14.9427 68.0509 15.1783 67.9469 15.5021 67.9469C16.091 67.9469 16.3854 68.2268 16.3854 68.7866C16.3854 69.4583 16.0174 70.8259 15.2813 72.8891H19.3887C19.9187 72.8891 20.1837 73.193 20.1837 73.8008C20.1837 74.4085 19.9187 74.7124 19.3887 74.7124H19.1458C19.0722 78.9989 18.4171 82.4216 17.1804 84.9807C17.7693 85.8764 18.476 86.6521 19.3004 87.3079ZM4.94655 67.9709C5.5207 67.9709 5.80778 68.2748 5.80778 68.8826C5.80778 69.2184 5.3146 70.7619 4.32823 73.5129V88.7473C4.32823 89.4991 4.04115 89.8749 3.467 89.8749C2.89285 89.8749 2.60577 89.4991 2.60577 88.7473V77.6394C1.7519 79.5427 1.14095 80.4943 0.772898 80.4943C0.257633 80.4943 0 80.1745 0 79.5347C0 79.2468 0.15458 78.8309 0.463739 78.2871C1.86232 75.856 3.00326 72.8411 3.88657 69.2424C4.1074 68.3947 4.46073 67.9709 4.94655 67.9709ZM15.193 74.7124C15.3402 78.5031 15.7009 81.2701 16.275 83.0134C17.07 80.8542 17.4896 78.0872 17.5338 74.7124H15.193ZM12.4768 83.9731C12.3296 86.2602 12.0646 87.7637 11.6818 88.4834C11.2843 89.2192 10.4599 89.587 9.20853 89.587C8.5166 89.587 8.17064 89.2751 8.17064 88.6514C8.17064 88.0116 8.55341 87.6917 9.31895 87.6917C9.68699 87.6917 9.96671 87.6117 10.1581 87.4518C10.3495 87.2759 10.4746 87.012 10.5335 86.6601C10.7543 85.2686 10.8647 84.3169 10.8647 83.8051C10.8647 83.4213 10.6881 83.2293 10.3348 83.2293H8.3473C8.15592 84.6688 7.72162 86.1243 7.04442 87.5958C6.52915 88.7473 6.00652 89.3231 5.47654 89.3231C4.94655 89.3231 4.68156 89.0112 4.68156 88.3875C4.68156 88.1635 4.79197 87.9076 5.0128 87.6197C6.2936 86.0363 6.97817 83.5092 7.0665 80.0385V79.9905H5.85194C5.20418 79.9905 4.8803 79.7106 4.8803 79.1508C4.8803 78.575 5.20418 78.2871 5.85194 78.2871H8.19272V76.8717C8.19272 76.2959 8.46508 76.008 9.00979 76.008C9.56922 76.008 9.84893 76.2959 9.84893 76.8717V78.2871H12.1235C12.7418 78.2871 13.0509 78.575 13.0509 79.1508C13.0509 79.7106 12.7418 79.9905 12.1235 79.9905H8.63438L8.52397 81.6219H10.8206C11.9542 81.6219 12.521 82.1737 12.521 83.2773L12.4768 83.9731Z" fill="#FC3060"/>
<path d="M41.9794 76.6797C42.5536 76.9356 42.8407 77.2875 42.8407 77.7353C42.8407 78.3911 42.5683 78.719 42.0236 78.719C41.523 78.719 40.6913 78.1832 39.5282 77.1116V78.3111C39.5282 79.3508 39.035 79.8706 38.0487 79.8706H33.5217C32.5353 79.8706 32.0422 79.3348 32.0422 78.2631V77.1595C31.1147 78.1352 30.5037 78.623 30.2093 78.623C29.7824 78.623 29.5247 78.4391 29.4364 78.0712C29.245 80.1505 28.8254 82.0458 28.1777 83.7572C29.2376 84.8607 29.7676 85.6365 29.7676 86.0843C29.7676 86.6921 29.4732 86.996 28.8843 86.996C28.6046 86.996 28.2954 86.7641 27.9568 86.3002L27.3385 85.4845C26.9116 86.2203 26.2785 87.028 25.4394 87.9076C24.6591 88.7393 24.0408 89.1552 23.5844 89.1552C23.0692 89.1552 22.8115 88.8193 22.8115 88.1476C22.8115 87.7637 23.0471 87.4118 23.5182 87.0919C24.5929 86.3722 25.4762 85.3966 26.1681 84.165L25.0861 83.2054C24.5414 82.7255 24.1365 82.3257 23.8715 82.0058C23.6212 81.6699 23.4961 81.39 23.4961 81.1661L24.4015 74.8564H23.474C22.8999 74.8564 22.6128 74.5445 22.6128 73.9207C22.6128 73.297 22.9514 72.9851 23.6286 72.9851H24.6444C24.8211 71.6256 24.9241 70.546 24.9536 69.7462C24.9977 68.6267 25.329 68.0669 25.9473 68.0669C26.5067 68.0669 26.7865 68.3228 26.7865 68.8346L26.3006 72.9131H28.0231C28.5531 72.9131 28.9432 73.065 29.1935 73.3689C29.4585 73.6728 29.591 74.1446 29.591 74.7844C29.591 75.7441 29.5615 76.5838 29.5026 77.3035C29.6204 77.0956 29.8044 76.9036 30.0547 76.7277C31.1147 75.912 32.0422 74.8804 32.8371 73.6328H30.5184C29.9296 73.6328 29.6351 73.3449 29.6351 72.7691C29.6351 72.1934 29.9296 71.9055 30.5184 71.9055H33.8309L34.4271 70.49L30.673 70.7779C30.4228 70.7939 30.224 70.7219 30.0768 70.5619C29.9443 70.402 29.878 70.1781 29.878 69.8902C29.878 69.3304 30.3933 69.0345 31.4238 69.0025C34.5449 68.9066 37.3568 68.5787 39.8595 68.0189L40.1907 67.9949C40.4704 67.9789 40.6839 68.0509 40.8311 68.2108C40.9931 68.3707 41.074 68.6107 41.074 68.9305C41.074 69.4104 40.7354 69.7143 40.0582 69.8422C38.7333 70.0981 37.4819 70.2661 36.3041 70.346L35.6196 71.9055H41.604C42.2076 71.9055 42.5094 72.1934 42.5094 72.7691C42.5094 73.3449 42.2076 73.6328 41.604 73.6328H38.6228C39.462 75.0563 40.5808 76.0719 41.9794 76.6797ZM34.7363 73.6328C34.4713 74.0967 34.0959 74.6405 33.61 75.2642H37.8941C37.4083 74.6085 37.0697 74.0647 36.8783 73.6328H34.7363ZM27.9789 75.4082C27.9936 75.1843 27.9495 75.0163 27.8464 74.9044C27.7581 74.7924 27.6182 74.7444 27.4269 74.7604H26.0577L25.4615 78.743C25.4026 79.1588 25.3216 79.5987 25.2186 80.0625C25.1597 80.4144 25.1302 80.5983 25.1302 80.6143C25.1302 80.9982 25.432 81.398 26.0356 81.8139L26.8969 82.5096C27.1766 81.6939 27.3974 80.7582 27.5593 79.7026C27.736 78.631 27.8759 77.1995 27.9789 75.4082ZM37.9604 77.1116C37.9604 76.8557 37.8499 76.7277 37.6291 76.7277H33.8971C33.6763 76.7277 33.5659 76.8557 33.5659 77.1116V77.9033C33.5659 78.2232 33.7278 78.3911 34.0517 78.4071H37.4966C37.7763 78.4071 37.9309 78.2392 37.9604 77.9033V77.1116ZM40.3011 80.7582C41.4936 80.7582 42.0898 81.398 42.0898 82.6775V87.5958C42.0898 88.3955 41.9205 88.9793 41.5819 89.3471C41.2433 89.715 40.7133 89.8829 39.992 89.8509H39.0424C38.4535 89.8509 38.1591 89.5311 38.1591 88.8913C38.1591 88.2515 38.4535 87.9316 39.0424 87.9316H39.727C40.1097 87.9316 40.3159 87.6997 40.3453 87.2359V83.1814C40.3453 82.6536 40.0877 82.3737 39.5724 82.3417H32.263C31.7772 82.3417 31.5195 82.6216 31.4901 83.1814V88.9393C31.4901 89.611 31.2104 89.9469 30.6509 89.9469C30.1062 89.9469 29.8339 89.611 29.8339 88.9393V82.6536C29.8339 81.39 30.408 80.7582 31.5563 80.7582H40.3011ZM38.932 86.5641C38.932 87.6517 38.4167 88.1955 37.3862 88.1955H34.2946C33.7941 88.1955 33.4187 88.0516 33.1684 87.7637C32.9181 87.4918 32.793 87.0919 32.793 86.5641V85.0287C32.793 83.9251 33.2935 83.3733 34.2946 83.3733H37.3862C38.4167 83.3733 38.932 83.9251 38.932 85.0287V86.5641ZM37.3862 85.3166C37.3862 84.9967 37.239 84.8368 36.9445 84.8368H34.7583C34.4492 84.8368 34.2946 84.9967 34.2946 85.3166V86.2522C34.2946 86.4122 34.3314 86.5321 34.405 86.6121C34.4786 86.6761 34.5964 86.7161 34.7583 86.7321H36.9445C37.239 86.7321 37.3862 86.5721 37.3862 86.2522V85.3166Z" fill="#FC3060"/>
<path d="M57.2166 89.0592C56.5541 89.0592 56.0756 88.8993 55.7812 88.5794C55.4867 88.2755 55.3542 87.7717 55.3837 87.0679V74.2566H53.9925C53.4478 74.2566 53.1754 73.9527 53.1754 73.3449C53.1754 72.7052 53.4478 72.3853 53.9925 72.3853H55.3837V69.0745C55.3837 68.4187 55.6708 68.0908 56.2449 68.0908C56.8191 68.0908 57.1061 68.4187 57.1061 69.0745V72.3853H61.6773V69.0985C61.6773 68.4267 61.9717 68.0908 62.5606 68.0908C63.1642 68.0908 63.466 68.4267 63.466 69.0985V72.3853H64.5922C65.1369 72.3853 65.4093 72.7052 65.4093 73.3449C65.4093 73.9527 65.1369 74.2566 64.5922 74.2566H63.466V87.0679C63.466 87.8037 63.3188 88.3315 63.0243 88.6514C62.7299 88.9872 62.2662 89.1232 61.6331 89.0592H57.2166ZM47.9418 88.8913C47.3087 88.8913 46.845 88.7313 46.5506 88.4115C46.2561 88.0916 46.1163 87.5958 46.131 86.924V82.1977C46.131 81.51 46.2782 81.0062 46.5726 80.6863C46.8671 80.3664 47.3235 80.2224 47.9418 80.2544H49.1784V76.6557H46.131C45.5274 76.6557 45.2256 76.3518 45.2256 75.7441C45.2256 75.1363 45.5274 74.8324 46.131 74.8324H49.1784V71.0658L48.5601 71.1617C47.1762 71.3697 46.3592 71.4736 46.1089 71.4736C45.6378 71.4736 45.4023 71.1537 45.4023 70.514C45.4023 69.9702 45.7114 69.6663 46.3297 69.6023C49.8335 69.2344 51.9093 68.9305 52.5571 68.6906L53.2637 68.5467C53.8968 68.5467 54.2133 68.8746 54.2133 69.5303C54.2133 70.0101 53.7275 70.338 52.7558 70.514L50.8788 70.8019V74.8324H53.5508C54.1839 74.8324 54.5004 75.1363 54.5004 75.7441C54.5004 76.3518 54.1839 76.6557 53.5508 76.6557H50.8788V80.2544H52.005C52.6381 80.2544 53.1018 80.4144 53.3962 80.7342C53.7054 81.0381 53.8453 81.526 53.8158 82.1977V86.924C53.8158 87.6117 53.6686 88.1156 53.3742 88.4354C53.0797 88.7553 52.6233 88.9073 52.005 88.8913H47.9418ZM61.6773 79.5587V74.2566H57.1061V79.5587H61.6773ZM60.8161 87.2119C61.4197 87.2119 61.7067 86.9 61.6773 86.2762V81.406H57.1061V86.2762C57.1061 86.916 57.3932 87.2279 57.9674 87.2119H60.8161ZM51.2984 87.1399C51.902 87.1399 52.189 86.828 52.1596 86.2043V82.9175C52.1596 82.2617 51.8725 81.9498 51.2984 81.9818H48.6484C48.0596 81.9818 47.7725 82.2937 47.7872 82.9175V86.2043C47.7872 86.844 48.0743 87.1559 48.6484 87.1399H51.2984Z" fill="#FC3060"/>
<path d="M83.4289 74.3526V78.8149H85.4384C86.1009 78.8149 86.5793 78.9749 86.8738 79.2948C87.1682 79.5987 87.3007 80.0945 87.2713 80.7822V87.02C87.2713 87.7397 87.1241 88.2595 86.8296 88.5794C86.5352 88.8993 86.0714 89.0352 85.4384 88.9872H80.6243C79.9619 88.9872 79.4834 88.8353 79.189 88.5314C78.8945 88.2275 78.762 87.7317 78.7915 87.044V80.7582C78.7915 80.0385 78.9313 79.5267 79.211 79.2228C79.5055 78.9029 79.9766 78.767 80.6243 78.8149H81.7064V69.0025C81.7064 68.3148 81.9935 67.9709 82.5676 67.9709C83.1418 67.9709 83.4289 68.3148 83.4289 69.0025V72.4333H86.8959C87.632 72.4333 88 72.7611 88 73.4169C88 74.0407 87.632 74.3526 86.8959 74.3526H83.4289ZM68.7659 84.3089C68.442 84.3249 68.1917 84.253 68.0151 84.093C67.8384 83.9171 67.7501 83.6692 67.7501 83.3493C67.7501 82.6935 68.1991 82.3657 69.0971 82.3657C70.2013 82.3657 71.3569 82.3257 72.5641 82.2457V80.5663H69.34C68.6923 80.5663 68.3684 80.2704 68.3684 79.6786C68.3684 79.1028 68.6923 78.8149 69.34 78.8149H72.5641V77.3035H70.2454C69.7007 77.3035 69.2885 77.1516 69.0088 76.8477C68.7291 76.5278 68.5892 76.0719 68.5892 75.4802V70.6099C68.5892 70.0022 68.7291 69.5463 69.0088 69.2424C69.2885 68.9225 69.7007 68.7626 70.2454 68.7626H76.5611C77.1058 68.7626 77.518 68.9225 77.7977 69.2424C78.0775 69.5463 78.2173 70.0022 78.2173 70.6099V75.4802C78.2173 76.0719 78.0775 76.5278 77.7977 76.8477C77.518 77.1516 77.1058 77.3035 76.5611 77.3035H74.0437V78.8149H77.0469C77.6947 78.8149 78.0186 79.1028 78.0186 79.6786C78.0186 80.2704 77.6947 80.5663 77.0469 80.5663H74.0437V82.1497L77.4003 81.9578C77.68 81.9418 77.8934 82.0138 78.0407 82.1737C78.1879 82.3337 78.2615 82.5576 78.2615 82.8455C78.2615 83.4053 77.8345 83.7092 76.9807 83.7572L68.7659 84.3089ZM72.5641 75.5761V70.514H70.5987C70.4221 70.514 70.2969 70.5619 70.2233 70.6579C70.1497 70.7539 70.1056 70.8978 70.0908 71.0898V75.0003C70.0908 75.1923 70.1276 75.3362 70.2013 75.4322C70.2896 75.5121 70.4221 75.5601 70.5987 75.5761H72.5641ZM74.0437 75.5761H76.2078C76.3844 75.5761 76.5096 75.5281 76.5832 75.4322C76.6568 75.3362 76.701 75.1923 76.7157 75.0003V71.0898C76.7157 70.8978 76.6715 70.7619 76.5832 70.6819C76.5096 70.5859 76.3844 70.53 76.2078 70.514H74.0437V75.5761ZM72.1666 74.0407C72.1813 74.2486 72.1298 74.4165 72.012 74.5445C71.8943 74.6725 71.725 74.7364 71.5041 74.7364C71.3128 74.7364 71.1508 74.6005 71.0183 74.3286C70.8858 74.0567 70.7607 73.6328 70.6429 73.057L70.4442 71.9295C70.4147 71.7375 70.4589 71.5856 70.5767 71.4736C70.7092 71.3617 70.8785 71.3057 71.0846 71.3057C71.2612 71.3057 71.4158 71.4336 71.5483 71.6895C71.6808 71.9454 71.8133 72.3453 71.9458 72.8891L72.1225 73.6808L72.1666 74.0407ZM75.5895 71.3057C75.7956 71.3057 75.9575 71.3697 76.0753 71.4976C76.1931 71.6096 76.2519 71.7775 76.2519 72.0014L76.1857 72.3853L75.9649 73.273C75.7146 74.2806 75.4349 74.7844 75.1257 74.7844C74.6841 74.7844 74.4632 74.5525 74.4632 74.0887L74.9049 72.1214C75.0227 71.5776 75.2509 71.3057 75.5895 71.3057ZM81.2206 80.5663C80.985 80.5663 80.801 80.6383 80.6685 80.7822C80.5507 80.9262 80.4918 81.1181 80.4918 81.358V86.4442C80.4918 86.7001 80.5581 86.9 80.6906 87.044C80.8231 87.1719 80.9998 87.2359 81.2206 87.2359H84.8422C85.0777 87.2359 85.2544 87.1639 85.3721 87.02C85.5046 86.876 85.5709 86.6841 85.5709 86.4442V81.358C85.5709 81.1021 85.5046 80.9102 85.3721 80.7822C85.2397 80.6383 85.063 80.5663 84.8422 80.5663H81.2206ZM76.8923 84.4529C77.2457 84.4529 77.6211 84.9807 78.0186 86.0363C78.3866 86.996 78.5706 87.5878 78.5706 87.8117C78.5706 88.0676 78.5044 88.2595 78.3719 88.3875C78.2394 88.5154 78.048 88.5794 77.7977 88.5794C77.6064 88.5794 77.4297 88.4594 77.2678 88.2195C77.1058 87.9956 76.9439 87.6357 76.7819 87.1399L76.3403 85.7724C76.2372 85.4845 76.1857 85.2766 76.1857 85.1486C76.1857 84.9247 76.2446 84.7568 76.3624 84.6448C76.4949 84.5169 76.6715 84.4529 76.8923 84.4529ZM75.9207 88.2195C75.9501 88.4754 75.8913 88.6674 75.744 88.7953C75.6115 88.9233 75.4128 88.9872 75.1478 88.9872C74.7945 88.9872 74.5663 88.8353 74.4632 88.5314C74.316 88.0996 74.1467 87.5398 73.9553 86.852L73.7124 85.8684L73.6241 85.4125C73.5799 85.1886 73.6315 85.0127 73.7787 84.8847C73.9259 84.7568 74.1173 84.6928 74.3528 84.6928C74.5737 84.6928 74.7798 84.8528 74.9711 85.1726C75.1625 85.4925 75.3613 85.9963 75.5674 86.6841L75.8545 87.7397L75.9207 88.2195ZM73.072 88.4834C73.1162 88.7553 73.0573 88.9713 72.8954 89.1312C72.7481 89.2911 72.542 89.3711 72.277 89.3711C71.8059 89.3711 71.5336 89.0032 71.46 88.2675C71.4158 87.8197 71.3054 87.044 71.1287 85.9404C71.114 85.8764 71.1067 85.7964 71.1067 85.7004C71.1067 85.4605 71.1729 85.2846 71.3054 85.1726C71.4379 85.0447 71.6072 84.9807 71.8133 84.9807C72.0489 84.9807 72.2476 85.1726 72.4095 85.5565C72.5715 85.9244 72.7334 86.5401 72.8954 87.4038L73.072 88.4834ZM69.4504 85.0767C69.7007 85.0767 69.8921 85.1566 70.0246 85.3166C70.1718 85.4605 70.2307 85.6605 70.2013 85.9164C70.0982 86.7001 69.9583 87.3798 69.7817 87.9556C69.6345 88.4514 69.4799 88.8113 69.3179 89.0352C69.1707 89.2591 68.9867 89.3711 68.7659 89.3711C68.2359 89.3711 67.9709 89.0832 67.9709 88.5074L68.6334 86.0363C68.7217 85.7164 68.8248 85.4765 68.9425 85.3166C69.0603 85.1566 69.2296 85.0767 69.4504 85.0767Z" fill="#FC3060"/>
</svg>
